<?xml version="1.0" encoding="UTF-8" standalone="no"?>
<!DOCTYPE svg PUBLIC "-//W3C//DTD SVG 1.1//EN"
 "http://www.w3.org/Graphics/SVG/1.1/DTD/svg11.dtd">
<!-- Generated by graphviz version 2.38.0 (20140413.2041)
 -->
<!-- Title: %3 Pages: 1 -->
<svg width="1076pt" height="1026pt"
 viewBox="0.00 0.00 1076.00 1025.58" xmlns="http://www.w3.org/2000/svg" xmlns:xlink="http://www.w3.org/1999/xlink">
<g id="graph0" class="graph" transform="scale(1 1) rotate(0) translate(4 1021.58)">
<title>%3</title>
<polygon fill="white" stroke="none" points="-4,4 -4,-1021.58 1072,-1021.58 1072,4 -4,4"/>
<!-- belly display -->
<g id="node1" class="node"><title>belly display</title>
<g id="a_node1"><a xlink:title="what should &#013; be here">
<ellipse fill="#ecfff2" stroke="black" cx="451" cy="-1001.32" rx="63.7795" ry="16.0303"/>
<text text-anchor="middle" x="451" y="-997.617" font-family="Times New Roman,serif" font-size="14.00">belly display</text>
</a>
</g>
</g>
<!-- shell -->
<g id="node2" class="node"><title>shell</title>
<g id="a_node2"><a xlink:title="what should &#013; be here">
<ellipse fill="#00ff55" stroke="black" cx="451" cy="-883.554" rx="108" ry="50.5"/>
<text text-anchor="middle" x="451" y="-879.854" font-family="Times New Roman,serif" font-size="14.00">shell</text>
</a>
</g>
</g>
<!-- belly display&#45;&gt;shell -->
<g id="edge1" class="edge"><title>belly display&#45;&gt;shell</title>
<path fill="none" stroke="black" stroke-width="3" d="M439.566,-985.217C436.11,-979.783 432.766,-973.417 431,-967.054 428.894,-959.465 428.539,-951.45 429.295,-943.517"/>
<polygon fill="black" stroke="black" stroke-width="3" points="432.768,-943.961 430.8,-933.55 425.846,-942.916 432.768,-943.961"/>
<text text-anchor="middle" x="440.5" y="-955.854" font-family="Times New Roman,serif" font-size="14.00">1.0</text>
</g>
<!-- shell&#45;&gt;belly display -->
<g id="edge2" class="edge"><title>shell&#45;&gt;belly display</title>
<path fill="none" stroke="black" stroke-width="0.03" d="M451,-934.195C451,-948.122 451,-962.698 451,-974.61"/>
<polygon fill="black" stroke="black" stroke-width="0.03" points="447.5,-974.705 451,-984.705 454.5,-974.705 447.5,-974.705"/>
<text text-anchor="middle" x="464.5" y="-955.854" font-family="Times New Roman,serif" font-size="14.00">0.01</text>
</g>
<!-- shell&#45;&gt;shell -->
<g id="edge8" class="edge"><title>shell&#45;&gt;shell</title>
<path fill="none" stroke="black" stroke-width="1.26" d="M555.763,-895.883C568.591,-893.675 577,-889.566 577,-883.554 577,-879.327 572.842,-876.04 565.915,-873.694"/>
<polygon fill="black" stroke="black" stroke-width="1.26" points="566.307,-870.187 555.763,-871.225 564.652,-876.989 566.307,-870.187"/>
<text text-anchor="middle" x="590.5" y="-879.854" font-family="Times New Roman,serif" font-size="14.00">0.42</text>
</g>
<!-- biting -->
<g id="node3" class="node"><title>biting</title>
<g id="a_node3"><a xlink:title="what should &#013; be here">
<ellipse fill="#c1ffd5" stroke="black" cx="742" cy="-108.027" rx="53" ry="24.5"/>
<text text-anchor="middle" x="742" y="-104.327" font-family="Times New Roman,serif" font-size="14.00">biting</text>
</a>
</g>
</g>
<!-- shell&#45;&gt;biting -->
<g id="edge3" class="edge"><title>shell&#45;&gt;biting</title>
<path fill="none" stroke="black" stroke-width="0.09" d="M559.127,-881.215C717.774,-876.276 995,-855.021 995,-766.79 995,-766.79 995,-766.79 995,-211.527 995,-182.393 993.514,-169.018 971,-150.527 946.111,-130.085 863.408,-119.009 804.552,-113.561"/>
<polygon fill="black" stroke="black" stroke-width="0.09" points="804.498,-110.043 794.226,-112.64 803.876,-117.015 804.498,-110.043"/>
<text text-anchor="middle" x="1008.5" y="-506.327" font-family="Times New Roman,serif" font-size="14.00">0.03</text>
</g>
<!-- s&#45;bend -->
<g id="node4" class="node"><title>s&#45;bend</title>
<g id="a_node4"><a xlink:title="what should &#013; be here">
<ellipse fill="#52ff8c" stroke="black" cx="674" cy="-343.027" rx="107.5" ry="50.5"/>
<text text-anchor="middle" x="674" y="-339.327" font-family="Times New Roman,serif" font-size="14.00">s&#45;bend</text>
</a>
</g>
</g>
<!-- shell&#45;&gt;s&#45;bend -->
<g id="edge7" class="edge"><title>shell&#45;&gt;s&#45;bend</title>
<path fill="none" stroke="black" stroke-width="0.6" d="M558.845,-878.814C662.966,-872.737 810.258,-856.803 848,-815.054 908.14,-748.529 905.82,-484.001 853,-411.527 836.449,-388.817 811.286,-373.746 785.011,-363.744"/>
<polygon fill="black" stroke="black" stroke-width="0.6" points="785.889,-360.341 775.294,-360.284 783.54,-366.936 785.889,-360.341"/>
<text text-anchor="middle" x="902.5" y="-597.327" font-family="Times New Roman,serif" font-size="14.00">0.2</text>
</g>
<!-- tail quiver -->
<g id="node5" class="node"><title>tail quiver</title>
<g id="a_node5"><a xlink:title="what should &#013; be here">
<ellipse fill="#dfffea" stroke="black" cx="583" cy="-16.2635" rx="52.1524" ry="16.0303"/>
<text text-anchor="middle" x="583" y="-12.5635" font-family="Times New Roman,serif" font-size="14.00">tail quiver</text>
</a>
</g>
</g>
<!-- shell&#45;&gt;tail quiver -->
<g id="edge11" class="edge"><title>shell&#45;&gt;tail quiver</title>
<path fill="none" stroke="black" stroke-width="0.06" d="M343.833,-876.34C210.452,-865.607 0,-837.472 0,-766.79 0,-766.79 0,-766.79 0,-107.027 0,-54.7103 371.466,-28.7206 521.371,-20.3624"/>
<polygon fill="black" stroke="black" stroke-width="0.06" points="521.981,-23.8343 531.774,-19.791 521.597,-16.8448 521.981,-23.8343"/>
<text text-anchor="middle" x="13.5" y="-460.827" font-family="Times New Roman,serif" font-size="14.00">0.02</text>
</g>
<!-- carrying -->
<g id="node6" class="node"><title>carrying</title>
<g id="a_node6"><a xlink:title="what should &#013; be here">
<ellipse fill="#beffd4" stroke="black" cx="113" cy="-108.027" rx="41.6928" ry="18"/>
<text text-anchor="middle" x="113" y="-104.327" font-family="Times New Roman,serif" font-size="14.00">carrying</text>
</a>
</g>
</g>
<!-- shell&#45;&gt;carrying -->
<g id="edge4" class="edge"><title>shell&#45;&gt;carrying</title>
<path fill="none" stroke="black" stroke-width="0.09" d="M346.971,-869.424C241.27,-853.095 93,-820.599 93,-766.79 93,-766.79 93,-766.79 93,-600.027 93,-540.223 97,-525.331 97,-465.527 97,-465.527 97,-465.527 97,-211.527 97,-185.607 102.056,-156.437 106.484,-135.862"/>
<polygon fill="black" stroke="black" stroke-width="0.09" points="109.934,-136.473 108.712,-125.949 103.105,-134.938 109.934,-136.473"/>
<text text-anchor="middle" x="110.5" y="-506.327" font-family="Times New Roman,serif" font-size="14.00">0.03</text>
</g>
<!-- digging -->
<g id="node7" class="node"><title>digging</title>
<g id="a_node7"><a xlink:title="what should &#013; be here">
<ellipse fill="#9bffbc" stroke="black" cx="356" cy="-212.527" rx="61.5" ry="29"/>
<text text-anchor="middle" x="356" y="-208.827" font-family="Times New Roman,serif" font-size="14.00">digging</text>
</a>
</g>
</g>
<!-- shell&#45;&gt;digging -->
<g id="edge5" class="edge"><title>shell&#45;&gt;digging</title>
<path fill="none" stroke="black" stroke-width="0.24" d="M350.133,-864.982C258.978,-846.149 139,-812.649 139,-766.79 139,-766.79 139,-766.79 139,-342.027 139,-301.47 146.747,-285.376 178,-259.527 207.773,-234.902 249.188,-223.28 284.579,-217.869"/>
<polygon fill="black" stroke="black" stroke-width="0.24" points="285.443,-221.283 294.867,-216.442 284.481,-214.35 285.443,-221.283"/>
<text text-anchor="middle" x="152.5" y="-551.827" font-family="Times New Roman,serif" font-size="14.00">0.08</text>
</g>
<!-- shell escape -->
<g id="node9" class="node"><title>shell escape</title>
<g id="a_node9"><a xlink:title="what should &#013; be here">
<ellipse fill="#0fff5f" stroke="black" cx="596" cy="-662.527" rx="77.5" ry="36"/>
<text text-anchor="middle" x="596" y="-658.827" font-family="Times New Roman,serif" font-size="14.00">shell escape</text>
</a>
</g>
</g>
<!-- shell&#45;&gt;shell escape -->
<g id="edge9" class="edge"><title>shell&#45;&gt;shell escape</title>
<path fill="none" stroke="black" stroke-width="0.45" d="M485.653,-835.617C490.539,-828.768 495.446,-821.764 500,-815.054 524.593,-778.82 551.134,-736.673 570.063,-706.042"/>
<polygon fill="black" stroke="black" stroke-width="0.45" points="573.169,-707.673 575.436,-697.324 567.21,-704 573.169,-707.673"/>
<text text-anchor="middle" x="555.5" y="-762.09" font-family="Times New Roman,serif" font-size="14.00">0.15</text>
</g>
<!-- head jolting -->
<g id="node11" class="node"><title>head jolting</title>
<g id="a_node11"><a xlink:title="what should &#013; be here">
<ellipse fill="#ecfff2" stroke="black" cx="345" cy="-555.527" rx="60.2083" ry="16.0303"/>
<text text-anchor="middle" x="345" y="-551.827" font-family="Times New Roman,serif" font-size="14.00">head jolting</text>
</a>
</g>
</g>
<!-- shell&#45;&gt;head jolting -->
<g id="edge6" class="edge"><title>shell&#45;&gt;head jolting</title>
<path fill="none" stroke="black" stroke-width="0.03" d="M383.206,-844.16C371.795,-835.62 360.814,-825.851 352,-815.054 326.547,-783.873 324.933,-770.988 317,-731.527 306.338,-678.493 323.527,-615.765 335.341,-581.671"/>
<polygon fill="black" stroke="black" stroke-width="0.03" points="338.71,-582.646 338.798,-572.051 332.122,-580.278 338.71,-582.646"/>
<text text-anchor="middle" x="330.5" y="-720.327" font-family="Times New Roman,serif" font-size="14.00">0.01</text>
</g>
<!-- shooting out -->
<g id="node13" class="node"><title>shooting out</title>
<g id="a_node13"><a xlink:title="what should &#013; be here">
<ellipse fill="#ccffdd" stroke="black" cx="598" cy="-555.527" rx="54.2818" ry="20"/>
<text text-anchor="middle" x="598" y="-551.827" font-family="Times New Roman,serif" font-size="14.00">shooting out</text>
</a>
</g>
</g>
<!-- shell&#45;&gt;shooting out -->
<g id="edge10" class="edge"><title>shell&#45;&gt;shooting out</title>
<path fill="none" stroke="black" stroke-width="0.09" d="M452.548,-832.598C456.346,-778.081 468.829,-690.098 509,-626.527 521.544,-606.676 541.759,-590.11 559.756,-578.085"/>
<polygon fill="black" stroke="black" stroke-width="0.09" points="561.847,-580.901 568.369,-572.552 558.064,-575.012 561.847,-580.901"/>
<text text-anchor="middle" x="485.5" y="-720.327" font-family="Times New Roman,serif" font-size="14.00">0.03</text>
</g>
<!-- zigzag swimming -->
<g id="node14" class="node"><title>zigzag swimming</title>
<g id="a_node14"><a xlink:title="what should &#013; be here">
<ellipse fill="#deffe9" stroke="black" cx="723" cy="-765.79" rx="83.3772" ry="16.0303"/>
<text text-anchor="middle" x="723" y="-762.09" font-family="Times New Roman,serif" font-size="14.00">zigzag swimming</text>
</a>
</g>
</g>
<!-- shell&#45;&gt;zigzag swimming -->
<g id="edge12" class="edge"><title>shell&#45;&gt;zigzag swimming</title>
<path fill="none" stroke="black" stroke-width="0.03" d="M530.039,-848.915C579.266,-827.964 640.645,-801.841 680.782,-784.758"/>
<polygon fill="black" stroke="black" stroke-width="0.03" points="682.178,-787.968 690.009,-780.831 679.437,-781.527 682.178,-787.968"/>
<text text-anchor="middle" x="656.5" y="-803.854" font-family="Times New Roman,serif" font-size="14.00">0.01</text>
</g>
<!-- biting&#45;&gt;shell -->
<g id="edge15" class="edge"><title>biting&#45;&gt;shell</title>
<path fill="none" stroke="black" stroke-width="0.66" d="M794.548,-112.476C839.237,-118.741 899.085,-136.059 918,-183.527 948.599,-260.317 945,-471.864 945,-554.527 945,-766.79 945,-766.79 945,-766.79 945,-843.673 715.312,-869.532 569.173,-878.203"/>
<polygon fill="black" stroke="black" stroke-width="0.66" points="568.583,-874.731 558.8,-878.798 568.984,-881.72 568.583,-874.731"/>
<text text-anchor="middle" x="959.5" y="-506.327" font-family="Times New Roman,serif" font-size="14.00">0.22</text>
</g>
<!-- biting&#45;&gt;biting -->
<g id="edge13" class="edge"><title>biting&#45;&gt;biting</title>
<path fill="none" stroke="black" stroke-width="0.99" d="M791.111,-117.29C803.614,-116.681 813,-113.593 813,-108.027 813,-104.113 808.36,-101.425 801.258,-99.9617"/>
<polygon fill="black" stroke="black" stroke-width="0.99" points="801.452,-96.4604 791.111,-98.7641 800.632,-103.412 801.452,-96.4604"/>
<text text-anchor="middle" x="826.5" y="-104.327" font-family="Times New Roman,serif" font-size="14.00">0.33</text>
</g>
<!-- biting&#45;&gt;s&#45;bend -->
<g id="edge14" class="edge"><title>biting&#45;&gt;s&#45;bend</title>
<path fill="none" stroke="black" stroke-width="0.99" d="M737.087,-132.686C731.366,-159.35 721.251,-203.889 710,-241.527 705.921,-255.173 701.047,-269.682 696.222,-283.307"/>
<polygon fill="black" stroke="black" stroke-width="0.99" points="692.811,-282.453 692.73,-293.047 699.4,-284.815 692.811,-282.453"/>
<text text-anchor="middle" x="739.5" y="-208.827" font-family="Times New Roman,serif" font-size="14.00">0.33</text>
</g>
<!-- biting&#45;&gt;tail quiver -->
<g id="edge16" class="edge"><title>biting&#45;&gt;tail quiver</title>
<path fill="none" stroke="black" stroke-width="0.33" d="M709.44,-88.6453C682.177,-73.2537 643.439,-51.3841 616.041,-35.9168"/>
<polygon fill="black" stroke="black" stroke-width="0.33" points="617.646,-32.8039 607.218,-30.9355 614.205,-38.8996 617.646,-32.8039"/>
<text text-anchor="middle" x="681.5" y="-54.3269" font-family="Times New Roman,serif" font-size="14.00">0.11</text>
</g>
<!-- s&#45;bend&#45;&gt;shell -->
<g id="edge23" class="edge"><title>s&#45;bend&#45;&gt;shell</title>
<path fill="none" stroke="black" stroke-width="0.81" d="M734.211,-385.1C743.834,-393.193 753.181,-402.117 761,-411.527 771.544,-424.216 771.634,-429.306 778,-444.527 836.229,-583.751 906.414,-661.981 815,-782.054 784.46,-822.169 659.224,-850.358 564.105,-866.472"/>
<polygon fill="black" stroke="black" stroke-width="0.81" points="563.412,-863.039 554.125,-868.137 564.564,-869.944 563.412,-863.039"/>
<text text-anchor="middle" x="862.5" y="-597.327" font-family="Times New Roman,serif" font-size="14.00">0.27</text>
</g>
<!-- s&#45;bend&#45;&gt;biting -->
<g id="edge17" class="edge"><title>s&#45;bend&#45;&gt;biting</title>
<path fill="none" stroke="black" stroke-width="0.03" d="M667.363,-292.525C665.011,-260.402 665.673,-218.222 679,-183.527 685.702,-166.079 698.331,-149.831 710.533,-136.99"/>
<polygon fill="black" stroke="black" stroke-width="0.03" points="713.066,-139.407 717.619,-129.84 708.094,-134.479 713.066,-139.407"/>
<text text-anchor="middle" x="692.5" y="-208.827" font-family="Times New Roman,serif" font-size="14.00">0.01</text>
</g>
<!-- s&#45;bend&#45;&gt;s&#45;bend -->
<g id="edge22" class="edge"><title>s&#45;bend&#45;&gt;s&#45;bend</title>
<path fill="none" stroke="black" stroke-width="1.65" d="M778.347,-355.356C791.124,-353.148 799.5,-349.039 799.5,-343.027 799.5,-338.8 795.359,-335.513 788.459,-333.167"/>
<polygon fill="black" stroke="black" stroke-width="1.65" points="788.892,-329.67 778.347,-330.698 787.231,-336.47 788.892,-329.67"/>
<text text-anchor="middle" x="813" y="-339.327" font-family="Times New Roman,serif" font-size="14.00">0.55</text>
</g>
<!-- s&#45;bend&#45;&gt;digging -->
<g id="edge18" class="edge"><title>s&#45;bend&#45;&gt;digging</title>
<path fill="none" stroke="black" stroke-width="0.03" d="M593.412,-309.395C569.702,-299.017 543.972,-286.978 521,-274.527 510.271,-268.711 509.012,-264.787 498,-259.527 473.021,-247.596 444.164,-237.613 419.015,-230.029"/>
<polygon fill="black" stroke="black" stroke-width="0.03" points="419.795,-226.611 409.213,-227.137 417.814,-233.324 419.795,-226.611"/>
<text text-anchor="middle" x="534.5" y="-263.327" font-family="Times New Roman,serif" font-size="14.00">0.01</text>
</g>
<!-- operculum spread -->
<g id="node8" class="node"><title>operculum spread</title>
<g id="a_node8"><a xlink:title="what should &#013; be here">
<ellipse fill="#b8ffcf" stroke="black" cx="356" cy="-464.527" rx="72.9502" ry="20"/>
<text text-anchor="middle" x="356" y="-460.827" font-family="Times New Roman,serif" font-size="14.00">operculum spread</text>
</a>
</g>
</g>
<!-- s&#45;bend&#45;&gt;operculum spread -->
<g id="edge20" class="edge"><title>s&#45;bend&#45;&gt;operculum spread</title>
<path fill="none" stroke="black" stroke-width="0.06" d="M595.791,-377.738C570.908,-388.498 543.284,-400.48 518,-411.527 502.865,-418.14 499.524,-420.888 484,-426.527 462.603,-434.3 438.741,-441.564 417.471,-447.563"/>
<polygon fill="black" stroke="black" stroke-width="0.06" points="416.276,-444.262 407.58,-450.315 418.152,-451.006 416.276,-444.262"/>
<text text-anchor="middle" x="531.5" y="-415.327" font-family="Times New Roman,serif" font-size="14.00">0.02</text>
</g>
<!-- s&#45;bend&#45;&gt;shell escape -->
<g id="edge24" class="edge"><title>s&#45;bend&#45;&gt;shell escape</title>
<path fill="none" stroke="black" stroke-width="0.3" d="M727.372,-387.092C733.671,-394.556 739.2,-402.763 743,-411.527 777.842,-491.871 791.358,-538.329 739,-608.527 724.526,-627.933 702.148,-640.238 679.359,-648.038"/>
<polygon fill="black" stroke="black" stroke-width="0.3" points="678.077,-644.773 669.589,-651.113 680.178,-651.45 678.077,-644.773"/>
<text text-anchor="middle" x="783.5" y="-506.327" font-family="Times New Roman,serif" font-size="14.00">0.1</text>
</g>
<!-- fin spread -->
<g id="node10" class="node"><title>fin spread</title>
<g id="a_node10"><a xlink:title="what should &#013; be here">
<ellipse fill="#ecfff2" stroke="black" cx="839" cy="-212.527" rx="51.7379" ry="16.0303"/>
<text text-anchor="middle" x="839" y="-208.827" font-family="Times New Roman,serif" font-size="14.00">fin spread</text>
</a>
</g>
</g>
<!-- s&#45;bend&#45;&gt;fin spread -->
<g id="edge19" class="edge"><title>s&#45;bend&#45;&gt;fin spread</title>
<path fill="none" stroke="black" stroke-width="0.03" d="M754.383,-309.419C772.021,-299.884 789.683,-288.255 804,-274.527 814.64,-264.325 823.028,-250.179 828.922,-238.078"/>
<polygon fill="black" stroke="black" stroke-width="0.03" points="832.132,-239.476 833.11,-228.926 825.766,-236.563 832.132,-239.476"/>
<text text-anchor="middle" x="830.5" y="-263.327" font-family="Times New Roman,serif" font-size="14.00">0.01</text>
</g>
<!-- ramming -->
<g id="node12" class="node"><title>ramming</title>
<g id="a_node12"><a xlink:title="what should &#013; be here">
<ellipse fill="#e8fff0" stroke="black" cx="595" cy="-212.527" rx="48.1667" ry="16.0303"/>
<text text-anchor="middle" x="595" y="-208.827" font-family="Times New Roman,serif" font-size="14.00">ramming</text>
</a>
</g>
</g>
<!-- s&#45;bend&#45;&gt;ramming -->
<g id="edge21" class="edge"><title>s&#45;bend&#45;&gt;ramming</title>
<path fill="none" stroke="black" stroke-width="0.03" d="M614.462,-300.638C607.024,-292.846 600.471,-284.1 596,-274.527 590.905,-263.618 590.138,-250.37 590.859,-239.011"/>
<polygon fill="black" stroke="black" stroke-width="0.03" points="594.364,-239.145 591.915,-228.837 587.402,-238.423 594.364,-239.145"/>
<text text-anchor="middle" x="609.5" y="-263.327" font-family="Times New Roman,serif" font-size="14.00">0.01</text>
</g>
<!-- s&#45;bend&#45;&gt;shooting out -->
<g id="edge25" class="edge"><title>s&#45;bend&#45;&gt;shooting out</title>
<path fill="none" stroke="black" stroke-width="0.03" d="M665.857,-393.668C660.598,-420.963 652.717,-455.15 642,-484.527 636.346,-500.026 633.666,-503.488 625,-517.527 622.898,-520.931 620.58,-524.427 618.211,-527.846"/>
<polygon fill="black" stroke="black" stroke-width="0.03" points="615.284,-525.923 612.314,-536.093 620.978,-529.994 615.284,-525.923"/>
<text text-anchor="middle" x="668.5" y="-460.827" font-family="Times New Roman,serif" font-size="14.00">0.01</text>
</g>
<!-- tail quiver&#45;&gt;shell -->
<g id="edge27" class="edge"><title>tail quiver&#45;&gt;shell</title>
<path fill="none" stroke="black" stroke-width="2.01" d="M635.538,-16.6366C755.84,-16.6135 1041,-25.19 1041,-107.027 1041,-766.79 1041,-766.79 1041,-766.79 1041,-861.971 741.591,-880.291 569.353,-882.955"/>
<polygon fill="black" stroke="black" stroke-width="2.01" points="569.165,-879.457 559.215,-883.096 569.263,-886.456 569.165,-879.457"/>
<text text-anchor="middle" x="1054.5" y="-460.827" font-family="Times New Roman,serif" font-size="14.00">0.67</text>
</g>
<!-- tail quiver&#45;&gt;s&#45;bend -->
<g id="edge26" class="edge"><title>tail quiver&#45;&gt;s&#45;bend</title>
<path fill="none" stroke="black" stroke-width="0.99" d="M572.899,-32.4204C557.651,-56.3108 529.427,-104.731 519,-150.527 509.828,-190.813 515.024,-207.188 538,-241.527 552.983,-263.92 574.703,-283.174 596.402,-298.661"/>
<polygon fill="black" stroke="black" stroke-width="0.99" points="594.49,-301.595 604.704,-304.411 598.476,-295.84 594.49,-301.595"/>
<text text-anchor="middle" x="532.5" y="-154.327" font-family="Times New Roman,serif" font-size="14.00">0.33</text>
</g>
<!-- carrying&#45;&gt;shell -->
<g id="edge29" class="edge"><title>carrying&#45;&gt;shell</title>
<path fill="none" stroke="black" stroke-width="1.2" d="M97.1512,-124.859C79.9785,-143.768 55,-177.177 55,-211.527 55,-766.79 55,-766.79 55,-766.79 55,-825.688 218.425,-856.688 335.304,-871.326"/>
<polygon fill="black" stroke="black" stroke-width="1.2" points="335.048,-874.821 345.399,-872.565 335.9,-867.873 335.048,-874.821"/>
<text text-anchor="middle" x="64.5" y="-506.327" font-family="Times New Roman,serif" font-size="14.00">0.4</text>
</g>
<!-- carrying&#45;&gt;digging -->
<g id="edge28" class="edge"><title>carrying&#45;&gt;digging</title>
<path fill="none" stroke="black" stroke-width="1.8" d="M141.62,-121.099C180.908,-137.671 252.305,-167.787 301.853,-188.687"/>
<polygon fill="black" stroke="black" stroke-width="1.8" points="300.573,-191.946 311.147,-192.607 303.293,-185.496 300.573,-191.946"/>
<text text-anchor="middle" x="251.5" y="-154.327" font-family="Times New Roman,serif" font-size="14.00">0.6</text>
</g>
<!-- digging&#45;&gt;shell -->
<g id="edge34" class="edge"><title>digging&#45;&gt;shell</title>
<path fill="none" stroke="black" stroke-width="1.14" d="M308.191,-230.879C280.529,-243.542 247.769,-263.596 230,-292.527 158.178,-409.464 202,-462.795 202,-600.027 202,-766.79 202,-766.79 202,-766.79 202,-830.5 269.856,-859.24 334.723,-872.159"/>
<polygon fill="black" stroke="black" stroke-width="1.14" points="334.206,-875.623 344.679,-874.027 335.496,-868.743 334.206,-875.623"/>
<text text-anchor="middle" x="215.5" y="-551.827" font-family="Times New Roman,serif" font-size="14.00">0.38</text>
</g>
<!-- digging&#45;&gt;biting -->
<g id="edge30" class="edge"><title>digging&#45;&gt;biting</title>
<path fill="none" stroke="black" stroke-width="0.24" d="M410.967,-199.316C449.916,-190.463 503.33,-177.917 550,-165.527 597.167,-153.004 650.371,-137.216 688.79,-125.515"/>
<polygon fill="black" stroke="black" stroke-width="0.24" points="690.18,-128.75 698.721,-122.481 688.134,-122.055 690.18,-128.75"/>
<text text-anchor="middle" x="616.5" y="-154.327" font-family="Times New Roman,serif" font-size="14.00">0.08</text>
</g>
<!-- digging&#45;&gt;s&#45;bend -->
<g id="edge33" class="edge"><title>digging&#45;&gt;s&#45;bend</title>
<path fill="none" stroke="black" stroke-width="0.69" d="M399.596,-233.06C415.245,-240.655 432.776,-249.855 448,-259.527 457.081,-265.296 457.516,-269.447 467,-274.527 498.844,-291.584 535.759,-305.312 569.523,-315.821"/>
<polygon fill="black" stroke="black" stroke-width="0.69" points="568.835,-319.27 579.421,-318.838 570.877,-312.574 568.835,-319.27"/>
<text text-anchor="middle" x="480.5" y="-263.327" font-family="Times New Roman,serif" font-size="14.00">0.23</text>
</g>
<!-- digging&#45;&gt;carrying -->
<g id="edge31" class="edge"><title>digging&#45;&gt;carrying</title>
<path fill="none" stroke="black" stroke-width="0.45" d="M325.066,-187.112C308.117,-174.71 286.279,-160.248 265,-150.527 231.58,-135.259 191.387,-124.588 160.727,-117.894"/>
<polygon fill="black" stroke="black" stroke-width="0.45" points="161.227,-114.422 150.718,-115.775 159.777,-121.27 161.227,-114.422"/>
<text text-anchor="middle" x="305.5" y="-154.327" font-family="Times New Roman,serif" font-size="14.00">0.15</text>
</g>
<!-- digging&#45;&gt;operculum spread -->
<g id="edge32" class="edge"><title>digging&#45;&gt;operculum spread</title>
<path fill="none" stroke="black" stroke-width="0.24" d="M356,-241.758C356,-289.499 356,-385.705 356,-434.186"/>
<polygon fill="black" stroke="black" stroke-width="0.24" points="352.5,-434.325 356,-444.325 359.5,-434.325 352.5,-434.325"/>
<text text-anchor="middle" x="369.5" y="-339.327" font-family="Times New Roman,serif" font-size="14.00">0.08</text>
</g>
<!-- digging&#45;&gt;shell escape -->
<g id="edge35" class="edge"><title>digging&#45;&gt;shell escape</title>
<path fill="none" stroke="black" stroke-width="0.24" d="M366.973,-241.286C372.935,-256.418 380.414,-275.486 387,-292.527 409.972,-351.965 393.322,-381.09 438,-426.527 453.103,-441.886 467.789,-429.275 483,-444.527 527.236,-488.879 505.111,-520.476 535,-575.527 543.246,-590.714 553.705,-606.395 563.625,-620.141"/>
<polygon fill="black" stroke="black" stroke-width="0.24" points="560.968,-622.437 569.707,-628.428 566.612,-618.295 560.968,-622.437"/>
<text text-anchor="middle" x="522.5" y="-460.827" font-family="Times New Roman,serif" font-size="14.00">0.08</text>
</g>
<!-- operculum spread&#45;&gt;shell -->
<g id="edge38" class="edge"><title>operculum spread&#45;&gt;shell</title>
<path fill="none" stroke="black" stroke-width="1.5" d="M317.724,-481.566C289.865,-496.085 257,-520.437 257,-554.527 257,-766.79 257,-766.79 257,-766.79 257,-813.385 298.779,-841.664 343.56,-858.593"/>
<polygon fill="black" stroke="black" stroke-width="1.5" points="342.553,-861.95 353.147,-862.035 344.919,-855.361 342.553,-861.95"/>
<text text-anchor="middle" x="266.5" y="-658.827" font-family="Times New Roman,serif" font-size="14.00">0.5</text>
</g>
<!-- operculum spread&#45;&gt;s&#45;bend -->
<g id="edge37" class="edge"><title>operculum spread&#45;&gt;s&#45;bend</title>
<path fill="none" stroke="black" stroke-width="0.99" d="M422.903,-456.654C459.867,-451.333 506.05,-442.136 545,-426.527 548.564,-425.099 575.191,-408.153 603.335,-389.988"/>
<polygon fill="black" stroke="black" stroke-width="0.99" points="605.596,-392.695 612.095,-384.327 601.796,-386.815 605.596,-392.695"/>
<text text-anchor="middle" x="583.5" y="-415.327" font-family="Times New Roman,serif" font-size="14.00">0.33</text>
</g>
<!-- operculum spread&#45;&gt;operculum spread -->
<g id="edge36" class="edge"><title>operculum spread&#45;&gt;operculum spread</title>
<path fill="none" stroke="black" stroke-width="0.51" d="M422.861,-472.487C436.743,-471.649 446.725,-468.996 446.725,-464.527 446.725,-461.245 441.341,-458.943 432.984,-457.619"/>
<polygon fill="black" stroke="black" stroke-width="0.51" points="433.17,-454.119 422.861,-456.567 432.446,-461.082 433.17,-454.119"/>
<text text-anchor="middle" x="460.225" y="-460.827" font-family="Times New Roman,serif" font-size="14.00">0.17</text>
</g>
<!-- shell escape&#45;&gt;shell -->
<g id="edge43" class="edge"><title>shell escape&#45;&gt;shell</title>
<path fill="none" stroke="black" stroke-width="0.84" d="M595.375,-698.681C593.516,-723.514 588.058,-756.744 573,-782.054 560.6,-802.896 542.222,-821.325 523.472,-836.523"/>
<polygon fill="black" stroke="black" stroke-width="0.84" points="521.134,-833.908 515.429,-842.836 525.456,-839.414 521.134,-833.908"/>
<text text-anchor="middle" x="600.5" y="-762.09" font-family="Times New Roman,serif" font-size="14.00">0.28</text>
</g>
<!-- shell escape&#45;&gt;biting -->
<g id="edge39" class="edge"><title>shell escape&#45;&gt;biting</title>
<path fill="none" stroke="black" stroke-width="0.12" d="M667.669,-648.636C697.679,-640.687 731.637,-628.12 758,-608.527 851.174,-539.279 821.39,-696.383 900,-241.527 904.39,-216.126 913.804,-205.297 900,-183.527 878.253,-149.23 836.025,-130.428 800.694,-120.296"/>
<polygon fill="black" stroke="black" stroke-width="0.12" points="801.5,-116.889 790.934,-117.663 799.677,-123.647 801.5,-116.889"/>
<text text-anchor="middle" x="884.5" y="-415.327" font-family="Times New Roman,serif" font-size="14.00">0.04</text>
</g>
<!-- shell escape&#45;&gt;s&#45;bend -->
<g id="edge42" class="edge"><title>shell escape&#45;&gt;s&#45;bend</title>
<path fill="none" stroke="black" stroke-width="1.2" d="M647.368,-635.361C669.732,-621.002 693.624,-600.912 706,-575.527 732.67,-520.822 717.1,-450.745 699.633,-402.092"/>
<polygon fill="black" stroke="black" stroke-width="1.2" points="702.891,-400.812 696.127,-392.658 696.33,-403.251 702.891,-400.812"/>
<text text-anchor="middle" x="730.5" y="-506.327" font-family="Times New Roman,serif" font-size="14.00">0.4</text>
</g>
<!-- shell escape&#45;&gt;digging -->
<g id="edge40" class="edge"><title>shell escape&#45;&gt;digging</title>
<path fill="none" stroke="black" stroke-width="0.12" d="M563.544,-629.822C527.058,-594.481 471.289,-541.475 459,-535.527 371.77,-493.306 303.664,-563.145 247,-484.527 192.031,-408.261 273.833,-300.34 323.145,-246.604"/>
<polygon fill="black" stroke="black" stroke-width="0.12" points="325.903,-248.779 330.165,-239.079 320.785,-244.004 325.903,-248.779"/>
<text text-anchor="middle" x="260.5" y="-460.827" font-family="Times New Roman,serif" font-size="14.00">0.04</text>
</g>
<!-- shell escape&#45;&gt;shell escape -->
<g id="edge44" class="edge"><title>shell escape&#45;&gt;shell escape</title>
<path fill="none" stroke="black" stroke-width="0.48" d="M670.476,-672.983C682.916,-671.52 691.5,-668.035 691.5,-662.527 691.5,-658.654 687.256,-655.781 680.412,-653.908"/>
<polygon fill="black" stroke="black" stroke-width="0.48" points="680.946,-650.448 670.476,-652.071 679.673,-657.331 680.946,-650.448"/>
<text text-anchor="middle" x="705" y="-658.827" font-family="Times New Roman,serif" font-size="14.00">0.16</text>
</g>
<!-- shell escape&#45;&gt;head jolting -->
<g id="edge41" class="edge"><title>shell escape&#45;&gt;head jolting</title>
<path fill="none" stroke="black" stroke-width="0.12" d="M533.958,-640.726C507.786,-631.509 477.15,-620.135 450,-608.527 426.264,-598.379 400.259,-585.514 380.066,-575.119"/>
<polygon fill="black" stroke="black" stroke-width="0.12" points="381.431,-571.884 370.943,-570.387 378.208,-578.098 381.431,-571.884"/>
<text text-anchor="middle" x="463.5" y="-597.327" font-family="Times New Roman,serif" font-size="14.00">0.04</text>
</g>
<!-- shell escape&#45;&gt;shooting out -->
<g id="edge45" class="edge"><title>shell escape&#45;&gt;shooting out</title>
<path fill="none" stroke="black" stroke-width="0.12" d="M596.672,-626.271C596.921,-613.185 597.201,-598.49 597.439,-585.976"/>
<polygon fill="black" stroke="black" stroke-width="0.12" points="600.945,-585.7 597.636,-575.635 593.946,-585.566 600.945,-585.7"/>
<text text-anchor="middle" x="611.5" y="-597.327" font-family="Times New Roman,serif" font-size="14.00">0.04</text>
</g>
<!-- fin spread&#45;&gt;s&#45;bend -->
<g id="edge46" class="edge"><title>fin spread&#45;&gt;s&#45;bend</title>
<path fill="none" stroke="black" stroke-width="3" d="M820.485,-227.946C800.251,-243.704 766.727,-269.812 736.852,-293.078"/>
<polygon fill="black" stroke="black" stroke-width="3" points="734.682,-290.332 728.943,-299.238 738.983,-295.855 734.682,-290.332"/>
<text text-anchor="middle" x="786.5" y="-263.327" font-family="Times New Roman,serif" font-size="14.00">1.0</text>
</g>
<!-- head jolting&#45;&gt;shell -->
<g id="edge49" class="edge"><title>head jolting&#45;&gt;shell</title>
<path fill="none" stroke="black" stroke-width="0.99" d="M345.549,-572.249C346.943,-603.228 351.675,-674.133 367,-731.527 377.384,-770.415 382.268,-779.972 402,-815.054 404.318,-819.176 406.842,-823.344 409.482,-827.48"/>
<polygon fill="black" stroke="black" stroke-width="0.99" points="406.607,-829.479 415.034,-835.9 412.451,-825.625 406.607,-829.479"/>
<text text-anchor="middle" x="380.5" y="-720.327" font-family="Times New Roman,serif" font-size="14.00">0.33</text>
</g>
<!-- head jolting&#45;&gt;operculum spread -->
<g id="edge48" class="edge"><title>head jolting&#45;&gt;operculum spread</title>
<path fill="none" stroke="black" stroke-width="0.99" d="M346.916,-539.024C348.422,-526.841 350.562,-509.522 352.387,-494.756"/>
<polygon fill="black" stroke="black" stroke-width="0.99" points="355.894,-494.919 353.647,-484.565 348.947,-494.06 355.894,-494.919"/>
<text text-anchor="middle" x="365.5" y="-506.327" font-family="Times New Roman,serif" font-size="14.00">0.33</text>
</g>
<!-- head jolting&#45;&gt;head jolting -->
<g id="edge47" class="edge"><title>head jolting&#45;&gt;head jolting</title>
<path fill="none" stroke="black" stroke-width="0.99" d="M397.196,-563.736C411.853,-563.377 423.104,-560.64 423.104,-555.527 423.104,-551.692 416.775,-549.194 407.427,-548.033"/>
<polygon fill="black" stroke="black" stroke-width="0.99" points="407.415,-544.524 397.196,-547.318 406.927,-551.507 407.415,-544.524"/>
<text text-anchor="middle" x="436.604" y="-551.827" font-family="Times New Roman,serif" font-size="14.00">0.33</text>
</g>
<!-- ramming&#45;&gt;s&#45;bend -->
<g id="edge50" class="edge"><title>ramming&#45;&gt;s&#45;bend</title>
<path fill="none" stroke="black" stroke-width="3" d="M604.214,-228.515C612.895,-242.635 626.453,-264.688 639.319,-285.616"/>
<polygon fill="black" stroke="black" stroke-width="3" points="636.364,-287.492 644.583,-294.178 642.328,-283.826 636.364,-287.492"/>
<text text-anchor="middle" x="642.5" y="-263.327" font-family="Times New Roman,serif" font-size="14.00">1.0</text>
</g>
<!-- shooting out&#45;&gt;shell -->
<g id="edge54" class="edge"><title>shooting out&#45;&gt;shell</title>
<path fill="none" stroke="black" stroke-width="0.99" d="M545.247,-561.027C501.526,-565.981 444.313,-575.719 430,-593.527 377.762,-658.522 401.967,-760.507 425.529,-824.342"/>
<polygon fill="black" stroke="black" stroke-width="0.99" points="422.321,-825.754 429.142,-833.861 428.865,-823.27 422.321,-825.754"/>
<text text-anchor="middle" x="415.5" y="-720.327" font-family="Times New Roman,serif" font-size="14.00">0.33</text>
</g>
<!-- shooting out&#45;&gt;s&#45;bend -->
<g id="edge53" class="edge"><title>shooting out&#45;&gt;s&#45;bend</title>
<path fill="none" stroke="black" stroke-width="0.51" d="M597.746,-535.27C598.02,-512.848 600.263,-474.997 611,-444.527 616.441,-429.086 624.578,-413.544 633.212,-399.451"/>
<polygon fill="black" stroke="black" stroke-width="0.51" points="636.247,-401.201 638.633,-390.878 630.33,-397.46 636.247,-401.201"/>
<text text-anchor="middle" x="624.5" y="-460.827" font-family="Times New Roman,serif" font-size="14.00">0.17</text>
</g>
<!-- shooting out&#45;&gt;digging -->
<g id="edge51" class="edge"><title>shooting out&#45;&gt;digging</title>
<path fill="none" stroke="black" stroke-width="0.51" d="M593.51,-535.275C586.638,-510.293 571.028,-467.224 541,-444.527 509.153,-420.455 480.887,-455.092 453,-426.527 400.321,-372.567 463.912,-322.874 423,-259.527 418.323,-252.286 412.063,-245.881 405.241,-240.326"/>
<polygon fill="black" stroke="black" stroke-width="0.51" points="407.142,-237.377 397.036,-234.195 402.952,-242.985 407.142,-237.377"/>
<text text-anchor="middle" x="466.5" y="-415.327" font-family="Times New Roman,serif" font-size="14.00">0.17</text>
</g>
<!-- shooting out&#45;&gt;operculum spread -->
<g id="edge52" class="edge"><title>shooting out&#45;&gt;operculum spread</title>
<path fill="none" stroke="black" stroke-width="0.51" d="M560.718,-540.816C519.623,-525.702 453.259,-501.296 407.28,-484.386"/>
<polygon fill="black" stroke="black" stroke-width="0.51" points="408.389,-481.065 397.795,-480.898 405.972,-487.634 408.389,-481.065"/>
<text text-anchor="middle" x="505.5" y="-506.327" font-family="Times New Roman,serif" font-size="14.00">0.17</text>
</g>
<!-- shooting out&#45;&gt;shooting out -->
<g id="edge55" class="edge"><title>shooting out&#45;&gt;shooting out</title>
<path fill="none" stroke="black" stroke-width="0.51" d="M647.737,-563.692C660.652,-563.19 670.391,-560.468 670.391,-555.527 670.391,-551.975 665.36,-549.57 657.734,-548.312"/>
<polygon fill="black" stroke="black" stroke-width="0.51" points="658.023,-544.824 647.737,-547.362 657.36,-551.793 658.023,-544.824"/>
<text text-anchor="middle" x="683.891" y="-551.827" font-family="Times New Roman,serif" font-size="14.00">0.17</text>
</g>
<!-- zigzag swimming&#45;&gt;shell escape -->
<g id="edge56" class="edge"><title>zigzag swimming&#45;&gt;shell escape</title>
<path fill="none" stroke="black" stroke-width="3" d="M704.261,-749.849C687.986,-736.872 663.731,-717.532 642.302,-700.445"/>
<polygon fill="black" stroke="black" stroke-width="3" points="644.25,-697.523 634.249,-694.025 639.886,-702.996 644.25,-697.523"/>
<text text-anchor="middle" x="688.5" y="-720.327" font-family="Times New Roman,serif" font-size="14.00">1.0</text>
</g>
</g>
</svg>
