<?xml version="1.0" encoding="UTF-8" standalone="no"?>
<!DOCTYPE svg PUBLIC "-//W3C//DTD SVG 1.1//EN"
 "http://www.w3.org/Graphics/SVG/1.1/DTD/svg11.dtd">
<!-- Generated by graphviz version 2.38.0 (20140413.2041)
 -->
<!-- Title: %3 Pages: 1 -->
<svg width="232pt" height="218pt"
 viewBox="0.00 0.00 232.34 218.00" xmlns="http://www.w3.org/2000/svg" xmlns:xlink="http://www.w3.org/1999/xlink">
<g id="graph0" class="graph" transform="scale(1 1) rotate(0) translate(4 214)">
<title>%3</title>
<polygon fill="white" stroke="none" points="-4,4 -4,-214 228.34,-214 228.34,4 -4,4"/>
<!-- male_1 -->
<g id="node1" class="node"><title>male_1</title>
<ellipse fill="none" stroke="black" cx="83.846" cy="-192" rx="38.1938" ry="18"/>
<text text-anchor="middle" x="83.846" y="-188.3" font-family="Times New Roman,serif" font-size="14.00">male_1</text>
</g>
<!-- female_1 -->
<g id="node2" class="node"><title>female_1</title>
<ellipse fill="none" stroke="black" cx="44.846" cy="-105" rx="44.6926" ry="18"/>
<text text-anchor="middle" x="44.846" y="-101.3" font-family="Times New Roman,serif" font-size="14.00">female_1</text>
</g>
<!-- male_1&#45;&#45;female_1 -->
<g id="edge1" class="edge"><title>male_1&#45;&#45;female_1</title>
<path fill="none" stroke="black" stroke-width="3" d="M76.1409,-174.207C69.3036,-159.305 59.3676,-137.649 52.5352,-122.758"/>
<text text-anchor="middle" x="80.346" y="-144.8" font-family="Times New Roman,serif" font-size="14.00">63.6</text>
</g>
<!-- female_2 -->
<g id="node3" class="node"><title>female_2</title>
<ellipse fill="none" stroke="black" cx="152.846" cy="-105" rx="44.6926" ry="18"/>
<text text-anchor="middle" x="152.846" y="-101.3" font-family="Times New Roman,serif" font-size="14.00">female_2</text>
</g>
<!-- male_1&#45;&#45;female_2 -->
<g id="edge2" class="edge"><title>male_1&#45;&#45;female_2</title>
<path fill="none" stroke="black" stroke-width="0.292453" d="M96.8244,-175.012C109.004,-160.008 127.143,-137.663 139.455,-122.496"/>
<text text-anchor="middle" x="131.346" y="-144.8" font-family="Times New Roman,serif" font-size="14.00">6.2</text>
</g>
<!-- presentation fish -->
<g id="node4" class="node"><title>presentation fish</title>
<ellipse fill="none" stroke="black" cx="152.846" cy="-18" rx="71.4873" ry="18"/>
<text text-anchor="middle" x="152.846" y="-14.3" font-family="Times New Roman,serif" font-size="14.00">presentation fish</text>
</g>
<!-- female_2&#45;&#45;presentation fish -->
<g id="edge3" class="edge"><title>female_2&#45;&#45;presentation fish</title>
<path fill="none" stroke="black" stroke-width="0.273585" d="M152.846,-86.799C152.846,-72.0519 152.846,-50.9152 152.846,-36.1754"/>
<text text-anchor="middle" x="162.346" y="-57.8" font-family="Times New Roman,serif" font-size="14.00">5.8</text>
</g>
</g>
</svg>
