<?xml version="1.0" encoding="UTF-8" standalone="no"?>
<!DOCTYPE svg PUBLIC "-//W3C//DTD SVG 1.1//EN"
 "http://www.w3.org/Graphics/SVG/1.1/DTD/svg11.dtd">
<!-- Generated by graphviz version 2.38.0 (20140413.2041)
 -->
<!-- Title: %3 Pages: 1 -->
<svg width="1362pt" height="653pt"
 viewBox="0.00 0.00 1362.00 653.00" xmlns="http://www.w3.org/2000/svg" xmlns:xlink="http://www.w3.org/1999/xlink">
<g id="graph0" class="graph" transform="scale(1 1) rotate(0) translate(4 649)">
<title>%3</title>
<polygon fill="white" stroke="none" points="-4,4 -4,-649 1358,-649 1358,4 -4,4"/>
<!-- 1 -->
<g id="node1" class="node"><title>1</title>
<ellipse fill="none" stroke="black" cx="730" cy="-540" rx="27" ry="18"/>
<text text-anchor="middle" x="730" y="-536.3" font-family="Times New Roman,serif" font-size="14.00">1</text>
</g>
<!-- 2 -->
<g id="node2" class="node"><title>2</title>
<ellipse fill="none" stroke="black" cx="763" cy="-105" rx="27" ry="18"/>
<text text-anchor="middle" x="763" y="-101.3" font-family="Times New Roman,serif" font-size="14.00">2</text>
</g>
<!-- 1&#45;&gt;2 -->
<g id="edge1" class="edge"><title>1&#45;&gt;2</title>
<path fill="none" stroke="black" stroke-width="1.09091" d="M744.959,-524.867C750.454,-518.914 756.243,-511.606 760,-504 766.64,-490.558 765.16,-485.88 767,-471 782.483,-345.776 771.462,-194.547 765.799,-133.514"/>
<polygon fill="black" stroke="black" stroke-width="1.09091" points="769.248,-132.816 764.811,-123.195 762.28,-133.482 769.248,-132.816"/>
<text text-anchor="middle" x="783" y="-318.8" font-family="Times New Roman,serif" font-size="14.00">16</text>
</g>
<!-- 5 -->
<g id="node3" class="node"><title>5</title>
<ellipse fill="none" stroke="black" cx="493" cy="-453" rx="27" ry="18"/>
<text text-anchor="middle" x="493" y="-449.3" font-family="Times New Roman,serif" font-size="14.00">5</text>
</g>
<!-- 1&#45;&gt;5 -->
<g id="edge2" class="edge"><title>1&#45;&gt;5</title>
<path fill="none" stroke="black" stroke-width="0.409091" d="M706.531,-530.884C686.246,-523.846 656.154,-513.349 630,-504 594.327,-491.248 553.553,-476.322 525.828,-466.119"/>
<polygon fill="black" stroke="black" stroke-width="0.409091" points="526.83,-462.759 516.237,-462.587 524.411,-469.328 526.83,-462.759"/>
<text text-anchor="middle" x="634" y="-492.8" font-family="Times New Roman,serif" font-size="14.00">6</text>
</g>
<!-- 7 -->
<g id="node4" class="node"><title>7</title>
<ellipse fill="none" stroke="black" cx="321" cy="-279" rx="27" ry="18"/>
<text text-anchor="middle" x="321" y="-275.3" font-family="Times New Roman,serif" font-size="14.00">7</text>
</g>
<!-- 1&#45;&gt;7 -->
<g id="edge3" class="edge"><title>1&#45;&gt;7</title>
<path fill="none" stroke="black" stroke-width="0.545455" d="M703.011,-539.173C598.459,-539.591 223.979,-538.64 185,-504 150.7,-473.518 150.849,-444.145 169,-402 191.853,-348.937 251.837,-312.385 289.256,-293.925"/>
<polygon fill="black" stroke="black" stroke-width="0.545455" points="291.191,-296.88 298.705,-289.411 288.173,-290.564 291.191,-296.88"/>
<text text-anchor="middle" x="173" y="-405.8" font-family="Times New Roman,serif" font-size="14.00">8</text>
</g>
<!-- 8 -->
<g id="node5" class="node"><title>8</title>
<ellipse fill="none" stroke="black" cx="582" cy="-192" rx="27" ry="18"/>
<text text-anchor="middle" x="582" y="-188.3" font-family="Times New Roman,serif" font-size="14.00">8</text>
</g>
<!-- 1&#45;&gt;8 -->
<g id="edge4" class="edge"><title>1&#45;&gt;8</title>
<path fill="none" stroke="black" stroke-width="0.136364" d="M738.03,-522.657C740.451,-516.903 742.787,-510.298 744,-504 757.113,-435.912 760.703,-414.769 742,-348 737.881,-333.295 686.573,-237.963 675,-228 670.181,-223.852 640.068,-212.873 615.393,-204.308"/>
<polygon fill="black" stroke="black" stroke-width="0.136364" points="616.521,-200.994 605.926,-201.046 614.241,-207.612 616.521,-200.994"/>
<text text-anchor="middle" x="755" y="-362.3" font-family="Times New Roman,serif" font-size="14.00">2</text>
</g>
<!-- L. elongatus -->
<g id="node6" class="node"><title>L. elongatus</title>
<ellipse fill="none" stroke="black" cx="160" cy="-18" rx="57.3905" ry="18"/>
<text text-anchor="middle" x="160" y="-14.3" font-family="Times New Roman,serif" font-size="14.00">L. elongatus</text>
</g>
<!-- 1&#45;&gt;L. elongatus -->
<g id="edge5" class="edge"><title>1&#45;&gt;L. elongatus</title>
<path fill="none" stroke="black" stroke-width="0.272727" d="M702.723,-538.523C589.391,-536.4 159.012,-526.888 103,-504 71.8051,-491.253 46,-487.699 46,-454 46,-454 46,-454 46,-104 46,-69.7691 79.4429,-47.6834 110.102,-34.6285"/>
<polygon fill="black" stroke="black" stroke-width="0.272727" points="111.509,-37.8351 119.487,-30.8635 108.903,-31.3384 111.509,-37.8351"/>
<text text-anchor="middle" x="50" y="-275.3" font-family="Times New Roman,serif" font-size="14.00">4</text>
</g>
<!-- N. cunningtoni -->
<g id="node7" class="node"><title>N. cunningtoni</title>
<ellipse fill="none" stroke="black" cx="618" cy="-18" rx="67.6881" ry="18"/>
<text text-anchor="middle" x="618" y="-14.3" font-family="Times New Roman,serif" font-size="14.00">N. cunningtoni</text>
</g>
<!-- 1&#45;&gt;N. cunningtoni -->
<g id="edge6" class="edge"><title>1&#45;&gt;N. cunningtoni</title>
<path fill="none" stroke="black" stroke-width="0.136364" d="M721.662,-522.701C715.163,-509.21 706.509,-489.35 702,-471 676.083,-365.521 703.051,-333.194 676,-228 663.398,-178.996 645.268,-171.828 632,-123 625.084,-97.5488 621.513,-67.6254 619.716,-46.4265"/>
<polygon fill="black" stroke="black" stroke-width="0.136364" points="623.186,-45.9078 618.929,-36.206 616.207,-46.4451 623.186,-45.9078"/>
<text text-anchor="middle" x="692" y="-275.3" font-family="Times New Roman,serif" font-size="14.00">2</text>
</g>
<!-- None -->
<g id="node8" class="node"><title>None</title>
<ellipse fill="none" stroke="black" cx="956" cy="-18" rx="31.3957" ry="18"/>
<text text-anchor="middle" x="956" y="-14.3" font-family="Times New Roman,serif" font-size="14.00">None</text>
</g>
<!-- 1&#45;&gt;None -->
<g id="edge7" class="edge"><title>1&#45;&gt;None</title>
<path fill="none" stroke="black" stroke-width="0.545455" d="M757.103,-537.913C871.376,-532.975 1308,-510.418 1308,-454 1308,-454 1308,-454 1308,-104 1308,-40.7413 1090.47,-24.4118 997.422,-20.3204"/>
<polygon fill="black" stroke="black" stroke-width="0.545455" points="997.374,-16.8155 987.238,-19.8999 997.085,-23.8096 997.374,-16.8155"/>
<text text-anchor="middle" x="1312" y="-275.3" font-family="Times New Roman,serif" font-size="14.00">8</text>
</g>
<!-- callipterus -->
<g id="node9" class="node"><title>callipterus</title>
<ellipse fill="none" stroke="black" cx="964" cy="-453" rx="48.1917" ry="18"/>
<text text-anchor="middle" x="964" y="-449.3" font-family="Times New Roman,serif" font-size="14.00">callipterus</text>
</g>
<!-- 1&#45;&gt;callipterus -->
<g id="edge8" class="edge"><title>1&#45;&gt;callipterus</title>
<path fill="none" stroke="black" stroke-width="0.272727" d="M756.868,-537.475C791.803,-534.628 854.021,-526.571 902,-504 916.096,-497.369 929.793,-486.891 940.711,-477.237"/>
<polygon fill="black" stroke="black" stroke-width="0.272727" points="943.138,-479.76 948.137,-470.419 938.404,-474.604 943.138,-479.76"/>
<text text-anchor="middle" x="931" y="-492.8" font-family="Times New Roman,serif" font-size="14.00">4</text>
</g>
<!-- conspecific 3 -->
<g id="node10" class="node"><title>conspecific 3</title>
<ellipse fill="none" stroke="black" cx="868" cy="-105" rx="59.5901" ry="18"/>
<text text-anchor="middle" x="868" y="-101.3" font-family="Times New Roman,serif" font-size="14.00">conspecific 3</text>
</g>
<!-- 1&#45;&gt;conspecific 3 -->
<g id="edge9" class="edge"><title>1&#45;&gt;conspecific 3</title>
<path fill="none" stroke="black" stroke-width="0.136364" d="M753.146,-530.284C766.354,-524.415 782.516,-515.619 794,-504 857.875,-439.378 890,-414.363 890,-323.5 890,-323.5 890,-323.5 890,-191 890,-170.929 884.18,-149.018 878.527,-132.47"/>
<polygon fill="black" stroke="black" stroke-width="0.136364" points="881.769,-131.142 875.082,-122.923 875.184,-133.518 881.769,-131.142"/>
<text text-anchor="middle" x="894" y="-318.8" font-family="Times New Roman,serif" font-size="14.00">2</text>
</g>
<!-- conspecific 4 -->
<g id="node11" class="node"><title>conspecific 4</title>
<ellipse fill="none" stroke="black" cx="1090" cy="-453" rx="59.5901" ry="18"/>
<text text-anchor="middle" x="1090" y="-449.3" font-family="Times New Roman,serif" font-size="14.00">conspecific 4</text>
</g>
<!-- 1&#45;&gt;conspecific 4 -->
<g id="edge10" class="edge"><title>1&#45;&gt;conspecific 4</title>
<path fill="none" stroke="black" stroke-width="0.272727" d="M756.331,-535.912C796.22,-530.939 874.185,-520.057 939,-504 975.124,-495.051 1015.06,-481.668 1044.78,-470.999"/>
<polygon fill="black" stroke="black" stroke-width="0.272727" points="1046.24,-474.193 1054.45,-467.495 1043.86,-467.611 1046.24,-474.193"/>
<text text-anchor="middle" x="994" y="-492.8" font-family="Times New Roman,serif" font-size="14.00">4</text>
</g>
<!-- cunningtoni -->
<g id="node12" class="node"><title>cunningtoni</title>
<ellipse fill="none" stroke="black" cx="1224" cy="-453" rx="55.7903" ry="18"/>
<text text-anchor="middle" x="1224" y="-449.3" font-family="Times New Roman,serif" font-size="14.00">cunningtoni</text>
</g>
<!-- 1&#45;&gt;cunningtoni -->
<g id="edge11" class="edge"><title>1&#45;&gt;cunningtoni</title>
<path fill="none" stroke="black" stroke-width="0.681818" d="M756.744,-536.27C805.619,-531.122 912.57,-519.128 1002,-504 1072.3,-492.107 1089.6,-487.359 1159,-471 1163.4,-469.963 1167.95,-468.851 1172.52,-467.71"/>
<polygon fill="black" stroke="black" stroke-width="0.681818" points="1173.63,-471.038 1182.46,-465.184 1171.91,-464.253 1173.63,-471.038"/>
<text text-anchor="middle" x="1089" y="-492.8" font-family="Times New Roman,serif" font-size="14.00">10</text>
</g>
<!-- elongatus -->
<g id="node13" class="node"><title>elongatus</title>
<ellipse fill="none" stroke="black" cx="380" cy="-105" rx="46.2923" ry="18"/>
<text text-anchor="middle" x="380" y="-101.3" font-family="Times New Roman,serif" font-size="14.00">elongatus</text>
</g>
<!-- 1&#45;&gt;elongatus -->
<g id="edge12" class="edge"><title>1&#45;&gt;elongatus</title>
<path fill="none" stroke="black" stroke-width="0.409091" d="M702.921,-538.993C604.994,-538.708 269.695,-535.408 168,-504 126.488,-491.179 84,-497.447 84,-454 84,-454 84,-454 84,-234.5 84,-157.445 159.01,-170.965 230,-141 261.074,-127.884 297.939,-119.196 327.347,-113.757"/>
<polygon fill="black" stroke="black" stroke-width="0.409091" points="328.183,-117.163 337.416,-111.966 326.958,-110.271 328.183,-117.163"/>
<text text-anchor="middle" x="88" y="-318.8" font-family="Times New Roman,serif" font-size="14.00">6</text>
</g>
<!-- 2&#45;&gt;1 -->
<g id="edge13" class="edge"><title>2&#45;&gt;1</title>
<path fill="none" stroke="black" stroke-width="3" d="M773.335,-121.779C776.659,-127.595 779.996,-134.383 782,-141 786.268,-155.095 783.812,-159.321 785,-174 790.603,-243.249 797.948,-260.587 795,-330 792.331,-392.837 791.301,-408.657 783,-471 781.032,-485.777 784.859,-491.333 777,-504 772.55,-511.173 766.048,-517.373 759.291,-522.477"/>
<polygon fill="black" stroke="black" stroke-width="3" points="756.999,-519.804 750.731,-528.346 760.958,-525.577 756.999,-519.804"/>
<text text-anchor="middle" x="804" y="-318.8" font-family="Times New Roman,serif" font-size="14.00">44</text>
</g>
<!-- 2&#45;&gt;L. elongatus -->
<g id="edge14" class="edge"><title>2&#45;&gt;L. elongatus</title>
<path fill="none" stroke="black" stroke-width="0.136364" d="M737.767,-98.4341C722.27,-95.0496 702.005,-90.6844 684,-87 608.597,-71.5701 590.157,-65.1318 514,-54 413.82,-39.3568 296.776,-29.115 225.549,-23.6424"/>
<polygon fill="black" stroke="black" stroke-width="0.136364" points="225.616,-20.1375 215.38,-22.8696 225.086,-27.1174 225.616,-20.1375"/>
<text text-anchor="middle" x="604" y="-57.8" font-family="Times New Roman,serif" font-size="14.00">2</text>
</g>
<!-- 2&#45;&gt;N. cunningtoni -->
<g id="edge15" class="edge"><title>2&#45;&gt;N. cunningtoni</title>
<path fill="none" stroke="black" stroke-width="0.136364" d="M745.215,-91.2309C730.266,-80.7214 708.167,-65.7035 688,-54 678.827,-48.6768 668.741,-43.346 659.15,-38.507"/>
<polygon fill="black" stroke="black" stroke-width="0.136364" points="660.665,-35.3518 650.153,-34.0346 657.55,-41.6201 660.665,-35.3518"/>
<text text-anchor="middle" x="716" y="-57.8" font-family="Times New Roman,serif" font-size="14.00">2</text>
</g>
<!-- 2&#45;&gt;None -->
<g id="edge16" class="edge"><title>2&#45;&gt;None</title>
<path fill="none" stroke="black" stroke-width="0.272727" d="M784.267,-93.8173C789.097,-91.5438 794.214,-89.1657 799,-87 841.183,-67.9112 890.203,-46.8577 922.095,-33.3091"/>
<polygon fill="black" stroke="black" stroke-width="0.272727" points="923.577,-36.4826 931.417,-29.3558 920.844,-30.0382 923.577,-36.4826"/>
<text text-anchor="middle" x="876" y="-57.8" font-family="Times New Roman,serif" font-size="14.00">4</text>
</g>
<!-- 5&#45;&gt;1 -->
<g id="edge17" class="edge"><title>5&#45;&gt;1</title>
<path fill="none" stroke="black" stroke-width="0.409091" d="M510.824,-466.86C527.268,-478.164 552.737,-494.284 577,-504 615.408,-519.381 662.078,-528.829 693.698,-533.971"/>
<polygon fill="black" stroke="black" stroke-width="0.409091" points="693.39,-537.465 703.811,-535.552 694.472,-530.549 693.39,-537.465"/>
<text text-anchor="middle" x="581" y="-492.8" font-family="Times New Roman,serif" font-size="14.00">6</text>
</g>
<!-- 5&#45;&gt;7 -->
<g id="edge19" class="edge"><title>5&#45;&gt;7</title>
<path fill="none" stroke="black" stroke-width="0.136364" d="M472.317,-441.246C438.987,-422.882 373.453,-382.334 337,-330 332.291,-323.24 328.913,-315.02 326.513,-307.214"/>
<polygon fill="black" stroke="black" stroke-width="0.136364" points="329.842,-306.114 323.891,-297.348 323.077,-307.912 329.842,-306.114"/>
<text text-anchor="middle" x="391" y="-362.3" font-family="Times New Roman,serif" font-size="14.00">2</text>
</g>
<!-- 5&#45;&gt;L. elongatus -->
<g id="edge20" class="edge"><title>5&#45;&gt;L. elongatus</title>
<path fill="none" stroke="black" stroke-width="0.272727" d="M466.65,-449.006C425.214,-443.111 344.085,-426.634 291,-384 190.114,-302.974 186.111,-250.129 162,-123 157.129,-97.3148 157.127,-67.422 158.046,-46.2939"/>
<polygon fill="black" stroke="black" stroke-width="0.272727" points="161.551,-46.2852 158.589,-36.1129 154.561,-45.9122 161.551,-46.2852"/>
<text text-anchor="middle" x="192" y="-231.8" font-family="Times New Roman,serif" font-size="14.00">4</text>
</g>
<!-- 5&#45;&gt;N. cunningtoni -->
<g id="edge21" class="edge"><title>5&#45;&gt;N. cunningtoni</title>
<path fill="none" stroke="black" stroke-width="0.136364" d="M507.545,-437.709C547.071,-397.718 656.032,-279.499 694,-156 699.723,-137.385 692.791,-102.278 685,-87 676.126,-69.5976 661.22,-53.805 647.718,-41.8289"/>
<polygon fill="black" stroke="black" stroke-width="0.136364" points="649.867,-39.0613 639.987,-35.2352 645.325,-44.3874 649.867,-39.0613"/>
<text text-anchor="middle" x="668" y="-231.8" font-family="Times New Roman,serif" font-size="14.00">2</text>
</g>
<!-- 5&#45;&gt;elongatus -->
<g id="edge22" class="edge"><title>5&#45;&gt;elongatus</title>
<path fill="none" stroke="black" stroke-width="0.136364" d="M469.967,-443.325C452.692,-436.625 428.582,-426.859 408,-417 295.104,-362.92 254.217,-329.52 217,-210 212.243,-194.724 208.128,-187.315 217,-174 241.09,-137.849 288.441,-120.884 325.927,-112.942"/>
<polygon fill="black" stroke="black" stroke-width="0.136364" points="327.068,-116.286 336.211,-110.933 325.726,-109.416 327.068,-116.286"/>
<text text-anchor="middle" x="257" y="-275.3" font-family="Times New Roman,serif" font-size="14.00">2</text>
</g>
<!-- 6 -->
<g id="node14" class="node"><title>6</title>
<ellipse fill="none" stroke="black" cx="492" cy="-366" rx="27" ry="18"/>
<text text-anchor="middle" x="492" y="-362.3" font-family="Times New Roman,serif" font-size="14.00">6</text>
</g>
<!-- 5&#45;&gt;6 -->
<g id="edge18" class="edge"><title>5&#45;&gt;6</title>
<path fill="none" stroke="black" stroke-width="0.272727" d="M484.97,-435.657C482.549,-429.903 480.213,-423.298 479,-417 477.49,-409.161 478.602,-400.73 480.694,-393.065"/>
<polygon fill="black" stroke="black" stroke-width="0.272727" points="484.025,-394.139 483.872,-383.545 477.386,-391.922 484.025,-394.139"/>
<text text-anchor="middle" x="483" y="-405.8" font-family="Times New Roman,serif" font-size="14.00">4</text>
</g>
<!-- 7&#45;&gt;1 -->
<g id="edge23" class="edge"><title>7&#45;&gt;1</title>
<path fill="none" stroke="black" stroke-width="2.72727" d="M321.553,-297.174C323.075,-319.301 328.563,-358.005 348,-384 385.117,-433.642 403.093,-440.406 457,-471 533.663,-514.508 637.909,-530.467 692.749,-536.097"/>
<polygon fill="black" stroke="black" stroke-width="2.72727" points="692.746,-539.613 703.036,-537.09 693.419,-532.645 692.746,-539.613"/>
<text text-anchor="middle" x="384" y="-405.8" font-family="Times New Roman,serif" font-size="14.00">40</text>
</g>
<!-- 7&#45;&gt;8 -->
<g id="edge25" class="edge"><title>7&#45;&gt;8</title>
<path fill="none" stroke="black" stroke-width="0.136364" d="M337.104,-264.282C352.96,-251.061 376.308,-232.426 387,-228 441.302,-205.524 460.38,-221.566 518,-210 527.871,-208.019 538.479,-205.403 548.164,-202.82"/>
<polygon fill="black" stroke="black" stroke-width="0.136364" points="549.132,-206.183 557.853,-200.167 547.283,-199.432 549.132,-206.183"/>
<text text-anchor="middle" x="391" y="-231.8" font-family="Times New Roman,serif" font-size="14.00">2</text>
</g>
<!-- 7&#45;&gt;L. elongatus -->
<g id="edge27" class="edge"><title>7&#45;&gt;L. elongatus</title>
<path fill="none" stroke="black" stroke-width="0.272727" d="M299.352,-267.723C276.697,-256.149 241.134,-235.574 217,-210 173.723,-164.14 163.175,-86.7972 160.69,-46.0239"/>
<polygon fill="black" stroke="black" stroke-width="0.272727" points="164.185,-45.8344 160.2,-36.0178 157.194,-46.1773 164.185,-45.8344"/>
<text text-anchor="middle" x="188" y="-144.8" font-family="Times New Roman,serif" font-size="14.00">4</text>
</g>
<!-- 7&#45;&gt;elongatus -->
<g id="edge28" class="edge"><title>7&#45;&gt;elongatus</title>
<path fill="none" stroke="black" stroke-width="0.136364" d="M324.548,-261.066C327.097,-251.026 331.132,-238.293 337,-228 342.301,-218.701 347.96,-219.443 353,-210 365.985,-185.676 372.976,-154.769 376.566,-132.99"/>
<polygon fill="black" stroke="black" stroke-width="0.136364" points="380.027,-133.513 378.067,-123.101 373.106,-132.463 380.027,-133.513"/>
<text text-anchor="middle" x="371" y="-188.3" font-family="Times New Roman,serif" font-size="14.00">2</text>
</g>
<!-- 7&#45;&gt;6 -->
<g id="edge24" class="edge"><title>7&#45;&gt;6</title>
<path fill="none" stroke="black" stroke-width="1.09091" d="M337.321,-293.57C353.061,-306.469 375.936,-324.667 386,-330 408.368,-341.854 435.508,-350.723 456.725,-356.568"/>
<polygon fill="black" stroke="black" stroke-width="1.09091" points="456.056,-360.011 466.619,-359.194 457.851,-353.245 456.056,-360.011"/>
<text text-anchor="middle" x="394" y="-318.8" font-family="Times New Roman,serif" font-size="14.00">16</text>
</g>
<!-- L. callipterus -->
<g id="node15" class="node"><title>L. callipterus</title>
<ellipse fill="none" stroke="black" cx="285" cy="-192" rx="59.2899" ry="18"/>
<text text-anchor="middle" x="285" y="-188.3" font-family="Times New Roman,serif" font-size="14.00">L. callipterus</text>
</g>
<!-- 7&#45;&gt;L. callipterus -->
<g id="edge26" class="edge"><title>7&#45;&gt;L. callipterus</title>
<path fill="none" stroke="black" stroke-width="0.136364" d="M309.914,-262.508C306.061,-256.609 301.966,-249.693 299,-243 295.786,-235.747 293.128,-227.573 291.023,-219.967"/>
<polygon fill="black" stroke="black" stroke-width="0.136364" points="294.364,-218.908 288.494,-210.088 287.583,-220.644 294.364,-218.908"/>
<text text-anchor="middle" x="303" y="-231.8" font-family="Times New Roman,serif" font-size="14.00">2</text>
</g>
<!-- 8&#45;&gt;1 -->
<g id="edge29" class="edge"><title>8&#45;&gt;1</title>
<path fill="none" stroke="black" stroke-width="0.545455" d="M591.291,-208.934C613.145,-246.948 668.482,-346.399 702,-435 711.678,-460.584 719.439,-490.888 724.313,-512.164"/>
<polygon fill="black" stroke="black" stroke-width="0.545455" points="720.938,-513.11 726.531,-522.108 727.77,-511.586 720.938,-513.11"/>
<text text-anchor="middle" x="685" y="-362.3" font-family="Times New Roman,serif" font-size="14.00">8</text>
</g>
<!-- 8&#45;&gt;2 -->
<g id="edge30" class="edge"><title>8&#45;&gt;2</title>
<path fill="none" stroke="black" stroke-width="0.954545" d="M603.474,-180.916C635.451,-165.899 695.737,-137.588 732.344,-120.396"/>
<polygon fill="black" stroke="black" stroke-width="0.954545" points="733.99,-123.49 741.554,-116.071 731.015,-117.154 733.99,-123.49"/>
<text text-anchor="middle" x="692" y="-144.8" font-family="Times New Roman,serif" font-size="14.00">14</text>
</g>
<!-- 8&#45;&gt;7 -->
<g id="edge32" class="edge"><title>8&#45;&gt;7</title>
<path fill="none" stroke="black" stroke-width="0.136364" d="M557.882,-200.317C545.973,-203.696 531.334,-207.503 518,-210 482.397,-216.668 387.154,-209.521 356,-228 346.431,-233.676 338.823,-243.107 333.178,-252.258"/>
<polygon fill="black" stroke="black" stroke-width="0.136364" points="330.022,-250.732 328.187,-261.167 336.129,-254.153 330.022,-250.732"/>
<text text-anchor="middle" x="360" y="-231.8" font-family="Times New Roman,serif" font-size="14.00">2</text>
</g>
<!-- 8&#45;&gt;L. elongatus -->
<g id="edge33" class="edge"><title>8&#45;&gt;L. elongatus</title>
<path fill="none" stroke="black" stroke-width="0.272727" d="M573.742,-174.418C557.869,-144.517 520.007,-82.0723 468,-54 427.719,-32.2573 304.971,-23.956 227.141,-20.8333"/>
<polygon fill="black" stroke="black" stroke-width="0.272727" points="227.067,-17.328 216.941,-20.4432 226.8,-24.3229 227.067,-17.328"/>
<text text-anchor="middle" x="546" y="-101.3" font-family="Times New Roman,serif" font-size="14.00">4</text>
</g>
<!-- 8&#45;&gt;N. cunningtoni -->
<g id="edge34" class="edge"><title>8&#45;&gt;N. cunningtoni</title>
<path fill="none" stroke="black" stroke-width="0.136364" d="M583.451,-173.922C585.407,-153.196 589.422,-117.265 596,-87 599.255,-72.0244 601.292,-68.5841 606,-54 606.888,-51.2492 607.835,-48.384 608.792,-45.5296"/>
<polygon fill="black" stroke="black" stroke-width="0.136364" points="612.11,-46.6431 612.017,-36.0487 605.483,-44.3887 612.11,-46.6431"/>
<text text-anchor="middle" x="600" y="-101.3" font-family="Times New Roman,serif" font-size="14.00">2</text>
</g>
<!-- 8&#45;&gt;None -->
<g id="edge35" class="edge"><title>8&#45;&gt;None</title>
<path fill="none" stroke="black" stroke-width="0.681818" d="M591.936,-175.016C611.224,-145.522 656.823,-82.9198 713,-54 747.32,-36.3323 854.718,-26.1447 914.605,-21.6967"/>
<polygon fill="black" stroke="black" stroke-width="0.681818" points="915.13,-25.168 924.853,-20.9572 914.627,-18.1861 915.13,-25.168"/>
<text text-anchor="middle" x="673" y="-101.3" font-family="Times New Roman,serif" font-size="14.00">10</text>
</g>
<!-- 8&#45;&gt;conspecific 3 -->
<g id="edge36" class="edge"><title>8&#45;&gt;conspecific 3</title>
<path fill="none" stroke="black" stroke-width="0.272727" d="M606.339,-184.145C630.988,-177.174 670.193,-166.002 704,-156 742.413,-144.635 785.761,-131.401 818.24,-121.405"/>
<polygon fill="black" stroke="black" stroke-width="0.272727" points="819.427,-124.701 827.953,-118.412 817.366,-118.011 819.427,-124.701"/>
<text text-anchor="middle" x="758" y="-144.8" font-family="Times New Roman,serif" font-size="14.00">4</text>
</g>
<!-- 8&#45;&gt;elongatus -->
<g id="edge37" class="edge"><title>8&#45;&gt;elongatus</title>
<path fill="none" stroke="black" stroke-width="0.136364" d="M559.611,-181.579C525.875,-167.383 461.518,-140.302 419.704,-122.707"/>
<polygon fill="black" stroke="black" stroke-width="0.136364" points="420.943,-119.431 410.368,-118.779 418.228,-125.883 420.943,-119.431"/>
<text text-anchor="middle" x="498" y="-144.8" font-family="Times New Roman,serif" font-size="14.00">2</text>
</g>
<!-- 8&#45;&gt;6 -->
<g id="edge31" class="edge"><title>8&#45;&gt;6</title>
<path fill="none" stroke="black" stroke-width="0.272727" d="M573.49,-209.264C557.778,-239.291 524.11,-303.635 505.339,-339.508"/>
<polygon fill="black" stroke="black" stroke-width="0.272727" points="502.002,-338.336 500.467,-348.819 508.204,-341.581 502.002,-338.336"/>
<text text-anchor="middle" x="550" y="-275.3" font-family="Times New Roman,serif" font-size="14.00">4</text>
</g>
<!-- 6&#45;&gt;1 -->
<g id="edge38" class="edge"><title>6&#45;&gt;1</title>
<path fill="none" stroke="black" stroke-width="0.136364" d="M508.702,-380.344C540.331,-405.439 611.412,-461.004 674,-504 682.93,-510.135 692.898,-516.51 701.921,-522.111"/>
<polygon fill="black" stroke="black" stroke-width="0.136364" points="700.203,-525.164 710.555,-527.418 703.868,-519.2 700.203,-525.164"/>
<text text-anchor="middle" x="630" y="-449.3" font-family="Times New Roman,serif" font-size="14.00">2</text>
</g>
<!-- 6&#45;&gt;5 -->
<g id="edge39" class="edge"><title>6&#45;&gt;5</title>
<path fill="none" stroke="black" stroke-width="0.136364" d="M492.202,-384.175C492.339,-395.806 492.523,-411.419 492.679,-424.734"/>
<polygon fill="black" stroke="black" stroke-width="0.136364" points="489.18,-424.841 492.798,-434.799 496.18,-424.758 489.18,-424.841"/>
<text text-anchor="middle" x="497" y="-405.8" font-family="Times New Roman,serif" font-size="14.00">2</text>
</g>
<!-- 6&#45;&gt;7 -->
<g id="edge40" class="edge"><title>6&#45;&gt;7</title>
<path fill="none" stroke="black" stroke-width="0.409091" d="M465.197,-363.562C436.004,-360.829 389.065,-352.912 356,-330 346.855,-323.663 339.324,-314.113 333.621,-305.052"/>
<polygon fill="black" stroke="black" stroke-width="0.409091" points="336.583,-303.182 328.536,-296.29 330.529,-306.696 336.583,-303.182"/>
<text text-anchor="middle" x="360" y="-318.8" font-family="Times New Roman,serif" font-size="14.00">6</text>
</g>
<!-- 6&#45;&gt;8 -->
<g id="edge41" class="edge"><title>6&#45;&gt;8</title>
<path fill="none" stroke="black" stroke-width="0.136364" d="M509.577,-351.954C524.903,-339.572 546.438,-319.544 558,-297 570.442,-272.739 576.51,-242.01 579.421,-220.262"/>
<polygon fill="black" stroke="black" stroke-width="0.136364" points="582.926,-220.429 580.642,-210.084 575.976,-219.596 582.926,-220.429"/>
<text text-anchor="middle" x="576" y="-275.3" font-family="Times New Roman,serif" font-size="14.00">2</text>
</g>
<!-- 6&#45;&gt;L. elongatus -->
<g id="edge42" class="edge"><title>6&#45;&gt;L. elongatus</title>
<path fill="none" stroke="black" stroke-width="0.272727" d="M490.874,-347.642C486.955,-292.743 472.074,-124.304 435,-87 405.55,-57.3676 294.07,-37.117 222.41,-26.8467"/>
<polygon fill="black" stroke="black" stroke-width="0.272727" points="222.53,-23.3293 212.14,-25.4039 221.556,-30.2612 222.53,-23.3293"/>
<text text-anchor="middle" x="480" y="-188.3" font-family="Times New Roman,serif" font-size="14.00">4</text>
</g>
<!-- 6&#45;&gt;N. cunningtoni -->
<g id="edge43" class="edge"><title>6&#45;&gt;N. cunningtoni</title>
<path fill="none" stroke="black" stroke-width="0.136364" d="M493.242,-347.676C497.719,-289.402 514.662,-101.471 550,-54 554.85,-47.4849 561.265,-42.0849 568.22,-37.6392"/>
<polygon fill="black" stroke="black" stroke-width="0.136364" points="570.28,-40.4936 577.241,-32.5061 566.818,-34.4096 570.28,-40.4936"/>
<text text-anchor="middle" x="518" y="-188.3" font-family="Times New Roman,serif" font-size="14.00">2</text>
</g>
<!-- 6&#45;&gt;None -->
<g id="edge44" class="edge"><title>6&#45;&gt;None</title>
<path fill="none" stroke="black" stroke-width="0.136364" d="M518.692,-362.418C567.671,-356.758 674.021,-340.137 752,-297 850.77,-242.361 883.047,-222.146 937,-123 949.909,-99.2782 954.255,-68.4682 955.618,-46.5548"/>
<polygon fill="black" stroke="black" stroke-width="0.136364" points="959.127,-46.4342 956.08,-36.287 952.134,-46.1196 959.127,-46.4342"/>
<text text-anchor="middle" x="910" y="-188.3" font-family="Times New Roman,serif" font-size="14.00">2</text>
</g>
<!-- 6&#45;&gt;elongatus -->
<g id="edge45" class="edge"><title>6&#45;&gt;elongatus</title>
<path fill="none" stroke="black" stroke-width="0.272727" d="M470.253,-355.006C459.687,-349.122 447.651,-340.716 440,-330 434.178,-321.845 401.117,-190.874 386.71,-133.064"/>
<polygon fill="black" stroke="black" stroke-width="0.272727" points="390.059,-132.026 384.248,-123.167 383.266,-133.716 390.059,-132.026"/>
<text text-anchor="middle" x="419" y="-231.8" font-family="Times New Roman,serif" font-size="14.00">4</text>
</g>
<!-- 9 -->
<g id="node16" class="node"><title>9</title>
<ellipse fill="none" stroke="black" cx="730" cy="-627" rx="27" ry="18"/>
<text text-anchor="middle" x="730" y="-623.3" font-family="Times New Roman,serif" font-size="14.00">9</text>
</g>
<!-- 9&#45;&gt;1 -->
<g id="edge46" class="edge"><title>9&#45;&gt;1</title>
<path fill="none" stroke="black" stroke-width="0.136364" d="M730,-608.799C730,-597.163 730,-581.548 730,-568.237"/>
<polygon fill="black" stroke="black" stroke-width="0.136364" points="733.5,-568.175 730,-558.175 726.5,-568.175 733.5,-568.175"/>
<text text-anchor="middle" x="734" y="-579.8" font-family="Times New Roman,serif" font-size="14.00">2</text>
</g>
<!-- 9&#45;&gt;L. elongatus -->
<g id="edge47" class="edge"><title>9&#45;&gt;L. elongatus</title>
<path fill="none" stroke="black" stroke-width="0.136364" d="M702.715,-625.747C570.191,-624.166 0,-613.169 0,-541 0,-541 0,-541 0,-104 0,-57.9428 52.345,-36.7645 97.1549,-27.0728"/>
<polygon fill="black" stroke="black" stroke-width="0.136364" points="98.05,-30.4631 107.167,-25.0651 96.6736,-23.5997 98.05,-30.4631"/>
<text text-anchor="middle" x="4" y="-318.8" font-family="Times New Roman,serif" font-size="14.00">2</text>
</g>
<!-- 9&#45;&gt;None -->
<g id="edge48" class="edge"><title>9&#45;&gt;None</title>
<path fill="none" stroke="black" stroke-width="0.545455" d="M756.865,-625.168C875.427,-621.148 1346,-601.389 1346,-541 1346,-541 1346,-541 1346,-104 1346,-33.2223 1097.69,-21.2771 997.337,-19.3395"/>
<polygon fill="black" stroke="black" stroke-width="0.545455" points="997.314,-15.8387 987.256,-19.1693 997.196,-22.8378 997.314,-15.8387"/>
<text text-anchor="middle" x="1350" y="-318.8" font-family="Times New Roman,serif" font-size="14.00">8</text>
</g>
</g>
</svg>
