<?xml version="1.0" encoding="UTF-8" standalone="no"?>
<!DOCTYPE svg PUBLIC "-//W3C//DTD SVG 1.1//EN"
 "http://www.w3.org/Graphics/SVG/1.1/DTD/svg11.dtd">
<!-- Generated by graphviz version 2.38.0 (20140413.2041)
 -->
<!-- Title: %3 Pages: 1 -->
<svg width="524pt" height="131pt"
 viewBox="0.00 0.00 523.79 131.00" xmlns="http://www.w3.org/2000/svg" xmlns:xlink="http://www.w3.org/1999/xlink">
<g id="graph0" class="graph" transform="scale(1 1) rotate(0) translate(4 127)">
<title>%3</title>
<polygon fill="white" stroke="none" points="-4,4 -4,-127 519.79,-127 519.79,4 -4,4"/>
<!-- 1 -->
<g id="node1" class="node"><title>1</title>
<ellipse fill="none" stroke="black" cx="312.195" cy="-105" rx="27" ry="18"/>
<text text-anchor="middle" x="312.195" y="-101.3" font-family="Times New Roman,serif" font-size="14.00">1</text>
</g>
<!-- None -->
<g id="node2" class="node"><title>None</title>
<ellipse fill="none" stroke="black" cx="163.195" cy="-18" rx="31.3957" ry="18"/>
<text text-anchor="middle" x="163.195" y="-14.3" font-family="Times New Roman,serif" font-size="14.00">None</text>
</g>
<!-- 1&#45;&gt;None -->
<g id="edge1" class="edge"><title>1&#45;&gt;None</title>
<path fill="none" stroke="black" stroke-width="0.272727" d="M292.409,-92.7127C267.122,-78.2874 223.093,-53.1701 193.55,-36.3168"/>
<polygon fill="black" stroke="black" stroke-width="0.272727" points="194.93,-33.0744 184.51,-31.1594 191.461,-39.1546 194.93,-33.0744"/>
<text text-anchor="middle" x="251.195" y="-57.8" font-family="Times New Roman,serif" font-size="14.00">6</text>
</g>
<!-- tetra -->
<g id="node3" class="node"><title>tetra</title>
<ellipse fill="none" stroke="black" cx="361.195" cy="-18" rx="27" ry="18"/>
<text text-anchor="middle" x="361.195" y="-14.3" font-family="Times New Roman,serif" font-size="14.00">tetra</text>
</g>
<!-- 1&#45;&gt;tetra -->
<g id="edge2" class="edge"><title>1&#45;&gt;tetra</title>
<path fill="none" stroke="black" stroke-width="3" d="M321.411,-88.0122C328.552,-75.625 338.577,-58.235 346.777,-44.0109"/>
<polygon fill="black" stroke="black" stroke-width="3" points="349.891,-45.6167 351.853,-35.2052 343.827,-42.1207 349.891,-45.6167"/>
<text text-anchor="middle" x="347.195" y="-57.8" font-family="Times New Roman,serif" font-size="14.00">66</text>
</g>
<!-- tetracanthus -->
<g id="node4" class="node"><title>tetracanthus</title>
<ellipse fill="none" stroke="black" cx="461.195" cy="-18" rx="54.6905" ry="18"/>
<text text-anchor="middle" x="461.195" y="-14.3" font-family="Times New Roman,serif" font-size="14.00">tetracanthus</text>
</g>
<!-- 1&#45;&gt;tetracanthus -->
<g id="edge3" class="edge"><title>1&#45;&gt;tetracanthus</title>
<path fill="none" stroke="black" stroke-width="0.181818" d="M331.981,-92.7127C356.014,-79.0025 396.977,-55.6342 426.343,-38.882"/>
<polygon fill="black" stroke="black" stroke-width="0.181818" points="428.101,-41.9087 435.053,-33.9134 424.632,-35.8285 428.101,-41.9087"/>
<text text-anchor="middle" x="399.195" y="-57.8" font-family="Times New Roman,serif" font-size="14.00">4</text>
</g>
<!-- xenotilapia -->
<g id="node5" class="node"><title>xenotilapia</title>
<ellipse fill="none" stroke="black" cx="264.195" cy="-18" rx="51.9908" ry="18"/>
<text text-anchor="middle" x="264.195" y="-14.3" font-family="Times New Roman,serif" font-size="14.00">xenotilapia</text>
</g>
<!-- 1&#45;&gt;xenotilapia -->
<g id="edge4" class="edge"><title>1&#45;&gt;xenotilapia</title>
<path fill="none" stroke="black" stroke-width="0.0909091" d="M303.166,-88.0122C296.261,-75.7828 286.601,-58.6772 278.627,-44.556"/>
<polygon fill="black" stroke="black" stroke-width="0.0909091" points="281.64,-42.775 273.675,-35.7885 275.545,-46.2171 281.64,-42.775"/>
<text text-anchor="middle" x="295.195" y="-57.8" font-family="Times New Roman,serif" font-size="14.00">2</text>
</g>
<!-- 2 -->
<g id="node6" class="node"><title>2</title>
<ellipse fill="none" stroke="black" cx="90.1949" cy="-105" rx="27" ry="18"/>
<text text-anchor="middle" x="90.1949" y="-101.3" font-family="Times New Roman,serif" font-size="14.00">2</text>
</g>
<!-- 2&#45;&gt;None -->
<g id="edge6" class="edge"><title>2&#45;&gt;None</title>
<path fill="none" stroke="black" stroke-width="0.181818" d="M103.246,-88.8037C114.388,-75.8301 130.585,-56.9699 143.336,-42.1235"/>
<polygon fill="black" stroke="black" stroke-width="0.181818" points="146.151,-44.218 150.011,-34.3513 140.84,-39.6573 146.151,-44.218"/>
<text text-anchor="middle" x="135.195" y="-57.8" font-family="Times New Roman,serif" font-size="14.00">4</text>
</g>
<!-- L. elongatus -->
<g id="node7" class="node"><title>L. elongatus</title>
<ellipse fill="none" stroke="black" cx="57.1949" cy="-18" rx="57.3905" ry="18"/>
<text text-anchor="middle" x="57.1949" y="-14.3" font-family="Times New Roman,serif" font-size="14.00">L. elongatus</text>
</g>
<!-- 2&#45;&gt;L. elongatus -->
<g id="edge5" class="edge"><title>2&#45;&gt;L. elongatus</title>
<path fill="none" stroke="black" stroke-width="0.0909091" d="M83.6752,-87.2067C79.05,-75.2934 72.749,-59.0634 67.4537,-45.4242"/>
<polygon fill="black" stroke="black" stroke-width="0.0909091" points="70.696,-44.1047 63.8141,-36.0493 64.1706,-46.6382 70.696,-44.1047"/>
<text text-anchor="middle" x="80.1949" y="-57.8" font-family="Times New Roman,serif" font-size="14.00">2</text>
</g>
<!-- 3 -->
<g id="node8" class="node"><title>3</title>
<ellipse fill="none" stroke="black" cx="163.195" cy="-105" rx="27" ry="18"/>
<text text-anchor="middle" x="163.195" y="-101.3" font-family="Times New Roman,serif" font-size="14.00">3</text>
</g>
<!-- 3&#45;&gt;None -->
<g id="edge7" class="edge"><title>3&#45;&gt;None</title>
<path fill="none" stroke="black" stroke-width="0.0909091" d="M163.195,-86.799C163.195,-75.1626 163.195,-59.5479 163.195,-46.2368"/>
<polygon fill="black" stroke="black" stroke-width="0.0909091" points="166.695,-46.1754 163.195,-36.1754 159.695,-46.1755 166.695,-46.1754"/>
<text text-anchor="middle" x="167.195" y="-57.8" font-family="Times New Roman,serif" font-size="14.00">2</text>
</g>
</g>
</svg>
