<?xml version="1.0" encoding="UTF-8" standalone="no"?>
<!DOCTYPE svg PUBLIC "-//W3C//DTD SVG 1.1//EN"
 "http://www.w3.org/Graphics/SVG/1.1/DTD/svg11.dtd">
<!-- Generated by graphviz version 2.38.0 (20140413.2041)
 -->
<!-- Title: %3 Pages: 1 -->
<svg width="1081pt" height="566pt"
 viewBox="0.00 0.00 1080.54 566.00" xmlns="http://www.w3.org/2000/svg" xmlns:xlink="http://www.w3.org/1999/xlink">
<g id="graph0" class="graph" transform="scale(1 1) rotate(0) translate(4 562)">
<title>%3</title>
<polygon fill="white" stroke="none" points="-4,4 -4,-562 1076.54,-562 1076.54,4 -4,4"/>
<!-- 1 -->
<g id="node1" class="node"><title>1</title>
<ellipse fill="none" stroke="black" cx="560.545" cy="-540" rx="27" ry="18"/>
<text text-anchor="middle" x="560.545" y="-536.3" font-family="Times New Roman,serif" font-size="14.00">1</text>
</g>
<!-- 2 -->
<g id="node2" class="node"><title>2</title>
<ellipse fill="none" stroke="black" cx="621.545" cy="-453" rx="27" ry="18"/>
<text text-anchor="middle" x="621.545" y="-449.3" font-family="Times New Roman,serif" font-size="14.00">2</text>
</g>
<!-- 1&#45;&gt;2 -->
<g id="edge1" class="edge"><title>1&#45;&gt;2</title>
<path fill="none" stroke="black" stroke-width="1.2" d="M577.328,-525.5C584.174,-519.424 591.812,-511.857 597.545,-504 602.871,-496.701 607.517,-488.034 611.267,-479.983"/>
<polygon fill="black" stroke="black" stroke-width="1.2" points="614.57,-481.165 615.38,-470.602 608.159,-478.354 614.57,-481.165"/>
<text text-anchor="middle" x="614.545" y="-492.8" font-family="Times New Roman,serif" font-size="14.00">16</text>
</g>
<!-- 5 -->
<g id="node3" class="node"><title>5</title>
<ellipse fill="none" stroke="black" cx="237.545" cy="-279" rx="27" ry="18"/>
<text text-anchor="middle" x="237.545" y="-275.3" font-family="Times New Roman,serif" font-size="14.00">5</text>
</g>
<!-- 1&#45;&gt;5 -->
<g id="edge2" class="edge"><title>1&#45;&gt;5</title>
<path fill="none" stroke="black" stroke-width="0.3" d="M533.596,-537.74C462.491,-534.164 273.859,-522.97 253.545,-504 199.371,-453.408 216.838,-354.415 229.416,-306.816"/>
<polygon fill="black" stroke="black" stroke-width="0.3" points="232.854,-307.513 232.152,-296.942 226.109,-305.644 232.854,-307.513"/>
<text text-anchor="middle" x="221.545" y="-405.8" font-family="Times New Roman,serif" font-size="14.00">4</text>
</g>
<!-- 6 -->
<g id="node4" class="node"><title>6</title>
<ellipse fill="none" stroke="black" cx="460.545" cy="-366" rx="27" ry="18"/>
<text text-anchor="middle" x="460.545" y="-362.3" font-family="Times New Roman,serif" font-size="14.00">6</text>
</g>
<!-- 1&#45;&gt;6 -->
<g id="edge3" class="edge"><title>1&#45;&gt;6</title>
<path fill="none" stroke="black" stroke-width="0.3" d="M534.821,-534.192C515.416,-529.414 489.209,-520.358 471.545,-504 441.816,-476.47 446.686,-425.186 453.336,-393.772"/>
<polygon fill="black" stroke="black" stroke-width="0.3" points="456.765,-394.475 455.611,-383.944 449.946,-392.896 456.765,-394.475"/>
<text text-anchor="middle" x="456.545" y="-449.3" font-family="Times New Roman,serif" font-size="14.00">4</text>
</g>
<!-- 7 -->
<g id="node5" class="node"><title>7</title>
<ellipse fill="none" stroke="black" cx="678.545" cy="-279" rx="27" ry="18"/>
<text text-anchor="middle" x="678.545" y="-275.3" font-family="Times New Roman,serif" font-size="14.00">7</text>
</g>
<!-- 1&#45;&gt;7 -->
<g id="edge4" class="edge"><title>1&#45;&gt;7</title>
<path fill="none" stroke="black" stroke-width="0.6" d="M582.726,-529.49C596.075,-523.234 613.041,-514.311 626.545,-504 697.792,-449.599 707.826,-417.214 728.545,-330 730.086,-323.514 731.624,-320.913 728.545,-315 724.289,-306.826 717.155,-300.167 709.588,-294.936"/>
<polygon fill="black" stroke="black" stroke-width="0.6" points="711.007,-291.7 700.654,-289.447 707.342,-297.664 711.007,-291.7"/>
<text text-anchor="middle" x="712.545" y="-405.8" font-family="Times New Roman,serif" font-size="14.00">8</text>
</g>
<!-- 8 -->
<g id="node6" class="node"><title>8</title>
<ellipse fill="none" stroke="black" cx="406.545" cy="-192" rx="27" ry="18"/>
<text text-anchor="middle" x="406.545" y="-188.3" font-family="Times New Roman,serif" font-size="14.00">8</text>
</g>
<!-- 1&#45;&gt;8 -->
<g id="edge5" class="edge"><title>1&#45;&gt;8</title>
<path fill="none" stroke="black" stroke-width="0.15" d="M534.431,-535.016C511.97,-530.536 479.636,-521.473 456.545,-504 381.835,-447.465 365.225,-419.507 337.545,-330 324.154,-286.698 359.067,-240.418 383.975,-214.26"/>
<polygon fill="black" stroke="black" stroke-width="0.15" points="386.48,-216.705 391.003,-207.124 381.492,-211.793 386.48,-216.705"/>
<text text-anchor="middle" x="360.545" y="-362.3" font-family="Times New Roman,serif" font-size="14.00">2</text>
</g>
<!-- None -->
<g id="node7" class="node"><title>None</title>
<ellipse fill="none" stroke="black" cx="587.545" cy="-18" rx="31.3957" ry="18"/>
<text text-anchor="middle" x="587.545" y="-14.3" font-family="Times New Roman,serif" font-size="14.00">None</text>
</g>
<!-- 1&#45;&gt;None -->
<g id="edge6" class="edge"><title>1&#45;&gt;None</title>
<path fill="none" stroke="black" stroke-width="0.15" d="M587.604,-537.92C665.754,-534.599 890.732,-523.559 961.545,-504 1010.59,-490.452 1064.54,-504.886 1064.54,-454 1064.54,-454 1064.54,-454 1064.54,-104 1064.54,-59.9009 744.472,-31.0136 628.704,-22.0075"/>
<polygon fill="black" stroke="black" stroke-width="0.15" points="628.713,-18.4981 618.475,-21.2224 628.178,-25.4775 628.713,-18.4981"/>
<text text-anchor="middle" x="1068.54" y="-275.3" font-family="Times New Roman,serif" font-size="14.00">2</text>
</g>
<!-- conspecific 3 -->
<g id="node8" class="node"><title>conspecific 3</title>
<ellipse fill="none" stroke="black" cx="675.545" cy="-105" rx="59.5901" ry="18"/>
<text text-anchor="middle" x="675.545" y="-101.3" font-family="Times New Roman,serif" font-size="14.00">conspecific 3</text>
</g>
<!-- 1&#45;&gt;conspecific 3 -->
<g id="edge7" class="edge"><title>1&#45;&gt;conspecific 3</title>
<path fill="none" stroke="black" stroke-width="0.6" d="M587.643,-539.408C681.726,-540.109 988.545,-536.101 988.545,-454 988.545,-454 988.545,-454 988.545,-191 988.545,-140.593 835.452,-119.117 743.402,-110.76"/>
<polygon fill="black" stroke="black" stroke-width="0.6" points="743.587,-107.263 733.319,-109.875 742.974,-114.236 743.587,-107.263"/>
<text text-anchor="middle" x="992.545" y="-318.8" font-family="Times New Roman,serif" font-size="14.00">8</text>
</g>
<!-- cunningtoni -->
<g id="node9" class="node"><title>cunningtoni</title>
<ellipse fill="none" stroke="black" cx="866.545" cy="-192" rx="55.7903" ry="18"/>
<text text-anchor="middle" x="866.545" y="-188.3" font-family="Times New Roman,serif" font-size="14.00">cunningtoni</text>
</g>
<!-- 1&#45;&gt;cunningtoni -->
<g id="edge8" class="edge"><title>1&#45;&gt;cunningtoni</title>
<path fill="none" stroke="black" stroke-width="0.3" d="M586.329,-534.377C610.827,-529.286 648.178,-519.673 677.545,-504 753.854,-463.275 850.979,-408.706 898.545,-297 909.683,-270.842 896.666,-239.496 884.045,-218.103"/>
<polygon fill="black" stroke="black" stroke-width="0.3" points="886.995,-216.219 878.732,-209.588 881.056,-219.924 886.995,-216.219"/>
<text text-anchor="middle" x="874.545" y="-362.3" font-family="Times New Roman,serif" font-size="14.00">4</text>
</g>
<!-- 2&#45;&gt;1 -->
<g id="edge9" class="edge"><title>2&#45;&gt;1</title>
<path fill="none" stroke="black" stroke-width="1.5" d="M602.307,-465.646C593.707,-471.686 584.062,-479.741 577.545,-489 572.775,-495.777 569.254,-504.002 566.695,-511.807"/>
<polygon fill="black" stroke="black" stroke-width="1.5" points="563.259,-511.092 563.86,-521.669 569.986,-513.025 563.259,-511.092"/>
<text text-anchor="middle" x="585.545" y="-492.8" font-family="Times New Roman,serif" font-size="14.00">20</text>
</g>
<!-- 2&#45;&gt;6 -->
<g id="edge10" class="edge"><title>2&#45;&gt;6</title>
<path fill="none" stroke="black" stroke-width="0.15" d="M599.33,-442.677C583.779,-435.963 562.633,-426.457 544.545,-417 525.435,-407.008 504.602,-394.618 488.463,-384.671"/>
<polygon fill="black" stroke="black" stroke-width="0.15" points="489.893,-381.439 479.552,-379.133 486.199,-387.384 489.893,-381.439"/>
<text text-anchor="middle" x="548.545" y="-405.8" font-family="Times New Roman,serif" font-size="14.00">2</text>
</g>
<!-- 2&#45;&gt;7 -->
<g id="edge11" class="edge"><title>2&#45;&gt;7</title>
<path fill="none" stroke="black" stroke-width="0.45" d="M629.672,-435.464C632.355,-429.694 635.24,-423.128 637.545,-417 651.651,-379.499 664.266,-334.835 671.664,-306.942"/>
<polygon fill="black" stroke="black" stroke-width="0.45" points="675.088,-307.683 674.236,-297.123 668.316,-305.909 675.088,-307.683"/>
<text text-anchor="middle" x="664.545" y="-362.3" font-family="Times New Roman,serif" font-size="14.00">6</text>
</g>
<!-- 2&#45;&gt;8 -->
<g id="edge12" class="edge"><title>2&#45;&gt;8</title>
<path fill="none" stroke="black" stroke-width="0.45" d="M616.671,-435.291C615.01,-429.508 613.165,-422.978 611.545,-417 606.864,-399.729 583.586,-274.237 571.545,-261 555.652,-243.529 543.497,-251.713 521.545,-243 492.862,-231.615 460.684,-217.508 437.677,-207.185"/>
<polygon fill="black" stroke="black" stroke-width="0.45" points="438.969,-203.928 428.414,-203.011 436.093,-210.31 438.969,-203.928"/>
<text text-anchor="middle" x="596.545" y="-318.8" font-family="Times New Roman,serif" font-size="14.00">6</text>
</g>
<!-- 2&#45;&gt;None -->
<g id="edge13" class="edge"><title>2&#45;&gt;None</title>
<path fill="none" stroke="black" stroke-width="0.75" d="M644.365,-443.225C661.806,-436.395 686.37,-426.509 707.545,-417 756.225,-395.139 877.812,-334.733 915.545,-297 971.68,-240.865 1049.22,-205.219 1002.54,-141 957.704,-79.2985 722.726,-38.7012 627.591,-24.5654"/>
<polygon fill="black" stroke="black" stroke-width="0.75" points="627.9,-21.0735 617.499,-23.0875 626.886,-27.9996 627.9,-21.0735"/>
<text text-anchor="middle" x="1000.54" y="-231.8" font-family="Times New Roman,serif" font-size="14.00">10</text>
</g>
<!-- conspecific 1 -->
<g id="node10" class="node"><title>conspecific 1</title>
<ellipse fill="none" stroke="black" cx="732.545" cy="-192" rx="59.5901" ry="18"/>
<text text-anchor="middle" x="732.545" y="-188.3" font-family="Times New Roman,serif" font-size="14.00">conspecific 1</text>
</g>
<!-- 2&#45;&gt;conspecific 1 -->
<g id="edge14" class="edge"><title>2&#45;&gt;conspecific 1</title>
<path fill="none" stroke="black" stroke-width="0.9" d="M636.57,-437.752C642.547,-431.67 649.248,-424.3 654.545,-417 664.356,-403.478 664.911,-398.86 672.545,-384 692.164,-345.808 701.424,-337.883 714.545,-297 722.689,-271.626 727.389,-241.519 729.93,-220.244"/>
<polygon fill="black" stroke="black" stroke-width="0.9" points="733.411,-220.609 731.039,-210.283 726.454,-219.834 733.411,-220.609"/>
<text text-anchor="middle" x="716.545" y="-318.8" font-family="Times New Roman,serif" font-size="14.00">12</text>
</g>
<!-- conspecific 2 -->
<g id="node11" class="node"><title>conspecific 2</title>
<ellipse fill="none" stroke="black" cx="499.545" cy="-105" rx="59.5901" ry="18"/>
<text text-anchor="middle" x="499.545" y="-101.3" font-family="Times New Roman,serif" font-size="14.00">conspecific 2</text>
</g>
<!-- 2&#45;&gt;conspecific 2 -->
<g id="edge15" class="edge"><title>2&#45;&gt;conspecific 2</title>
<path fill="none" stroke="black" stroke-width="0.75" d="M641.427,-440.506C717.845,-395.676 985.742,-232.19 931.545,-174 912.337,-153.377 706.313,-160.815 678.545,-156 633.212,-148.139 582.845,-133.522 547.116,-122.115"/>
<polygon fill="black" stroke="black" stroke-width="0.75" points="548.035,-118.734 537.444,-118.991 545.884,-125.395 548.035,-118.734"/>
<text text-anchor="middle" x="903.545" y="-275.3" font-family="Times New Roman,serif" font-size="14.00">10</text>
</g>
<!-- 5&#45;&gt;1 -->
<g id="edge16" class="edge"><title>5&#45;&gt;1</title>
<path fill="none" stroke="black" stroke-width="0.75" d="M240.631,-297.1C249.559,-344.612 276.874,-476.528 309.545,-504 341.14,-530.567 461.272,-536.992 523.173,-538.529"/>
<polygon fill="black" stroke="black" stroke-width="0.75" points="523.23,-542.031 533.303,-538.75 523.382,-535.033 523.23,-542.031"/>
<text text-anchor="middle" x="276.545" y="-405.8" font-family="Times New Roman,serif" font-size="14.00">10</text>
</g>
<!-- 5&#45;&gt;6 -->
<g id="edge17" class="edge"><title>5&#45;&gt;6</title>
<path fill="none" stroke="black" stroke-width="0.15" d="M259.684,-289.627C283.823,-300.011 323.673,-316.826 358.545,-330 381.169,-338.547 406.931,-347.38 426.905,-354.034"/>
<polygon fill="black" stroke="black" stroke-width="0.15" points="425.897,-357.387 436.49,-357.208 428.097,-350.742 425.897,-357.387"/>
<text text-anchor="middle" x="362.545" y="-318.8" font-family="Times New Roman,serif" font-size="14.00">2</text>
</g>
<!-- 5&#45;&gt;8 -->
<g id="edge18" class="edge"><title>5&#45;&gt;8</title>
<path fill="none" stroke="black" stroke-width="0.6" d="M259.587,-268.211C274.24,-261.514 293.796,-252.212 310.545,-243 321.567,-236.938 323.54,-234.092 334.545,-228 347.724,-220.705 362.648,-213.315 375.478,-207.216"/>
<polygon fill="black" stroke="black" stroke-width="0.6" points="377.255,-210.248 384.817,-202.827 374.278,-203.913 377.255,-210.248"/>
<text text-anchor="middle" x="338.545" y="-231.8" font-family="Times New Roman,serif" font-size="14.00">8</text>
</g>
<!-- 5&#45;&gt;None -->
<g id="edge21" class="edge"><title>5&#45;&gt;None</title>
<path fill="none" stroke="black" stroke-width="0.3" d="M230.671,-261.574C216.7,-225.283 189.768,-137.492 232.545,-87 272.555,-39.7733 461.706,-24.9524 546.386,-20.6378"/>
<polygon fill="black" stroke="black" stroke-width="0.3" points="546.599,-24.1317 556.418,-20.1512 546.26,-17.1399 546.599,-24.1317"/>
<text text-anchor="middle" x="214.545" y="-144.8" font-family="Times New Roman,serif" font-size="14.00">4</text>
</g>
<!-- 9 -->
<g id="node12" class="node"><title>9</title>
<ellipse fill="none" stroke="black" cx="268.545" cy="-105" rx="27" ry="18"/>
<text text-anchor="middle" x="268.545" y="-101.3" font-family="Times New Roman,serif" font-size="14.00">9</text>
</g>
<!-- 5&#45;&gt;9 -->
<g id="edge19" class="edge"><title>5&#45;&gt;9</title>
<path fill="none" stroke="black" stroke-width="0.15" d="M240.631,-260.879C246.016,-231.001 257.17,-169.113 263.629,-133.274"/>
<polygon fill="black" stroke="black" stroke-width="0.15" points="267.142,-133.514 265.472,-123.052 260.253,-132.272 267.142,-133.514"/>
<text text-anchor="middle" x="260.545" y="-188.3" font-family="Times New Roman,serif" font-size="14.00">2</text>
</g>
<!-- L. dardennii -->
<g id="node13" class="node"><title>L. dardennii</title>
<ellipse fill="none" stroke="black" cx="56.545" cy="-18" rx="56.59" ry="18"/>
<text text-anchor="middle" x="56.545" y="-14.3" font-family="Times New Roman,serif" font-size="14.00">L. dardennii</text>
</g>
<!-- 5&#45;&gt;L. dardennii -->
<g id="edge20" class="edge"><title>5&#45;&gt;L. dardennii</title>
<path fill="none" stroke="black" stroke-width="0.15" d="M211.269,-274.23C190.446,-269.966 161.896,-261.096 143.545,-243 87.5997,-187.834 66.8838,-92.606 59.8409,-46.1164"/>
<polygon fill="black" stroke="black" stroke-width="0.15" points="63.3016,-45.592 58.4338,-36.1816 56.3708,-46.5737 63.3016,-45.592"/>
<text text-anchor="middle" x="92.545" y="-144.8" font-family="Times New Roman,serif" font-size="14.00">2</text>
</g>
<!-- Xenotilapia spp. -->
<g id="node14" class="node"><title>Xenotilapia spp.</title>
<ellipse fill="none" stroke="black" cx="202.545" cy="-18" rx="71.4873" ry="18"/>
<text text-anchor="middle" x="202.545" y="-14.3" font-family="Times New Roman,serif" font-size="14.00">Xenotilapia spp.</text>
</g>
<!-- 5&#45;&gt;Xenotilapia spp. -->
<g id="edge22" class="edge"><title>5&#45;&gt;Xenotilapia spp.</title>
<path fill="none" stroke="black" stroke-width="0.15" d="M211.553,-273.618C193.278,-269.126 169.807,-260.243 156.545,-243 132.71,-212.01 146.442,-194.988 143.545,-156 140.99,-121.612 135.947,-72.3683 146.545,-54 149.741,-48.4607 154.203,-43.6736 159.228,-39.5739"/>
<polygon fill="black" stroke="black" stroke-width="0.15" points="161.374,-42.3425 167.486,-33.6881 157.311,-36.6422 161.374,-42.3425"/>
<text text-anchor="middle" x="147.545" y="-144.8" font-family="Times New Roman,serif" font-size="14.00">2</text>
</g>
<!-- 6&#45;&gt;1 -->
<g id="edge23" class="edge"><title>6&#45;&gt;1</title>
<path fill="none" stroke="black" stroke-width="0.3" d="M466.884,-383.909C477.337,-410.693 499.82,-463.942 527.545,-504 530.753,-508.635 534.564,-513.259 538.436,-517.556"/>
<polygon fill="black" stroke="black" stroke-width="0.3" points="535.94,-520.011 545.356,-524.868 541.024,-515.199 535.94,-520.011"/>
<text text-anchor="middle" x="511.545" y="-449.3" font-family="Times New Roman,serif" font-size="14.00">4</text>
</g>
<!-- 6&#45;&gt;2 -->
<g id="edge24" class="edge"><title>6&#45;&gt;2</title>
<path fill="none" stroke="black" stroke-width="0.3" d="M484.747,-374.265C503.757,-380.425 530.593,-390.141 552.545,-402 561.386,-406.776 580.273,-420.562 596.055,-432.451"/>
<polygon fill="black" stroke="black" stroke-width="0.3" points="594.336,-435.541 604.42,-438.792 598.565,-429.962 594.336,-435.541"/>
<text text-anchor="middle" x="579.545" y="-405.8" font-family="Times New Roman,serif" font-size="14.00">4</text>
</g>
<!-- 6&#45;&gt;5 -->
<g id="edge25" class="edge"><title>6&#45;&gt;5</title>
<path fill="none" stroke="black" stroke-width="0.15" d="M434.131,-361.855C403.41,-357.523 351.659,-348.109 310.545,-330 292.966,-322.257 275.142,-310.149 261.508,-299.787"/>
<polygon fill="black" stroke="black" stroke-width="0.15" points="263.637,-297.008 253.6,-293.616 259.33,-302.527 263.637,-297.008"/>
<text text-anchor="middle" x="314.545" y="-318.8" font-family="Times New Roman,serif" font-size="14.00">2</text>
</g>
<!-- 6&#45;&gt;7 -->
<g id="edge26" class="edge"><title>6&#45;&gt;7</title>
<path fill="none" stroke="black" stroke-width="0.15" d="M479.991,-353.231C498.804,-342.218 528.38,-325.877 555.545,-315 584.348,-303.467 618.358,-294.096 643.306,-287.963"/>
<polygon fill="black" stroke="black" stroke-width="0.15" points="644.161,-291.357 653.065,-285.615 642.524,-284.551 644.161,-291.357"/>
<text text-anchor="middle" x="559.545" y="-318.8" font-family="Times New Roman,serif" font-size="14.00">2</text>
</g>
<!-- 6&#45;&gt;8 -->
<g id="edge27" class="edge"><title>6&#45;&gt;8</title>
<path fill="none" stroke="black" stroke-width="0.3" d="M442.214,-352.454C426.646,-340.41 405.852,-320.595 399.545,-297 392.709,-271.426 395.971,-241.12 400.023,-219.841"/>
<polygon fill="black" stroke="black" stroke-width="0.3" points="403.482,-220.399 402.099,-209.895 396.629,-218.969 403.482,-220.399"/>
<text text-anchor="middle" x="403.545" y="-275.3" font-family="Times New Roman,serif" font-size="14.00">4</text>
</g>
<!-- 6&#45;&gt;None -->
<g id="edge28" class="edge"><title>6&#45;&gt;None</title>
<path fill="none" stroke="black" stroke-width="0.45" d="M459.79,-347.711C458.33,-305.629 457.023,-199.457 479.545,-174 503.694,-146.705 533.202,-181.185 559.545,-156 589.055,-127.787 591.877,-77.52 590.339,-46.3493"/>
<polygon fill="black" stroke="black" stroke-width="0.45" points="593.819,-45.9281 589.651,-36.1877 586.835,-46.4016 593.819,-45.9281"/>
<text text-anchor="middle" x="483.545" y="-188.3" font-family="Times New Roman,serif" font-size="14.00">6</text>
</g>
<!-- conspecific 4 -->
<g id="node15" class="node"><title>conspecific 4</title>
<ellipse fill="none" stroke="black" cx="556.545" cy="-192" rx="59.5901" ry="18"/>
<text text-anchor="middle" x="556.545" y="-188.3" font-family="Times New Roman,serif" font-size="14.00">conspecific 4</text>
</g>
<!-- 6&#45;&gt;conspecific 4 -->
<g id="edge29" class="edge"><title>6&#45;&gt;conspecific 4</title>
<path fill="none" stroke="black" stroke-width="0.15" d="M475.994,-351.199C504.698,-325.149 564.279,-269.022 574.545,-243 577.626,-235.19 576.242,-226.615 573.178,-218.805"/>
<polygon fill="black" stroke="black" stroke-width="0.15" points="576.306,-217.233 568.795,-209.761 570.007,-220.286 576.306,-217.233"/>
<text text-anchor="middle" x="567.545" y="-275.3" font-family="Times New Roman,serif" font-size="14.00">2</text>
</g>
<!-- 7&#45;&gt;1 -->
<g id="edge30" class="edge"><title>7&#45;&gt;1</title>
<path fill="none" stroke="black" stroke-width="3" d="M703.416,-286.457C717.859,-291.624 734.87,-300.476 743.545,-315 767.375,-354.897 739.471,-374.557 720.545,-417 709.617,-441.507 710.624,-450.304 693.545,-471 678.212,-489.581 671.538,-492.182 650.545,-504 632.837,-513.969 611.721,-522.344 594.395,-528.4"/>
<polygon fill="black" stroke="black" stroke-width="3" points="593.032,-525.166 584.685,-531.692 595.28,-531.795 593.032,-525.166"/>
<text text-anchor="middle" x="736.545" y="-405.8" font-family="Times New Roman,serif" font-size="14.00">40</text>
</g>
<!-- 7&#45;&gt;6 -->
<g id="edge31" class="edge"><title>7&#45;&gt;6</title>
<path fill="none" stroke="black" stroke-width="0.15" d="M668.429,-295.725C660.195,-307.152 647.512,-321.969 632.545,-330 587.734,-354.046 569.183,-336.939 519.545,-348 511.26,-349.846 502.421,-352.188 494.175,-354.54"/>
<polygon fill="black" stroke="black" stroke-width="0.15" points="493.098,-351.208 484.486,-357.379 495.067,-357.925 493.098,-351.208"/>
<text text-anchor="middle" x="656.545" y="-318.8" font-family="Times New Roman,serif" font-size="14.00">2</text>
</g>
<!-- 7&#45;&gt;8 -->
<g id="edge32" class="edge"><title>7&#45;&gt;8</title>
<path fill="none" stroke="black" stroke-width="0.45" d="M656.506,-268.599C650.392,-266.063 643.735,-263.368 637.545,-261 596.19,-245.181 586.306,-239.487 543.545,-228 502.043,-216.851 489.774,-222.121 448.545,-210 445.121,-208.993 441.591,-207.809 438.1,-206.543"/>
<polygon fill="black" stroke="black" stroke-width="0.45" points="439.077,-203.168 428.488,-202.832 436.556,-209.699 439.077,-203.168"/>
<text text-anchor="middle" x="595.545" y="-231.8" font-family="Times New Roman,serif" font-size="14.00">6</text>
</g>
<!-- 7&#45;&gt;None -->
<g id="edge33" class="edge"><title>7&#45;&gt;None</title>
<path fill="none" stroke="black" stroke-width="0.9" d="M670.356,-261.747C660.791,-240.285 648.116,-201.948 663.545,-174 684.106,-136.757 723.984,-160.243 744.545,-123 752.278,-108.993 753.327,-100.374 744.545,-87 718.912,-47.9638 665.549,-31.2276 628.183,-24.1239"/>
<polygon fill="black" stroke="black" stroke-width="0.9" points="628.558,-20.6364 618.105,-22.3652 627.354,-27.5322 628.558,-20.6364"/>
<text text-anchor="middle" x="734.545" y="-144.8" font-family="Times New Roman,serif" font-size="14.00">12</text>
</g>
<!-- 7&#45;&gt;cunningtoni -->
<g id="edge36" class="edge"><title>7&#45;&gt;cunningtoni</title>
<path fill="none" stroke="black" stroke-width="0.15" d="M700.479,-268.083C731.196,-254.195 787.571,-228.707 826.035,-211.316"/>
<polygon fill="black" stroke="black" stroke-width="0.15" points="827.732,-214.39 835.402,-207.081 824.848,-208.011 827.732,-214.39"/>
<text text-anchor="middle" x="788.545" y="-231.8" font-family="Times New Roman,serif" font-size="14.00">2</text>
</g>
<!-- 7&#45;&gt;conspecific 1 -->
<g id="edge34" class="edge"><title>7&#45;&gt;conspecific 1</title>
<path fill="none" stroke="black" stroke-width="0.15" d="M688.702,-262.012C696.471,-249.783 707.338,-232.677 716.309,-218.556"/>
<polygon fill="black" stroke="black" stroke-width="0.15" points="719.471,-220.106 721.879,-209.789 713.563,-216.352 719.471,-220.106"/>
<text text-anchor="middle" x="713.545" y="-231.8" font-family="Times New Roman,serif" font-size="14.00">2</text>
</g>
<!-- 7&#45;&gt;conspecific 4 -->
<g id="edge35" class="edge"><title>7&#45;&gt;conspecific 4</title>
<path fill="none" stroke="black" stroke-width="0.15" d="M659.226,-266.196C648.576,-259.567 635.19,-251.034 623.545,-243 610.759,-234.179 596.954,-223.995 585.216,-215.129"/>
<polygon fill="black" stroke="black" stroke-width="0.15" points="587.159,-212.209 577.079,-208.944 582.923,-217.782 587.159,-212.209"/>
<text text-anchor="middle" x="627.545" y="-231.8" font-family="Times New Roman,serif" font-size="14.00">2</text>
</g>
<!-- 8&#45;&gt;1 -->
<g id="edge37" class="edge"><title>8&#45;&gt;1</title>
<path fill="none" stroke="black" stroke-width="1.2" d="M424.943,-205.516C452.347,-225.265 503.258,-266.442 527.545,-315 544.577,-349.053 554.729,-459.837 558.66,-511.725"/>
<polygon fill="black" stroke="black" stroke-width="1.2" points="555.181,-512.138 559.405,-521.854 562.162,-511.624 555.181,-512.138"/>
<text text-anchor="middle" x="553.545" y="-362.3" font-family="Times New Roman,serif" font-size="14.00">16</text>
</g>
<!-- 8&#45;&gt;2 -->
<g id="edge38" class="edge"><title>8&#45;&gt;2</title>
<path fill="none" stroke="black" stroke-width="0.15" d="M428.573,-202.557C434.952,-205.149 441.97,-207.835 448.545,-210 479.056,-220.048 488.616,-216.331 518.545,-228 531.698,-233.128 533.727,-237.084 546.545,-243 566.478,-252.2 578.479,-244.144 592.545,-261 631.602,-307.806 629.817,-384.429 625.497,-424.935"/>
<polygon fill="black" stroke="black" stroke-width="0.15" points="622.02,-424.537 624.306,-434.882 628.97,-425.369 622.02,-424.537"/>
<text text-anchor="middle" x="627.545" y="-318.8" font-family="Times New Roman,serif" font-size="14.00">2</text>
</g>
<!-- 8&#45;&gt;6 -->
<g id="edge39" class="edge"><title>8&#45;&gt;6</title>
<path fill="none" stroke="black" stroke-width="0.3" d="M410.952,-210.038C417.823,-236.111 431.834,-287.371 446.545,-330 447.558,-332.937 448.677,-335.988 449.828,-339.01"/>
<polygon fill="black" stroke="black" stroke-width="0.3" points="446.6,-340.366 453.52,-348.389 453.114,-337.802 446.6,-340.366"/>
<text text-anchor="middle" x="440.545" y="-275.3" font-family="Times New Roman,serif" font-size="14.00">4</text>
</g>
<!-- 8&#45;&gt;None -->
<g id="edge41" class="edge"><title>8&#45;&gt;None</title>
<path fill="none" stroke="black" stroke-width="1.05" d="M402.783,-174.007C398.886,-151.726 395.708,-112.484 414.545,-87 445.426,-45.2214 505.882,-29.097 546.504,-22.8829"/>
<polygon fill="black" stroke="black" stroke-width="1.05" points="547.206,-26.319 556.629,-21.475 546.242,-19.3857 547.206,-26.319"/>
<text text-anchor="middle" x="422.545" y="-101.3" font-family="Times New Roman,serif" font-size="14.00">14</text>
</g>
<!-- 8&#45;&gt;conspecific 3 -->
<g id="edge44" class="edge"><title>8&#45;&gt;conspecific 3</title>
<path fill="none" stroke="black" stroke-width="0.6" d="M428.63,-181.61C435.01,-179.02 442.014,-176.294 448.545,-174 507.488,-153.294 576.378,-133.225 622.673,-120.324"/>
<polygon fill="black" stroke="black" stroke-width="0.6" points="623.786,-123.648 632.486,-117.603 621.915,-116.903 623.786,-123.648"/>
<text text-anchor="middle" x="551.545" y="-144.8" font-family="Times New Roman,serif" font-size="14.00">8</text>
</g>
<!-- 8&#45;&gt;conspecific 2 -->
<g id="edge43" class="edge"><title>8&#45;&gt;conspecific 2</title>
<path fill="none" stroke="black" stroke-width="1.2" d="M421.902,-176.964C436.001,-164.078 457.169,-144.731 473.843,-129.491"/>
<polygon fill="black" stroke="black" stroke-width="1.2" points="476.597,-131.716 481.617,-122.386 471.874,-126.549 476.597,-131.716"/>
<text text-anchor="middle" x="467.545" y="-144.8" font-family="Times New Roman,serif" font-size="14.00">16</text>
</g>
<!-- 8&#45;&gt;9 -->
<g id="edge40" class="edge"><title>8&#45;&gt;9</title>
<path fill="none" stroke="black" stroke-width="0.6" d="M389.47,-178.013C375.35,-167.511 354.597,-152.615 335.545,-141 323.786,-133.831 310.408,-126.658 298.715,-120.689"/>
<polygon fill="black" stroke="black" stroke-width="0.6" points="300.268,-117.552 289.762,-116.183 297.121,-123.805 300.268,-117.552"/>
<text text-anchor="middle" x="362.545" y="-144.8" font-family="Times New Roman,serif" font-size="14.00">8</text>
</g>
<!-- 8&#45;&gt;Xenotilapia spp. -->
<g id="edge42" class="edge"><title>8&#45;&gt;Xenotilapia spp.</title>
<path fill="none" stroke="black" stroke-width="0.15" d="M401.38,-174.144C390.977,-141.246 366.849,-70.2755 347.545,-54 329.182,-38.5174 305.091,-29.6593 281.834,-24.658"/>
<polygon fill="black" stroke="black" stroke-width="0.15" points="282.42,-21.2064 271.937,-22.7426 281.09,-28.0789 282.42,-21.2064"/>
<text text-anchor="middle" x="387.545" y="-101.3" font-family="Times New Roman,serif" font-size="14.00">2</text>
</g>
<!-- 9&#45;&gt;1 -->
<g id="edge45" class="edge"><title>9&#45;&gt;1</title>
<path fill="none" stroke="black" stroke-width="0.45" d="M243.717,-112.266C185.396,-128.634 44.545,-178.467 44.545,-278 44.545,-454 44.545,-454 44.545,-454 44.545,-502.582 405.256,-529.345 523.502,-536.813"/>
<polygon fill="black" stroke="black" stroke-width="0.45" points="523.331,-540.309 533.529,-537.437 523.766,-533.323 523.331,-540.309"/>
<text text-anchor="middle" x="48.545" y="-318.8" font-family="Times New Roman,serif" font-size="14.00">6</text>
</g>
<!-- 9&#45;&gt;5 -->
<g id="edge46" class="edge"><title>9&#45;&gt;5</title>
<path fill="none" stroke="black" stroke-width="1.5" d="M256.841,-121.488C247.664,-134.664 235.624,-154.5 230.545,-174 223.873,-199.618 227.112,-229.917 231.113,-251.183"/>
<polygon fill="black" stroke="black" stroke-width="1.5" points="227.715,-252.034 233.163,-261.122 234.571,-250.621 227.715,-252.034"/>
<text text-anchor="middle" x="238.545" y="-188.3" font-family="Times New Roman,serif" font-size="14.00">20</text>
</g>
<!-- 9&#45;&gt;6 -->
<g id="edge47" class="edge"><title>9&#45;&gt;6</title>
<path fill="none" stroke="black" stroke-width="0.15" d="M272.25,-122.839C279.883,-157.135 297.175,-232.724 303.545,-243 334.515,-292.959 393.749,-330.435 429.944,-349.93"/>
<polygon fill="black" stroke="black" stroke-width="0.15" points="428.578,-353.166 439.058,-354.721 431.836,-346.97 428.578,-353.166"/>
<text text-anchor="middle" x="307.545" y="-231.8" font-family="Times New Roman,serif" font-size="14.00">2</text>
</g>
<!-- 9&#45;&gt;8 -->
<g id="edge48" class="edge"><title>9&#45;&gt;8</title>
<path fill="none" stroke="black" stroke-width="0.6" d="M283.44,-120.398C295.07,-131.13 311.984,-145.657 328.545,-156 342.66,-164.816 359.374,-172.623 373.702,-178.614"/>
<polygon fill="black" stroke="black" stroke-width="0.6" points="372.597,-181.943 383.179,-182.462 375.231,-175.457 372.597,-181.943"/>
<text text-anchor="middle" x="332.545" y="-144.8" font-family="Times New Roman,serif" font-size="14.00">8</text>
</g>
<!-- 9&#45;&gt;None -->
<g id="edge50" class="edge"><title>9&#45;&gt;None</title>
<path fill="none" stroke="black" stroke-width="0.6" d="M289.171,-93.2248C311.758,-81.8587 349.332,-64.2103 383.545,-54 438.937,-37.469 505.267,-27.8933 546.916,-23.0592"/>
<polygon fill="black" stroke="black" stroke-width="0.6" points="547.405,-26.5264 556.952,-21.931 546.623,-19.5702 547.405,-26.5264"/>
<text text-anchor="middle" x="387.545" y="-57.8" font-family="Times New Roman,serif" font-size="14.00">8</text>
</g>
<!-- 9&#45;&gt;L. dardennii -->
<g id="edge49" class="edge"><title>9&#45;&gt;L. dardennii</title>
<path fill="none" stroke="black" stroke-width="0.15" d="M245.857,-94.9035C211.027,-80.9386 143.777,-53.975 99.5279,-36.2337"/>
<polygon fill="black" stroke="black" stroke-width="0.15" points="100.765,-32.959 90.1809,-32.4861 98.1601,-39.4562 100.765,-32.959"/>
<text text-anchor="middle" x="179.545" y="-57.8" font-family="Times New Roman,serif" font-size="14.00">2</text>
</g>
<!-- 9&#45;&gt;Xenotilapia spp. -->
<g id="edge51" class="edge"><title>9&#45;&gt;Xenotilapia spp.</title>
<path fill="none" stroke="black" stroke-width="0.15" d="M256.746,-88.8037C247.075,-76.3494 233.193,-58.4703 221.898,-43.925"/>
<polygon fill="black" stroke="black" stroke-width="0.15" points="224.497,-41.5643 215.599,-35.8123 218.968,-45.8574 224.497,-41.5643"/>
<text text-anchor="middle" x="243.545" y="-57.8" font-family="Times New Roman,serif" font-size="14.00">2</text>
</g>
</g>
</svg>
