<?xml version="1.0" encoding="UTF-8" standalone="no"?>
<!DOCTYPE svg PUBLIC "-//W3C//DTD SVG 1.1//EN"
 "http://www.w3.org/Graphics/SVG/1.1/DTD/svg11.dtd">
<!-- Generated by graphviz version 2.38.0 (20140413.2041)
 -->
<!-- Title: %3 Pages: 1 -->
<svg width="747pt" height="392pt"
 viewBox="0.00 0.00 747.47 392.00" xmlns="http://www.w3.org/2000/svg" xmlns:xlink="http://www.w3.org/1999/xlink">
<g id="graph0" class="graph" transform="scale(1 1) rotate(0) translate(4 388)">
<title>%3</title>
<polygon fill="white" stroke="none" points="-4,4 -4,-388 743.471,-388 743.471,4 -4,4"/>
<!-- 1 -->
<g id="node1" class="node"><title>1</title>
<ellipse fill="none" stroke="black" cx="224" cy="-279" rx="27" ry="18"/>
<text text-anchor="middle" x="224" y="-275.3" font-family="Times New Roman,serif" font-size="14.00">1</text>
</g>
<!-- 2 -->
<g id="node2" class="node"><title>2</title>
<ellipse fill="none" stroke="black" cx="309" cy="-192" rx="27" ry="18"/>
<text text-anchor="middle" x="309" y="-188.3" font-family="Times New Roman,serif" font-size="14.00">2</text>
</g>
<!-- 1&#45;&gt;2 -->
<g id="edge1" class="edge"><title>1&#45;&gt;2</title>
<path fill="none" stroke="black" stroke-width="0.818182" d="M229.173,-261.197C233.053,-250.708 239.217,-237.452 248,-228 252.849,-222.782 265.949,-215.05 278.773,-208.179"/>
<polygon fill="black" stroke="black" stroke-width="0.818182" points="280.705,-211.118 287.939,-203.377 277.457,-204.917 280.705,-211.118"/>
<text text-anchor="middle" x="252" y="-231.8" font-family="Times New Roman,serif" font-size="14.00">6</text>
</g>
<!-- 4 -->
<g id="node3" class="node"><title>4</title>
<ellipse fill="none" stroke="black" cx="105" cy="-105" rx="27" ry="18"/>
<text text-anchor="middle" x="105" y="-101.3" font-family="Times New Roman,serif" font-size="14.00">4</text>
</g>
<!-- 1&#45;&gt;4 -->
<g id="edge2" class="edge"><title>1&#45;&gt;4</title>
<path fill="none" stroke="black" stroke-width="0.818182" d="M196.899,-278.421C164.327,-277.54 109.616,-271.466 74,-243 49.4091,-223.346 50.9542,-204.682 58,-174 61.9786,-156.675 73.1105,-140.195 83.542,-127.8"/>
<polygon fill="black" stroke="black" stroke-width="0.818182" points="86.1978,-130.08 90.2136,-120.275 80.9603,-125.436 86.1978,-130.08"/>
<text text-anchor="middle" x="62" y="-188.3" font-family="Times New Roman,serif" font-size="14.00">6</text>
</g>
<!-- 5 -->
<g id="node4" class="node"><title>5</title>
<ellipse fill="none" stroke="black" cx="372" cy="-105" rx="27" ry="18"/>
<text text-anchor="middle" x="372" y="-101.3" font-family="Times New Roman,serif" font-size="14.00">5</text>
</g>
<!-- 1&#45;&gt;5 -->
<g id="edge3" class="edge"><title>1&#45;&gt;5</title>
<path fill="none" stroke="black" stroke-width="0.272727" d="M248.996,-271.66C287.519,-261.864 357.095,-244.055 358,-243 384.026,-212.633 382.017,-163.457 377.499,-133.018"/>
<polygon fill="black" stroke="black" stroke-width="0.272727" points="380.941,-132.379 375.838,-123.094 374.037,-133.535 380.941,-132.379"/>
<text text-anchor="middle" x="385" y="-188.3" font-family="Times New Roman,serif" font-size="14.00">2</text>
</g>
<!-- None -->
<g id="node5" class="node"><title>None</title>
<ellipse fill="none" stroke="black" cx="209" cy="-18" rx="31.3957" ry="18"/>
<text text-anchor="middle" x="209" y="-14.3" font-family="Times New Roman,serif" font-size="14.00">None</text>
</g>
<!-- 1&#45;&gt;None -->
<g id="edge4" class="edge"><title>1&#45;&gt;None</title>
<path fill="none" stroke="black" stroke-width="1.90909" d="M202.866,-267.294C183.239,-256.034 155.257,-236.294 143,-210 128.914,-179.783 172.119,-89.1608 195.313,-44.4776"/>
<polygon fill="black" stroke="black" stroke-width="1.90909" points="198.516,-45.9066 200.065,-35.4257 192.318,-42.653 198.516,-45.9066"/>
<text text-anchor="middle" x="161" y="-144.8" font-family="Times New Roman,serif" font-size="14.00">14</text>
</g>
<!-- conspecific -->
<g id="node6" class="node"><title>conspecific</title>
<ellipse fill="none" stroke="black" cx="450" cy="-192" rx="51.9908" ry="18"/>
<text text-anchor="middle" x="450" y="-188.3" font-family="Times New Roman,serif" font-size="14.00">conspecific</text>
</g>
<!-- 1&#45;&gt;conspecific -->
<g id="edge5" class="edge"><title>1&#45;&gt;conspecific</title>
<path fill="none" stroke="black" stroke-width="0.545455" d="M248.732,-271.34C261.339,-268.043 276.94,-264.113 291,-261 332.958,-251.711 346.854,-260.728 386,-243 400.573,-236.4 414.8,-225.829 426.125,-216.103"/>
<polygon fill="black" stroke="black" stroke-width="0.545455" points="428.688,-218.507 433.822,-209.239 424.029,-213.283 428.688,-218.507"/>
<text text-anchor="middle" x="415" y="-231.8" font-family="Times New Roman,serif" font-size="14.00">4</text>
</g>
<!-- cunningtoni -->
<g id="node7" class="node"><title>cunningtoni</title>
<ellipse fill="none" stroke="black" cx="208" cy="-192" rx="55.7903" ry="18"/>
<text text-anchor="middle" x="208" y="-188.3" font-family="Times New Roman,serif" font-size="14.00">cunningtoni</text>
</g>
<!-- 1&#45;&gt;cunningtoni -->
<g id="edge6" class="edge"><title>1&#45;&gt;cunningtoni</title>
<path fill="none" stroke="black" stroke-width="0.272727" d="M216.114,-261.628C213.704,-255.872 211.338,-249.272 210,-243 208.465,-235.807 207.727,-227.904 207.426,-220.547"/>
<polygon fill="black" stroke="black" stroke-width="0.272727" points="210.921,-220.245 207.256,-210.304 203.922,-220.361 210.921,-220.245"/>
<text text-anchor="middle" x="214" y="-231.8" font-family="Times New Roman,serif" font-size="14.00">2</text>
</g>
<!-- 2&#45;&gt;1 -->
<g id="edge7" class="edge"><title>2&#45;&gt;1</title>
<path fill="none" stroke="black" stroke-width="1.36364" d="M294.51,-207.49C281.054,-220.946 260.844,-241.156 245.506,-256.494"/>
<polygon fill="black" stroke="black" stroke-width="1.36364" points="243.015,-254.035 238.419,-263.581 247.965,-258.985 243.015,-254.035"/>
<text text-anchor="middle" x="280" y="-231.8" font-family="Times New Roman,serif" font-size="14.00">10</text>
</g>
<!-- 2&#45;&gt;4 -->
<g id="edge8" class="edge"><title>2&#45;&gt;4</title>
<path fill="none" stroke="black" stroke-width="3" d="M287.777,-180.717C282.945,-178.449 277.816,-176.098 273,-174 253.252,-165.397 247.978,-164.056 228,-156 197.048,-143.519 161.765,-129.163 136.949,-119.044"/>
<polygon fill="black" stroke="black" stroke-width="3" points="138.236,-115.789 127.655,-115.253 135.592,-122.271 138.236,-115.789"/>
<text text-anchor="middle" x="236" y="-144.8" font-family="Times New Roman,serif" font-size="14.00">22</text>
</g>
<!-- 2&#45;&gt;5 -->
<g id="edge9" class="edge"><title>2&#45;&gt;5</title>
<path fill="none" stroke="black" stroke-width="0.272727" d="M320.555,-175.41C330.057,-162.589 343.673,-144.219 354.51,-129.597"/>
<polygon fill="black" stroke="black" stroke-width="0.272727" points="357.375,-131.609 360.518,-121.491 351.752,-127.441 357.375,-131.609"/>
<text text-anchor="middle" x="349" y="-144.8" font-family="Times New Roman,serif" font-size="14.00">2</text>
</g>
<!-- 2&#45;&gt;None -->
<g id="edge11" class="edge"><title>2&#45;&gt;None</title>
<path fill="none" stroke="black" stroke-width="0.545455" d="M299.592,-174.819C282.097,-144.726 244.445,-79.9653 223.611,-44.1317"/>
<polygon fill="black" stroke="black" stroke-width="0.545455" points="226.508,-42.1495 218.456,-35.2636 220.456,-45.6679 226.508,-42.1495"/>
<text text-anchor="middle" x="273" y="-101.3" font-family="Times New Roman,serif" font-size="14.00">4</text>
</g>
<!-- L. callipterus -->
<g id="node8" class="node"><title>L. callipterus</title>
<ellipse fill="none" stroke="black" cx="517" cy="-18" rx="59.2899" ry="18"/>
<text text-anchor="middle" x="517" y="-14.3" font-family="Times New Roman,serif" font-size="14.00">L. callipterus</text>
</g>
<!-- 2&#45;&gt;L. callipterus -->
<g id="edge10" class="edge"><title>2&#45;&gt;L. callipterus</title>
<path fill="none" stroke="black" stroke-width="0.272727" d="M305.268,-174.087C300.01,-145.329 294.202,-86.8363 325,-54 341.771,-36.1189 400.93,-27.2696 449.198,-22.9548"/>
<polygon fill="black" stroke="black" stroke-width="0.272727" points="449.643,-26.4298 459.313,-22.1013 449.054,-19.4545 449.643,-26.4298"/>
<text text-anchor="middle" x="311" y="-101.3" font-family="Times New Roman,serif" font-size="14.00">2</text>
</g>
<!-- 4&#45;&gt;1 -->
<g id="edge12" class="edge"><title>4&#45;&gt;1</title>
<path fill="none" stroke="black" stroke-width="0.545455" d="M99.3779,-122.968C91.0071,-151.809 79.3245,-210.425 110,-243 129.747,-263.969 161.7,-272.484 186.76,-275.888"/>
<polygon fill="black" stroke="black" stroke-width="0.545455" points="186.691,-279.402 197.022,-277.055 187.482,-272.447 186.691,-279.402"/>
<text text-anchor="middle" x="97" y="-188.3" font-family="Times New Roman,serif" font-size="14.00">4</text>
</g>
<!-- 4&#45;&gt;2 -->
<g id="edge13" class="edge"><title>4&#45;&gt;2</title>
<path fill="none" stroke="black" stroke-width="2.18182" d="M106.239,-123C107.997,-134.129 112.168,-148.036 122,-156 148.259,-177.271 240.522,-164.664 273,-174 274.943,-174.559 276.912,-175.211 278.876,-175.93"/>
<polygon fill="black" stroke="black" stroke-width="2.18182" points="277.927,-179.326 288.505,-179.933 280.615,-172.862 277.927,-179.326"/>
<text text-anchor="middle" x="130" y="-144.8" font-family="Times New Roman,serif" font-size="14.00">16</text>
</g>
<!-- 4&#45;&gt;None -->
<g id="edge14" class="edge"><title>4&#45;&gt;None</title>
<path fill="none" stroke="black" stroke-width="0.818182" d="M112.962,-87.5078C118.741,-76.8824 127.391,-63.3558 138,-54 148.248,-44.9628 161.244,-37.6661 173.309,-32.1211"/>
<polygon fill="black" stroke="black" stroke-width="0.818182" points="174.928,-35.2342 182.715,-28.0498 172.148,-28.8102 174.928,-35.2342"/>
<text text-anchor="middle" x="142" y="-57.8" font-family="Times New Roman,serif" font-size="14.00">6</text>
</g>
<!-- 5&#45;&gt;None -->
<g id="edge16" class="edge"><title>5&#45;&gt;None</title>
<path fill="none" stroke="black" stroke-width="0.272727" d="M351.356,-93.2347C323.365,-78.6381 273.123,-52.4385 240.43,-35.3901"/>
<polygon fill="black" stroke="black" stroke-width="0.272727" points="241.785,-32.1493 231.3,-30.6289 238.549,-38.3561 241.785,-32.1493"/>
<text text-anchor="middle" x="305" y="-57.8" font-family="Times New Roman,serif" font-size="14.00">2</text>
</g>
<!-- 5&#45;&gt;L. callipterus -->
<g id="edge15" class="edge"><title>5&#45;&gt;L. callipterus</title>
<path fill="none" stroke="black" stroke-width="0.545455" d="M391.555,-92.5365C414.713,-78.9611 453.718,-56.0962 482.097,-39.4603"/>
<polygon fill="black" stroke="black" stroke-width="0.545455" points="484.047,-42.3742 490.904,-34.2975 480.507,-36.3353 484.047,-42.3742"/>
<text text-anchor="middle" x="458" y="-57.8" font-family="Times New Roman,serif" font-size="14.00">4</text>
</g>
<!-- 3 -->
<g id="node9" class="node"><title>3</title>
<ellipse fill="none" stroke="black" cx="511" cy="-366" rx="27" ry="18"/>
<text text-anchor="middle" x="511" y="-362.3" font-family="Times New Roman,serif" font-size="14.00">3</text>
</g>
<!-- 3&#45;&gt;2 -->
<g id="edge17" class="edge"><title>3&#45;&gt;2</title>
<path fill="none" stroke="black" stroke-width="0.272727" d="M494.483,-351.698C467.068,-329.527 410.569,-283.456 364,-243 353.238,-233.651 341.523,-223.06 331.681,-214.04"/>
<polygon fill="black" stroke="black" stroke-width="0.272727" points="333.972,-211.392 324.243,-207.196 329.232,-216.543 333.972,-211.392"/>
<text text-anchor="middle" x="431" y="-275.3" font-family="Times New Roman,serif" font-size="14.00">2</text>
</g>
<!-- 3&#45;&gt;5 -->
<g id="edge18" class="edge"><title>3&#45;&gt;5</title>
<path fill="none" stroke="black" stroke-width="0.272727" d="M537.92,-362.664C559.237,-359.236 587.721,-350.79 602,-330 640.293,-274.244 925.15,-476.279 539,-141 519.886,-124.404 451.861,-114.367 408.751,-109.529"/>
<polygon fill="black" stroke="black" stroke-width="0.272727" points="408.955,-106.031 398.637,-108.438 408.204,-112.991 408.955,-106.031"/>
<text text-anchor="middle" x="656" y="-231.8" font-family="Times New Roman,serif" font-size="14.00">2</text>
</g>
<!-- 3&#45;&gt;None -->
<g id="edge21" class="edge"><title>3&#45;&gt;None</title>
<path fill="none" stroke="black" stroke-width="0.272727" d="M484.246,-363.41C379.104,-356.81 0,-329.576 0,-280 0,-280 0,-280 0,-104 0,-32.3496 106.704,-19.6948 167.626,-18.3087"/>
<polygon fill="black" stroke="black" stroke-width="0.272727" points="167.759,-21.8074 177.711,-18.1721 167.664,-14.808 167.759,-21.8074"/>
<text text-anchor="middle" x="4" y="-188.3" font-family="Times New Roman,serif" font-size="14.00">2</text>
</g>
<!-- 3&#45;&gt;L. callipterus -->
<g id="edge20" class="edge"><title>3&#45;&gt;L. callipterus</title>
<path fill="none" stroke="black" stroke-width="0.272727" d="M521.007,-349.003C529.116,-335.525 540.404,-315.529 548,-297 574.75,-231.749 580.254,-211.446 577,-141 575.182,-101.644 582.833,-86.1066 560,-54 556.792,-49.4896 552.856,-45.2396 548.681,-41.3606"/>
<polygon fill="black" stroke="black" stroke-width="0.272727" points="550.887,-38.642 541.012,-34.803 546.338,-43.9621 550.887,-38.642"/>
<text text-anchor="middle" x="581" y="-188.3" font-family="Times New Roman,serif" font-size="14.00">2</text>
</g>
<!-- 6 -->
<g id="node10" class="node"><title>6</title>
<ellipse fill="none" stroke="black" cx="512" cy="-279" rx="27" ry="18"/>
<text text-anchor="middle" x="512" y="-275.3" font-family="Times New Roman,serif" font-size="14.00">6</text>
</g>
<!-- 3&#45;&gt;6 -->
<g id="edge19" class="edge"><title>3&#45;&gt;6</title>
<path fill="none" stroke="black" stroke-width="0.545455" d="M502.872,-348.455C499.079,-338.773 495.829,-326.273 498,-315 498.587,-311.949 499.438,-308.827 500.435,-305.764"/>
<polygon fill="black" stroke="black" stroke-width="0.545455" points="503.734,-306.935 503.97,-296.343 497.18,-304.476 503.734,-306.935"/>
<text text-anchor="middle" x="502" y="-318.8" font-family="Times New Roman,serif" font-size="14.00">4</text>
</g>
<!-- 6&#45;&gt;2 -->
<g id="edge22" class="edge"><title>6&#45;&gt;2</title>
<path fill="none" stroke="black" stroke-width="0.272727" d="M486.994,-271.974C463.525,-265.936 427.686,-255.722 398,-243 376.696,-233.87 353.931,-221.019 336.758,-210.632"/>
<polygon fill="black" stroke="black" stroke-width="0.272727" points="338.191,-207.405 327.838,-205.154 334.528,-213.37 338.191,-207.405"/>
<text text-anchor="middle" x="402" y="-231.8" font-family="Times New Roman,serif" font-size="14.00">2</text>
</g>
<!-- 6&#45;&gt;None -->
<g id="edge25" class="edge"><title>6&#45;&gt;None</title>
<path fill="none" stroke="black" stroke-width="0.272727" d="M514.824,-260.917C520.84,-217.871 529.605,-104.775 466,-54 433.581,-28.1203 314.708,-21.363 250.615,-19.6081"/>
<polygon fill="black" stroke="black" stroke-width="0.272727" points="250.527,-16.105 240.445,-19.3591 250.356,-23.1029 250.527,-16.105"/>
<text text-anchor="middle" x="520" y="-144.8" font-family="Times New Roman,serif" font-size="14.00">2</text>
</g>
<!-- 6&#45;&gt;conspecific -->
<g id="edge26" class="edge"><title>6&#45;&gt;conspecific</title>
<path fill="none" stroke="black" stroke-width="0.545455" d="M500.628,-262.41C491.596,-250.026 478.787,-232.465 468.313,-218.106"/>
<polygon fill="black" stroke="black" stroke-width="0.545455" points="470.868,-215.67 462.148,-209.654 465.213,-219.796 470.868,-215.67"/>
<text text-anchor="middle" x="489" y="-231.8" font-family="Times New Roman,serif" font-size="14.00">4</text>
</g>
<!-- 6&#45;&gt;L. callipterus -->
<g id="edge24" class="edge"><title>6&#45;&gt;L. callipterus</title>
<path fill="none" stroke="black" stroke-width="0.545455" d="M528.493,-264.743C534.584,-258.814 540.782,-251.289 544,-243 574.401,-164.694 571.103,-133.507 544,-54 542.79,-50.4498 541.057,-46.9794 539.047,-43.6879"/>
<polygon fill="black" stroke="black" stroke-width="0.545455" points="541.866,-41.6126 533.24,-35.4603 536.147,-45.6488 541.866,-41.6126"/>
<text text-anchor="middle" x="569" y="-144.8" font-family="Times New Roman,serif" font-size="14.00">4</text>
</g>
<!-- 6&#45;&gt;3 -->
<g id="edge23" class="edge"><title>6&#45;&gt;3</title>
<path fill="none" stroke="black" stroke-width="0.272727" d="M511.798,-297.175C511.661,-308.806 511.477,-324.419 511.321,-337.734"/>
<polygon fill="black" stroke="black" stroke-width="0.272727" points="507.82,-337.758 511.202,-347.799 514.82,-337.841 507.82,-337.758"/>
<text text-anchor="middle" x="516" y="-318.8" font-family="Times New Roman,serif" font-size="14.00">2</text>
</g>
</g>
</svg>
