<?xml version="1.0" encoding="UTF-8" standalone="no"?>
<!DOCTYPE svg PUBLIC "-//W3C//DTD SVG 1.1//EN"
 "http://www.w3.org/Graphics/SVG/1.1/DTD/svg11.dtd">
<!-- Generated by graphviz version 2.38.0 (20140413.2041)
 -->
<!-- Title: %3 Pages: 1 -->
<svg width="395pt" height="218pt"
 viewBox="0.00 0.00 395.44 218.00" xmlns="http://www.w3.org/2000/svg" xmlns:xlink="http://www.w3.org/1999/xlink">
<g id="graph0" class="graph" transform="scale(1 1) rotate(0) translate(4 214)">
<title>%3</title>
<polygon fill="white" stroke="none" points="-4,4 -4,-214 391.439,-214 391.439,4 -4,4"/>
<!-- female_1 -->
<g id="node1" class="node"><title>female_1</title>
<ellipse fill="none" stroke="black" cx="65.6442" cy="-192" rx="44.6926" ry="18"/>
<text text-anchor="middle" x="65.6442" y="-188.3" font-family="Times New Roman,serif" font-size="14.00">female_1</text>
</g>
<!-- group juvenile -->
<g id="node2" class="node"><title>group juvenile</title>
<ellipse fill="none" stroke="black" cx="65.6442" cy="-105" rx="65.7887" ry="18"/>
<text text-anchor="middle" x="65.6442" y="-101.3" font-family="Times New Roman,serif" font-size="14.00">group juvenile</text>
</g>
<!-- female_1&#45;&gt;group juvenile -->
<g id="edge1" class="edge"><title>female_1&#45;&gt;group juvenile</title>
<path fill="none" stroke="black" stroke-width="0.09375" d="M65.6442,-173.799C65.6442,-162.163 65.6442,-146.548 65.6442,-133.237"/>
<polygon fill="black" stroke="black" stroke-width="0.09375" points="69.1443,-133.175 65.6442,-123.175 62.1443,-133.175 69.1443,-133.175"/>
<text text-anchor="middle" x="69.6442" y="-144.8" font-family="Times New Roman,serif" font-size="14.00">1</text>
</g>
<!-- female_2 -->
<g id="node3" class="node"><title>female_2</title>
<ellipse fill="none" stroke="black" cx="220.644" cy="-192" rx="44.6926" ry="18"/>
<text text-anchor="middle" x="220.644" y="-188.3" font-family="Times New Roman,serif" font-size="14.00">female_2</text>
</g>
<!-- presentation fish -->
<g id="node4" class="node"><title>presentation fish</title>
<ellipse fill="none" stroke="black" cx="220.644" cy="-105" rx="71.4873" ry="18"/>
<text text-anchor="middle" x="220.644" y="-101.3" font-family="Times New Roman,serif" font-size="14.00">presentation fish</text>
</g>
<!-- female_2&#45;&gt;presentation fish -->
<g id="edge2" class="edge"><title>female_2&#45;&gt;presentation fish</title>
<path fill="none" stroke="black" stroke-width="3" d="M220.644,-173.799C220.644,-162.163 220.644,-146.548 220.644,-133.237"/>
<polygon fill="black" stroke="black" stroke-width="3" points="224.144,-133.175 220.644,-123.175 217.144,-133.175 224.144,-133.175"/>
<text text-anchor="middle" x="228.644" y="-144.8" font-family="Times New Roman,serif" font-size="14.00">32</text>
</g>
<!-- group female -->
<g id="node6" class="node"><title>group female</title>
<ellipse fill="none" stroke="black" cx="327.644" cy="-18" rx="59.5901" ry="18"/>
<text text-anchor="middle" x="327.644" y="-14.3" font-family="Times New Roman,serif" font-size="14.00">group female</text>
</g>
<!-- presentation fish&#45;&gt;group female -->
<g id="edge3" class="edge"><title>presentation fish&#45;&gt;group female</title>
<path fill="none" stroke="black" stroke-width="0.9375" d="M241.275,-87.6111C257.811,-74.4749 281.187,-55.905 299.451,-41.3965"/>
<polygon fill="black" stroke="black" stroke-width="0.9375" points="301.787,-44.011 307.44,-35.0503 297.433,-38.5299 301.787,-44.011"/>
<text text-anchor="middle" x="287.644" y="-57.8" font-family="Times New Roman,serif" font-size="14.00">10</text>
</g>
<!-- group male -->
<g id="node7" class="node"><title>group male</title>
<ellipse fill="none" stroke="black" cx="196.644" cy="-18" rx="53.0913" ry="18"/>
<text text-anchor="middle" x="196.644" y="-14.3" font-family="Times New Roman,serif" font-size="14.00">group male</text>
</g>
<!-- presentation fish&#45;&gt;group male -->
<g id="edge4" class="edge"><title>presentation fish&#45;&gt;group male</title>
<path fill="none" stroke="black" stroke-width="0.375" d="M215.787,-86.799C212.469,-75.0474 208.006,-59.2383 204.223,-45.8421"/>
<polygon fill="black" stroke="black" stroke-width="0.375" points="207.579,-44.8481 201.494,-36.1754 200.843,-46.7503 207.579,-44.8481"/>
<text text-anchor="middle" x="213.644" y="-57.8" font-family="Times New Roman,serif" font-size="14.00">4</text>
</g>
<!-- male_1 -->
<g id="node5" class="node"><title>male_1</title>
<ellipse fill="none" stroke="black" cx="324.644" cy="-192" rx="38.1938" ry="18"/>
<text text-anchor="middle" x="324.644" y="-188.3" font-family="Times New Roman,serif" font-size="14.00">male_1</text>
</g>
<!-- male_1&#45;&gt;presentation fish -->
<g id="edge6" class="edge"><title>male_1&#45;&gt;presentation fish</title>
<path fill="none" stroke="black" stroke-width="1.125" d="M306.051,-175.804C290.142,-162.801 266.998,-143.885 248.814,-129.024"/>
<polygon fill="black" stroke="black" stroke-width="1.125" points="250.81,-126.135 240.853,-122.516 246.381,-131.555 250.81,-126.135"/>
<text text-anchor="middle" x="286.644" y="-144.8" font-family="Times New Roman,serif" font-size="14.00">12</text>
</g>
<!-- male_1&#45;&gt;group female -->
<g id="edge5" class="edge"><title>male_1&#45;&gt;group female</title>
<path fill="none" stroke="black" stroke-width="0.28125" d="M324.943,-173.879C325.464,-144.001 326.543,-82.1129 327.168,-46.2736"/>
<polygon fill="black" stroke="black" stroke-width="0.28125" points="330.672,-46.1111 327.347,-36.0516 323.673,-45.989 330.672,-46.1111"/>
<text text-anchor="middle" x="329.644" y="-101.3" font-family="Times New Roman,serif" font-size="14.00">3</text>
</g>
</g>
</svg>
