<?xml version="1.0" encoding="UTF-8" standalone="no"?>
<!DOCTYPE svg PUBLIC "-//W3C//DTD SVG 1.1//EN"
 "http://www.w3.org/Graphics/SVG/1.1/DTD/svg11.dtd">
<!-- Generated by graphviz version 2.38.0 (20140413.2041)
 -->
<!-- Title: %3 Pages: 1 -->
<svg width="622pt" height="392pt"
 viewBox="0.00 0.00 621.79 392.00" xmlns="http://www.w3.org/2000/svg" xmlns:xlink="http://www.w3.org/1999/xlink">
<g id="graph0" class="graph" transform="scale(1 1) rotate(0) translate(4 388)">
<title>%3</title>
<polygon fill="white" stroke="none" points="-4,4 -4,-388 617.795,-388 617.795,4 -4,4"/>
<!-- 1 -->
<g id="node1" class="node"><title>1</title>
<ellipse fill="none" stroke="black" cx="300" cy="-366" rx="27" ry="18"/>
<text text-anchor="middle" x="300" y="-362.3" font-family="Times New Roman,serif" font-size="14.00">1</text>
</g>
<!-- 2 -->
<g id="node2" class="node"><title>2</title>
<ellipse fill="none" stroke="black" cx="425" cy="-192" rx="27" ry="18"/>
<text text-anchor="middle" x="425" y="-188.3" font-family="Times New Roman,serif" font-size="14.00">2</text>
</g>
<!-- 1&#45;&gt;2 -->
<g id="edge1" class="edge"><title>1&#45;&gt;2</title>
<path fill="none" stroke="black" stroke-width="0.705882" d="M323.972,-357.716C350.521,-348.292 392.303,-329.151 413,-297 427.711,-274.148 429.331,-242.509 428.133,-220.145"/>
<polygon fill="black" stroke="black" stroke-width="0.705882" points="431.61,-219.698 427.364,-209.991 424.63,-220.226 431.61,-219.698"/>
<text text-anchor="middle" x="430" y="-275.3" font-family="Times New Roman,serif" font-size="14.00">8</text>
</g>
<!-- 6 -->
<g id="node3" class="node"><title>6</title>
<ellipse fill="none" stroke="black" cx="27" cy="-279" rx="27" ry="18"/>
<text text-anchor="middle" x="27" y="-275.3" font-family="Times New Roman,serif" font-size="14.00">6</text>
</g>
<!-- 1&#45;&gt;6 -->
<g id="edge2" class="edge"><title>1&#45;&gt;6</title>
<path fill="none" stroke="black" stroke-width="0.176471" d="M272.898,-365.473C211.795,-365.93 66.0413,-363.404 33,-330 27.1207,-324.056 24.7965,-315.576 24.1918,-307.285"/>
<polygon fill="black" stroke="black" stroke-width="0.176471" points="27.692,-307.092 24.2073,-297.087 20.692,-307.082 27.692,-307.092"/>
<text text-anchor="middle" x="37" y="-318.8" font-family="Times New Roman,serif" font-size="14.00">2</text>
</g>
<!-- conspecific -->
<g id="node4" class="node"><title>conspecific</title>
<ellipse fill="none" stroke="black" cx="176" cy="-279" rx="51.9908" ry="18"/>
<text text-anchor="middle" x="176" y="-275.3" font-family="Times New Roman,serif" font-size="14.00">conspecific</text>
</g>
<!-- 1&#45;&gt;conspecific -->
<g id="edge3" class="edge"><title>1&#45;&gt;conspecific</title>
<path fill="none" stroke="black" stroke-width="0.176471" d="M278.193,-354.972C264.981,-348.527 248.027,-339.587 234,-330 222.308,-322.009 210.304,-312.011 200.272,-303.06"/>
<polygon fill="black" stroke="black" stroke-width="0.176471" points="202.445,-300.305 192.693,-296.164 197.734,-305.483 202.445,-300.305"/>
<text text-anchor="middle" x="238" y="-318.8" font-family="Times New Roman,serif" font-size="14.00">2</text>
</g>
<!-- conspecific 1 -->
<g id="node5" class="node"><title>conspecific 1</title>
<ellipse fill="none" stroke="black" cx="138" cy="-192" rx="59.5901" ry="18"/>
<text text-anchor="middle" x="138" y="-188.3" font-family="Times New Roman,serif" font-size="14.00">conspecific 1</text>
</g>
<!-- 1&#45;&gt;conspecific 1 -->
<g id="edge4" class="edge"><title>1&#45;&gt;conspecific 1</title>
<path fill="none" stroke="black" stroke-width="0.882353" d="M272.817,-365.042C227.896,-363.458 139.155,-352.975 99,-297 81.6576,-272.825 99.3857,-240.013 116.21,-217.757"/>
<polygon fill="black" stroke="black" stroke-width="0.882353" points="119.063,-219.792 122.539,-209.784 113.581,-215.44 119.063,-219.792"/>
<text text-anchor="middle" x="107" y="-275.3" font-family="Times New Roman,serif" font-size="14.00">10</text>
</g>
<!-- conspecific 3 -->
<g id="node6" class="node"><title>conspecific 3</title>
<ellipse fill="none" stroke="black" cx="344" cy="-279" rx="59.5901" ry="18"/>
<text text-anchor="middle" x="344" y="-275.3" font-family="Times New Roman,serif" font-size="14.00">conspecific 3</text>
</g>
<!-- 1&#45;&gt;conspecific 3 -->
<g id="edge5" class="edge"><title>1&#45;&gt;conspecific 3</title>
<path fill="none" stroke="black" stroke-width="0.705882" d="M308.484,-348.611C314.733,-336.539 323.358,-319.876 330.544,-305.995"/>
<polygon fill="black" stroke="black" stroke-width="0.705882" points="333.752,-307.41 335.241,-296.92 327.536,-304.192 333.752,-307.41"/>
<text text-anchor="middle" x="329" y="-318.8" font-family="Times New Roman,serif" font-size="14.00">8</text>
</g>
<!-- conspecific 4 -->
<g id="node7" class="node"><title>conspecific 4</title>
<ellipse fill="none" stroke="black" cx="554" cy="-18" rx="59.5901" ry="18"/>
<text text-anchor="middle" x="554" y="-14.3" font-family="Times New Roman,serif" font-size="14.00">conspecific 4</text>
</g>
<!-- 1&#45;&gt;conspecific 4 -->
<g id="edge6" class="edge"><title>1&#45;&gt;conspecific 4</title>
<path fill="none" stroke="black" stroke-width="0.352941" d="M326.771,-362.463C395.717,-355.194 574,-331.425 574,-280 574,-280 574,-280 574,-104 574,-84.0386 568.709,-62.1246 563.57,-45.5473"/>
<polygon fill="black" stroke="black" stroke-width="0.352941" points="566.876,-44.3954 560.438,-35.9805 560.223,-46.5731 566.876,-44.3954"/>
<text text-anchor="middle" x="578" y="-188.3" font-family="Times New Roman,serif" font-size="14.00">4</text>
</g>
<!-- cunningtoni -->
<g id="node8" class="node"><title>cunningtoni</title>
<ellipse fill="none" stroke="black" cx="206" cy="-105" rx="55.7903" ry="18"/>
<text text-anchor="middle" x="206" y="-101.3" font-family="Times New Roman,serif" font-size="14.00">cunningtoni</text>
</g>
<!-- 1&#45;&gt;cunningtoni -->
<g id="edge7" class="edge"><title>1&#45;&gt;cunningtoni</title>
<path fill="none" stroke="black" stroke-width="0.176471" d="M293.809,-348.243C288.734,-334.485 281.374,-314.49 275,-297 253.647,-238.41 228.863,-169.607 215.581,-132.671"/>
<polygon fill="black" stroke="black" stroke-width="0.176471" points="218.829,-131.359 212.153,-123.133 212.242,-133.727 218.829,-131.359"/>
<text text-anchor="middle" x="260" y="-231.8" font-family="Times New Roman,serif" font-size="14.00">2</text>
</g>
<!-- 2&#45;&gt;1 -->
<g id="edge8" class="edge"><title>2&#45;&gt;1</title>
<path fill="none" stroke="black" stroke-width="1.23529" d="M435.115,-208.752C438.294,-214.566 441.392,-221.359 443,-228 450.234,-257.884 451.272,-269.265 438,-297 419.663,-335.319 370.845,-352.271 336.498,-359.616"/>
<polygon fill="black" stroke="black" stroke-width="1.23529" points="335.495,-356.246 326.353,-361.6 336.839,-363.115 335.495,-356.246"/>
<text text-anchor="middle" x="457" y="-275.3" font-family="Times New Roman,serif" font-size="14.00">14</text>
</g>
<!-- 2&#45;&gt;cunningtoni -->
<g id="edge13" class="edge"><title>2&#45;&gt;cunningtoni</title>
<path fill="none" stroke="black" stroke-width="0.176471" d="M401.977,-182.064C365.99,-168.097 295.79,-140.85 249.913,-123.044"/>
<polygon fill="black" stroke="black" stroke-width="0.176471" points="251.102,-119.751 240.513,-119.396 248.569,-126.277 251.102,-119.751"/>
<text text-anchor="middle" x="333" y="-144.8" font-family="Times New Roman,serif" font-size="14.00">2</text>
</g>
<!-- 3 -->
<g id="node9" class="node"><title>3</title>
<ellipse fill="none" stroke="black" cx="86" cy="-18" rx="27" ry="18"/>
<text text-anchor="middle" x="86" y="-14.3" font-family="Times New Roman,serif" font-size="14.00">3</text>
</g>
<!-- 2&#45;&gt;3 -->
<g id="edge9" class="edge"><title>2&#45;&gt;3</title>
<path fill="none" stroke="black" stroke-width="0.176471" d="M398.359,-187.834C334.302,-179.756 173.928,-156.613 133,-123 109.392,-103.611 97.1721,-69.8524 91.1866,-46.0662"/>
<polygon fill="black" stroke="black" stroke-width="0.176471" points="94.5786,-45.1989 88.9223,-36.2404 87.7574,-46.771 94.5786,-45.1989"/>
<text text-anchor="middle" x="137" y="-101.3" font-family="Times New Roman,serif" font-size="14.00">2</text>
</g>
<!-- 4 -->
<g id="node10" class="node"><title>4</title>
<ellipse fill="none" stroke="black" cx="493" cy="-105" rx="27" ry="18"/>
<text text-anchor="middle" x="493" y="-101.3" font-family="Times New Roman,serif" font-size="14.00">4</text>
</g>
<!-- 2&#45;&gt;4 -->
<g id="edge10" class="edge"><title>2&#45;&gt;4</title>
<path fill="none" stroke="black" stroke-width="1.76471" d="M445.801,-180.414C455.807,-174.422 467.277,-166.101 475,-156 480.201,-149.198 483.997,-140.756 486.723,-132.757"/>
<polygon fill="black" stroke="black" stroke-width="1.76471" points="490.123,-133.603 489.628,-123.019 483.415,-131.601 490.123,-133.603"/>
<text text-anchor="middle" x="491" y="-144.8" font-family="Times New Roman,serif" font-size="14.00">20</text>
</g>
<!-- L. elongatus -->
<g id="node11" class="node"><title>L. elongatus</title>
<ellipse fill="none" stroke="black" cx="419" cy="-18" rx="57.3905" ry="18"/>
<text text-anchor="middle" x="419" y="-14.3" font-family="Times New Roman,serif" font-size="14.00">L. elongatus</text>
</g>
<!-- 2&#45;&gt;L. elongatus -->
<g id="edge11" class="edge"><title>2&#45;&gt;L. elongatus</title>
<path fill="none" stroke="black" stroke-width="0.176471" d="M424.403,-173.879C423.361,-144.001 421.202,-82.1129 419.951,-46.2736"/>
<polygon fill="black" stroke="black" stroke-width="0.176471" points="423.441,-45.9235 419.595,-36.0516 416.446,-46.1676 423.441,-45.9235"/>
<text text-anchor="middle" x="427" y="-101.3" font-family="Times New Roman,serif" font-size="14.00">2</text>
</g>
<!-- None -->
<g id="node12" class="node"><title>None</title>
<ellipse fill="none" stroke="black" cx="309" cy="-18" rx="31.3957" ry="18"/>
<text text-anchor="middle" x="309" y="-14.3" font-family="Times New Roman,serif" font-size="14.00">None</text>
</g>
<!-- 2&#45;&gt;None -->
<g id="edge12" class="edge"><title>2&#45;&gt;None</title>
<path fill="none" stroke="black" stroke-width="1.41176" d="M414.295,-175.127C394.026,-145.073 349.915,-79.6666 325.715,-43.7836"/>
<polygon fill="black" stroke="black" stroke-width="1.41176" points="328.511,-41.6701 320.018,-35.3364 322.707,-45.5842 328.511,-41.6701"/>
<text text-anchor="middle" x="387" y="-101.3" font-family="Times New Roman,serif" font-size="14.00">16</text>
</g>
<!-- 6&#45;&gt;1 -->
<g id="edge14" class="edge"><title>6&#45;&gt;1</title>
<path fill="none" stroke="black" stroke-width="0.176471" d="M35.9056,-296.229C43.0425,-307.601 54.1416,-322.123 68,-330 100.588,-348.523 206.229,-358.502 263.041,-362.649"/>
<polygon fill="black" stroke="black" stroke-width="0.176471" points="262.83,-366.143 273.052,-363.356 263.324,-359.16 262.83,-366.143"/>
<text text-anchor="middle" x="72" y="-318.8" font-family="Times New Roman,serif" font-size="14.00">2</text>
</g>
<!-- 6&#45;&gt;2 -->
<g id="edge15" class="edge"><title>6&#45;&gt;2</title>
<path fill="none" stroke="black" stroke-width="0.529412" d="M48.8631,-268.092C54.9755,-265.554 61.6772,-262.984 68,-261 182.048,-225.207 322.813,-205.149 388.291,-197.14"/>
<polygon fill="black" stroke="black" stroke-width="0.529412" points="388.997,-200.581 398.508,-195.914 388.162,-193.63 388.997,-200.581"/>
<text text-anchor="middle" x="198" y="-231.8" font-family="Times New Roman,serif" font-size="14.00">6</text>
</g>
<!-- 6&#45;&gt;conspecific 1 -->
<g id="edge18" class="edge"><title>6&#45;&gt;conspecific 1</title>
<path fill="none" stroke="black" stroke-width="0.176471" d="M40.7606,-263.047C50.8044,-252.578 65.0481,-238.62 79,-228 85.8796,-222.764 93.6018,-217.682 101.135,-213.09"/>
<polygon fill="black" stroke="black" stroke-width="0.176471" points="103.008,-216.048 109.831,-207.943 99.4428,-210.025 103.008,-216.048"/>
<text text-anchor="middle" x="83" y="-231.8" font-family="Times New Roman,serif" font-size="14.00">2</text>
</g>
<!-- 6&#45;&gt;3 -->
<g id="edge16" class="edge"><title>6&#45;&gt;3</title>
<path fill="none" stroke="black" stroke-width="0.176471" d="M27.813,-260.86C28.3252,-251.2 29.0666,-238.917 30,-228 32.0571,-203.94 30.9343,-197.61 36,-174 45.9122,-127.801 64.1891,-75.8696 75.6866,-45.3757"/>
<polygon fill="black" stroke="black" stroke-width="0.176471" points="79.0089,-46.486 79.3039,-35.8953 72.4689,-43.9905 79.0089,-46.486"/>
<text text-anchor="middle" x="48" y="-144.8" font-family="Times New Roman,serif" font-size="14.00">2</text>
</g>
<!-- 6&#45;&gt;None -->
<g id="edge17" class="edge"><title>6&#45;&gt;None</title>
<path fill="none" stroke="black" stroke-width="0.529412" d="M32.059,-261.049C38.7858,-239.827 51.85,-202.768 69,-174 75.4251,-163.222 131.827,-95.5611 141,-87 159.395,-69.8329 164.353,-64.9633 187,-54 213.291,-41.2725 245.067,-32.3412 269.598,-26.6875"/>
<polygon fill="black" stroke="black" stroke-width="0.529412" points="270.625,-30.0449 279.63,-24.4636 269.11,-23.2108 270.625,-30.0449"/>
<text text-anchor="middle" x="99" y="-144.8" font-family="Times New Roman,serif" font-size="14.00">6</text>
</g>
<!-- 4&#45;&gt;1 -->
<g id="edge19" class="edge"><title>4&#45;&gt;1</title>
<path fill="none" stroke="black" stroke-width="0.352941" d="M498.85,-122.885C500.542,-128.568 502.159,-134.992 503,-141 503.925,-147.602 503.787,-149.38 503,-156 495.391,-220.012 501.74,-241.47 469,-297 442.107,-342.613 378.105,-357.649 337.036,-362.593"/>
<polygon fill="black" stroke="black" stroke-width="0.352941" points="336.448,-359.136 326.872,-363.668 337.184,-366.097 336.448,-359.136"/>
<text text-anchor="middle" x="500" y="-231.8" font-family="Times New Roman,serif" font-size="14.00">4</text>
</g>
<!-- 4&#45;&gt;2 -->
<g id="edge20" class="edge"><title>4&#45;&gt;2</title>
<path fill="none" stroke="black" stroke-width="3" d="M476.477,-119.37C469.41,-125.538 461.343,-133.211 455,-141 448.869,-148.528 443.122,-157.433 438.33,-165.627"/>
<polygon fill="black" stroke="black" stroke-width="3" points="435.211,-164.033 433.358,-174.464 441.312,-167.466 435.211,-164.033"/>
<text text-anchor="middle" x="463" y="-144.8" font-family="Times New Roman,serif" font-size="14.00">34</text>
</g>
<!-- 4&#45;&gt;conspecific 4 -->
<g id="edge23" class="edge"><title>4&#45;&gt;conspecific 4</title>
<path fill="none" stroke="black" stroke-width="0.529412" d="M504.188,-88.4097C513.075,-76.0265 525.678,-58.4655 535.983,-44.106"/>
<polygon fill="black" stroke="black" stroke-width="0.529412" points="539.061,-45.819 542.048,-35.6539 533.374,-41.7376 539.061,-45.819"/>
<text text-anchor="middle" x="532" y="-57.8" font-family="Times New Roman,serif" font-size="14.00">6</text>
</g>
<!-- 4&#45;&gt;L. elongatus -->
<g id="edge21" class="edge"><title>4&#45;&gt;L. elongatus</title>
<path fill="none" stroke="black" stroke-width="0.176471" d="M488.168,-86.9309C484.629,-76.5967 479.03,-63.6033 471,-54 466.544,-48.6716 461.078,-43.8244 455.382,-39.5498"/>
<polygon fill="black" stroke="black" stroke-width="0.176471" points="457.174,-36.5333 446.963,-33.7073 453.183,-42.2841 457.174,-36.5333"/>
<text text-anchor="middle" x="484" y="-57.8" font-family="Times New Roman,serif" font-size="14.00">2</text>
</g>
<!-- 4&#45;&gt;None -->
<g id="edge22" class="edge"><title>4&#45;&gt;None</title>
<path fill="none" stroke="black" stroke-width="0.882353" d="M471.17,-93.9156C439.187,-79.1408 379.348,-51.4976 341.983,-34.2367"/>
<polygon fill="black" stroke="black" stroke-width="0.882353" points="343.086,-30.891 332.54,-29.8746 340.151,-37.2457 343.086,-30.891"/>
<text text-anchor="middle" x="421" y="-57.8" font-family="Times New Roman,serif" font-size="14.00">10</text>
</g>
<!-- 5 -->
<g id="node13" class="node"><title>5</title>
<ellipse fill="none" stroke="black" cx="307" cy="-105" rx="27" ry="18"/>
<text text-anchor="middle" x="307" y="-101.3" font-family="Times New Roman,serif" font-size="14.00">5</text>
</g>
<!-- 5&#45;&gt;conspecific 4 -->
<g id="edge27" class="edge"><title>5&#45;&gt;conspecific 4</title>
<path fill="none" stroke="black" stroke-width="0.176471" d="M328.855,-94.0646C334.967,-91.5268 341.671,-88.9639 348,-87 384.881,-75.5562 396.464,-81.5011 433,-69 447.482,-64.045 449.967,-60.112 464,-54 478.112,-47.8535 493.678,-41.614 507.839,-36.1387"/>
<polygon fill="black" stroke="black" stroke-width="0.176471" points="509.299,-39.3276 517.384,-32.4807 506.794,-32.7912 509.299,-39.3276"/>
<text text-anchor="middle" x="468" y="-57.8" font-family="Times New Roman,serif" font-size="14.00">2</text>
</g>
<!-- 5&#45;&gt;3 -->
<g id="edge24" class="edge"><title>5&#45;&gt;3</title>
<path fill="none" stroke="black" stroke-width="0.176471" d="M285.821,-93.6156C280.986,-91.3525 275.845,-89.0297 271,-87 218.783,-65.1253 156.79,-43.1233 119.467,-30.2948"/>
<polygon fill="black" stroke="black" stroke-width="0.176471" points="120.217,-26.8524 109.623,-26.9275 117.952,-33.4756 120.217,-26.8524"/>
<text text-anchor="middle" x="230" y="-57.8" font-family="Times New Roman,serif" font-size="14.00">2</text>
</g>
<!-- 5&#45;&gt;L. elongatus -->
<g id="edge25" class="edge"><title>5&#45;&gt;L. elongatus</title>
<path fill="none" stroke="black" stroke-width="0.176471" d="M323.01,-90.2467C335.143,-79.9808 352.341,-65.7572 368,-54 374.081,-49.4341 380.7,-44.7162 387.094,-40.2798"/>
<polygon fill="black" stroke="black" stroke-width="0.176471" points="389.335,-42.9872 395.603,-34.4451 385.376,-37.2142 389.335,-42.9872"/>
<text text-anchor="middle" x="372" y="-57.8" font-family="Times New Roman,serif" font-size="14.00">2</text>
</g>
<!-- 5&#45;&gt;None -->
<g id="edge26" class="edge"><title>5&#45;&gt;None</title>
<path fill="none" stroke="black" stroke-width="0.882353" d="M304.233,-86.8721C303.024,-77.2162 302.07,-64.9329 303,-54 303.22,-51.42 303.529,-48.7445 303.892,-46.0743"/>
<polygon fill="black" stroke="black" stroke-width="0.882353" points="307.377,-46.4398 305.486,-36.0151 300.464,-45.3437 307.377,-46.4398"/>
<text text-anchor="middle" x="311" y="-57.8" font-family="Times New Roman,serif" font-size="14.00">10</text>
</g>
</g>
</svg>
