<?xml version="1.0" encoding="UTF-8" standalone="no"?>
<!DOCTYPE svg PUBLIC "-//W3C//DTD SVG 1.1//EN"
 "http://www.w3.org/Graphics/SVG/1.1/DTD/svg11.dtd">
<!-- Generated by graphviz version 2.38.0 (20140413.2041)
 -->
<!-- Title: %3 Pages: 1 -->
<svg width="944pt" height="1001pt"
 viewBox="0.00 0.00 944.00 1001.00" xmlns="http://www.w3.org/2000/svg" xmlns:xlink="http://www.w3.org/1999/xlink">
<g id="graph0" class="graph" transform="scale(1 1) rotate(0) translate(4 997)">
<title>%3</title>
<polygon fill="white" stroke="none" points="-4,4 -4,-997 940,-997 940,4 -4,4"/>
<!-- 1 -->
<g id="node1" class="node"><title>1</title>
<ellipse fill="none" stroke="black" cx="459" cy="-192" rx="27" ry="18"/>
<text text-anchor="middle" x="459" y="-188.3" font-family="Times New Roman,serif" font-size="14.00">1</text>
</g>
<!-- 7 -->
<g id="node2" class="node"><title>7</title>
<ellipse fill="none" stroke="black" cx="427" cy="-105" rx="27" ry="18"/>
<text text-anchor="middle" x="427" y="-101.3" font-family="Times New Roman,serif" font-size="14.00">7</text>
</g>
<!-- 1&#45;&gt;7 -->
<g id="edge1" class="edge"><title>1&#45;&gt;7</title>
<path fill="none" stroke="black" stroke-width="0.230769" d="M462.016,-173.768C463.021,-163.858 463.021,-151.358 459,-141 457.039,-135.949 453.971,-131.182 450.496,-126.886"/>
<polygon fill="black" stroke="black" stroke-width="0.230769" points="452.833,-124.257 443.493,-119.257 447.676,-128.991 452.833,-124.257"/>
<text text-anchor="middle" x="467" y="-144.8" font-family="Times New Roman,serif" font-size="14.00">2</text>
</g>
<!-- None -->
<g id="node3" class="node"><title>None</title>
<ellipse fill="none" stroke="black" cx="221" cy="-18" rx="31.3957" ry="18"/>
<text text-anchor="middle" x="221" y="-14.3" font-family="Times New Roman,serif" font-size="14.00">None</text>
</g>
<!-- 1&#45;&gt;None -->
<g id="edge2" class="edge"><title>1&#45;&gt;None</title>
<path fill="none" stroke="black" stroke-width="0.461538" d="M441.617,-177.987C425.245,-165.177 400.662,-144.464 383,-123 360.334,-95.4545 370.222,-75.8178 342,-54 318.887,-36.1318 286.945,-27.3812 261.684,-23.0981"/>
<polygon fill="black" stroke="black" stroke-width="0.461538" points="262.077,-19.6176 251.663,-21.57 261.022,-26.5376 262.077,-19.6176"/>
<text text-anchor="middle" x="387" y="-101.3" font-family="Times New Roman,serif" font-size="14.00">4</text>
</g>
<!-- conspecific 1 -->
<g id="node4" class="node"><title>conspecific 1</title>
<ellipse fill="none" stroke="black" cx="532" cy="-105" rx="59.5901" ry="18"/>
<text text-anchor="middle" x="532" y="-101.3" font-family="Times New Roman,serif" font-size="14.00">conspecific 1</text>
</g>
<!-- 1&#45;&gt;conspecific 1 -->
<g id="edge3" class="edge"><title>1&#45;&gt;conspecific 1</title>
<path fill="none" stroke="black" stroke-width="0.461538" d="M472.051,-175.804C482.916,-163.152 498.589,-144.903 511.184,-130.237"/>
<polygon fill="black" stroke="black" stroke-width="0.461538" points="513.955,-132.383 517.815,-122.516 508.645,-127.822 513.955,-132.383"/>
<text text-anchor="middle" x="504" y="-144.8" font-family="Times New Roman,serif" font-size="14.00">4</text>
</g>
<!-- conspecific 3 -->
<g id="node5" class="node"><title>conspecific 3</title>
<ellipse fill="none" stroke="black" cx="240" cy="-105" rx="59.5901" ry="18"/>
<text text-anchor="middle" x="240" y="-101.3" font-family="Times New Roman,serif" font-size="14.00">conspecific 3</text>
</g>
<!-- 1&#45;&gt;conspecific 3 -->
<g id="edge4" class="edge"><title>1&#45;&gt;conspecific 3</title>
<path fill="none" stroke="black" stroke-width="3" d="M435.977,-182.064C400.195,-168.176 330.589,-141.16 284.699,-123.349"/>
<polygon fill="black" stroke="black" stroke-width="3" points="285.877,-120.052 275.288,-119.696 283.344,-126.577 285.877,-120.052"/>
<text text-anchor="middle" x="371" y="-144.8" font-family="Times New Roman,serif" font-size="14.00">26</text>
</g>
<!-- 7&#45;&gt;1 -->
<g id="edge5" class="edge"><title>7&#45;&gt;1</title>
<path fill="none" stroke="black" stroke-width="0.461538" d="M433.309,-122.758C437.82,-134.741 443.98,-151.104 449.138,-164.803"/>
<polygon fill="black" stroke="black" stroke-width="0.461538" points="445.879,-166.081 452.678,-174.207 452.43,-163.615 445.879,-166.081"/>
<text text-anchor="middle" x="449" y="-144.8" font-family="Times New Roman,serif" font-size="14.00">4</text>
</g>
<!-- 7&#45;&gt;None -->
<g id="edge8" class="edge"><title>7&#45;&gt;None</title>
<path fill="none" stroke="black" stroke-width="1.15385" d="M418.29,-87.5279C411.517,-76.3431 401.079,-62.154 388,-54 349.792,-30.1791 298.083,-22.3066 262.375,-19.8416"/>
<polygon fill="black" stroke="black" stroke-width="1.15385" points="262.482,-16.342 252.297,-19.2595 262.079,-23.3304 262.482,-16.342"/>
<text text-anchor="middle" x="413" y="-57.8" font-family="Times New Roman,serif" font-size="14.00">10</text>
</g>
<!-- L. callipterus -->
<g id="node9" class="node"><title>L. callipterus</title>
<ellipse fill="none" stroke="black" cx="740" cy="-18" rx="59.2899" ry="18"/>
<text text-anchor="middle" x="740" y="-14.3" font-family="Times New Roman,serif" font-size="14.00">L. callipterus</text>
</g>
<!-- 7&#45;&gt;L. callipterus -->
<g id="edge6" class="edge"><title>7&#45;&gt;L. callipterus</title>
<path fill="none" stroke="black" stroke-width="0.230769" d="M447.639,-93.3824C452.591,-91.0802 457.918,-88.7992 463,-87 468.633,-85.0056 666.198,-37.433 672,-36 676.559,-34.8738 681.29,-33.7008 686.035,-32.5207"/>
<polygon fill="black" stroke="black" stroke-width="0.230769" points="686.892,-35.9144 695.749,-30.1011 685.2,-29.122 686.892,-35.9144"/>
<text text-anchor="middle" x="596" y="-57.8" font-family="Times New Roman,serif" font-size="14.00">2</text>
</g>
<!-- N. tetracanthus -->
<g id="node14" class="node"><title>N. tetracanthus</title>
<ellipse fill="none" stroke="black" cx="597" cy="-18" rx="66.0889" ry="18"/>
<text text-anchor="middle" x="597" y="-14.3" font-family="Times New Roman,serif" font-size="14.00">N. tetracanthus</text>
</g>
<!-- 7&#45;&gt;N. tetracanthus -->
<g id="edge7" class="edge"><title>7&#45;&gt;N. tetracanthus</title>
<path fill="none" stroke="black" stroke-width="0.230769" d="M448.187,-93.4066C475.442,-79.7791 523.324,-55.8378 557.412,-38.7938"/>
<polygon fill="black" stroke="black" stroke-width="0.230769" points="559.254,-41.7863 566.633,-34.1837 556.123,-35.5253 559.254,-41.7863"/>
<text text-anchor="middle" x="527" y="-57.8" font-family="Times New Roman,serif" font-size="14.00">2</text>
</g>
<!-- 11 -->
<g id="node6" class="node"><title>11</title>
<ellipse fill="none" stroke="black" cx="674" cy="-888" rx="27" ry="18"/>
<text text-anchor="middle" x="674" y="-884.3" font-family="Times New Roman,serif" font-size="14.00">11</text>
</g>
<!-- 12 -->
<g id="node7" class="node"><title>12</title>
<ellipse fill="none" stroke="black" cx="610" cy="-975" rx="27" ry="18"/>
<text text-anchor="middle" x="610" y="-971.3" font-family="Times New Roman,serif" font-size="14.00">12</text>
</g>
<!-- 11&#45;&gt;12 -->
<g id="edge9" class="edge"><title>11&#45;&gt;12</title>
<path fill="none" stroke="black" stroke-width="0.461538" d="M661.021,-904.116C655.915,-910.204 650.071,-917.348 645,-924 638.773,-932.169 632.243,-941.32 626.533,-949.539"/>
<polygon fill="black" stroke="black" stroke-width="0.461538" points="623.496,-947.778 620.712,-958.001 629.263,-951.746 623.496,-947.778"/>
<text text-anchor="middle" x="649" y="-927.8" font-family="Times New Roman,serif" font-size="14.00">4</text>
</g>
<!-- 8 -->
<g id="node8" class="node"><title>8</title>
<ellipse fill="none" stroke="black" cx="627" cy="-801" rx="27" ry="18"/>
<text text-anchor="middle" x="627" y="-797.3" font-family="Times New Roman,serif" font-size="14.00">8</text>
</g>
<!-- 11&#45;&gt;8 -->
<g id="edge10" class="edge"><title>11&#45;&gt;8</title>
<path fill="none" stroke="black" stroke-width="0.230769" d="M660.07,-872.515C654.832,-866.513 649.147,-859.264 645,-852 640.865,-844.758 637.407,-836.396 634.662,-828.609"/>
<polygon fill="black" stroke="black" stroke-width="0.230769" points="637.903,-827.261 631.468,-818.844 631.25,-829.437 637.903,-827.261"/>
<text text-anchor="middle" x="649" y="-840.8" font-family="Times New Roman,serif" font-size="14.00">2</text>
</g>
<!-- 11&#45;&gt;L. callipterus -->
<g id="edge11" class="edge"><title>11&#45;&gt;L. callipterus</title>
<path fill="none" stroke="black" stroke-width="0.230769" d="M700.937,-885.566C748.872,-881.406 844,-865.19 844,-802 844,-802 844,-802 844,-669.5 844,-552.587 890,-527.413 890,-410.5 890,-410.5 890,-410.5 890,-104 890,-61.187 843.174,-39.6807 801.848,-29.0369"/>
<polygon fill="black" stroke="black" stroke-width="0.230769" points="802.583,-25.6139 792.042,-26.6811 800.948,-32.4203 802.583,-25.6139"/>
<text text-anchor="middle" x="893" y="-449.3" font-family="Times New Roman,serif" font-size="14.00">2</text>
</g>
<!-- 12&#45;&gt;None -->
<g id="edge17" class="edge"><title>12&#45;&gt;None</title>
<path fill="none" stroke="black" stroke-width="0.230769" d="M583.002,-973.127C464.949,-968.958 0,-948.745 0,-889 0,-889 0,-889 0,-104 0,-73.5013 20.3439,-68.8198 47,-54 88.3019,-31.0377 142.564,-23.0265 179.436,-20.2937"/>
<polygon fill="black" stroke="black" stroke-width="0.230769" points="180.061,-23.7609 189.817,-19.6294 179.614,-16.7752 180.061,-23.7609"/>
<text text-anchor="middle" x="4" y="-492.8" font-family="Times New Roman,serif" font-size="14.00">2</text>
</g>
<!-- 12&#45;&gt;11 -->
<g id="edge12" class="edge"><title>12&#45;&gt;11</title>
<path fill="none" stroke="black" stroke-width="0.230769" d="M628.425,-961.62C636.452,-955.531 645.492,-947.645 652,-939 657.353,-931.89 661.737,-923.273 665.144,-915.211"/>
<polygon fill="black" stroke="black" stroke-width="0.230769" points="668.446,-916.377 668.815,-905.789 661.923,-913.836 668.446,-916.377"/>
<text text-anchor="middle" x="665" y="-927.8" font-family="Times New Roman,serif" font-size="14.00">2</text>
</g>
<!-- 12&#45;&gt;8 -->
<g id="edge15" class="edge"><title>12&#45;&gt;8</title>
<path fill="none" stroke="black" stroke-width="2.07692" d="M597.617,-958.615C582.929,-938.423 561.656,-901.809 572,-870 577.91,-851.824 591.306,-835.082 603.396,-822.758"/>
<polygon fill="black" stroke="black" stroke-width="2.07692" points="605.945,-825.162 610.677,-815.683 601.067,-820.142 605.945,-825.162"/>
<text text-anchor="middle" x="580" y="-884.3" font-family="Times New Roman,serif" font-size="14.00">18</text>
</g>
<!-- 12&#45;&gt;L. callipterus -->
<g id="edge16" class="edge"><title>12&#45;&gt;L. callipterus</title>
<path fill="none" stroke="black" stroke-width="0.230769" d="M636.838,-972.582C713.504,-967.806 928,-949.075 928,-889 928,-889 928,-889 928,-104 928,-49.7376 862.169,-29.9304 808.418,-22.8017"/>
<polygon fill="black" stroke="black" stroke-width="0.230769" points="808.543,-19.2916 798.197,-21.5755 807.709,-26.2418 808.543,-19.2916"/>
<text text-anchor="middle" x="932" y="-492.8" font-family="Times New Roman,serif" font-size="14.00">2</text>
</g>
<!-- 3 -->
<g id="node10" class="node"><title>3</title>
<ellipse fill="none" stroke="black" cx="415" cy="-627" rx="27" ry="18"/>
<text text-anchor="middle" x="415" y="-623.3" font-family="Times New Roman,serif" font-size="14.00">3</text>
</g>
<!-- 12&#45;&gt;3 -->
<g id="edge13" class="edge"><title>12&#45;&gt;3</title>
<path fill="none" stroke="black" stroke-width="0.230769" d="M582.886,-974.11C529.305,-972.755 415,-961.384 415,-889 415,-889 415,-889 415,-713 415,-693.753 415,-672.054 415,-655.397"/>
<polygon fill="black" stroke="black" stroke-width="0.230769" points="418.5,-655.256 415,-645.256 411.5,-655.256 418.5,-655.256"/>
<text text-anchor="middle" x="419" y="-797.3" font-family="Times New Roman,serif" font-size="14.00">2</text>
</g>
<!-- 5 -->
<g id="node11" class="node"><title>5</title>
<ellipse fill="none" stroke="black" cx="683" cy="-279" rx="27" ry="18"/>
<text text-anchor="middle" x="683" y="-275.3" font-family="Times New Roman,serif" font-size="14.00">5</text>
</g>
<!-- 12&#45;&gt;5 -->
<g id="edge14" class="edge"><title>12&#45;&gt;5</title>
<path fill="none" stroke="black" stroke-width="0.230769" d="M636.594,-971.654C706.487,-964.759 890,-941.643 890,-889 890,-889 890,-889 890,-626 890,-484.225 760.429,-350.208 706.312,-300.417"/>
<polygon fill="black" stroke="black" stroke-width="0.230769" points="708.657,-297.819 698.899,-293.691 703.953,-303.003 708.657,-297.819"/>
<text text-anchor="middle" x="894" y="-623.3" font-family="Times New Roman,serif" font-size="14.00">2</text>
</g>
<!-- 8&#45;&gt;None -->
<g id="edge22" class="edge"><title>8&#45;&gt;None</title>
<path fill="none" stroke="black" stroke-width="0.230769" d="M600.738,-796.125C507.364,-782.001 192.461,-731.313 107,-678 64.0597,-651.213 42,-635.111 42,-584.5 42,-584.5 42,-584.5 42,-452 42,-394.861 38,-380.639 38,-323.5 38,-323.5 38,-323.5 38,-104 38,-41.9299 125.667,-25.0623 179.646,-20.5594"/>
<polygon fill="black" stroke="black" stroke-width="0.230769" points="180.235,-24.0261 189.957,-19.814 179.73,-17.0443 180.235,-24.0261"/>
<text text-anchor="middle" x="46" y="-405.8" font-family="Times New Roman,serif" font-size="14.00">2</text>
</g>
<!-- 8&#45;&gt;11 -->
<g id="edge18" class="edge"><title>8&#45;&gt;11</title>
<path fill="none" stroke="black" stroke-width="0.230769" d="M638.912,-817.226C643.313,-823.209 648.159,-830.25 652,-837 656.288,-844.534 660.318,-853.062 663.728,-860.915"/>
<polygon fill="black" stroke="black" stroke-width="0.230769" points="660.598,-862.501 667.689,-870.373 667.055,-859.797 660.598,-862.501"/>
<text text-anchor="middle" x="664" y="-840.8" font-family="Times New Roman,serif" font-size="14.00">2</text>
</g>
<!-- 8&#45;&gt;12 -->
<g id="edge19" class="edge"><title>8&#45;&gt;12</title>
<path fill="none" stroke="black" stroke-width="0.692308" d="M625.315,-819.052C622.366,-848.88 616.25,-910.764 612.704,-946.643"/>
<polygon fill="black" stroke="black" stroke-width="0.692308" points="609.193,-946.583 611.692,-956.879 616.159,-947.272 609.193,-946.583"/>
<text text-anchor="middle" x="625" y="-884.3" font-family="Times New Roman,serif" font-size="14.00">6</text>
</g>
<!-- 6 -->
<g id="node15" class="node"><title>6</title>
<ellipse fill="none" stroke="black" cx="541" cy="-714" rx="27" ry="18"/>
<text text-anchor="middle" x="541" y="-710.3" font-family="Times New Roman,serif" font-size="14.00">6</text>
</g>
<!-- 8&#45;&gt;6 -->
<g id="edge20" class="edge"><title>8&#45;&gt;6</title>
<path fill="none" stroke="black" stroke-width="1.61538" d="M612.411,-785.581C598.821,-772.148 578.377,-751.942 562.841,-736.587"/>
<polygon fill="black" stroke="black" stroke-width="1.61538" points="565.233,-734.03 555.66,-729.49 560.312,-739.009 565.233,-734.03"/>
<text text-anchor="middle" x="598" y="-753.8" font-family="Times New Roman,serif" font-size="14.00">14</text>
</g>
<!-- conspecific 2 -->
<g id="node17" class="node"><title>conspecific 2</title>
<ellipse fill="none" stroke="black" cx="802" cy="-192" rx="59.5901" ry="18"/>
<text text-anchor="middle" x="802" y="-188.3" font-family="Times New Roman,serif" font-size="14.00">conspecific 2</text>
</g>
<!-- 8&#45;&gt;conspecific 2 -->
<g id="edge23" class="edge"><title>8&#45;&gt;conspecific 2</title>
<path fill="none" stroke="black" stroke-width="1.15385" d="M654.186,-799.154C704.261,-795.991 806,-781.396 806,-715 806,-715 806,-715 806,-278 806,-258.731 804.962,-237.033 803.943,-220.382"/>
<polygon fill="black" stroke="black" stroke-width="1.15385" points="807.426,-219.999 803.288,-210.245 800.44,-220.45 807.426,-219.999"/>
<text text-anchor="middle" x="814" y="-492.8" font-family="Times New Roman,serif" font-size="14.00">10</text>
</g>
<!-- L. dardennii -->
<g id="node18" class="node"><title>L. dardennii</title>
<ellipse fill="none" stroke="black" cx="721" cy="-627" rx="56.59" ry="18"/>
<text text-anchor="middle" x="721" y="-623.3" font-family="Times New Roman,serif" font-size="14.00">L. dardennii</text>
</g>
<!-- 8&#45;&gt;L. dardennii -->
<g id="edge21" class="edge"><title>8&#45;&gt;L. dardennii</title>
<path fill="none" stroke="black" stroke-width="0.230769" d="M635.843,-783.819C652.205,-753.88 687.321,-689.625 706.964,-653.682"/>
<polygon fill="black" stroke="black" stroke-width="0.230769" points="710.111,-655.223 711.835,-644.77 703.968,-651.866 710.111,-655.223"/>
<text text-anchor="middle" x="688" y="-710.3" font-family="Times New Roman,serif" font-size="14.00">2</text>
</g>
<!-- 3&#45;&gt;1 -->
<g id="edge24" class="edge"><title>3&#45;&gt;1</title>
<path fill="none" stroke="black" stroke-width="1.15385" d="M389.222,-620.865C329.19,-607.508 187.472,-567.159 219,-489 263.33,-379.104 334.508,-392.985 404,-297 421.97,-272.18 437.766,-240.734 447.766,-218.951"/>
<polygon fill="black" stroke="black" stroke-width="1.15385" points="451.025,-220.237 451.939,-209.682 444.642,-217.364 451.025,-220.237"/>
<text text-anchor="middle" x="291" y="-405.8" font-family="Times New Roman,serif" font-size="14.00">10</text>
</g>
<!-- 3&#45;&gt;conspecific 3 -->
<g id="edge29" class="edge"><title>3&#45;&gt;conspecific 3</title>
<path fill="none" stroke="black" stroke-width="0.923077" d="M388.361,-622.979C322.443,-614.766 157,-589.339 157,-541 157,-541 157,-541 157,-365 157,-275.954 202.042,-177.549 225.764,-131.898"/>
<polygon fill="black" stroke="black" stroke-width="0.923077" points="228.9,-133.455 230.479,-122.979 222.711,-130.184 228.9,-133.455"/>
<text text-anchor="middle" x="161" y="-362.3" font-family="Times New Roman,serif" font-size="14.00">8</text>
</g>
<!-- 2 -->
<g id="node12" class="node"><title>2</title>
<ellipse fill="none" stroke="black" cx="321" cy="-540" rx="27" ry="18"/>
<text text-anchor="middle" x="321" y="-536.3" font-family="Times New Roman,serif" font-size="14.00">2</text>
</g>
<!-- 3&#45;&gt;2 -->
<g id="edge25" class="edge"><title>3&#45;&gt;2</title>
<path fill="none" stroke="black" stroke-width="0.230769" d="M398.875,-612.552C391.255,-606.118 382.079,-598.251 374,-591 363.703,-581.758 352.531,-571.287 343.11,-562.323"/>
<polygon fill="black" stroke="black" stroke-width="0.230769" points="345.313,-559.588 335.666,-555.208 340.477,-564.648 345.313,-559.588"/>
<text text-anchor="middle" x="378" y="-579.8" font-family="Times New Roman,serif" font-size="14.00">2</text>
</g>
<!-- 4 -->
<g id="node13" class="node"><title>4</title>
<ellipse fill="none" stroke="black" cx="440" cy="-453" rx="27" ry="18"/>
<text text-anchor="middle" x="440" y="-449.3" font-family="Times New Roman,serif" font-size="14.00">4</text>
</g>
<!-- 3&#45;&gt;4 -->
<g id="edge26" class="edge"><title>3&#45;&gt;4</title>
<path fill="none" stroke="black" stroke-width="1.15385" d="M417.488,-608.879C421.831,-579.001 430.827,-517.113 436.036,-481.274"/>
<polygon fill="black" stroke="black" stroke-width="1.15385" points="439.547,-481.451 437.522,-471.052 432.62,-480.444 439.547,-481.451"/>
<text text-anchor="middle" x="438" y="-536.3" font-family="Times New Roman,serif" font-size="14.00">10</text>
</g>
<!-- 3&#45;&gt;6 -->
<g id="edge27" class="edge"><title>3&#45;&gt;6</title>
<path fill="none" stroke="black" stroke-width="0.461538" d="M433.344,-640.375C454.629,-654.734 489.913,-678.536 514.253,-694.956"/>
<polygon fill="black" stroke="black" stroke-width="0.461538" points="512.431,-697.949 522.679,-700.64 516.346,-692.146 512.431,-697.949"/>
<text text-anchor="middle" x="490" y="-666.8" font-family="Times New Roman,serif" font-size="14.00">4</text>
</g>
<!-- 9 -->
<g id="node16" class="node"><title>9</title>
<ellipse fill="none" stroke="black" cx="607" cy="-366" rx="27" ry="18"/>
<text text-anchor="middle" x="607" y="-362.3" font-family="Times New Roman,serif" font-size="14.00">9</text>
</g>
<!-- 3&#45;&gt;9 -->
<g id="edge28" class="edge"><title>3&#45;&gt;9</title>
<path fill="none" stroke="black" stroke-width="0.461538" d="M430.861,-612.298C465.817,-581.217 549.879,-501.481 594,-417 597.654,-410.004 600.332,-401.909 602.273,-394.298"/>
<polygon fill="black" stroke="black" stroke-width="0.461538" points="605.727,-394.89 604.486,-384.368 598.895,-393.367 605.727,-394.89"/>
<text text-anchor="middle" x="551" y="-492.8" font-family="Times New Roman,serif" font-size="14.00">4</text>
</g>
<!-- 5&#45;&gt;1 -->
<g id="edge30" class="edge"><title>5&#45;&gt;1</title>
<path fill="none" stroke="black" stroke-width="0.230769" d="M656.002,-277.942C619.287,-276.75 552.625,-270.553 504,-243 492.841,-236.677 482.974,-226.576 475.345,-217.103"/>
<polygon fill="black" stroke="black" stroke-width="0.230769" points="478.07,-214.905 469.24,-209.051 472.492,-219.134 478.07,-214.905"/>
<text text-anchor="middle" x="508" y="-231.8" font-family="Times New Roman,serif" font-size="14.00">2</text>
</g>
<!-- 5&#45;&gt;conspecific 1 -->
<g id="edge33" class="edge"><title>5&#45;&gt;conspecific 1</title>
<path fill="none" stroke="black" stroke-width="0.923077" d="M671.422,-262.405C655.836,-241.671 626.943,-204.139 600,-174 586.233,-158.601 569.891,-142.204 556.678,-129.37"/>
<polygon fill="black" stroke="black" stroke-width="0.923077" points="558.931,-126.681 549.303,-122.26 554.073,-131.721 558.931,-126.681"/>
<text text-anchor="middle" x="635" y="-188.3" font-family="Times New Roman,serif" font-size="14.00">8</text>
</g>
<!-- 5&#45;&gt;6 -->
<g id="edge31" class="edge"><title>5&#45;&gt;6</title>
<path fill="none" stroke="black" stroke-width="0.230769" d="M678.788,-297.191C676.353,-306.866 673.154,-319.148 670,-330 658.663,-369.006 654.781,-378.443 642,-417 608.913,-516.811 568.087,-635.001 550.165,-686.646"/>
<polygon fill="black" stroke="black" stroke-width="0.230769" points="546.771,-685.749 546.797,-696.344 553.384,-688.046 546.771,-685.749"/>
<text text-anchor="middle" x="622" y="-492.8" font-family="Times New Roman,serif" font-size="14.00">2</text>
</g>
<!-- 5&#45;&gt;9 -->
<g id="edge32" class="edge"><title>5&#45;&gt;9</title>
<path fill="none" stroke="black" stroke-width="0.230769" d="M664.233,-292.294C655.636,-298.476 645.677,-306.463 638,-315 631.28,-322.474 625.145,-331.59 620.139,-339.981"/>
<polygon fill="black" stroke="black" stroke-width="0.230769" points="617.087,-338.269 615.176,-348.69 623.168,-341.735 617.087,-338.269"/>
<text text-anchor="middle" x="642" y="-318.8" font-family="Times New Roman,serif" font-size="14.00">2</text>
</g>
<!-- 5&#45;&gt;conspecific 2 -->
<g id="edge34" class="edge"><title>5&#45;&gt;conspecific 2</title>
<path fill="none" stroke="black" stroke-width="0.461538" d="M700.816,-265.275C719.443,-251.969 749.025,-230.839 771.403,-214.855"/>
<polygon fill="black" stroke="black" stroke-width="0.461538" points="773.486,-217.669 779.589,-209.008 769.417,-211.972 773.486,-217.669"/>
<text text-anchor="middle" x="753" y="-231.8" font-family="Times New Roman,serif" font-size="14.00">4</text>
</g>
<!-- 2&#45;&gt;None -->
<g id="edge37" class="edge"><title>2&#45;&gt;None</title>
<path fill="none" stroke="black" stroke-width="0.230769" d="M305.186,-525.128C291.153,-512.19 270.794,-491.81 257,-471 225.646,-423.701 158.438,-297.314 142,-243 124.131,-183.959 118.325,-83.6502 138,-54 147.667,-39.4323 164.72,-30.9133 180.864,-25.9382"/>
<polygon fill="black" stroke="black" stroke-width="0.230769" points="181.982,-29.2616 190.724,-23.2761 180.158,-22.5036 181.982,-29.2616"/>
<text text-anchor="middle" x="168" y="-275.3" font-family="Times New Roman,serif" font-size="14.00">2</text>
</g>
<!-- 2&#45;&gt;conspecific 3 -->
<g id="edge38" class="edge"><title>2&#45;&gt;conspecific 3</title>
<path fill="none" stroke="black" stroke-width="0.461538" d="M308.138,-524.069C303.503,-518.122 298.547,-511.028 295,-504 257.218,-429.129 240,-407.364 240,-323.5 240,-323.5 240,-323.5 240,-191 240,-171.753 240,-150.054 240,-133.397"/>
<polygon fill="black" stroke="black" stroke-width="0.461538" points="243.5,-133.256 240,-123.256 236.5,-133.256 243.5,-133.256"/>
<text text-anchor="middle" x="245" y="-318.8" font-family="Times New Roman,serif" font-size="14.00">4</text>
</g>
<!-- 2&#45;&gt;4 -->
<g id="edge35" class="edge"><title>2&#45;&gt;4</title>
<path fill="none" stroke="black" stroke-width="0.923077" d="M334.806,-524.36C345.239,-513.778 360.239,-499.548 375,-489 385.672,-481.374 398.2,-474.251 409.394,-468.449"/>
<polygon fill="black" stroke="black" stroke-width="0.923077" points="411.059,-471.529 418.413,-463.903 407.908,-465.278 411.059,-471.529"/>
<text text-anchor="middle" x="379" y="-492.8" font-family="Times New Roman,serif" font-size="14.00">8</text>
</g>
<!-- 2&#45;&gt;N. tetracanthus -->
<g id="edge36" class="edge"><title>2&#45;&gt;N. tetracanthus</title>
<path fill="none" stroke="black" stroke-width="0.230769" d="M316.579,-522.216C306.541,-484.665 280.74,-391.187 253,-315 216.157,-213.811 101.112,-168.929 171,-87 215.071,-35.3368 410.459,-22.7452 520.678,-19.795"/>
<polygon fill="black" stroke="black" stroke-width="0.230769" points="520.834,-23.2923 530.744,-19.546 520.661,-16.2944 520.834,-23.2923"/>
<text text-anchor="middle" x="250" y="-275.3" font-family="Times New Roman,serif" font-size="14.00">2</text>
</g>
<!-- 4&#45;&gt;1 -->
<g id="edge39" class="edge"><title>4&#45;&gt;1</title>
<path fill="none" stroke="black" stroke-width="1.15385" d="M441.247,-435.006C444.467,-391.102 453.087,-273.6 457.009,-220.147"/>
<polygon fill="black" stroke="black" stroke-width="1.15385" points="460.508,-220.286 457.749,-210.056 453.526,-219.773 460.508,-220.286"/>
<text text-anchor="middle" x="458" y="-318.8" font-family="Times New Roman,serif" font-size="14.00">10</text>
</g>
<!-- 4&#45;&gt;7 -->
<g id="edge43" class="edge"><title>4&#45;&gt;7</title>
<path fill="none" stroke="black" stroke-width="0.230769" d="M425.598,-437.434C411.46,-421.531 392,-394.624 392,-367 392,-367 392,-367 392,-191 392,-169.521 401.674,-147.134 410.849,-130.729"/>
<polygon fill="black" stroke="black" stroke-width="0.230769" points="414.043,-132.203 416.118,-121.814 408.017,-128.642 414.043,-132.203"/>
<text text-anchor="middle" x="396" y="-275.3" font-family="Times New Roman,serif" font-size="14.00">2</text>
</g>
<!-- 4&#45;&gt;None -->
<g id="edge47" class="edge"><title>4&#45;&gt;None</title>
<path fill="none" stroke="black" stroke-width="0.230769" d="M417.256,-442.923C405.631,-437.162 392.235,-428.588 384,-417 296.873,-294.398 389.935,-213.774 309,-87 295.098,-65.2242 271.687,-47.6344 252.505,-35.804"/>
<polygon fill="black" stroke="black" stroke-width="0.230769" points="254.152,-32.7113 243.765,-30.6228 250.582,-38.7328 254.152,-32.7113"/>
<text text-anchor="middle" x="350" y="-231.8" font-family="Times New Roman,serif" font-size="14.00">2</text>
</g>
<!-- 4&#45;&gt;conspecific 3 -->
<g id="edge48" class="edge"><title>4&#45;&gt;conspecific 3</title>
<path fill="none" stroke="black" stroke-width="0.230769" d="M421.875,-439.385C413.909,-433.248 404.833,-425.39 398,-417 358.805,-368.872 281.081,-198.43 251.656,-132.402"/>
<polygon fill="black" stroke="black" stroke-width="0.230769" points="254.777,-130.807 247.518,-123.089 248.38,-133.649 254.777,-130.807"/>
<text text-anchor="middle" x="333" y="-275.3" font-family="Times New Roman,serif" font-size="14.00">2</text>
</g>
<!-- 4&#45;&gt;L. callipterus -->
<g id="edge45" class="edge"><title>4&#45;&gt;L. callipterus</title>
<path fill="none" stroke="black" stroke-width="0.230769" d="M455.114,-438.085C461.71,-431.816 469.423,-424.215 476,-417 555.633,-329.641 578.776,-309.238 643,-210 652.78,-194.889 703.24,-93.4039 727.261,-44.8232"/>
<polygon fill="black" stroke="black" stroke-width="0.230769" points="730.401,-46.3695 731.693,-35.8537 724.125,-43.2687 730.401,-46.3695"/>
<text text-anchor="middle" x="635" y="-231.8" font-family="Times New Roman,serif" font-size="14.00">2</text>
</g>
<!-- 4&#45;&gt;3 -->
<g id="edge41" class="edge"><title>4&#45;&gt;3</title>
<path fill="none" stroke="black" stroke-width="0.461538" d="M431.836,-470.274C425.556,-483.752 417.397,-503.605 414,-522 409.253,-547.705 410.195,-577.595 411.909,-598.717"/>
<polygon fill="black" stroke="black" stroke-width="0.461538" points="408.444,-599.26 412.85,-608.895 415.415,-598.615 408.444,-599.26"/>
<text text-anchor="middle" x="418" y="-536.3" font-family="Times New Roman,serif" font-size="14.00">4</text>
</g>
<!-- 4&#45;&gt;2 -->
<g id="edge40" class="edge"><title>4&#45;&gt;2</title>
<path fill="none" stroke="black" stroke-width="0.692308" d="M414.164,-458.237C393.596,-462.771 365.174,-471.779 346,-489 338.865,-495.408 333.514,-504.318 329.632,-512.845"/>
<polygon fill="black" stroke="black" stroke-width="0.692308" points="326.371,-511.572 325.857,-522.154 332.858,-514.203 326.371,-511.572"/>
<text text-anchor="middle" x="350" y="-492.8" font-family="Times New Roman,serif" font-size="14.00">6</text>
</g>
<!-- 4&#45;&gt;N. tetracanthus -->
<g id="edge46" class="edge"><title>4&#45;&gt;N. tetracanthus</title>
<path fill="none" stroke="black" stroke-width="0.230769" d="M448.711,-435.758C451.758,-429.899 455.132,-423.202 458,-417 496.147,-334.522 494.614,-308.901 536,-228 560.996,-179.138 584.524,-175.353 601,-123 608.935,-97.787 606.495,-67.4298 602.947,-46.0403"/>
<polygon fill="black" stroke="black" stroke-width="0.230769" points="606.357,-45.2324 601.098,-36.035 599.473,-46.5045 606.357,-45.2324"/>
<text text-anchor="middle" x="540" y="-231.8" font-family="Times New Roman,serif" font-size="14.00">2</text>
</g>
<!-- 4&#45;&gt;6 -->
<g id="edge42" class="edge"><title>4&#45;&gt;6</title>
<path fill="none" stroke="black" stroke-width="0.923077" d="M464.327,-461.331C478.119,-466.757 494.474,-475.572 504,-489 546.56,-548.992 546.732,-640.55 543.699,-685.774"/>
<polygon fill="black" stroke="black" stroke-width="0.923077" points="540.192,-685.731 542.905,-695.973 547.171,-686.274 540.192,-685.731"/>
<text text-anchor="middle" x="545" y="-579.8" font-family="Times New Roman,serif" font-size="14.00">8</text>
</g>
<!-- 4&#45;&gt;9 -->
<g id="edge44" class="edge"><title>4&#45;&gt;9</title>
<path fill="none" stroke="black" stroke-width="0.461538" d="M464.537,-444.857C484.16,-438.701 512.082,-428.931 535,-417 544.311,-412.153 564.495,-398.01 581.13,-385.998"/>
<polygon fill="black" stroke="black" stroke-width="0.461538" points="583.394,-388.679 589.429,-379.971 579.281,-383.015 583.394,-388.679"/>
<text text-anchor="middle" x="563" y="-405.8" font-family="Times New Roman,serif" font-size="14.00">4</text>
</g>
<!-- 6&#45;&gt;None -->
<g id="edge54" class="edge"><title>6&#45;&gt;None</title>
<path fill="none" stroke="black" stroke-width="0.230769" d="M516.803,-705.646C505.662,-702.418 492.228,-698.746 480,-696 392.882,-676.434 84,-717.288 84,-628 84,-628 84,-628 84,-408.5 84,-331.973 76,-313.027 76,-236.5 76,-236.5 76,-236.5 76,-104 76,-55.104 138.124,-33.8006 181.045,-24.9172"/>
<polygon fill="black" stroke="black" stroke-width="0.230769" points="181.796,-28.337 190.956,-23.0124 180.475,-21.4628 181.796,-28.337"/>
<text text-anchor="middle" x="88" y="-362.3" font-family="Times New Roman,serif" font-size="14.00">2</text>
</g>
<!-- 6&#45;&gt;12 -->
<g id="edge49" class="edge"><title>6&#45;&gt;12</title>
<path fill="none" stroke="black" stroke-width="1.38462" d="M539.539,-732.106C536.989,-771.528 535.317,-870.618 575,-939 577.911,-944.017 581.721,-948.821 585.752,-953.177"/>
<polygon fill="black" stroke="black" stroke-width="1.38462" points="583.542,-955.915 593.103,-960.48 588.476,-950.949 583.542,-955.915"/>
<text text-anchor="middle" x="553" y="-840.8" font-family="Times New Roman,serif" font-size="14.00">12</text>
</g>
<!-- 6&#45;&gt;3 -->
<g id="edge50" class="edge"><title>6&#45;&gt;3</title>
<path fill="none" stroke="black" stroke-width="0.230769" d="M516.564,-705.778C499.435,-699.978 476.557,-690.702 459,-678 448.958,-670.735 439.612,-660.789 432.139,-651.679"/>
<polygon fill="black" stroke="black" stroke-width="0.230769" points="434.764,-649.355 425.836,-643.65 429.258,-653.677 434.764,-649.355"/>
<text text-anchor="middle" x="463" y="-666.8" font-family="Times New Roman,serif" font-size="14.00">2</text>
</g>
<!-- 6&#45;&gt;5 -->
<g id="edge51" class="edge"><title>6&#45;&gt;5</title>
<path fill="none" stroke="black" stroke-width="0.230769" d="M555.7,-698.799C581.069,-673.287 632.599,-616.847 656,-558 693.788,-462.972 680.095,-432.032 687,-330 687.504,-322.559 687.223,-314.501 686.626,-307.072"/>
<polygon fill="black" stroke="black" stroke-width="0.230769" points="690.107,-306.714 685.62,-297.117 683.143,-307.418 690.107,-306.714"/>
<text text-anchor="middle" x="682" y="-492.8" font-family="Times New Roman,serif" font-size="14.00">2</text>
</g>
<!-- 6&#45;&gt;9 -->
<g id="edge52" class="edge"><title>6&#45;&gt;9</title>
<path fill="none" stroke="black" stroke-width="1.84615" d="M565.18,-705.648C580.201,-700.066 599.047,-691.09 612,-678 629.338,-660.479 636,-652.65 636,-628 636,-628 636,-628 636,-452 636,-431.015 627.985,-408.602 620.382,-392.062"/>
<polygon fill="black" stroke="black" stroke-width="1.84615" points="623.528,-390.529 616.017,-383.058 617.23,-393.583 623.528,-390.529"/>
<text text-anchor="middle" x="644" y="-536.3" font-family="Times New Roman,serif" font-size="14.00">16</text>
</g>
<!-- 6&#45;&gt;L. dardennii -->
<g id="edge53" class="edge"><title>6&#45;&gt;L. dardennii</title>
<path fill="none" stroke="black" stroke-width="0.230769" d="M566.075,-707.258C588.723,-701.54 622.603,-691.647 650,-678 665.131,-670.463 680.628,-659.937 693.267,-650.485"/>
<polygon fill="black" stroke="black" stroke-width="0.230769" points="695.711,-653.023 701.522,-644.164 691.454,-647.465 695.711,-653.023"/>
<text text-anchor="middle" x="679" y="-666.8" font-family="Times New Roman,serif" font-size="14.00">2</text>
</g>
<!-- 9&#45;&gt;None -->
<g id="edge58" class="edge"><title>9&#45;&gt;None</title>
<path fill="none" stroke="black" stroke-width="0.230769" d="M603.287,-348.118C596.446,-314.794 583.153,-238.22 590,-174 594.132,-135.245 625.891,-116.991 601,-87 558.336,-35.5932 351.676,-23.0138 262.313,-19.9639"/>
<polygon fill="black" stroke="black" stroke-width="0.230769" points="262.373,-16.4641 252.267,-19.6446 262.151,-23.4606 262.373,-16.4641"/>
<text text-anchor="middle" x="594" y="-188.3" font-family="Times New Roman,serif" font-size="14.00">2</text>
</g>
<!-- 9&#45;&gt;L. callipterus -->
<g id="edge57" class="edge"><title>9&#45;&gt;L. callipterus</title>
<path fill="none" stroke="black" stroke-width="0.230769" d="M612.357,-348.221C615.559,-338.462 619.809,-325.962 624,-315 633.316,-290.634 634.148,-283.701 647,-261 660.796,-236.631 670.995,-234.8 684,-210 695.816,-187.468 695.456,-180.298 703,-156 714.79,-118.028 726.419,-73.4869 733.405,-45.749"/>
<polygon fill="black" stroke="black" stroke-width="0.230769" points="736.815,-46.54 735.845,-35.9896 730.024,-44.8417 736.815,-46.54"/>
<text text-anchor="middle" x="702" y="-188.3" font-family="Times New Roman,serif" font-size="14.00">2</text>
</g>
<!-- 9&#45;&gt;5 -->
<g id="edge56" class="edge"><title>9&#45;&gt;5</title>
<path fill="none" stroke="black" stroke-width="0.230769" d="M623.127,-351.289C630.122,-345.059 638.24,-337.431 645,-330 652.374,-321.895 659.814,-312.447 666.133,-303.961"/>
<polygon fill="black" stroke="black" stroke-width="0.230769" points="668.963,-306.02 672.034,-295.88 663.31,-301.892 668.963,-306.02"/>
<text text-anchor="middle" x="662" y="-318.8" font-family="Times New Roman,serif" font-size="14.00">2</text>
</g>
<!-- 9&#45;&gt;4 -->
<g id="edge55" class="edge"><title>9&#45;&gt;4</title>
<path fill="none" stroke="black" stroke-width="0.461538" d="M597.485,-383.21C590.195,-394.271 579.168,-408.421 566,-417 538.964,-434.616 503.109,-443.459 476.562,-447.842"/>
<polygon fill="black" stroke="black" stroke-width="0.461538" points="475.888,-444.404 466.524,-449.361 476.935,-451.325 475.888,-444.404"/>
<text text-anchor="middle" x="586" y="-405.8" font-family="Times New Roman,serif" font-size="14.00">4</text>
</g>
</g>
</svg>
