<?xml version="1.0" encoding="UTF-8" standalone="no"?>
<!DOCTYPE svg PUBLIC "-//W3C//DTD SVG 1.1//EN"
 "http://www.w3.org/Graphics/SVG/1.1/DTD/svg11.dtd">
<!-- Generated by graphviz version 2.41.20170921.1950 (20170921.1950)
 -->
<!-- Title: %3 Pages: 1 -->
<svg width="72pt" height="131pt"
 viewBox="0.00 0.00 71.69 131.00" xmlns="http://www.w3.org/2000/svg" xmlns:xlink="http://www.w3.org/1999/xlink">
<g id="graph0" class="graph" transform="scale(1 1) rotate(0) translate(4 127)">
<title>%3</title>
<polygon fill="white" stroke="transparent" points="-4,4 -4,-127 67.69,-127 67.69,4 -4,4"/>
<!-- Left -->
<g id="node1" class="node">
<title>Left</title>
<ellipse fill="none" stroke="black" cx="31.85" cy="-105" rx="27" ry="18"/>
<text text-anchor="middle" x="31.85" y="-101.3" font-family="Times New Roman,serif" font-size="14.00">Left</text>
</g>
<!-- Right -->
<g id="node2" class="node">
<title>Right</title>
<ellipse fill="none" stroke="black" cx="31.85" cy="-18" rx="31.7" ry="18"/>
<text text-anchor="middle" x="31.85" y="-14.3" font-family="Times New Roman,serif" font-size="14.00">Right</text>
</g>
<!-- Left&#45;&gt;Right -->
<g id="edge1" class="edge">
<title>Left&#45;&gt;Right</title>
<path fill="none" stroke="black" stroke-width="1.61" d="M19.74,-88.88C15.78,-83.02 11.87,-76.03 9.85,-69 7.39,-60.49 9.66,-51.53 13.53,-43.58"/>
<polygon fill="black" stroke="black" stroke-width="1.61" points="16.63,-45.21 18.62,-34.8 10.58,-41.7 16.63,-45.21"/>
<text text-anchor="middle" x="21.35" y="-57.8" font-family="Times New Roman,serif" font-size="14.00">279</text>
</g>
<!-- Right&#45;&gt;Left -->
<g id="edge2" class="edge">
<title>Right&#45;&gt;Left</title>
<path fill="none" stroke="black" stroke-width="3" d="M32.43,-36.09C32.6,-41.78 32.76,-48.16 32.85,-54 32.95,-61.35 32.88,-69.31 32.73,-76.66"/>
<polygon fill="black" stroke="black" stroke-width="3" points="29.23,-76.79 32.48,-86.88 36.23,-76.97 29.23,-76.79"/>
<text text-anchor="middle" x="44.35" y="-57.8" font-family="Times New Roman,serif" font-size="14.00">521</text>
</g>
</g>
</svg>
