<?xml version="1.0" encoding="UTF-8" standalone="no"?>
<!DOCTYPE svg PUBLIC "-//W3C//DTD SVG 1.1//EN"
 "http://www.w3.org/Graphics/SVG/1.1/DTD/svg11.dtd">
<!-- Generated by graphviz version 2.38.0 (20140413.2041)
 -->
<!-- Title: %3 Pages: 1 -->
<svg width="916pt" height="971pt"
 viewBox="0.00 0.00 916.00 970.53" xmlns="http://www.w3.org/2000/svg" xmlns:xlink="http://www.w3.org/1999/xlink">
<g id="graph0" class="graph" transform="scale(1 1) rotate(0) translate(4 966.527)">
<title>%3</title>
<polygon fill="white" stroke="none" points="-4,4 -4,-966.527 912,-966.527 912,4 -4,4"/>
<!-- bite -->
<g id="node1" class="node"><title>bite</title>
<g id="a_node1"><a xlink:title="1234 &#013; 234 &#013; 234">
<ellipse fill="#f2e6ff" stroke="black" cx="632" cy="-946.263" rx="26.7407" ry="16.0303"/>
<text text-anchor="middle" x="632" y="-942.563" font-family="Times New Roman,serif" font-size="14.00">bite</text>
</a>
</g>
</g>
<!-- intoshell -->
<g id="node2" class="node"><title>intoshell</title>
<g id="a_node2"><a xlink:title="1234 &#013; 234 &#013; 234">
<ellipse fill="#a246ff" stroke="black" cx="563" cy="-852.5" rx="57" ry="26.5"/>
<text text-anchor="middle" x="563" y="-848.8" font-family="Times New Roman,serif" font-size="14.00">intoshell</text>
</a>
</g>
</g>
<!-- bite&#45;&gt;intoshell -->
<g id="edge1" class="edge"><title>bite&#45;&gt;intoshell</title>
<path fill="none" stroke="black" stroke-width="0.0909091" d="M621.219,-930.925C612.2,-918.932 598.991,-901.364 587.433,-885.994"/>
<polygon fill="black" stroke="black" stroke-width="0.0909091" points="590.027,-883.619 581.219,-877.73 584.432,-887.826 590.027,-883.619"/>
<text text-anchor="middle" x="610" y="-900.8" font-family="Times New Roman,serif" font-size="14.00">1</text>
</g>
<!-- frontal -->
<g id="node4" class="node"><title>frontal</title>
<g id="a_node4"><a xlink:title="1234 &#013; 234 &#013; 234">
<ellipse fill="#a246ff" stroke="black" cx="516" cy="-732.5" rx="90.5" ry="42.5"/>
<text text-anchor="middle" x="516" y="-728.8" font-family="Times New Roman,serif" font-size="14.00">frontal</text>
</a>
</g>
</g>
<!-- intoshell&#45;&gt;frontal -->
<g id="edge2" class="edge"><title>intoshell&#45;&gt;frontal</title>
<path fill="none" stroke="black" stroke-width="0.492308" d="M552.917,-826.186C548.005,-813.854 541.917,-798.568 536.111,-783.991"/>
<polygon fill="black" stroke="black" stroke-width="0.492308" points="539.303,-782.547 532.351,-774.552 532.8,-785.137 539.303,-782.547"/>
<text text-anchor="middle" x="550" y="-796.8" font-family="Times New Roman,serif" font-size="14.00">8</text>
</g>
<!-- head&#45;down -->
<g id="node5" class="node"><title>head&#45;down</title>
<g id="a_node5"><a xlink:title="1234 &#013; 234 &#013; 234">
<ellipse fill="#a64dff" stroke="black" cx="491" cy="-158" rx="83.5" ry="39"/>
<text text-anchor="middle" x="491" y="-154.3" font-family="Times New Roman,serif" font-size="14.00">head&#45;down</text>
</a>
</g>
</g>
<!-- intoshell&#45;&gt;head&#45;down -->
<g id="edge3" class="edge"><title>intoshell&#45;&gt;head&#45;down</title>
<path fill="none" stroke="black" stroke-width="0.224709" d="M604.205,-834.111C611.117,-831.321 618.24,-828.524 625,-826 745.805,-780.895 900,-862.451 900,-733.5 900,-733.5 900,-733.5 900,-410.5 900,-261.316 700.107,-197.803 579.81,-173.088"/>
<polygon fill="black" stroke="black" stroke-width="0.224709" points="580.352,-169.627 569.859,-171.094 578.977,-176.491 580.352,-169.627"/>
<text text-anchor="middle" x="904" y="-483.8" font-family="Times New Roman,serif" font-size="14.00">2</text>
</g>
<!-- lateral display -->
<g id="node6" class="node"><title>lateral display</title>
<g id="a_node6"><a xlink:title="1234 &#013; 234 &#013; 234">
<ellipse fill="#7f00ff" stroke="black" cx="383" cy="-487.5" rx="108" ry="50.5"/>
<text text-anchor="middle" x="383" y="-483.8" font-family="Times New Roman,serif" font-size="14.00">lateral display</text>
</a>
</g>
</g>
<!-- intoshell&#45;&gt;lateral display -->
<g id="edge4" class="edge"><title>intoshell&#45;&gt;lateral display</title>
<path fill="none" stroke="black" stroke-width="0.492308" d="M512.867,-839.655C431.396,-817.057 276.55,-758.968 249,-639 240.592,-602.385 239.356,-583.454 265,-556 274.464,-545.869 285.797,-536.833 297.644,-528.923"/>
<polygon fill="black" stroke="black" stroke-width="0.492308" points="299.801,-531.698 306.342,-523.363 296.031,-525.8 299.801,-531.698"/>
<text text-anchor="middle" x="265" y="-660.8" font-family="Times New Roman,serif" font-size="14.00">8</text>
</g>
<!-- unknown -->
<g id="node11" class="node"><title>unknown</title>
<g id="a_node11"><a xlink:title="1234 &#013; 234 &#013; 234">
<ellipse fill="#c082ff" stroke="black" cx="642" cy="-614" rx="54" ry="25"/>
<text text-anchor="middle" x="642" y="-610.3" font-family="Times New Roman,serif" font-size="14.00">unknown</text>
</a>
</g>
</g>
<!-- intoshell&#45;&gt;unknown -->
<g id="edge5" class="edge"><title>intoshell&#45;&gt;unknown</title>
<path fill="none" stroke="black" stroke-width="0.224709" d="M597.702,-831.062C616.689,-817.759 638.444,-798.517 649,-775 667.16,-734.541 659.974,-682.388 651.975,-648.818"/>
<polygon fill="black" stroke="black" stroke-width="0.224709" points="655.344,-647.863 649.494,-639.03 648.559,-649.583 655.344,-647.863"/>
<text text-anchor="middle" x="665" y="-728.8" font-family="Times New Roman,serif" font-size="14.00">2</text>
</g>
<!-- driving -->
<g id="node3" class="node"><title>driving</title>
<g id="a_node3"><a xlink:title="1234 &#013; 234 &#013; 234">
<ellipse fill="#cc9aff" stroke="black" cx="440" cy="-364.5" rx="45.5" ry="21.5"/>
<text text-anchor="middle" x="440" y="-360.8" font-family="Times New Roman,serif" font-size="14.00">driving</text>
</a>
</g>
</g>
<!-- driving&#45;&gt;frontal -->
<g id="edge6" class="edge"><title>driving&#45;&gt;frontal</title>
<path fill="none" stroke="black" stroke-width="0.302977" d="M473.909,-379.288C497.441,-390.868 526.983,-409.904 541,-437 581.17,-514.654 556.794,-619.397 535.997,-680.771"/>
<polygon fill="black" stroke="black" stroke-width="0.302977" points="532.683,-679.644 532.7,-690.238 539.294,-681.946 532.683,-679.644"/>
<text text-anchor="middle" x="566" y="-559.8" font-family="Times New Roman,serif" font-size="14.00">3</text>
</g>
<!-- driving&#45;&gt;head&#45;down -->
<g id="edge7" class="edge"><title>driving&#45;&gt;head&#45;down</title>
<path fill="none" stroke="black" stroke-width="0.224709" d="M445.171,-342.766C453.065,-311.113 468.334,-249.886 479.072,-206.829"/>
<polygon fill="black" stroke="black" stroke-width="0.224709" points="482.469,-207.67 481.493,-197.12 475.677,-205.976 482.469,-207.67"/>
<text text-anchor="middle" x="473" y="-266.3" font-family="Times New Roman,serif" font-size="14.00">2</text>
</g>
<!-- driving&#45;&gt;lateral display -->
<g id="edge8" class="edge"><title>driving&#45;&gt;lateral display</title>
<path fill="none" stroke="black" stroke-width="0.401582" d="M430.648,-385.583C425.963,-395.625 420.196,-407.961 415,-419 413.519,-422.146 411.997,-425.374 410.46,-428.631"/>
<polygon fill="black" stroke="black" stroke-width="0.401582" points="407.213,-427.311 406.104,-437.848 413.541,-430.302 407.213,-427.311"/>
<text text-anchor="middle" x="426" y="-407.8" font-family="Times New Roman,serif" font-size="14.00">5</text>
</g>
<!-- sand spitting -->
<g id="node7" class="node"><title>sand spitting</title>
<g id="a_node7"><a xlink:title="1234 &#013; 234 &#013; 234">
<ellipse fill="#bb77ff" stroke="black" cx="551" cy="-270" rx="52.3996" ry="22"/>
<text text-anchor="middle" x="551" y="-266.3" font-family="Times New Roman,serif" font-size="14.00">sand spitting</text>
</a>
</g>
</g>
<!-- driving&#45;&gt;sand spitting -->
<g id="edge9" class="edge"><title>driving&#45;&gt;sand spitting</title>
<path fill="none" stroke="black" stroke-width="0.0909091" d="M455.431,-344.243C464.563,-333.495 476.718,-320.248 489,-310 496.099,-304.077 504.166,-298.372 512.079,-293.24"/>
<polygon fill="black" stroke="black" stroke-width="0.0909091" points="513.949,-296.199 520.552,-287.913 510.223,-290.273 513.949,-296.199"/>
<text text-anchor="middle" x="493" y="-313.8" font-family="Times New Roman,serif" font-size="14.00">1</text>
</g>
<!-- frontal&#45;&gt;bite -->
<g id="edge10" class="edge"><title>frontal&#45;&gt;bite</title>
<path fill="none" stroke="black" stroke-width="0.0909091" d="M573.272,-765.629C594.772,-780.911 616.912,-801.291 629,-826 643.574,-855.791 641.09,-894.974 637.185,-920.145"/>
<polygon fill="black" stroke="black" stroke-width="0.0909091" points="633.736,-919.555 635.471,-930.006 640.632,-920.754 633.736,-919.555"/>
<text text-anchor="middle" x="645" y="-848.8" font-family="Times New Roman,serif" font-size="14.00">1</text>
</g>
<!-- frontal&#45;&gt;frontal -->
<g id="edge11" class="edge"><title>frontal&#45;&gt;frontal</title>
<path fill="none" stroke="black" stroke-width="0.570576" d="M603.266,-744.005C615.953,-742.179 624.5,-738.344 624.5,-732.5 624.5,-728.391 620.274,-725.275 613.355,-723.153"/>
<polygon fill="black" stroke="black" stroke-width="0.570576" points="613.776,-719.664 603.266,-720.995 612.313,-726.509 613.776,-719.664"/>
<text text-anchor="middle" x="632.5" y="-728.8" font-family="Times New Roman,serif" font-size="14.00">12</text>
</g>
<!-- frontal&#45;&gt;head&#45;down -->
<g id="edge12" class="edge"><title>frontal&#45;&gt;head&#45;down</title>
<path fill="none" stroke="black" stroke-width="0.492308" d="M434.131,-714.301C369.051,-700.158 286.719,-681.028 273,-672 206.469,-628.217 82.3124,-461.516 57,-386 50.9262,-367.88 50.8666,-361.1 57,-343 59.8743,-334.518 147.295,-219.566 155,-215 200.26,-188.176 220.079,-205.498 272,-197 315.357,-189.904 363.465,-181.604 403.523,-174.574"/>
<polygon fill="black" stroke="black" stroke-width="0.492308" points="404.282,-177.994 413.525,-172.815 403.07,-171.1 404.282,-177.994"/>
<text text-anchor="middle" x="75" y="-407.8" font-family="Times New Roman,serif" font-size="14.00">8</text>
</g>
<!-- frontal&#45;&gt;lateral display -->
<g id="edge13" class="edge"><title>frontal&#45;&gt;lateral display</title>
<path fill="none" stroke="black" stroke-width="0.96165" d="M426.875,-724.526C369.233,-714.855 298.237,-692.119 261,-639 235.224,-602.231 269.512,-562.882 308.227,-533.643"/>
<polygon fill="black" stroke="black" stroke-width="0.96165" points="310.533,-536.292 316.535,-527.562 306.399,-530.644 310.533,-536.292"/>
<text text-anchor="middle" x="269" y="-610.3" font-family="Times New Roman,serif" font-size="14.00">91</text>
</g>
<!-- frontal&#45;&gt;sand spitting -->
<g id="edge14" class="edge"><title>frontal&#45;&gt;sand spitting</title>
<path fill="none" stroke="black" stroke-width="0.0909091" d="M586.89,-705.899C634.621,-687.059 691.27,-661.005 705,-639 744.064,-576.39 719.427,-431.59 660,-343 644.565,-319.991 619.038,-302.545 596.567,-290.593"/>
<polygon fill="black" stroke="black" stroke-width="0.0909091" points="597.986,-287.388 587.487,-285.966 594.808,-293.625 597.986,-287.388"/>
<text text-anchor="middle" x="728" y="-483.8" font-family="Times New Roman,serif" font-size="14.00">1</text>
</g>
<!-- tailbeat -->
<g id="node10" class="node"><title>tailbeat</title>
<g id="a_node10"><a xlink:title="1234 &#013; 234 &#013; 234">
<ellipse fill="#b061ff" stroke="black" cx="671" cy="-34" rx="73" ry="34"/>
<text text-anchor="middle" x="671" y="-30.3" font-family="Times New Roman,serif" font-size="14.00">tailbeat</text>
</a>
</g>
</g>
<!-- frontal&#45;&gt;tailbeat -->
<g id="edge15" class="edge"><title>frontal&#45;&gt;tailbeat</title>
<path fill="none" stroke="black" stroke-width="0.358509" d="M586.596,-705.877C605.37,-699.868 625.777,-694.046 645,-690 682.823,-682.039 791.427,-700.069 818,-672 862.776,-624.703 870.477,-138.549 832,-86 813.714,-61.0264 783.132,-47.9771 753.504,-41.2642"/>
<polygon fill="black" stroke="black" stroke-width="0.358509" points="754.01,-37.7954 743.511,-39.2226 752.608,-44.6537 754.01,-37.7954"/>
<text text-anchor="middle" x="861" y="-360.8" font-family="Times New Roman,serif" font-size="14.00">4</text>
</g>
<!-- frontal&#45;&gt;unknown -->
<g id="edge16" class="edge"><title>frontal&#45;&gt;unknown</title>
<path fill="none" stroke="black" stroke-width="0.0909091" d="M575.573,-700.089C587.835,-691.968 600.031,-682.509 610,-672 616.711,-664.926 622.522,-656.179 627.281,-647.68"/>
<polygon fill="black" stroke="black" stroke-width="0.0909091" points="630.474,-649.125 632.025,-638.645 624.277,-645.871 630.474,-649.125"/>
<text text-anchor="middle" x="626" y="-660.8" font-family="Times New Roman,serif" font-size="14.00">1</text>
</g>
<!-- head&#45;down&#45;&gt;driving -->
<g id="edge17" class="edge"><title>head&#45;down&#45;&gt;driving</title>
<path fill="none" stroke="black" stroke-width="0.0909091" d="M468.09,-195.726C459.568,-211.266 450.808,-229.929 446,-248 438.569,-275.933 437.598,-308.973 438.171,-332.544"/>
<polygon fill="black" stroke="black" stroke-width="0.0909091" points="434.677,-332.784 438.526,-342.655 441.673,-332.538 434.677,-332.784"/>
<text text-anchor="middle" x="450" y="-266.3" font-family="Times New Roman,serif" font-size="14.00">1</text>
</g>
<!-- head&#45;down&#45;&gt;frontal -->
<g id="edge18" class="edge"><title>head&#45;down&#45;&gt;frontal</title>
<path fill="none" stroke="black" stroke-width="0.600332" d="M407.43,-160.707C267.27,-165.86 0,-186.503 0,-269 0,-412.5 0,-412.5 0,-412.5 0,-506.37 66.6549,-509.147 116,-589 129.504,-610.854 129.661,-618.393 145,-639 157.015,-655.142 158.03,-662.943 176,-672 237.141,-702.818 261.492,-678.568 329,-690 360.953,-695.411 395.678,-702.716 426.433,-709.689"/>
<polygon fill="black" stroke="black" stroke-width="0.600332" points="425.742,-713.122 436.271,-711.939 427.303,-706.298 425.742,-713.122"/>
<text text-anchor="middle" x="9" y="-407.8" font-family="Times New Roman,serif" font-size="14.00">14</text>
</g>
<!-- head&#45;down&#45;&gt;head&#45;down -->
<g id="edge19" class="edge"><title>head&#45;down&#45;&gt;head&#45;down</title>
<path fill="none" stroke="black" stroke-width="0.492308" d="M571.408,-168.997C583.95,-167.353 592.5,-163.688 592.5,-158 592.5,-154.001 588.273,-151.001 581.403,-149.001"/>
<polygon fill="black" stroke="black" stroke-width="0.492308" points="581.901,-145.532 571.408,-147.003 580.528,-152.396 581.901,-145.532"/>
<text text-anchor="middle" x="596.5" y="-154.3" font-family="Times New Roman,serif" font-size="14.00">8</text>
</g>
<!-- head&#45;down&#45;&gt;lateral display -->
<g id="edge20" class="edge"><title>head&#45;down&#45;&gt;lateral display</title>
<path fill="none" stroke="black" stroke-width="0.846055" d="M407.735,-161.703C322.675,-166.425 198.95,-179.392 169,-215 146.972,-241.19 149.541,-263.848 169,-292 187.234,-318.381 279.772,-321.99 304,-343 318.497,-355.571 339.661,-394.761 356.435,-429.014"/>
<polygon fill="black" stroke="black" stroke-width="0.846055" points="353.307,-430.585 360.819,-438.056 359.606,-427.531 353.307,-430.585"/>
<text text-anchor="middle" x="265" y="-313.8" font-family="Times New Roman,serif" font-size="14.00">50</text>
</g>
<!-- head&#45;down&#45;&gt;sand spitting -->
<g id="edge21" class="edge"><title>head&#45;down&#45;&gt;sand spitting</title>
<path fill="none" stroke="black" stroke-width="0.224709" d="M511.577,-196.014C515.069,-202.341 518.648,-208.854 522,-215 526.321,-222.924 530.961,-231.524 535.236,-239.483"/>
<polygon fill="black" stroke="black" stroke-width="0.224709" points="532.235,-241.293 540.045,-248.453 538.404,-237.986 532.235,-241.293"/>
<text text-anchor="middle" x="535" y="-218.8" font-family="Times New Roman,serif" font-size="14.00">2</text>
</g>
<!-- head&#45;down&#45;&gt;tailbeat -->
<g id="edge22" class="edge"><title>head&#45;down&#45;&gt;tailbeat</title>
<path fill="none" stroke="black" stroke-width="0.302977" d="M537.823,-125.264C563.765,-107.681 595.98,-85.8468 622.227,-68.0571"/>
<polygon fill="black" stroke="black" stroke-width="0.302977" points="624.21,-70.9416 630.524,-62.4338 620.282,-65.1471 624.21,-70.9416"/>
<text text-anchor="middle" x="596" y="-89.8" font-family="Times New Roman,serif" font-size="14.00">3</text>
</g>
<!-- head&#45;down&#45;&gt;unknown -->
<g id="edge23" class="edge"><title>head&#45;down&#45;&gt;unknown</title>
<path fill="none" stroke="black" stroke-width="0.302977" d="M573.397,-164.755C627.723,-173.574 694.008,-195.264 723,-248 740.595,-280.006 673.829,-536.445 662,-571 660.986,-573.961 659.821,-576.988 658.574,-579.993"/>
<polygon fill="black" stroke="black" stroke-width="0.302977" points="655.252,-578.849 654.394,-589.409 661.65,-581.689 655.252,-578.849"/>
<text text-anchor="middle" x="721" y="-360.8" font-family="Times New Roman,serif" font-size="14.00">3</text>
</g>
<!-- lateral display&#45;&gt;intoshell -->
<g id="edge27" class="edge"><title>lateral display&#45;&gt;intoshell</title>
<path fill="none" stroke="black" stroke-width="0.61365" d="M281.186,-504.696C224.177,-516.071 161.171,-533.308 144,-556 139.977,-561.316 142.214,-564.577 144,-571 172.371,-673 182.474,-711.249 267,-775 334.174,-825.664 431.653,-842.916 496.149,-848.709"/>
<polygon fill="black" stroke="black" stroke-width="0.61365" points="495.952,-852.205 506.208,-849.544 496.531,-845.229 495.952,-852.205"/>
<text text-anchor="middle" x="185" y="-660.8" font-family="Times New Roman,serif" font-size="14.00">15</text>
</g>
<!-- lateral display&#45;&gt;driving -->
<g id="edge24" class="edge"><title>lateral display&#45;&gt;driving</title>
<path fill="none" stroke="black" stroke-width="0.358509" d="M392.866,-437.09C396.166,-425.831 400.464,-414.191 406,-404 408.215,-399.923 410.934,-395.913 413.861,-392.111"/>
<polygon fill="black" stroke="black" stroke-width="0.358509" points="416.764,-394.095 420.485,-384.175 411.39,-389.609 416.764,-394.095"/>
<text text-anchor="middle" x="410" y="-407.8" font-family="Times New Roman,serif" font-size="14.00">4</text>
</g>
<!-- lateral display&#45;&gt;frontal -->
<g id="edge25" class="edge"><title>lateral display&#45;&gt;frontal</title>
<path fill="none" stroke="black" stroke-width="0.908228" d="M430.663,-533.086C458.335,-559.07 487.971,-587.115 489,-589 504.15,-616.755 510.933,-651.57 513.913,-679.839"/>
<polygon fill="black" stroke="black" stroke-width="0.908228" points="510.441,-680.298 514.847,-689.933 517.411,-679.653 510.441,-680.298"/>
<text text-anchor="middle" x="516" y="-610.3" font-family="Times New Roman,serif" font-size="14.00">69</text>
</g>
<!-- lateral display&#45;&gt;head&#45;down -->
<g id="edge26" class="edge"><title>lateral display&#45;&gt;head&#45;down</title>
<path fill="none" stroke="black" stroke-width="0.838175" d="M375.17,-437.014C368.392,-407.168 356.053,-369.855 334,-343 315.423,-320.378 304.183,-320.862 277,-310 245.168,-297.279 223.223,-318.92 202,-292 189.893,-276.643 190.384,-263.732 202,-248 226.211,-215.21 327.378,-189.454 403.236,-174.263"/>
<polygon fill="black" stroke="black" stroke-width="0.838175" points="404.157,-177.649 413.292,-172.281 402.804,-170.781 404.157,-177.649"/>
<text text-anchor="middle" x="323" y="-313.8" font-family="Times New Roman,serif" font-size="14.00">48</text>
</g>
<!-- lateral display&#45;&gt;lateral display -->
<g id="edge28" class="edge"><title>lateral display&#45;&gt;lateral display</title>
<path fill="none" stroke="black" d="M487.763,-499.829C500.591,-497.621 509,-493.512 509,-487.5 509,-483.273 504.842,-479.986 497.915,-477.64"/>
<polygon fill="black" stroke="black" points="498.307,-474.134 487.763,-475.171 496.652,-480.935 498.307,-474.134"/>
<text text-anchor="middle" x="520.5" y="-483.8" font-family="Times New Roman,serif" font-size="14.00">111</text>
</g>
<!-- lateral display&#45;&gt;sand spitting -->
<g id="edge30" class="edge"><title>lateral display&#45;&gt;sand spitting</title>
<path fill="none" stroke="black" stroke-width="0.466532" d="M476.693,-462.262C499.127,-452.282 520.921,-438.351 536,-419 561.814,-385.872 560.885,-335.112 556.773,-302.488"/>
<polygon fill="black" stroke="black" stroke-width="0.466532" points="560.177,-301.572 555.29,-292.171 553.249,-302.568 560.177,-301.572"/>
<text text-anchor="middle" x="563" y="-360.8" font-family="Times New Roman,serif" font-size="14.00">7</text>
</g>
<!-- lateral display&#45;&gt;tailbeat -->
<g id="edge31" class="edge"><title>lateral display&#45;&gt;tailbeat</title>
<path fill="none" stroke="black" stroke-width="0.719827" d="M346.11,-439.803C332.796,-422.888 317.682,-403.615 304,-386 289.223,-366.974 291.185,-356.15 271,-343 216.562,-307.535 167.634,-347.587 134,-292 123.876,-275.269 128.533,-266.776 134,-248 161.076,-155.019 452.884,-81.1114 594.612,-50.4119"/>
<polygon fill="black" stroke="black" stroke-width="0.719827" points="595.509,-53.799 604.551,-48.2765 594.039,-46.9551 595.509,-53.799"/>
<text text-anchor="middle" x="142" y="-266.3" font-family="Times New Roman,serif" font-size="14.00">26</text>
</g>
<!-- lateral display&#45;&gt;unknown -->
<g id="edge32" class="edge"><title>lateral display&#45;&gt;unknown</title>
<path fill="none" stroke="black" stroke-width="0.535382" d="M437.287,-531.406C460.937,-549.826 484.716,-567.872 491,-571 507.589,-579.256 549.265,-590.615 584.64,-599.439"/>
<polygon fill="black" stroke="black" stroke-width="0.535382" points="583.877,-602.855 594.425,-601.855 585.556,-596.06 583.877,-602.855"/>
<text text-anchor="middle" x="499" y="-559.8" font-family="Times New Roman,serif" font-size="14.00">10</text>
</g>
<!-- lunging/shooting out -->
<g id="node12" class="node"><title>lunging/shooting out</title>
<g id="a_node12"><a xlink:title="1234 &#013; 234 &#013; 234">
<ellipse fill="#dfc0ff" stroke="black" cx="164" cy="-364.5" rx="97.6615" ry="16.0303"/>
<text text-anchor="middle" x="164" y="-360.8" font-family="Times New Roman,serif" font-size="14.00">lunging/shooting out</text>
</a>
</g>
</g>
<!-- lateral display&#45;&gt;lunging/shooting out -->
<g id="edge29" class="edge"><title>lateral display&#45;&gt;lunging/shooting out</title>
<path fill="none" stroke="black" stroke-width="0.302977" d="M316.225,-447.729C300.367,-438.405 283.543,-428.416 268,-419 257.242,-412.482 255.017,-410.07 244,-404 231.628,-397.184 217.863,-390.314 205.286,-384.303"/>
<polygon fill="black" stroke="black" stroke-width="0.302977" points="206.48,-380.996 195.944,-379.888 203.49,-387.325 206.48,-380.996"/>
<text text-anchor="middle" x="272" y="-407.8" font-family="Times New Roman,serif" font-size="14.00">3</text>
</g>
<!-- sand spitting&#45;&gt;driving -->
<g id="edge33" class="edge"><title>sand spitting&#45;&gt;driving</title>
<path fill="none" stroke="black" stroke-width="0.436776" d="M532.425,-290.848C522.109,-301.448 508.805,-314.447 496,-325 489.325,-330.501 481.88,-336.008 474.655,-341.068"/>
<polygon fill="black" stroke="black" stroke-width="0.436776" points="472.6,-338.233 466.332,-346.774 476.559,-344.006 472.6,-338.233"/>
<text text-anchor="middle" x="516" y="-313.8" font-family="Times New Roman,serif" font-size="14.00">6</text>
</g>
<!-- sand spitting&#45;&gt;head&#45;down -->
<g id="edge34" class="edge"><title>sand spitting&#45;&gt;head&#45;down</title>
<path fill="none" stroke="black" stroke-width="0.0909091" d="M528.221,-250.014C522.261,-244.114 516.307,-237.243 512,-230 507.749,-222.852 504.306,-214.783 501.533,-206.714"/>
<polygon fill="black" stroke="black" stroke-width="0.0909091" points="504.8,-205.433 498.475,-196.934 498.119,-207.523 504.8,-205.433"/>
<text text-anchor="middle" x="516" y="-218.8" font-family="Times New Roman,serif" font-size="14.00">1</text>
</g>
<!-- sand spitting&#45;&gt;lateral display -->
<g id="edge35" class="edge"><title>sand spitting&#45;&gt;lateral display</title>
<path fill="none" stroke="black" stroke-width="0.302977" d="M543.43,-291.84C534.074,-315.947 516.584,-356.143 494,-386 480.196,-404.249 462.763,-421.83 445.827,-437.045"/>
<polygon fill="black" stroke="black" stroke-width="0.302977" points="443.281,-434.623 438.096,-443.863 447.911,-439.874 443.281,-434.623"/>
<text text-anchor="middle" x="524" y="-360.8" font-family="Times New Roman,serif" font-size="14.00">3</text>
</g>
<!-- sand spitting&#45;&gt;sand spitting -->
<g id="edge36" class="edge"><title>sand spitting&#45;&gt;sand spitting</title>
<path fill="none" stroke="black" stroke-width="0.0909091" d="M599.231,-278.536C611.755,-278.011 621.199,-275.166 621.199,-270 621.199,-266.368 616.53,-263.883 609.405,-262.545"/>
<polygon fill="black" stroke="black" stroke-width="0.0909091" points="609.545,-259.04 599.231,-261.464 608.805,-266.001 609.545,-259.04"/>
<text text-anchor="middle" x="625.199" y="-266.3" font-family="Times New Roman,serif" font-size="14.00">1</text>
</g>
<!-- sand spitting&#45;&gt;unknown -->
<g id="edge37" class="edge"><title>sand spitting&#45;&gt;unknown</title>
<path fill="none" stroke="black" stroke-width="0.0909091" d="M564.032,-291.503C567.317,-297.316 570.59,-303.764 573,-310 592.052,-359.303 622.362,-510.64 635.535,-578.935"/>
<polygon fill="black" stroke="black" stroke-width="0.0909091" points="632.1,-579.611 637.424,-588.771 638.975,-578.291 632.1,-579.611"/>
<text text-anchor="middle" x="606" y="-407.8" font-family="Times New Roman,serif" font-size="14.00">1</text>
</g>
<!-- fish&#45;left out of shell -->
<g id="node8" class="node"><title>fish&#45;left out of shell</title>
<g id="a_node8"><a xlink:title="1234 &#013; 234 &#013; 234">
<ellipse fill="#ffffff" stroke="black" cx="302" cy="-270" rx="90.5193" ry="16.0303"/>
<text text-anchor="middle" x="302" y="-266.3" font-family="Times New Roman,serif" font-size="14.00">fish&#45;left out of shell</text>
</a>
</g>
</g>
<!-- fish&#45;left out of shell&#45;&gt;head&#45;down -->
<g id="edge38" class="edge"><title>fish&#45;left out of shell&#45;&gt;head&#45;down</title>
<path fill="none" stroke="black" stroke-width="0.0909091" d="M327.489,-254.165C353.87,-238.811 396.026,-214.276 430.925,-193.964"/>
<polygon fill="black" stroke="black" stroke-width="0.0909091" points="432.746,-196.954 439.628,-188.899 429.225,-190.904 432.746,-196.954"/>
<text text-anchor="middle" x="395" y="-218.8" font-family="Times New Roman,serif" font-size="14.00">1</text>
</g>
<!-- fish&#45;right out of shell -->
<g id="node9" class="node"><title>fish&#45;right out of shell</title>
<g id="a_node9"><a xlink:title="1234 &#013; 234 &#013; 234">
<ellipse fill="#ffffff" stroke="black" cx="383" cy="-614" rx="96.7474" ry="16.0303"/>
<text text-anchor="middle" x="383" y="-610.3" font-family="Times New Roman,serif" font-size="14.00">fish&#45;right out of shell</text>
</a>
</g>
</g>
<!-- fish&#45;right out of shell&#45;&gt;lateral display -->
<g id="edge39" class="edge"><title>fish&#45;right out of shell&#45;&gt;lateral display</title>
<path fill="none" stroke="black" stroke-width="0.0909091" d="M383,-597.734C383,-585.188 383,-566.554 383,-548.215"/>
<polygon fill="black" stroke="black" stroke-width="0.0909091" points="386.5,-548.097 383,-538.097 379.5,-548.097 386.5,-548.097"/>
<text text-anchor="middle" x="387" y="-559.8" font-family="Times New Roman,serif" font-size="14.00">1</text>
</g>
<!-- tailbeat&#45;&gt;frontal -->
<g id="edge40" class="edge"><title>tailbeat&#45;&gt;frontal</title>
<path fill="none" stroke="black" stroke-width="0.535382" d="M691.95,-66.7085C695.591,-72.9533 699.126,-79.5671 702,-86 732.128,-153.429 731.395,-174.539 739,-248 756.903,-420.922 812.454,-487.046 728,-639 716.97,-658.847 708.741,-660.782 689,-672 680.404,-676.885 639.241,-691.094 599.226,-704.402"/>
<polygon fill="black" stroke="black" stroke-width="0.535382" points="598.032,-701.11 589.642,-707.58 600.236,-707.755 598.032,-701.11"/>
<text text-anchor="middle" x="770" y="-360.8" font-family="Times New Roman,serif" font-size="14.00">10</text>
</g>
<!-- tailbeat&#45;&gt;head&#45;down -->
<g id="edge41" class="edge"><title>tailbeat&#45;&gt;head&#45;down</title>
<path fill="none" stroke="black" stroke-width="0.492308" d="M643.791,-65.7465C632.269,-77.6702 618.229,-90.8633 604,-101 590.783,-110.416 575.747,-119.073 561.054,-126.623"/>
<polygon fill="black" stroke="black" stroke-width="0.492308" points="559.34,-123.567 551.969,-131.177 562.477,-129.824 559.34,-123.567"/>
<text text-anchor="middle" x="627" y="-89.8" font-family="Times New Roman,serif" font-size="14.00">8</text>
</g>
<!-- tailbeat&#45;&gt;lateral display -->
<g id="edge42" class="edge"><title>tailbeat&#45;&gt;lateral display</title>
<path fill="none" stroke="black" stroke-width="0.61365" d="M680.736,-67.7047C698.202,-133.145 727.842,-282.761 669,-386 635.543,-444.701 563.715,-469.801 500.417,-480.238"/>
<polygon fill="black" stroke="black" stroke-width="0.61365" points="499.689,-476.809 490.338,-481.791 500.754,-483.728 499.689,-476.809"/>
<text text-anchor="middle" x="712" y="-266.3" font-family="Times New Roman,serif" font-size="14.00">15</text>
</g>
<!-- tailbeat&#45;&gt;tailbeat -->
<g id="edge43" class="edge"><title>tailbeat&#45;&gt;tailbeat</title>
<path fill="none" stroke="black" stroke-width="0.600332" d="M740.821,-44.2371C753.29,-42.9065 762,-39.4941 762,-34 762,-30.1369 757.694,-27.3031 750.803,-25.4984"/>
<polygon fill="black" stroke="black" stroke-width="0.600332" points="751.272,-22.0276 740.821,-23.7629 750.073,-28.9242 751.272,-22.0276"/>
<text text-anchor="middle" x="770" y="-30.3" font-family="Times New Roman,serif" font-size="14.00">14</text>
</g>
<!-- unknown&#45;&gt;intoshell -->
<g id="edge46" class="edge"><title>unknown&#45;&gt;intoshell</title>
<path fill="none" stroke="black" stroke-width="0.302977" d="M660.197,-637.885C664.057,-643.808 667.666,-650.389 670,-657 687.462,-706.47 690.637,-725.592 673,-775 663.783,-800.819 639.739,-819.079 616.473,-831.268"/>
<polygon fill="black" stroke="black" stroke-width="0.302977" points="614.703,-828.239 607.286,-835.804 617.802,-834.515 614.703,-828.239"/>
<text text-anchor="middle" x="689" y="-728.8" font-family="Times New Roman,serif" font-size="14.00">3</text>
</g>
<!-- unknown&#45;&gt;frontal -->
<g id="edge44" class="edge"><title>unknown&#45;&gt;frontal</title>
<path fill="none" stroke="black" stroke-width="0.0909091" d="M618.652,-636.588C603.215,-650.861 582.425,-670.083 563.593,-687.496"/>
<polygon fill="black" stroke="black" stroke-width="0.0909091" points="561.18,-684.96 556.214,-694.318 565.932,-690.099 561.18,-684.96"/>
<text text-anchor="middle" x="598" y="-660.8" font-family="Times New Roman,serif" font-size="14.00">1</text>
</g>
<!-- unknown&#45;&gt;head&#45;down -->
<g id="edge45" class="edge"><title>unknown&#45;&gt;head&#45;down</title>
<path fill="none" stroke="black" stroke-width="0.358509" d="M644.691,-589.023C652.28,-517.369 671.222,-306.202 638,-248 622.254,-220.415 594.181,-200.381 566.757,-186.388"/>
<polygon fill="black" stroke="black" stroke-width="0.358509" points="568.022,-183.111 557.5,-181.872 564.953,-189.403 568.022,-183.111"/>
<text text-anchor="middle" x="661" y="-360.8" font-family="Times New Roman,serif" font-size="14.00">4</text>
</g>
<!-- unknown&#45;&gt;lateral display -->
<g id="edge47" class="edge"><title>unknown&#45;&gt;lateral display</title>
<path fill="none" stroke="black" stroke-width="0.515044" d="M598.733,-598.863C577.855,-591.481 552.692,-581.752 531,-571 519.73,-565.414 517.862,-562.343 507,-556 492.802,-547.709 477.531,-539.129 462.725,-530.98"/>
<polygon fill="black" stroke="black" stroke-width="0.515044" points="464.031,-527.704 453.579,-525.968 460.667,-533.843 464.031,-527.704"/>
<text text-anchor="middle" x="535" y="-559.8" font-family="Times New Roman,serif" font-size="14.00">9</text>
</g>
<!-- lunging/shooting out&#45;&gt;intoshell -->
<g id="edge49" class="edge"><title>lunging/shooting out&#45;&gt;intoshell</title>
<path fill="none" stroke="black" stroke-width="0.0909091" d="M155.983,-380.881C149.158,-395.018 139.995,-416.787 137,-437 114.785,-586.911 73.5653,-669.129 182,-775 225.884,-817.846 399.613,-838.419 496.616,-846.745"/>
<polygon fill="black" stroke="black" stroke-width="0.0909091" points="496.359,-850.236 506.617,-847.583 496.944,-843.26 496.359,-850.236"/>
<text text-anchor="middle" x="117" y="-610.3" font-family="Times New Roman,serif" font-size="14.00">1</text>
</g>
<!-- lunging/shooting out&#45;&gt;frontal -->
<g id="edge48" class="edge"><title>lunging/shooting out&#45;&gt;frontal</title>
<path fill="none" stroke="black" stroke-width="0.0909091" d="M159.525,-380.973C146.068,-431.126 111.646,-590.645 192,-672 213.578,-693.846 298.76,-684.669 329,-690 360.916,-695.627 395.632,-702.984 426.39,-709.938"/>
<polygon fill="black" stroke="black" stroke-width="0.0909091" points="425.702,-713.371 436.229,-712.179 427.256,-706.545 425.702,-713.371"/>
<text text-anchor="middle" x="149" y="-559.8" font-family="Times New Roman,serif" font-size="14.00">1</text>
</g>
<!-- lunging/shooting out&#45;&gt;lateral display -->
<g id="edge50" class="edge"><title>lunging/shooting out&#45;&gt;lateral display</title>
<path fill="none" stroke="black" stroke-width="0.0909091" d="M181.623,-380.497C195.545,-391.911 215.769,-407.555 235,-419 253.332,-429.909 273.731,-440.258 293.381,-449.426"/>
<polygon fill="black" stroke="black" stroke-width="0.0909091" points="292.102,-452.69 302.65,-453.691 295.028,-446.331 292.102,-452.69"/>
<text text-anchor="middle" x="239" y="-407.8" font-family="Times New Roman,serif" font-size="14.00">1</text>
</g>
</g>
</svg>
