<?xml version="1.0" encoding="UTF-8" standalone="no"?>
<!DOCTYPE svg PUBLIC "-//W3C//DTD SVG 1.1//EN"
 "http://www.w3.org/Graphics/SVG/1.1/DTD/svg11.dtd">
<!-- Generated by graphviz version 2.38.0 (20140413.2041)
 -->
<!-- Title: %3 Pages: 1 -->
<svg width="621pt" height="491pt"
 viewBox="0.00 0.00 621.00 490.58" xmlns="http://www.w3.org/2000/svg" xmlns:xlink="http://www.w3.org/1999/xlink">
<g id="graph0" class="graph" transform="scale(1 1) rotate(0) translate(4 486.581)">
<title>%3</title>
<polygon fill="white" stroke="none" points="-4,4 -4,-486.581 617,-486.581 617,4 -4,4"/>
<!-- Escape &#45; 1604.25 -->
<g id="node1" class="node"><title>Escape &#45; 1604.25</title>
<g id="a_node1"><a xlink:title="what should &#013; be here">
<ellipse fill="#4fff89" stroke="black" cx="128" cy="-432.081" rx="108" ry="50.5"/>
<text text-anchor="middle" x="128" y="-428.381" font-family="Times New Roman,serif" font-size="14.00">Escape &#45; 1604.25</text>
</a>
</g>
</g>
<!-- Escape &#45; 1604.25&#45;&gt;Escape &#45; 1604.25 -->
<g id="edge1" class="edge"><title>Escape &#45; 1604.25&#45;&gt;Escape &#45; 1604.25</title>
<path fill="none" stroke="black" stroke-width="0.48" d="M232.763,-444.409C245.591,-442.202 254,-438.092 254,-432.081 254,-427.854 249.842,-424.567 242.915,-422.221"/>
<polygon fill="black" stroke="black" stroke-width="0.48" points="243.307,-418.714 232.763,-419.752 241.652,-425.516 243.307,-418.714"/>
<text text-anchor="middle" x="267.5" y="-428.381" font-family="Times New Roman,serif" font-size="14.00">0.16</text>
</g>
<!-- Maintenance &#45; 2612.26 -->
<g id="node2" class="node"><title>Maintenance &#45; 2612.26</title>
<g id="a_node2"><a xlink:title="what should &#013; be here">
<ellipse fill="#00ff55" stroke="black" cx="405" cy="-290.581" rx="85" ry="40"/>
<text text-anchor="middle" x="405" y="-286.881" font-family="Times New Roman,serif" font-size="14.00">Maintenance &#45; 2612.26</text>
</a>
</g>
</g>
<!-- Escape &#45; 1604.25&#45;&gt;Maintenance &#45; 2612.26 -->
<g id="edge2" class="edge"><title>Escape &#45; 1604.25&#45;&gt;Maintenance &#45; 2612.26</title>
<path fill="none" stroke="black" stroke-width="0.96" d="M200.417,-394.611C243.277,-373.026 297.166,-345.887 338.876,-324.881"/>
<polygon fill="black" stroke="black" stroke-width="0.96" points="340.494,-327.985 347.851,-320.361 337.346,-321.733 340.494,-327.985"/>
<text text-anchor="middle" x="305.5" y="-352.381" font-family="Times New Roman,serif" font-size="14.00">0.32</text>
</g>
<!-- Overt aggression &#45; 6.69 -->
<g id="node3" class="node"><title>Overt aggression &#45; 6.69</title>
<g id="a_node3"><a xlink:title="what should &#013; be here">
<ellipse fill="#81ffab" stroke="black" cx="256" cy="-16.2635" rx="107.46" ry="16.0303"/>
<text text-anchor="middle" x="256" y="-12.5635" font-family="Times New Roman,serif" font-size="14.00">Overt aggression &#45; 6.69</text>
</a>
</g>
</g>
<!-- Escape &#45; 1604.25&#45;&gt;Overt aggression &#45; 6.69 -->
<g id="edge3" class="edge"><title>Escape &#45; 1604.25&#45;&gt;Overt aggression &#45; 6.69</title>
<path fill="none" stroke="black" stroke-width="0.12" d="M62.5001,-391.736C31.0078,-367.437 0,-332.996 0,-291.581 0,-291.581 0,-291.581 0,-98.7904 0,-62.9845 92.0746,-40.8033 165.785,-28.7829"/>
<polygon fill="black" stroke="black" stroke-width="0.12" points="166.725,-32.1777 176.053,-27.1538 165.628,-25.2641 166.725,-32.1777"/>
<text text-anchor="middle" x="13.5" y="-179.617" font-family="Times New Roman,serif" font-size="14.00">0.04</text>
</g>
<!-- Restrained aggression &#45; 214.37 -->
<g id="node4" class="node"><title>Restrained aggression &#45; 214.37</title>
<g id="a_node4"><a xlink:title="what should &#013; be here">
<ellipse fill="#01ff56" stroke="black" cx="256" cy="-99.7904" rx="137.358" ry="16.0303"/>
<text text-anchor="middle" x="256" y="-96.0904" font-family="Times New Roman,serif" font-size="14.00">Restrained aggression &#45; 214.37</text>
</a>
</g>
</g>
<!-- Escape &#45; 1604.25&#45;&gt;Restrained aggression &#45; 214.37 -->
<g id="edge4" class="edge"><title>Escape &#45; 1604.25&#45;&gt;Restrained aggression &#45; 214.37</title>
<path fill="none" stroke="black" stroke-width="1.44" d="M96.684,-383.702C72.2256,-341.056 44.2037,-276.256 56,-217.581 63.9334,-178.12 59.8666,-159.565 91,-134.054 101.468,-125.476 125.961,-118.751 152.961,-113.661"/>
<polygon fill="black" stroke="black" stroke-width="1.44" points="153.775,-117.071 163,-111.859 152.539,-110.181 153.775,-117.071"/>
<text text-anchor="middle" x="69.5" y="-221.381" font-family="Times New Roman,serif" font-size="14.00">0.48</text>
</g>
<!-- Maintenance &#45; 2612.26&#45;&gt;Escape &#45; 1604.25 -->
<g id="edge5" class="edge"><title>Maintenance &#45; 2612.26&#45;&gt;Escape &#45; 1604.25</title>
<path fill="none" stroke="black" stroke-width="0.39" d="M370.215,-327.479C356.435,-340.196 339.867,-353.768 323,-363.581 294.918,-379.918 262.262,-393.15 231.796,-403.428"/>
<polygon fill="black" stroke="black" stroke-width="0.39" points="230.391,-400.206 221.99,-406.662 232.583,-406.854 230.391,-400.206"/>
<text text-anchor="middle" x="359.5" y="-352.381" font-family="Times New Roman,serif" font-size="14.00">0.13</text>
</g>
<!-- Maintenance &#45; 2612.26&#45;&gt;Maintenance &#45; 2612.26 -->
<g id="edge6" class="edge"><title>Maintenance &#45; 2612.26&#45;&gt;Maintenance &#45; 2612.26</title>
<path fill="none" stroke="black" stroke-width="1.65" d="M487.015,-301.523C499.513,-299.853 508,-296.206 508,-290.581 508,-286.626 503.804,-283.648 496.968,-281.648"/>
<polygon fill="black" stroke="black" stroke-width="1.65" points="497.51,-278.187 487.015,-279.638 496.124,-285.049 497.51,-278.187"/>
<text text-anchor="middle" x="521.5" y="-286.881" font-family="Times New Roman,serif" font-size="14.00">0.55</text>
</g>
<!-- Maintenance &#45; 2612.26&#45;&gt;Overt aggression &#45; 6.69 -->
<g id="edge7" class="edge"><title>Maintenance &#45; 2612.26&#45;&gt;Overt aggression &#45; 6.69</title>
<path fill="none" stroke="black" stroke-width="0.12" d="M483.879,-275.273C508.206,-266.891 532.614,-253.612 548,-232.581 595.774,-167.277 604.008,-108.922 548,-50.5269 535.198,-37.1795 443.232,-28.2812 365.88,-23.0738"/>
<polygon fill="black" stroke="black" stroke-width="0.12" points="365.766,-19.5588 355.558,-22.3946 365.306,-26.5437 365.766,-19.5588"/>
<text text-anchor="middle" x="599.5" y="-137.854" font-family="Times New Roman,serif" font-size="14.00">0.04</text>
</g>
<!-- Maintenance &#45; 2612.26&#45;&gt;Restrained aggression &#45; 214.37 -->
<g id="edge8" class="edge"><title>Maintenance &#45; 2612.26&#45;&gt;Restrained aggression &#45; 214.37</title>
<path fill="none" stroke="black" stroke-width="0.72" d="M427.518,-251.771C446.402,-214.796 465.154,-160.337 430,-134.054 418.216,-125.243 390.933,-118.372 361.383,-113.221"/>
<polygon fill="black" stroke="black" stroke-width="0.72" points="361.733,-109.731 351.294,-111.54 360.583,-116.636 361.733,-109.731"/>
<text text-anchor="middle" x="463.5" y="-179.617" font-family="Times New Roman,serif" font-size="14.00">0.24</text>
</g>
<!-- Submissive behavior &#45; 4.12 -->
<g id="node5" class="node"><title>Submissive behavior &#45; 4.12</title>
<g id="a_node5"><a xlink:title="what should &#013; be here">
<ellipse fill="#a7ffc4" stroke="black" cx="256" cy="-183.317" rx="123.988" ry="16.0303"/>
<text text-anchor="middle" x="256" y="-179.617" font-family="Times New Roman,serif" font-size="14.00">Submissive behavior &#45; 4.12</text>
</a>
</g>
</g>
<!-- Maintenance &#45; 2612.26&#45;&gt;Submissive behavior &#45; 4.12 -->
<g id="edge9" class="edge"><title>Maintenance &#45; 2612.26&#45;&gt;Submissive behavior &#45; 4.12</title>
<path fill="none" stroke="black" stroke-width="0.12" d="M342.858,-263.032C326.445,-254.549 309.329,-244.278 295,-232.581 286.363,-225.53 278.335,-216.291 271.835,-207.787"/>
<polygon fill="black" stroke="black" stroke-width="0.12" points="274.605,-205.644 265.879,-199.635 268.952,-209.774 274.605,-205.644"/>
<text text-anchor="middle" x="308.5" y="-221.381" font-family="Times New Roman,serif" font-size="14.00">0.04</text>
</g>
<!-- Overt aggression &#45; 6.69&#45;&gt;Maintenance &#45; 2612.26 -->
<g id="edge10" class="edge"><title>Overt aggression &#45; 6.69&#45;&gt;Maintenance &#45; 2612.26</title>
<path fill="none" stroke="black" stroke-width="0.6" d="M330.791,-28.0559C369.627,-37.0898 415.426,-53.5725 447,-83.5269 485.992,-120.519 499.069,-148.962 481,-199.581 474.735,-217.132 463.3,-233.592 451.171,-247.513"/>
<polygon fill="black" stroke="black" stroke-width="0.6" points="448.523,-245.222 444.389,-254.977 453.704,-249.929 448.523,-245.222"/>
<text text-anchor="middle" x="498.5" y="-137.854" font-family="Times New Roman,serif" font-size="14.00">0.2</text>
</g>
<!-- Overt aggression &#45; 6.69&#45;&gt;Overt aggression &#45; 6.69 -->
<g id="edge11" class="edge"><title>Overt aggression &#45; 6.69&#45;&gt;Overt aggression &#45; 6.69</title>
<path fill="none" stroke="black" stroke-width="0.9" d="M353.07,-23.2799C369.839,-22.3328 381.48,-19.9939 381.48,-16.2635 381.48,-13.349 374.375,-11.284 363.27,-10.0683"/>
<polygon fill="black" stroke="black" stroke-width="0.9" points="363.319,-6.56099 353.07,-9.24697 362.757,-13.5384 363.319,-6.56099"/>
<text text-anchor="middle" x="390.98" y="-12.5635" font-family="Times New Roman,serif" font-size="14.00">0.3</text>
</g>
<!-- Overt aggression &#45; 6.69&#45;&gt;Restrained aggression &#45; 214.37 -->
<g id="edge12" class="edge"><title>Overt aggression &#45; 6.69&#45;&gt;Restrained aggression &#45; 214.37</title>
<path fill="none" stroke="black" stroke-width="1.2" d="M244.355,-32.6975C240.975,-38.0576 237.73,-44.2936 236,-50.5269 233.783,-58.5156 235.699,-66.9526 239.079,-74.4992"/>
<polygon fill="black" stroke="black" stroke-width="1.2" points="236.104,-76.3543 243.943,-83.4813 242.259,-73.0211 236.104,-76.3543"/>
<text text-anchor="middle" x="245.5" y="-54.3269" font-family="Times New Roman,serif" font-size="14.00">0.4</text>
</g>
<!-- Overt aggression &#45; 6.69&#45;&gt;Submissive behavior &#45; 4.12 -->
<g id="edge13" class="edge"><title>Overt aggression &#45; 6.69&#45;&gt;Submissive behavior &#45; 4.12</title>
<path fill="none" stroke="black" stroke-width="0.3" d="M192.803,-29.4486C134.372,-43.757 60.8009,-71.3826 91,-116.054 108.63,-142.132 138.395,-157.949 167.83,-167.541"/>
<polygon fill="black" stroke="black" stroke-width="0.3" points="167.196,-171.006 177.782,-170.561 169.229,-164.308 167.196,-171.006"/>
<text text-anchor="middle" x="100.5" y="-96.0904" font-family="Times New Roman,serif" font-size="14.00">0.1</text>
</g>
<!-- Restrained aggression &#45; 214.37&#45;&gt;Escape &#45; 1604.25 -->
<g id="edge14" class="edge"><title>Restrained aggression &#45; 214.37&#45;&gt;Escape &#45; 1604.25</title>
<path fill="none" stroke="black" stroke-width="0.27" d="M197.413,-114.616C169.788,-124.392 139.362,-140.622 123,-167.054 84.8138,-228.742 95.7484,-315.054 109.667,-371.975"/>
<polygon fill="black" stroke="black" stroke-width="0.27" points="106.334,-373.072 112.196,-381.898 113.118,-371.343 106.334,-373.072"/>
<text text-anchor="middle" x="116.5" y="-221.381" font-family="Times New Roman,serif" font-size="14.00">0.09</text>
</g>
<!-- Restrained aggression &#45; 214.37&#45;&gt;Maintenance &#45; 2612.26 -->
<g id="edge15" class="edge"><title>Restrained aggression &#45; 214.37&#45;&gt;Maintenance &#45; 2612.26</title>
<path fill="none" stroke="black" stroke-width="0.93" d="M311.145,-114.818C338.906,-124.776 370.509,-141.109 389,-167.054 403.98,-188.072 408.414,-216.397 408.905,-240.519"/>
<polygon fill="black" stroke="black" stroke-width="0.93" points="405.405,-240.562 408.894,-250.566 412.405,-240.57 405.405,-240.562"/>
<text text-anchor="middle" x="417.5" y="-179.617" font-family="Times New Roman,serif" font-size="14.00">0.31</text>
</g>
<!-- Restrained aggression &#45; 214.37&#45;&gt;Overt aggression &#45; 6.69 -->
<g id="edge16" class="edge"><title>Restrained aggression &#45; 214.37&#45;&gt;Overt aggression &#45; 6.69</title>
<path fill="none" stroke="black" stroke-width="0.06" d="M256,-83.4558C256,-71.9546 256,-55.9568 256,-42.5699"/>
<polygon fill="black" stroke="black" stroke-width="0.06" points="259.5,-42.5292 256,-32.5293 252.5,-42.5293 259.5,-42.5292"/>
<text text-anchor="middle" x="269.5" y="-54.3269" font-family="Times New Roman,serif" font-size="14.00">0.02</text>
</g>
<!-- Restrained aggression &#45; 214.37&#45;&gt;Restrained aggression &#45; 214.37 -->
<g id="edge17" class="edge"><title>Restrained aggression &#45; 214.37&#45;&gt;Restrained aggression &#45; 214.37</title>
<path fill="none" stroke="black" stroke-width="1.77" d="M380.809,-106.558C398.954,-105.484 411.179,-103.228 411.179,-99.7904 411.179,-97.0511 403.416,-95.0622 391.081,-93.8237"/>
<polygon fill="black" stroke="black" stroke-width="1.77" points="391.051,-90.3108 380.809,-93.0228 390.506,-97.2896 391.051,-90.3108"/>
<text text-anchor="middle" x="424.679" y="-96.0904" font-family="Times New Roman,serif" font-size="14.00">0.59</text>
</g>
<!-- Submissive behavior &#45; 4.12&#45;&gt;Escape &#45; 1604.25 -->
<g id="edge18" class="edge"><title>Submissive behavior &#45; 4.12&#45;&gt;Escape &#45; 1604.25</title>
<path fill="none" stroke="black" stroke-width="0.6" d="M247.968,-199.802C230.275,-233.91 187.181,-316.99 157.763,-373.703"/>
<polygon fill="black" stroke="black" stroke-width="0.6" points="154.481,-372.428 152.984,-382.916 160.695,-375.651 154.481,-372.428"/>
<text text-anchor="middle" x="230.5" y="-286.881" font-family="Times New Roman,serif" font-size="14.00">0.2</text>
</g>
<!-- Submissive behavior &#45; 4.12&#45;&gt;Maintenance &#45; 2612.26 -->
<g id="edge19" class="edge"><title>Submissive behavior &#45; 4.12&#45;&gt;Maintenance &#45; 2612.26</title>
<path fill="none" stroke="black" stroke-width="1.8" d="M289.128,-199.016C299.93,-204.328 311.769,-210.72 322,-217.581 335.127,-226.383 348.45,-237.029 360.469,-247.404"/>
<polygon fill="black" stroke="black" stroke-width="1.8" points="358.339,-250.192 368.163,-254.16 362.958,-244.932 358.339,-250.192"/>
<text text-anchor="middle" x="351.5" y="-221.381" font-family="Times New Roman,serif" font-size="14.00">0.6</text>
</g>
<!-- Submissive behavior &#45; 4.12&#45;&gt;Restrained aggression &#45; 214.37 -->
<g id="edge20" class="edge"><title>Submissive behavior &#45; 4.12&#45;&gt;Restrained aggression &#45; 214.37</title>
<path fill="none" stroke="black" stroke-width="0.6" d="M256,-166.983C256,-155.482 256,-139.484 256,-126.097"/>
<polygon fill="black" stroke="black" stroke-width="0.6" points="259.5,-126.056 256,-116.056 252.5,-126.056 259.5,-126.056"/>
<text text-anchor="middle" x="265.5" y="-137.854" font-family="Times New Roman,serif" font-size="14.00">0.2</text>
</g>
</g>
</svg>
