<?xml version="1.0" encoding="UTF-8" standalone="no"?>
<!DOCTYPE svg PUBLIC "-//W3C//DTD SVG 1.1//EN"
 "http://www.w3.org/Graphics/SVG/1.1/DTD/svg11.dtd">
<!-- Generated by graphviz version 2.38.0 (20140413.2041)
 -->
<!-- Title: %3 Pages: 1 -->
<svg width="1488pt" height="1239pt"
 viewBox="0.00 0.00 1488.00 1238.53" xmlns="http://www.w3.org/2000/svg" xmlns:xlink="http://www.w3.org/1999/xlink">
<g id="graph0" class="graph" transform="scale(1 1) rotate(0) translate(4 1234.53)">
<title>%3</title>
<polygon fill="white" stroke="none" points="-4,4 -4,-1234.53 1484,-1234.53 1484,4 -4,4"/>
<!-- bite/ram -->
<g id="node1" class="node"><title>bite/ram</title>
<g id="a_node1"><a xlink:title="1234 &#013; 234 &#013; 234">
<ellipse fill="#ffffff" stroke="black" cx="1149" cy="-1212.03" rx="40.4283" ry="18.5"/>
<text text-anchor="middle" x="1149" y="-1208.33" font-family="Times New Roman,serif" font-size="14.00">bite/ram</text>
</a>
</g>
</g>
<!-- fins errect -->
<g id="node2" class="node"><title>fins errect</title>
<g id="a_node2"><a xlink:title="1234 &#013; 234 &#013; 234">
<ellipse fill="#0fff5f" stroke="black" cx="750" cy="-1098.03" rx="96" ry="44.5"/>
<text text-anchor="middle" x="750" y="-1094.33" font-family="Times New Roman,serif" font-size="14.00">fins errect</text>
</a>
</g>
</g>
<!-- bite/ram&#45;&gt;fins errect -->
<g id="edge1" class="edge"><title>bite/ram&#45;&gt;fins errect</title>
<path fill="none" stroke="black" stroke-width="0.0909091" d="M1115.67,-1201.67C1055.82,-1184.87 928.26,-1149.06 840.807,-1124.52"/>
<polygon fill="black" stroke="black" stroke-width="0.0909091" points="841.72,-1121.14 831.147,-1121.8 839.828,-1127.88 841.72,-1121.14"/>
<text text-anchor="middle" x="1024" y="-1164.33" font-family="Times New Roman,serif" font-size="14.00">1</text>
</g>
<!-- front on -->
<g id="node3" class="node"><title>front on</title>
<g id="a_node3"><a xlink:title="1234 &#013; 234 &#013; 234">
<ellipse fill="#10ff60" stroke="black" cx="603" cy="-127.527" rx="94.5" ry="44"/>
<text text-anchor="middle" x="603" y="-123.827" font-family="Times New Roman,serif" font-size="14.00">front on</text>
</a>
</g>
</g>
<!-- bite/ram&#45;&gt;front on -->
<g id="edge2" class="edge"><title>bite/ram&#45;&gt;front on</title>
<path fill="none" stroke="black" stroke-width="0.310736" d="M1188.04,-1207.21C1247.52,-1199 1354,-1173.85 1354,-1099.03 1354,-1099.03 1354,-1099.03 1354,-920.027 1354,-805.791 1350,-777.263 1350,-663.027 1350,-663.027 1350,-663.027 1350,-252.527 1350,-213.663 1253.97,-192.327 1243,-189.527 1058.6,-142.451 835.925,-131.024 707.762,-128.642"/>
<polygon fill="black" stroke="black" stroke-width="0.310736" points="707.618,-125.139 697.56,-128.468 707.499,-132.138 707.618,-125.139"/>
<text text-anchor="middle" x="1355" y="-658.327" font-family="Times New Roman,serif" font-size="14.00">3</text>
</g>
<!-- present -->
<g id="node4" class="node"><title>present</title>
<g id="a_node4"><a xlink:title="1234 &#013; 234 &#013; 234">
<ellipse fill="#00ff55" stroke="black" cx="603" cy="-253.527" rx="67" ry="31"/>
<text text-anchor="middle" x="603" y="-249.827" font-family="Times New Roman,serif" font-size="14.00">present</text>
</a>
</g>
</g>
<!-- bite/ram&#45;&gt;present -->
<g id="edge3" class="edge"><title>bite/ram&#45;&gt;present</title>
<path fill="none" stroke="black" stroke-width="0.0909091" d="M1156.8,-1193.6C1159.09,-1187.93 1161.4,-1181.55 1163,-1175.53 1221.29,-955.915 1212.52,-895.528 1236,-669.527 1240.33,-627.888 1240.67,-617.368 1242,-575.527 1243.63,-524.528 1240.58,-450.618 1236,-441.527 1202.61,-375.255 1173.63,-368.191 1107,-335.527 1032.99,-299.243 800.419,-272.921 678.802,-261.242"/>
<polygon fill="black" stroke="black" stroke-width="0.0909091" points="679.1,-257.755 668.814,-260.292 678.437,-264.723 679.1,-257.755"/>
<text text-anchor="middle" x="1239" y="-726.327" font-family="Times New Roman,serif" font-size="14.00">1</text>
</g>
<!-- right side on -->
<g id="node5" class="node"><title>right side on</title>
<g id="a_node5"><a xlink:title="1234 &#013; 234 &#013; 234">
<ellipse fill="#93ffb7" stroke="black" cx="902" cy="-363.027" rx="59" ry="27.5"/>
<text text-anchor="middle" x="902" y="-359.327" font-family="Times New Roman,serif" font-size="14.00">right side on</text>
</a>
</g>
</g>
<!-- bite/ram&#45;&gt;right side on -->
<g id="edge4" class="edge"><title>bite/ram&#45;&gt;right side on</title>
<path fill="none" stroke="black" stroke-width="0.0909091" d="M1141.14,-1193.62C1138.85,-1187.95 1136.55,-1181.56 1135,-1175.53 1093.96,-1016.26 1119.55,-585.48 1040,-441.527 1028.85,-421.355 1019.55,-420.73 1000,-408.527 991.452,-403.191 972.713,-394.453 953.886,-386.126"/>
<polygon fill="black" stroke="black" stroke-width="0.0909091" points="955.245,-382.901 944.681,-382.089 952.433,-389.311 955.245,-382.901"/>
<text text-anchor="middle" x="1106" y="-794.327" font-family="Times New Roman,serif" font-size="14.00">1</text>
</g>
<!-- fins errect&#45;&gt;bite/ram -->
<g id="edge5" class="edge"><title>fins errect&#45;&gt;bite/ram</title>
<path fill="none" stroke="black" stroke-width="0.0909091" d="M821.211,-1127.93C861.931,-1143.64 914.256,-1162.47 962,-1175.53 1008.47,-1188.24 1062.66,-1197.98 1100.71,-1204.02"/>
<polygon fill="black" stroke="black" stroke-width="0.0909091" points="1100.57,-1207.54 1110.99,-1205.62 1101.65,-1200.62 1100.57,-1207.54"/>
<text text-anchor="middle" x="966" y="-1164.33" font-family="Times New Roman,serif" font-size="14.00">1</text>
</g>
<!-- fins errect&#45;&gt;front on -->
<g id="edge6" class="edge"><title>fins errect&#45;&gt;front on</title>
<path fill="none" stroke="black" stroke-width="0.64569" d="M710.425,-1057.33C680.741,-1025.25 641.5,-977.521 619,-928.527 592.882,-871.654 615.225,-848.231 591,-790.527 562.752,-723.24 558.86,-696.266 499,-654.527 471.589,-635.414 446.607,-662.833 426,-636.527 380.701,-578.701 508,-566.483 508,-493.027 508,-493.027 508,-493.027 508,-252.527 508,-221.96 526.415,-194.273 547.03,-172.854"/>
<polygon fill="black" stroke="black" stroke-width="0.64569" points="549.76,-175.076 554.387,-165.545 544.826,-170.11 549.76,-175.076"/>
<text text-anchor="middle" x="434" y="-611.327" font-family="Times New Roman,serif" font-size="14.00">16</text>
</g>
<!-- fins errect&#45;&gt;right side on -->
<g id="edge11" class="edge"><title>fins errect&#45;&gt;right side on</title>
<path fill="none" stroke="black" stroke-width="0.229604" d="M837.414,-1079.41C880.012,-1065.95 927.452,-1042.6 953,-1002.53 966.124,-981.941 1049.6,-779.779 931,-408.527 929.867,-404.98 928.37,-401.446 926.652,-398.007"/>
<polygon fill="black" stroke="black" stroke-width="0.229604" points="929.643,-396.185 921.687,-389.188 923.543,-399.619 929.643,-396.185"/>
<text text-anchor="middle" x="998" y="-726.327" font-family="Times New Roman,serif" font-size="14.00">2</text>
</g>
<!-- head bump/ bite -->
<g id="node6" class="node"><title>head bump/ bite</title>
<g id="a_node6"><a xlink:title="1234 &#013; 234 &#013; 234">
<ellipse fill="#ffffff" stroke="black" cx="262" cy="-492.027" rx="108" ry="50.5"/>
<text text-anchor="middle" x="262" y="-488.327" font-family="Times New Roman,serif" font-size="14.00">head bump/ bite</text>
</a>
</g>
</g>
<!-- fins errect&#45;&gt;head bump/ bite -->
<g id="edge7" class="edge"><title>fins errect&#45;&gt;head bump/ bite</title>
<path fill="none" stroke="black" stroke-width="0.41295" d="M655.574,-1089.67C470.079,-1073.96 76,-1033.71 76,-975.527 76,-975.527 76,-975.527 76,-797.027 76,-696.363 151.125,-600.864 205.886,-544.623"/>
<polygon fill="black" stroke="black" stroke-width="0.41295" points="208.594,-546.862 213.131,-537.288 203.613,-541.944 208.594,-546.862"/>
<text text-anchor="middle" x="80" y="-794.327" font-family="Times New Roman,serif" font-size="14.00">5</text>
</g>
<!-- head down -->
<g id="node7" class="node"><title>head down</title>
<g id="a_node7"><a xlink:title="1234 &#013; 234 &#013; 234">
<ellipse fill="#a4ffc2" stroke="black" cx="303" cy="-615.027" rx="47.1834" ry="21.5"/>
<text text-anchor="middle" x="303" y="-611.327" font-family="Times New Roman,serif" font-size="14.00">head down</text>
</a>
</g>
</g>
<!-- fins errect&#45;&gt;head down -->
<g id="edge8" class="edge"><title>fins errect&#45;&gt;head down</title>
<path fill="none" stroke="black" stroke-width="0.0909091" d="M655.415,-1090.36C524.496,-1078.48 304,-1047.75 304,-975.527 304,-975.527 304,-975.527 304,-729.027 304,-701.251 303.694,-669.636 303.421,-646.924"/>
<polygon fill="black" stroke="black" stroke-width="0.0909091" points="306.92,-646.809 303.295,-636.853 299.92,-646.896 306.92,-646.809"/>
<text text-anchor="middle" x="308" y="-855.827" font-family="Times New Roman,serif" font-size="14.00">1</text>
</g>
<!-- left side on -->
<g id="node8" class="node"><title>left side on</title>
<g id="a_node8"><a xlink:title="1234 &#013; 234 &#013; 234">
<ellipse fill="#72ffa1" stroke="black" cx="491" cy="-859.527" rx="76.5" ry="36"/>
<text text-anchor="middle" x="491" y="-855.827" font-family="Times New Roman,serif" font-size="14.00">left side on</text>
</a>
</g>
</g>
<!-- fins errect&#45;&gt;left side on -->
<g id="edge9" class="edge"><title>fins errect&#45;&gt;left side on</title>
<path fill="none" stroke="black" stroke-width="0.506995" d="M665.73,-1076.41C639.708,-1067.06 612.316,-1053.86 591,-1035.53 569.097,-1016.69 533.845,-949.343 511.577,-903.905"/>
<polygon fill="black" stroke="black" stroke-width="0.506995" points="514.693,-902.308 507.169,-894.849 508.399,-905.372 514.693,-902.308"/>
<text text-anchor="middle" x="569" y="-970.827" font-family="Times New Roman,serif" font-size="14.00">8</text>
</g>
<!-- mouthfight -->
<g id="node9" class="node"><title>mouthfight</title>
<g id="a_node9"><a xlink:title="1234 &#013; 234 &#013; 234">
<ellipse fill="#21ff6b" stroke="black" cx="694" cy="-730.027" rx="91" ry="42.5"/>
<text text-anchor="middle" x="694" y="-726.327" font-family="Times New Roman,serif" font-size="14.00">mouthfight</text>
</a>
</g>
</g>
<!-- fins errect&#45;&gt;mouthfight -->
<g id="edge10" class="edge"><title>fins errect&#45;&gt;mouthfight</title>
<path fill="none" stroke="black" stroke-width="0.813436" d="M745.744,-1053.38C739.566,-993.701 726.867,-883.446 709,-790.527 708.49,-787.872 707.933,-785.159 707.344,-782.426"/>
<polygon fill="black" stroke="black" stroke-width="0.813436" points="710.72,-781.484 705.098,-772.504 703.893,-783.03 710.72,-781.484"/>
<text text-anchor="middle" x="739" y="-917.327" font-family="Times New Roman,serif" font-size="14.00">37</text>
</g>
<!-- s&#45; bend -->
<g id="node10" class="node"><title>s&#45; bend</title>
<g id="a_node10"><a xlink:title="1234 &#013; 234 &#013; 234">
<ellipse fill="#b0ffca" stroke="black" cx="1014" cy="-16.2635" rx="41.9398" ry="16.0303"/>
<text text-anchor="middle" x="1014" y="-12.5635" font-family="Times New Roman,serif" font-size="14.00">s&#45; bend</text>
</a>
</g>
</g>
<!-- fins errect&#45;&gt;s&#45; bend -->
<g id="edge12" class="edge"><title>fins errect&#45;&gt;s&#45; bend</title>
<path fill="none" stroke="black" stroke-width="0.0909091" d="M837.499,-1079.56C891.78,-1068.2 962.795,-1052.41 1025,-1035.53 1259.76,-971.808 1426,-906.279 1426,-663.027 1426,-663.027 1426,-663.027 1426,-126.527 1426,-52.6884 1175.63,-27.5725 1065.24,-20.0872"/>
<polygon fill="black" stroke="black" stroke-width="0.0909091" points="1065.22,-16.5781 1055.01,-19.4168 1064.76,-23.5631 1065.22,-16.5781"/>
<text text-anchor="middle" x="1430" y="-564.327" font-family="Times New Roman,serif" font-size="14.00">1</text>
</g>
<!-- undefiined/ unknown -->
<g id="node11" class="node"><title>undefiined/ unknown</title>
<g id="a_node11"><a xlink:title="1234 &#013; 234 &#013; 234">
<ellipse fill="#83ffac" stroke="black" cx="841" cy="-974.527" rx="77.1457" ry="28"/>
<text text-anchor="middle" x="841" y="-970.827" font-family="Times New Roman,serif" font-size="14.00">undefiined/ unknown</text>
</a>
</g>
</g>
<!-- fins errect&#45;&gt;undefiined/ unknown -->
<g id="edge13" class="edge"><title>fins errect&#45;&gt;undefiined/ unknown</title>
<path fill="none" stroke="black" stroke-width="0.229604" d="M783.303,-1055.95C788.624,-1049.18 794.015,-1042.2 799,-1035.53 804.988,-1027.51 811.262,-1018.76 817.081,-1010.48"/>
<polygon fill="black" stroke="black" stroke-width="0.229604" points="820.097,-1012.27 822.949,-1002.06 814.357,-1008.26 820.097,-1012.27"/>
<text text-anchor="middle" x="814" y="-1024.33" font-family="Times New Roman,serif" font-size="14.00">2</text>
</g>
<!-- front on&#45;&gt;bite/ram -->
<g id="edge14" class="edge"><title>front on&#45;&gt;bite/ram</title>
<path fill="none" stroke="black" stroke-width="0.0909091" d="M697.484,-128.351C829.958,-130.049 1077.6,-140.351 1282,-189.527 1286.91,-190.709 1388,-204.259 1388,-252.527 1388,-663.027 1388,-663.027 1388,-663.027 1388,-777.263 1392,-805.791 1392,-920.027 1392,-1099.03 1392,-1099.03 1392,-1099.03 1392,-1183.15 1270.4,-1204.3 1199.24,-1209.48"/>
<polygon fill="black" stroke="black" stroke-width="0.0909091" points="1198.88,-1205.99 1189.13,-1210.13 1199.33,-1212.98 1198.88,-1205.99"/>
<text text-anchor="middle" x="1393" y="-658.327" font-family="Times New Roman,serif" font-size="14.00">1</text>
</g>
<!-- front on&#45;&gt;fins errect -->
<g id="edge15" class="edge"><title>front on&#45;&gt;fins errect</title>
<path fill="none" stroke="black" stroke-width="0.857001" d="M696.651,-133.538C839.258,-141.954 1103.8,-160.871 1194,-189.527 1248.43,-206.82 1306,-195.415 1306,-252.527 1306,-616.027 1306,-616.027 1306,-616.027 1306,-848.384 1208.58,-946.401 994,-1035.53 947.769,-1054.73 894.036,-1069.06 848.781,-1079.04"/>
<polygon fill="black" stroke="black" stroke-width="0.857001" points="847.995,-1075.63 838.963,-1081.17 849.477,-1082.47 847.995,-1075.63"/>
<text text-anchor="middle" x="1314" y="-611.327" font-family="Times New Roman,serif" font-size="14.00">46</text>
</g>
<!-- front on&#45;&gt;present -->
<g id="edge20" class="edge"><title>front on&#45;&gt;present</title>
<path fill="none" stroke="black" stroke-width="0.0909091" d="M603,-171.863C603,-185.062 603,-199.504 603,-212.475"/>
<polygon fill="black" stroke="black" stroke-width="0.0909091" points="599.5,-212.51 603,-222.51 606.5,-212.51 599.5,-212.51"/>
<text text-anchor="middle" x="607" y="-193.327" font-family="Times New Roman,serif" font-size="14.00">1</text>
</g>
<!-- front on&#45;&gt;head bump/ bite -->
<g id="edge16" class="edge"><title>front on&#45;&gt;head bump/ bite</title>
<path fill="none" stroke="black" stroke-width="0.310736" d="M510.834,-137.316C438.376,-146.164 345.412,-162.454 319,-189.527 256.548,-253.542 251.494,-363.259 255.413,-431.206"/>
<polygon fill="black" stroke="black" stroke-width="0.310736" points="251.93,-431.58 256.081,-441.328 258.915,-431.119 251.93,-431.58"/>
<text text-anchor="middle" x="268" y="-306.327" font-family="Times New Roman,serif" font-size="14.00">3</text>
</g>
<!-- front on&#45;&gt;left side on -->
<g id="edge18" class="edge"><title>front on&#45;&gt;left side on</title>
<path fill="none" stroke="black" stroke-width="0.0909091" d="M509.784,-135.11C448.454,-142.358 367.838,-157.577 303,-189.527 182.697,-248.808 172.057,-312.074 137,-441.527 98.3992,-584.067 102.07,-639.408 166,-772.527 174.844,-790.943 179.842,-796.164 198,-805.527 245.152,-829.84 263.754,-814.322 316,-823.527 347.39,-829.057 381.81,-835.794 411.757,-841.876"/>
<polygon fill="black" stroke="black" stroke-width="0.0909091" points="411.233,-845.341 421.731,-843.91 412.632,-838.482 411.233,-845.341"/>
<text text-anchor="middle" x="141" y="-488.327" font-family="Times New Roman,serif" font-size="14.00">1</text>
</g>
<!-- front on&#45;&gt;mouthfight -->
<g id="edge19" class="edge"><title>front on&#45;&gt;mouthfight</title>
<path fill="none" stroke="black" stroke-width="0.618971" d="M684.607,-149.945C704.896,-159.006 724.64,-171.738 738,-189.527 802.235,-275.058 822.029,-573.95 774,-669.527 770.201,-677.086 764.937,-683.928 758.906,-690.05"/>
<polygon fill="black" stroke="black" stroke-width="0.618971" points="756.465,-687.54 751.514,-696.907 761.226,-692.672 756.465,-687.54"/>
<text text-anchor="middle" x="806" y="-412.327" font-family="Times New Roman,serif" font-size="14.00">14</text>
</g>
<!-- front on&#45;&gt;s&#45; bend -->
<g id="edge21" class="edge"><title>front on&#45;&gt;s&#45; bend</title>
<path fill="none" stroke="black" stroke-width="0.229604" d="M684.2,-104.94C770.092,-82.1057 902.39,-46.9347 970.371,-28.8621"/>
<polygon fill="black" stroke="black" stroke-width="0.229604" points="971.552,-32.1698 980.317,-26.218 969.753,-25.4048 971.552,-32.1698"/>
<text text-anchor="middle" x="886" y="-54.3269" font-family="Times New Roman,serif" font-size="14.00">2</text>
</g>
<!-- head up -->
<g id="node12" class="node"><title>head up</title>
<g id="a_node12"><a xlink:title="1234 &#013; 234 &#013; 234">
<ellipse fill="#c6ffd9" stroke="black" cx="93" cy="-16.2635" rx="43.6818" ry="16.0303"/>
<text text-anchor="middle" x="93" y="-12.5635" font-family="Times New Roman,serif" font-size="14.00">head up</text>
</a>
</g>
</g>
<!-- front on&#45;&gt;head up -->
<g id="edge17" class="edge"><title>front on&#45;&gt;head up</title>
<path fill="none" stroke="black" stroke-width="0.0909091" d="M517.925,-108.3C409.536,-85.0787 225.977,-45.7527 140.027,-27.3387"/>
<polygon fill="black" stroke="black" stroke-width="0.0909091" points="140.553,-23.8719 130.041,-25.1993 139.086,-30.7166 140.553,-23.8719"/>
<text text-anchor="middle" x="322" y="-54.3269" font-family="Times New Roman,serif" font-size="14.00">1</text>
</g>
<!-- present&#45;&gt;fins errect -->
<g id="edge22" class="edge"><title>present&#45;&gt;fins errect</title>
<path fill="none" stroke="black" stroke-width="0.310736" d="M667.9,-261.391C803.872,-277.391 1110.22,-322.501 1160,-408.527 1192.24,-464.238 1222.4,-663.188 1148,-805.527 1098.36,-900.494 1081.86,-923.956 1009,-1002.53 968.249,-1046.47 905.405,-1070.03 851.826,-1082.64"/>
<polygon fill="black" stroke="black" stroke-width="0.310736" points="850.923,-1079.26 841.937,-1084.87 852.462,-1086.09 850.923,-1079.26"/>
<text text-anchor="middle" x="1196" y="-658.327" font-family="Times New Roman,serif" font-size="14.00">3</text>
</g>
<!-- present&#45;&gt;front on -->
<g id="edge23" class="edge"><title>present&#45;&gt;front on</title>
<path fill="none" stroke="black" stroke-width="0.480276" d="M594.364,-222.782C592.965,-216.788 591.735,-210.495 591,-204.527 590.081,-197.06 590.147,-189.2 590.809,-181.482"/>
<polygon fill="black" stroke="black" stroke-width="0.480276" points="594.295,-181.802 591.991,-171.461 587.344,-180.983 594.295,-181.802"/>
<text text-anchor="middle" x="595" y="-193.327" font-family="Times New Roman,serif" font-size="14.00">7</text>
</g>
<!-- present&#45;&gt;present -->
<g id="edge26" class="edge"><title>present&#45;&gt;present</title>
<path fill="none" stroke="black" stroke-width="0.506995" d="M666.389,-263.594C679.004,-262.461 688,-259.105 688,-253.527 688,-249.605 683.553,-246.781 676.527,-245.057"/>
<polygon fill="black" stroke="black" stroke-width="0.506995" points="676.811,-241.559 666.389,-243.46 675.722,-248.473 676.811,-241.559"/>
<text text-anchor="middle" x="692" y="-249.827" font-family="Times New Roman,serif" font-size="14.00">8</text>
</g>
<!-- present&#45;&gt;left side on -->
<g id="edge24" class="edge"><title>present&#45;&gt;left side on</title>
<path fill="none" stroke="black" stroke-width="0.0909091" d="M593.811,-284.365C592.105,-290.352 590.417,-296.618 589,-302.527 544.014,-490.173 510.262,-718.027 497.07,-813.274"/>
<polygon fill="black" stroke="black" stroke-width="0.0909091" points="493.57,-813.034 495.673,-823.418 500.504,-813.989 493.57,-813.034"/>
<text text-anchor="middle" x="541" y="-564.327" font-family="Times New Roman,serif" font-size="14.00">1</text>
</g>
<!-- present&#45;&gt;mouthfight -->
<g id="edge25" class="edge"><title>present&#45;&gt;mouthfight</title>
<path fill="none" stroke="black" stroke-width="0.0909091" d="M614.813,-284.114C628.848,-320.538 651.883,-384.578 664,-441.527 681.291,-522.792 688.765,-619.191 691.887,-677.161"/>
<polygon fill="black" stroke="black" stroke-width="0.0909091" points="688.393,-677.369 692.404,-687.175 695.384,-677.008 688.393,-677.369"/>
<text text-anchor="middle" x="685" y="-488.327" font-family="Times New Roman,serif" font-size="14.00">1</text>
</g>
<!-- right side on&#45;&gt;bite/ram -->
<g id="edge27" class="edge"><title>right side on&#45;&gt;bite/ram</title>
<path fill="none" stroke="black" stroke-width="0.0909091" d="M950.791,-378.646C1022,-401.461 1146,-447.45 1146,-491.027 1146,-663.027 1146,-663.027 1146,-663.027 1146,-862.479 1148.01,-1102.76 1148.74,-1183.24"/>
<polygon fill="black" stroke="black" stroke-width="0.0909091" points="1145.24,-1183.55 1148.83,-1193.52 1152.24,-1183.49 1145.24,-1183.55"/>
<text text-anchor="middle" x="1151" y="-794.327" font-family="Times New Roman,serif" font-size="14.00">1</text>
</g>
<!-- right side on&#45;&gt;fins errect -->
<g id="edge28" class="edge"><title>right side on&#45;&gt;fins errect</title>
<path fill="none" stroke="black" stroke-width="0.551645" d="M941.575,-383.608C977.865,-404.672 1026,-441.876 1026,-491.027 1026,-663.027 1026,-663.027 1026,-663.027 1026,-815.416 1065.47,-877.743 978,-1002.53 948.666,-1044.37 897.177,-1067.74 850.544,-1080.76"/>
<polygon fill="black" stroke="black" stroke-width="0.551645" points="849.44,-1077.43 840.676,-1083.39 851.24,-1084.2 849.44,-1077.43"/>
<text text-anchor="middle" x="1040" y="-726.327" font-family="Times New Roman,serif" font-size="14.00">10</text>
</g>
<!-- right side on&#45;&gt;present -->
<g id="edge30" class="edge"><title>right side on&#45;&gt;present</title>
<path fill="none" stroke="black" stroke-width="0.0909091" d="M856.263,-345.583C804.998,-327.152 721.612,-297.172 664.629,-276.685"/>
<polygon fill="black" stroke="black" stroke-width="0.0909091" points="665.611,-273.318 655.016,-273.228 663.242,-279.905 665.611,-273.318"/>
<text text-anchor="middle" x="775" y="-306.327" font-family="Times New Roman,serif" font-size="14.00">1</text>
</g>
<!-- right side on&#45;&gt;mouthfight -->
<g id="edge29" class="edge"><title>right side on&#45;&gt;mouthfight</title>
<path fill="none" stroke="black" stroke-width="0.0909091" d="M874.815,-387.962C869.166,-394.147 863.788,-401.157 860,-408.527 805.973,-513.65 879.883,-574.947 809,-669.527 800.128,-681.365 788.217,-691.049 775.416,-698.904"/>
<polygon fill="black" stroke="black" stroke-width="0.0909091" points="773.371,-696.042 766.438,-704.054 776.854,-702.114 773.371,-696.042"/>
<text text-anchor="middle" x="847" y="-564.327" font-family="Times New Roman,serif" font-size="14.00">1</text>
</g>
<!-- right side on&#45;&gt;undefiined/ unknown -->
<g id="edge31" class="edge"><title>right side on&#45;&gt;undefiined/ unknown</title>
<path fill="none" stroke="black" stroke-width="0.0909091" d="M901.898,-390.658C901.65,-425.559 900.813,-488.665 898,-542.527 889.789,-699.73 884.919,-738.916 869,-895.527 867.506,-910.225 869.441,-914.436 865,-928.527 864.015,-931.651 862.814,-934.813 861.479,-937.935"/>
<polygon fill="black" stroke="black" stroke-width="0.0909091" points="858.253,-936.571 857.157,-947.109 864.585,-939.554 858.253,-936.571"/>
<text text-anchor="middle" x="896" y="-658.327" font-family="Times New Roman,serif" font-size="14.00">1</text>
</g>
<!-- head bump/ bite&#45;&gt;bite/ram -->
<g id="edge32" class="edge"><title>head bump/ bite&#45;&gt;bite/ram</title>
<path fill="none" stroke="black" stroke-width="0.0909091" d="M191.444,-530.325C113.844,-572.489 0,-638.231 0,-661.027 0,-1099.03 0,-1099.03 0,-1099.03 0,-1211.11 877.342,-1212.83 1098.74,-1211.48"/>
<polygon fill="black" stroke="black" stroke-width="0.0909091" points="1098.8,-1214.98 1108.78,-1211.41 1098.76,-1207.98 1098.8,-1214.98"/>
<text text-anchor="middle" x="4" y="-855.827" font-family="Times New Roman,serif" font-size="14.00">1</text>
</g>
<!-- head bump/ bite&#45;&gt;front on -->
<g id="edge33" class="edge"><title>head bump/ bite&#45;&gt;front on</title>
<path fill="none" stroke="black" stroke-width="0.551645" d="M266.933,-441.323C276.265,-374.358 302.686,-255.922 376,-189.527 409.604,-159.095 456.792,-143.588 499.446,-135.783"/>
<polygon fill="black" stroke="black" stroke-width="0.551645" points="500.055,-139.23 509.323,-134.096 498.876,-132.33 500.055,-139.23"/>
<text text-anchor="middle" x="311" y="-306.327" font-family="Times New Roman,serif" font-size="14.00">10</text>
</g>
<!-- head bump/ bite&#45;&gt;present -->
<g id="edge38" class="edge"><title>head bump/ bite&#45;&gt;present</title>
<path fill="none" stroke="black" stroke-width="0.229604" d="M324.881,-450.903C349.971,-433.641 378.432,-412.414 402,-390.527 425.351,-368.841 423.179,-355.513 448,-335.527 476.933,-312.23 513.613,-292.7 544.026,-278.658"/>
<polygon fill="black" stroke="black" stroke-width="0.229604" points="545.585,-281.795 553.248,-274.479 542.695,-275.419 545.585,-281.795"/>
<text text-anchor="middle" x="452" y="-359.327" font-family="Times New Roman,serif" font-size="14.00">2</text>
</g>
<!-- head bump/ bite&#45;&gt;right side on -->
<g id="edge39" class="edge"><title>head bump/ bite&#45;&gt;right side on</title>
<path fill="none" stroke="black" stroke-width="0.229604" d="M360.947,-471.392C493.814,-445.026 726.108,-398.931 838.074,-376.712"/>
<polygon fill="black" stroke="black" stroke-width="0.229604" points="839.075,-380.082 848.202,-374.702 837.712,-373.216 839.075,-380.082"/>
<text text-anchor="middle" x="681" y="-412.327" font-family="Times New Roman,serif" font-size="14.00">2</text>
</g>
<!-- head bump/ bite&#45;&gt;head bump/ bite -->
<g id="edge34" class="edge"><title>head bump/ bite&#45;&gt;head bump/ bite</title>
<path fill="none" stroke="black" d="M366.763,-504.356C379.591,-502.148 388,-498.039 388,-492.027 388,-487.8 383.842,-484.513 376.915,-482.167"/>
<polygon fill="black" stroke="black" points="377.307,-478.66 366.763,-479.698 375.652,-485.462 377.307,-478.66"/>
<text text-anchor="middle" x="396" y="-488.327" font-family="Times New Roman,serif" font-size="14.00">94</text>
</g>
<!-- head bump/ bite&#45;&gt;head down -->
<g id="edge35" class="edge"><title>head bump/ bite&#45;&gt;head down</title>
<path fill="none" stroke="black" stroke-width="0.3683" d="M278.641,-542.137C283.438,-556.295 288.528,-571.316 292.807,-583.946"/>
<polygon fill="black" stroke="black" stroke-width="0.3683" points="289.521,-585.153 296.045,-593.501 296.151,-582.907 289.521,-585.153"/>
<text text-anchor="middle" x="294" y="-564.327" font-family="Times New Roman,serif" font-size="14.00">4</text>
</g>
<!-- head bump/ bite&#45;&gt;left side on -->
<g id="edge36" class="edge"><title>head bump/ bite&#45;&gt;left side on</title>
<path fill="none" stroke="black" stroke-width="0.530563" d="M224.831,-539.767C220.69,-546.47 216.921,-553.488 214,-560.527 172.262,-661.099 139.252,-726.347 214,-805.527 229.8,-822.264 293.38,-819.27 316,-823.527 347.323,-829.422 381.731,-836.231 411.686,-842.268"/>
<polygon fill="black" stroke="black" stroke-width="0.530563" points="411.168,-845.734 421.663,-844.283 412.554,-838.872 411.168,-845.734"/>
<text text-anchor="middle" x="182" y="-658.327" font-family="Times New Roman,serif" font-size="14.00">9</text>
</g>
<!-- head bump/ bite&#45;&gt;mouthfight -->
<g id="edge37" class="edge"><title>head bump/ bite&#45;&gt;mouthfight</title>
<path fill="none" stroke="black" stroke-width="0.229604" d="M350.131,-521.493C380.462,-532.389 414.26,-545.781 444,-560.527 482.216,-579.476 566.748,-645.51 602,-669.527 611.702,-676.137 622.074,-683.018 632.228,-689.655"/>
<polygon fill="black" stroke="black" stroke-width="0.229604" points="630.396,-692.639 640.686,-695.162 634.215,-686.773 630.396,-692.639"/>
<text text-anchor="middle" x="560" y="-611.327" font-family="Times New Roman,serif" font-size="14.00">2</text>
</g>
<!-- head bump/ bite&#45;&gt;undefiined/ unknown -->
<g id="edge40" class="edge"><title>head bump/ bite&#45;&gt;undefiined/ unknown</title>
<path fill="none" stroke="black" stroke-width="0.229604" d="M349.128,-522.041C404.436,-539.578 477.81,-561.232 544,-575.527 599.724,-587.562 617.483,-573.882 671,-593.527 744.504,-620.508 779.701,-620.395 820,-687.527 866.919,-765.686 857.464,-878.351 848.275,-936.176"/>
<polygon fill="black" stroke="black" stroke-width="0.229604" points="844.777,-935.874 846.575,-946.315 851.68,-937.031 844.777,-935.874"/>
<text text-anchor="middle" x="854" y="-726.327" font-family="Times New Roman,serif" font-size="14.00">2</text>
</g>
<!-- head down&#45;&gt;fins errect -->
<g id="edge41" class="edge"><title>head down&#45;&gt;fins errect</title>
<path fill="none" stroke="black" stroke-width="0.0909091" d="M295.856,-636.49C275.874,-697.618 225.578,-882.077 300,-1002.53 311.935,-1021.84 318.318,-1026.16 339,-1035.53 392.186,-1059.62 542.418,-1077.83 645.717,-1087.97"/>
<polygon fill="black" stroke="black" stroke-width="0.0909091" points="645.583,-1091.47 655.875,-1088.95 646.259,-1084.51 645.583,-1091.47"/>
<text text-anchor="middle" x="268" y="-855.827" font-family="Times New Roman,serif" font-size="14.00">1</text>
</g>
<!-- head down&#45;&gt;front on -->
<g id="edge42" class="edge"><title>head down&#45;&gt;front on</title>
<path fill="none" stroke="black" stroke-width="0.0909091" d="M331.164,-597.634C362.216,-579.268 408.424,-550.96 413,-542.527 434.411,-503.073 421.711,-485.562 413,-441.527 408.243,-417.48 396.757,-414.574 392,-390.527 387.256,-366.547 384.662,-358.844 392,-335.527 415.763,-260.022 435.311,-242.643 494,-189.527 504.221,-180.276 516.087,-171.859 528.151,-164.43"/>
<polygon fill="black" stroke="black" stroke-width="0.0909091" points="530.143,-167.318 536.95,-159.199 526.566,-161.301 530.143,-167.318"/>
<text text-anchor="middle" x="396" y="-359.327" font-family="Times New Roman,serif" font-size="14.00">1</text>
</g>
<!-- head down&#45;&gt;right side on -->
<g id="edge45" class="edge"><title>head down&#45;&gt;right side on</title>
<path fill="none" stroke="black" stroke-width="0.229604" d="M344.832,-604.785C427.611,-586.43 604.813,-546.774 610,-542.527 648.163,-511.277 617.849,-472.792 656,-441.527 683.183,-419.25 700.117,-435.931 733,-423.527 746.209,-418.544 747.99,-414.008 761,-408.527 786.895,-397.616 816.426,-387.9 841.749,-380.351"/>
<polygon fill="black" stroke="black" stroke-width="0.229604" points="842.983,-383.637 851.592,-377.462 841.011,-376.92 842.983,-383.637"/>
<text text-anchor="middle" x="660" y="-488.327" font-family="Times New Roman,serif" font-size="14.00">2</text>
</g>
<!-- head down&#45;&gt;head bump/ bite -->
<g id="edge43" class="edge"><title>head down&#45;&gt;head bump/ bite</title>
<path fill="none" stroke="black" stroke-width="0.229604" d="M284.925,-594.931C280.331,-589.101 275.885,-582.403 273,-575.527 269.973,-568.313 267.735,-560.46 266.087,-552.562"/>
<polygon fill="black" stroke="black" stroke-width="0.229604" points="269.507,-551.804 264.3,-542.577 262.616,-553.038 269.507,-551.804"/>
<text text-anchor="middle" x="277" y="-564.327" font-family="Times New Roman,serif" font-size="14.00">2</text>
</g>
<!-- head down&#45;&gt;left side on -->
<g id="edge44" class="edge"><title>head down&#45;&gt;left side on</title>
<path fill="none" stroke="black" stroke-width="0.229604" d="M335.32,-630.925C345.657,-637.008 356.382,-644.905 364,-654.527 408.061,-710.174 373.405,-748.749 416,-805.527 421.295,-812.585 427.806,-819.069 434.76,-824.896"/>
<polygon fill="black" stroke="black" stroke-width="0.229604" points="433.054,-828.007 443.08,-831.431 437.377,-822.502 433.054,-828.007"/>
<text text-anchor="middle" x="402" y="-726.327" font-family="Times New Roman,serif" font-size="14.00">2</text>
</g>
<!-- left side on&#45;&gt;fins errect -->
<g id="edge46" class="edge"><title>left side on&#45;&gt;fins errect</title>
<path fill="none" stroke="black" stroke-width="0.449431" d="M491.274,-895.624C493.127,-926.344 499.879,-970.885 522,-1002.53 551.281,-1044.41 602.766,-1067.78 649.411,-1080.79"/>
<polygon fill="black" stroke="black" stroke-width="0.449431" points="648.717,-1084.23 659.281,-1083.42 650.515,-1077.47 648.717,-1084.23"/>
<text text-anchor="middle" x="526" y="-970.827" font-family="Times New Roman,serif" font-size="14.00">6</text>
</g>
<!-- left side on&#45;&gt;front on -->
<g id="edge47" class="edge"><title>left side on&#45;&gt;front on</title>
<path fill="none" stroke="black" stroke-width="0.570716" d="M422.222,-843.578C390.055,-836.894 351.169,-829.25 316,-823.527 252.774,-813.239 232.512,-829.226 173,-805.527 149.958,-796.351 140.718,-793.819 128,-772.527 52.2117,-645.641 67.0851,-586.468 96,-441.527 116.621,-338.162 111.455,-296.028 187,-222.527 231.001,-179.717 392.542,-152.927 500.89,-139.365"/>
<polygon fill="black" stroke="black" stroke-width="0.570716" points="501.38,-142.831 510.876,-138.133 500.523,-135.884 501.38,-142.831"/>
<text text-anchor="middle" x="104" y="-488.327" font-family="Times New Roman,serif" font-size="14.00">11</text>
</g>
<!-- left side on&#45;&gt;present -->
<g id="edge51" class="edge"><title>left side on&#45;&gt;present</title>
<path fill="none" stroke="black" stroke-width="0.0909091" d="M472.53,-824.415C450.645,-781.877 415.455,-706.246 402,-636.527 398.379,-617.762 396.846,-611.93 402,-593.527 409.154,-567.984 419.369,-565.282 433,-542.527 486.558,-453.118 548.592,-347.492 580.882,-292.353"/>
<polygon fill="black" stroke="black" stroke-width="0.0909091" points="583.96,-294.023 585.991,-283.625 577.919,-290.486 583.96,-294.023"/>
<text text-anchor="middle" x="425" y="-564.327" font-family="Times New Roman,serif" font-size="14.00">1</text>
</g>
<!-- left side on&#45;&gt;right side on -->
<g id="edge52" class="edge"><title>left side on&#45;&gt;right side on</title>
<path fill="none" stroke="black" stroke-width="0.229604" d="M510.728,-824.411C531.033,-789.627 563.869,-734.284 594,-687.527 596.548,-683.573 782.305,-411.438 786,-408.527 801.945,-395.968 821.84,-386.629 840.628,-379.84"/>
<polygon fill="black" stroke="black" stroke-width="0.229604" points="841.998,-383.07 850.325,-376.519 839.73,-376.448 841.998,-383.07"/>
<text text-anchor="middle" x="663" y="-611.327" font-family="Times New Roman,serif" font-size="14.00">2</text>
</g>
<!-- left side on&#45;&gt;head bump/ bite -->
<g id="edge48" class="edge"><title>left side on&#45;&gt;head bump/ bite</title>
<path fill="none" stroke="black" stroke-width="0.310736" d="M430.947,-836.985C397.923,-822.748 358.08,-801.357 330,-772.527 280.592,-721.8 266.159,-704.698 247,-636.527 239.401,-609.49 241.336,-578.611 245.91,-552.441"/>
<polygon fill="black" stroke="black" stroke-width="0.310736" points="249.411,-552.768 247.855,-542.288 242.536,-551.451 249.411,-552.768"/>
<text text-anchor="middle" x="261" y="-658.327" font-family="Times New Roman,serif" font-size="14.00">3</text>
</g>
<!-- left side on&#45;&gt;head down -->
<g id="edge49" class="edge"><title>left side on&#45;&gt;head down</title>
<path fill="none" stroke="black" stroke-width="0.0909091" d="M441.549,-831.799C428.558,-823.969 414.869,-814.958 403,-805.527 387.005,-792.817 382.366,-789.504 371,-772.527 363.546,-761.394 332.669,-687.842 315.196,-645.65"/>
<polygon fill="black" stroke="black" stroke-width="0.0909091" points="318.429,-644.31 311.374,-636.405 311.96,-646.984 318.429,-644.31"/>
<text text-anchor="middle" x="375" y="-726.327" font-family="Times New Roman,serif" font-size="14.00">1</text>
</g>
<!-- left side on&#45;&gt;mouthfight -->
<g id="edge50" class="edge"><title>left side on&#45;&gt;mouthfight</title>
<path fill="none" stroke="black" stroke-width="0.0909091" d="M536.052,-830.231C564.239,-812.527 600.943,-789.474 631.873,-770.048"/>
<polygon fill="black" stroke="black" stroke-width="0.0909091" points="633.825,-772.955 640.432,-764.672 630.102,-767.027 633.825,-772.955"/>
<text text-anchor="middle" x="603" y="-794.327" font-family="Times New Roman,serif" font-size="14.00">1</text>
</g>
<!-- left side on&#45;&gt;undefiined/ unknown -->
<g id="edge53" class="edge"><title>left side on&#45;&gt;undefiined/ unknown</title>
<path fill="none" stroke="black" stroke-width="0.449431" d="M546.793,-884.341C580.622,-898.273 624.865,-915.607 665,-928.527 697.914,-939.122 734.916,-948.896 766.468,-956.608"/>
<polygon fill="black" stroke="black" stroke-width="0.449431" points="765.966,-960.088 776.509,-959.038 767.612,-953.284 765.966,-960.088"/>
<text text-anchor="middle" x="669" y="-917.327" font-family="Times New Roman,serif" font-size="14.00">6</text>
</g>
<!-- mouthfight&#45;&gt;fins errect -->
<g id="edge54" class="edge"><title>mouthfight&#45;&gt;fins errect</title>
<path fill="none" stroke="black" stroke-width="0.3683" d="M697.734,-772.795C701.583,-812.877 708.251,-875.041 717,-928.527 722.39,-961.481 723.653,-969.743 730,-1002.53 732.565,-1015.78 735.494,-1030.04 738.305,-1043.36"/>
<polygon fill="black" stroke="black" stroke-width="0.3683" points="734.922,-1044.28 740.423,-1053.34 741.77,-1042.83 734.922,-1044.28"/>
<text text-anchor="middle" x="721" y="-917.327" font-family="Times New Roman,serif" font-size="14.00">4</text>
</g>
<!-- mouthfight&#45;&gt;front on -->
<g id="edge55" class="edge"><title>mouthfight&#45;&gt;front on</title>
<path fill="none" stroke="black" stroke-width="0.570716" d="M706.773,-687.706C732.098,-597.865 780.044,-380.166 705,-222.527 695.615,-202.814 680.085,-185.273 663.938,-170.84"/>
<polygon fill="black" stroke="black" stroke-width="0.570716" points="665.852,-167.87 655.986,-164.008 661.29,-173.179 665.852,-167.87"/>
<text text-anchor="middle" x="754" y="-412.327" font-family="Times New Roman,serif" font-size="14.00">11</text>
</g>
<!-- mouthfight&#45;&gt;present -->
<g id="edge60" class="edge"><title>mouthfight&#45;&gt;present</title>
<path fill="none" stroke="black" stroke-width="0.310736" d="M660.473,-690.096C648.22,-674.298 635.138,-655.354 626,-636.527 570.766,-522.731 584.966,-366.916 595.873,-294.519"/>
<polygon fill="black" stroke="black" stroke-width="0.310736" points="599.359,-294.879 597.45,-284.458 592.444,-293.796 599.359,-294.879"/>
<text text-anchor="middle" x="600" y="-488.327" font-family="Times New Roman,serif" font-size="14.00">3</text>
</g>
<!-- mouthfight&#45;&gt;right side on -->
<g id="edge61" class="edge"><title>mouthfight&#45;&gt;right side on</title>
<path fill="none" stroke="black" stroke-width="0.41295" d="M768.825,-705.603C789.85,-696.605 811.678,-684.736 829,-669.527 869.131,-634.292 890.586,-474.138 898.452,-400.844"/>
<polygon fill="black" stroke="black" stroke-width="0.41295" points="901.955,-400.995 899.514,-390.685 894.993,-400.267 901.955,-400.995"/>
<text text-anchor="middle" x="878" y="-564.327" font-family="Times New Roman,serif" font-size="14.00">5</text>
</g>
<!-- mouthfight&#45;&gt;head bump/ bite -->
<g id="edge56" class="edge"><title>mouthfight&#45;&gt;head bump/ bite</title>
<path fill="none" stroke="black" stroke-width="0.680077" d="M617.05,-707.087C573.056,-692.011 518.543,-668.831 477,-636.527 443.457,-610.444 452.502,-586.662 419,-560.527 401.169,-546.617 380.039,-535.007 359.154,-525.56"/>
<polygon fill="black" stroke="black" stroke-width="0.680077" points="360.474,-522.317 349.91,-521.507 357.663,-528.728 360.474,-522.317"/>
<text text-anchor="middle" x="485" y="-611.327" font-family="Times New Roman,serif" font-size="14.00">19</text>
</g>
<!-- mouthfight&#45;&gt;head down -->
<g id="edge57" class="edge"><title>mouthfight&#45;&gt;head down</title>
<path fill="none" stroke="black" stroke-width="0.229604" d="M617.218,-706.837C538.524,-684.094 418.528,-649.415 351.901,-630.159"/>
<polygon fill="black" stroke="black" stroke-width="0.229604" points="352.654,-626.734 342.075,-627.32 350.71,-633.459 352.654,-626.734"/>
<text text-anchor="middle" x="491" y="-658.327" font-family="Times New Roman,serif" font-size="14.00">2</text>
</g>
<!-- mouthfight&#45;&gt;left side on -->
<g id="edge58" class="edge"><title>mouthfight&#45;&gt;left side on</title>
<path fill="none" stroke="black" stroke-width="0.530563" d="M656.805,-768.98C643.161,-781.624 627.1,-795.123 611,-805.527 595.183,-815.748 577.064,-824.895 559.781,-832.597"/>
<polygon fill="black" stroke="black" stroke-width="0.530563" points="558.061,-829.528 550.285,-836.724 560.852,-835.948 558.061,-829.528"/>
<text text-anchor="middle" x="635" y="-794.327" font-family="Times New Roman,serif" font-size="14.00">9</text>
</g>
<!-- mouthfight&#45;&gt;mouthfight -->
<g id="edge59" class="edge"><title>mouthfight&#45;&gt;mouthfight</title>
<path fill="none" stroke="black" stroke-width="0.310736" d="M781.668,-741.532C794.413,-739.706 803,-735.871 803,-730.027 803,-725.918 798.755,-722.802 791.804,-720.68"/>
<polygon fill="black" stroke="black" stroke-width="0.310736" points="792.177,-717.181 781.668,-718.522 790.72,-724.027 792.177,-717.181"/>
<text text-anchor="middle" x="807" y="-726.327" font-family="Times New Roman,serif" font-size="14.00">3</text>
</g>
<!-- mouthfight&#45;&gt;undefiined/ unknown -->
<g id="edge62" class="edge"><title>mouthfight&#45;&gt;undefiined/ unknown</title>
<path fill="none" stroke="black" stroke-width="0.310736" d="M731.293,-769.153C737.208,-776.014 743.012,-783.291 748,-790.527 780.774,-838.066 809.315,-898.732 825.853,-936.868"/>
<polygon fill="black" stroke="black" stroke-width="0.310736" points="822.836,-938.714 829.993,-946.526 829.27,-935.956 822.836,-938.714"/>
<text text-anchor="middle" x="811" y="-855.827" font-family="Times New Roman,serif" font-size="14.00">3</text>
</g>
<!-- s&#45; bend&#45;&gt;bite/ram -->
<g id="edge63" class="edge"><title>s&#45; bend&#45;&gt;bite/ram</title>
<path fill="none" stroke="black" stroke-width="0.229604" d="M1055.45,-18.3509C1168.19,-22.4243 1472,-41.3074 1472,-126.527 1472,-1099.03 1472,-1099.03 1472,-1099.03 1472,-1156.41 1420.91,-1153.32 1368,-1175.53 1313.31,-1198.49 1245.16,-1206.67 1199.54,-1209.55"/>
<polygon fill="black" stroke="black" stroke-width="0.229604" points="1199.1,-1206.07 1189.31,-1210.13 1199.49,-1213.05 1199.1,-1206.07"/>
<text text-anchor="middle" x="1476" y="-611.327" font-family="Times New Roman,serif" font-size="14.00">2</text>
</g>
<!-- s&#45; bend&#45;&gt;fins errect -->
<g id="edge64" class="edge"><title>s&#45; bend&#45;&gt;fins errect</title>
<path fill="none" stroke="black" stroke-width="0.0909091" d="M973.032,-19.3891C885.081,-24.6349 672.118,-41.0003 499,-83.5269 366.948,-115.965 337.809,-137.933 212,-189.527 179.057,-203.037 162.78,-196.026 139,-222.527 5.43302,-371.378 38,-461.035 38,-661.027 38,-975.527 38,-975.527 38,-975.527 38,-1034.36 98.8341,-1021.61 156,-1035.53 323.379,-1076.27 523.716,-1090.03 643.717,-1094.67"/>
<polygon fill="black" stroke="black" stroke-width="0.0909091" points="643.878,-1098.18 654.002,-1095.06 644.139,-1091.19 643.878,-1098.18"/>
<text text-anchor="middle" x="41" y="-564.327" font-family="Times New Roman,serif" font-size="14.00">1</text>
</g>
<!-- undefiined/ unknown&#45;&gt;fins errect -->
<g id="edge65" class="edge"><title>undefiined/ unknown&#45;&gt;fins errect</title>
<path fill="none" stroke="black" stroke-width="0.0909091" d="M808.597,-1000.15C801.632,-1006.34 794.669,-1013.29 789,-1020.53 783.133,-1028.02 777.767,-1036.53 773.017,-1045.09"/>
<polygon fill="black" stroke="black" stroke-width="0.0909091" points="769.893,-1043.51 768.295,-1053.98 776.076,-1046.79 769.893,-1043.51"/>
<text text-anchor="middle" x="793" y="-1024.33" font-family="Times New Roman,serif" font-size="14.00">1</text>
</g>
<!-- undefiined/ unknown&#45;&gt;front on -->
<g id="edge66" class="edge"><title>undefiined/ unknown&#45;&gt;front on</title>
<path fill="none" stroke="black" stroke-width="0.551645" d="M899.696,-956.011C1006.57,-920.082 1222,-827.287 1222,-663.027 1222,-663.027 1222,-663.027 1222,-252.527 1222,-148.911 884.325,-130.711 707.782,-128.276"/>
<polygon fill="black" stroke="black" stroke-width="0.551645" points="707.729,-124.775 697.687,-128.151 707.643,-131.774 707.729,-124.775"/>
<text text-anchor="middle" x="1230" y="-564.327" font-family="Times New Roman,serif" font-size="14.00">10</text>
</g>
<!-- undefiined/ unknown&#45;&gt;present -->
<g id="edge68" class="edge"><title>undefiined/ unknown&#45;&gt;present</title>
<path fill="none" stroke="black" stroke-width="0.0909091" d="M878.216,-949.716C926.855,-916.421 1010.69,-851.122 1052,-772.527 1127.46,-628.96 1154.07,-551.769 1078,-408.527 1050.83,-357.359 1023.23,-358.398 970,-335.527 873.756,-294.175 753.892,-272.833 677.884,-262.666"/>
<polygon fill="black" stroke="black" stroke-width="0.0909091" points="678.287,-259.189 667.917,-261.364 677.379,-266.13 678.287,-259.189"/>
<text text-anchor="middle" x="1126" y="-611.327" font-family="Times New Roman,serif" font-size="14.00">1</text>
</g>
<!-- undefiined/ unknown&#45;&gt;right side on -->
<g id="edge69" class="edge"><title>undefiined/ unknown&#45;&gt;right side on</title>
<path fill="none" stroke="black" stroke-width="0.0909091" d="M867.77,-948.178C872.842,-942.175 877.613,-935.481 881,-928.527 887.528,-915.125 884.882,-910.283 887,-895.527 909.358,-739.776 907.896,-699.756 914,-542.527 916.31,-483.01 925.042,-467.399 916,-408.527 915.588,-405.843 915.043,-403.098 914.408,-400.355"/>
<polygon fill="black" stroke="black" stroke-width="0.0909091" points="917.749,-399.298 911.787,-390.539 910.986,-401.104 917.749,-399.298"/>
<text text-anchor="middle" x="914" y="-658.327" font-family="Times New Roman,serif" font-size="14.00">1</text>
</g>
<!-- undefiined/ unknown&#45;&gt;left side on -->
<g id="edge67" class="edge"><title>undefiined/ unknown&#45;&gt;left side on</title>
<path fill="none" stroke="black" stroke-width="0.0909091" d="M767.802,-965.49C721.525,-958.904 661.034,-947.49 610,-928.527 586.782,-919.899 562.77,-907.045 542.449,-894.827"/>
<polygon fill="black" stroke="black" stroke-width="0.0909091" points="544.04,-891.698 533.684,-889.461 540.385,-897.668 544.04,-891.698"/>
<text text-anchor="middle" x="614" y="-917.327" font-family="Times New Roman,serif" font-size="14.00">1</text>
</g>
<!-- undefiined/ unknown&#45;&gt;undefiined/ unknown -->
<g id="edge70" class="edge"><title>undefiined/ unknown&#45;&gt;undefiined/ unknown</title>
<path fill="none" stroke="black" stroke-width="0.0909091" d="M914.137,-983.705C927.199,-982.512 936.323,-979.453 936.323,-974.527 936.323,-970.987 931.609,-968.41 924.108,-966.798"/>
<polygon fill="black" stroke="black" stroke-width="0.0909091" points="924.537,-963.324 914.137,-965.349 923.53,-970.251 924.537,-963.324"/>
<text text-anchor="middle" x="940.323" y="-970.827" font-family="Times New Roman,serif" font-size="14.00">1</text>
</g>
<!-- head up&#45;&gt;head bump/ bite -->
<g id="edge71" class="edge"><title>head up&#45;&gt;head bump/ bite</title>
<path fill="none" stroke="black" stroke-width="0.0909091" d="M95.505,-32.579C101.008,-64.8816 115.327,-142.15 136,-204.527 163.082,-286.243 204.901,-376.545 232.845,-433.509"/>
<polygon fill="black" stroke="black" stroke-width="0.0909091" points="229.817,-435.283 237.377,-442.705 236.096,-432.188 229.817,-435.283"/>
<text text-anchor="middle" x="169" y="-249.827" font-family="Times New Roman,serif" font-size="14.00">1</text>
</g>
</g>
</svg>
