<?xml version="1.0" encoding="UTF-8" standalone="no"?>
<!DOCTYPE svg PUBLIC "-//W3C//DTD SVG 1.1//EN"
 "http://www.w3.org/Graphics/SVG/1.1/DTD/svg11.dtd">
<!-- Generated by graphviz version 2.41.20170921.1950 (20170921.1950)
 -->
<!-- Title: %3 Pages: 1 -->
<svg width="925pt" height="716pt"
 viewBox="0.00 0.00 925.00 715.58" xmlns="http://www.w3.org/2000/svg" xmlns:xlink="http://www.w3.org/1999/xlink">
<g id="graph0" class="graph" transform="scale(1 1) rotate(0) translate(4 711.58)">
<title>%3</title>
<polygon fill="white" stroke="transparent" points="-4,4 -4,-711.58 921,-711.58 921,4 -4,4"/>
<!-- driving &#45; 1.79 -->
<g id="node1" class="node">
<title>driving &#45; 1.79</title>
<g id="a_node1"><a xlink:title="whats up&#10;&#10; eccentricity: &#10;&#10; piu: &#10;">
<ellipse fill="#cd9cff" stroke="black" cx="119" cy="-691.32" rx="68.68" ry="16.03"/>
<text text-anchor="middle" x="119" y="-687.62" font-family="Times New Roman,serif" font-size="14.00">driving &#45; 1.79</text>
</a>
</g>
</g>
<!-- sand spitting &#45; 2.71 -->
<g id="node2" class="node">
<title>sand spitting &#45; 2.71</title>
<g id="a_node2"><a xlink:title="whats up&#10;&#10; eccentricity: &#10;&#10; piu: &#10;">
<ellipse fill="#a64eff" stroke="black" cx="119" cy="-593.05" rx="68.84" ry="31"/>
<text text-anchor="middle" x="119" y="-589.35" font-family="Times New Roman,serif" font-size="14.00">sand spitting &#45; 2.71</text>
</a>
</g>
</g>
<!-- driving &#45; 1.79&#45;&gt;sand spitting &#45; 2.71 -->
<g id="edge1" class="edge">
<title>driving &#45; 1.79&#45;&gt;sand spitting &#45; 2.71</title>
<path fill="none" stroke="black" stroke-width="0.24" d="M111.68,-675.1C109.38,-669.56 107.15,-663.15 106,-657.05 104.58,-649.5 104.86,-641.45 106.03,-633.72"/>
<polygon fill="black" stroke="black" stroke-width="0.24" points="109.48,-634.31 108.02,-623.82 102.62,-632.93 109.48,-634.31"/>
<text text-anchor="middle" x="110" y="-645.85" font-family="Times New Roman,serif" font-size="14.00">5</text>
</g>
<!-- sand spitting &#45; 2.71&#45;&gt;driving &#45; 1.79 -->
<g id="edge2" class="edge">
<title>sand spitting &#45; 2.71&#45;&gt;driving &#45; 1.79</title>
<path fill="none" stroke="black" stroke-width="0.24" d="M119,-624.25C119,-637.24 119,-652.27 119,-664.7"/>
<polygon fill="black" stroke="black" stroke-width="0.24" points="115.5,-664.85 119,-674.85 122.5,-664.85 115.5,-664.85"/>
<text text-anchor="middle" x="123" y="-645.85" font-family="Times New Roman,serif" font-size="14.00">5</text>
</g>
<!-- sand spitting &#45; 2.71&#45;&gt;sand spitting &#45; 2.71 -->
<g id="edge5" class="edge">
<title>sand spitting &#45; 2.71&#45;&gt;sand spitting &#45; 2.71</title>
<path fill="none" stroke="black" stroke-width="0.7" d="M184.57,-603.05C197.08,-601.86 205.92,-598.52 205.92,-593.05 205.92,-589.21 201.55,-586.42 194.6,-584.69"/>
<polygon fill="black" stroke="black" stroke-width="0.7" points="195.01,-581.21 184.57,-583.06 193.88,-588.12 195.01,-581.21"/>
<text text-anchor="middle" x="213.92" y="-589.35" font-family="Times New Roman,serif" font-size="14.00">26</text>
</g>
<!-- head&#45;down &#45; 1.38 -->
<g id="node4" class="node">
<title>head&#45;down &#45; 1.38</title>
<g id="a_node4"><a xlink:title="whats up&#10;&#10; eccentricity: &#10;&#10; piu: &#10;">
<ellipse fill="#a852ff" stroke="black" cx="238" cy="-123.53" rx="85.5" ry="40"/>
<text text-anchor="middle" x="238" y="-119.83" font-family="Times New Roman,serif" font-size="14.00">head&#45;down &#45; 1.38</text>
</a>
</g>
</g>
<!-- sand spitting &#45; 2.71&#45;&gt;head&#45;down &#45; 1.38 -->
<g id="edge3" class="edge">
<title>sand spitting &#45; 2.71&#45;&gt;head&#45;down &#45; 1.38</title>
<path fill="none" stroke="black" stroke-width="0.29" d="M67.37,-572.27C53.77,-565.07 40.1,-555.74 30,-544.05 4.5,-514.53 0,-500.57 0,-461.55 0,-461.55 0,-461.55 0,-229.79 0,-164.15 76.66,-139.11 142.97,-129.73"/>
<polygon fill="black" stroke="black" stroke-width="0.29" points="143.62,-133.17 153.08,-128.41 142.71,-126.23 143.62,-133.17"/>
<text text-anchor="middle" x="4" y="-324.85" font-family="Times New Roman,serif" font-size="14.00">6</text>
</g>
<!-- lateral display &#45; 3.81 -->
<g id="node5" class="node">
<title>lateral display &#45; 3.81</title>
<g id="a_node5"><a xlink:title="whats up&#10;&#10; eccentricity: &#10;&#10; piu: &#10;">
<ellipse fill="#8914ff" stroke="black" cx="344" cy="-460.55" rx="108" ry="50.5"/>
<text text-anchor="middle" x="344" y="-456.85" font-family="Times New Roman,serif" font-size="14.00">lateral display &#45; 3.81</text>
</a>
</g>
</g>
<!-- sand spitting &#45; 2.71&#45;&gt;lateral display &#45; 3.81 -->
<g id="edge4" class="edge">
<title>sand spitting &#45; 2.71&#45;&gt;lateral display &#45; 3.81</title>
<path fill="none" stroke="black" stroke-width="0.33" d="M160.27,-568.12C190.33,-550.68 231.91,-526.57 267.91,-505.68"/>
<polygon fill="black" stroke="black" stroke-width="0.33" points="270.04,-508.5 276.94,-500.45 266.53,-502.44 270.04,-508.5"/>
<text text-anchor="middle" x="228" y="-532.85" font-family="Times New Roman,serif" font-size="14.00">7</text>
</g>
<!-- frontal &#45; 1.18 -->
<g id="node3" class="node">
<title>frontal &#45; 1.18</title>
<g id="a_node3"><a xlink:title="whats up&#10;&#10; eccentricity: &#10;&#10; piu: &#10;">
<ellipse fill="#b66dff" stroke="black" cx="136" cy="-328.55" rx="65.5" ry="30.5"/>
<text text-anchor="middle" x="136" y="-324.85" font-family="Times New Roman,serif" font-size="14.00">frontal &#45; 1.18</text>
</a>
</g>
</g>
<!-- frontal &#45; 1.18&#45;&gt;frontal &#45; 1.18 -->
<g id="edge6" class="edge">
<title>frontal &#45; 1.18&#45;&gt;frontal &#45; 1.18</title>
<path fill="none" stroke="black" stroke-width="0.09" d="M197.9,-338.65C210.49,-337.55 219.5,-334.19 219.5,-328.55 219.5,-324.59 215.04,-321.75 208.03,-320.03"/>
<polygon fill="black" stroke="black" stroke-width="0.09" points="208.32,-316.54 197.9,-318.45 207.25,-323.45 208.32,-316.54"/>
<text text-anchor="middle" x="223.5" y="-324.85" font-family="Times New Roman,serif" font-size="14.00">3</text>
</g>
<!-- frontal &#45; 1.18&#45;&gt;head&#45;down &#45; 1.38 -->
<g id="edge7" class="edge">
<title>frontal &#45; 1.18&#45;&gt;head&#45;down &#45; 1.38</title>
<path fill="none" stroke="black" stroke-width="0.37" d="M121.38,-298.54C114.64,-283.57 107.39,-264.78 104,-247.05 98.36,-217.61 98.79,-202.71 120,-181.53 131.6,-169.94 146.02,-160.37 160.74,-152.58"/>
<polygon fill="black" stroke="black" stroke-width="0.37" points="162.57,-155.58 169.93,-147.97 159.43,-149.33 162.57,-155.58"/>
<text text-anchor="middle" x="108" y="-227.09" font-family="Times New Roman,serif" font-size="14.00">8</text>
</g>
<!-- frontal &#45; 1.18&#45;&gt;lateral display &#45; 3.81 -->
<g id="edge8" class="edge">
<title>frontal &#45; 1.18&#45;&gt;lateral display &#45; 3.81</title>
<path fill="none" stroke="black" stroke-width="0.72" d="M144.76,-358.93C149.46,-370.53 156.34,-383.18 166,-392.05 186.27,-410.67 212.19,-424.32 237.93,-434.26"/>
<polygon fill="black" stroke="black" stroke-width="0.72" points="236.81,-437.57 247.4,-437.76 239.23,-431.01 236.81,-437.57"/>
<text text-anchor="middle" x="174" y="-380.85" font-family="Times New Roman,serif" font-size="14.00">28</text>
</g>
<!-- unknown &#45; 2.44 -->
<g id="node6" class="node">
<title>unknown &#45; 2.44</title>
<g id="a_node6"><a xlink:title="whats up&#10;&#10; eccentricity: &#10;&#10; piu: &#10;">
<ellipse fill="#bd7bff" stroke="black" cx="238" cy="-230.79" rx="77.56" ry="16.03"/>
<text text-anchor="middle" x="238" y="-227.09" font-family="Times New Roman,serif" font-size="14.00">unknown &#45; 2.44</text>
</a>
</g>
</g>
<!-- frontal &#45; 1.18&#45;&gt;unknown &#45; 2.44 -->
<g id="edge9" class="edge">
<title>frontal &#45; 1.18&#45;&gt;unknown &#45; 2.44</title>
<path fill="none" stroke="black" stroke-width="0.09" d="M171.9,-302.87C181.1,-295.92 190.73,-288.05 199,-280.05 206.82,-272.5 214.53,-263.39 221.01,-255.14"/>
<polygon fill="black" stroke="black" stroke-width="0.09" points="223.98,-257.02 227.27,-246.95 218.42,-252.77 223.98,-257.02"/>
<text text-anchor="middle" x="216" y="-268.85" font-family="Times New Roman,serif" font-size="14.00">3</text>
</g>
<!-- head&#45;down &#45; 1.38&#45;&gt;sand spitting &#45; 2.71 -->
<g id="edge14" class="edge">
<title>head&#45;down &#45; 1.38&#45;&gt;sand spitting &#45; 2.71</title>
<path fill="none" stroke="black" stroke-width="0.17" d="M156.85,-136.19C103.69,-148.94 44,-175.38 44,-229.79 44,-461.55 44,-461.55 44,-461.55 44,-497 65.06,-531.53 84.86,-556.16"/>
<polygon fill="black" stroke="black" stroke-width="0.17" points="82.41,-558.68 91.5,-564.12 87.78,-554.19 82.41,-558.68"/>
<text text-anchor="middle" x="48" y="-324.85" font-family="Times New Roman,serif" font-size="14.00">4</text>
</g>
<!-- head&#45;down &#45; 1.38&#45;&gt;frontal &#45; 1.18 -->
<g id="edge10" class="edge">
<title>head&#45;down &#45; 1.38&#45;&gt;frontal &#45; 1.18</title>
<path fill="none" stroke="black" stroke-width="0.37" d="M190.37,-157.28C172.26,-172.45 153.48,-192.09 143,-214.53 132.44,-237.13 130.63,-265.1 131.49,-287.56"/>
<polygon fill="black" stroke="black" stroke-width="0.37" points="128.01,-287.99 132.07,-297.77 134.99,-287.59 128.01,-287.99"/>
<text text-anchor="middle" x="147" y="-227.09" font-family="Times New Roman,serif" font-size="14.00">8</text>
</g>
<!-- head&#45;down &#45; 1.38&#45;&gt;head&#45;down &#45; 1.38 -->
<g id="edge11" class="edge">
<title>head&#45;down &#45; 1.38&#45;&gt;head&#45;down &#45; 1.38</title>
<path fill="none" stroke="black" stroke-width="0.67" d="M320.41,-134.47C332.97,-132.8 341.5,-129.15 341.5,-123.53 341.5,-119.57 337.28,-116.59 330.41,-114.59"/>
<polygon fill="black" stroke="black" stroke-width="0.67" points="330.91,-111.12 320.41,-112.58 329.53,-117.99 330.91,-111.12"/>
<text text-anchor="middle" x="349.5" y="-119.83" font-family="Times New Roman,serif" font-size="14.00">23</text>
</g>
<!-- head&#45;down &#45; 1.38&#45;&gt;lateral display &#45; 3.81 -->
<g id="edge13" class="edge">
<title>head&#45;down &#45; 1.38&#45;&gt;lateral display &#45; 3.81</title>
<path fill="none" stroke="black" stroke-width="0.82" d="M318.49,-137.1C461.22,-161.23 749.23,-218.73 808,-298.05 900.2,-422.5 628.19,-451.66 462.23,-458.09"/>
<polygon fill="black" stroke="black" stroke-width="0.82" points="461.82,-454.61 451.95,-458.47 462.07,-461.6 461.82,-454.61"/>
<text text-anchor="middle" x="796" y="-268.85" font-family="Times New Roman,serif" font-size="14.00">40</text>
</g>
<!-- intoshell &#45; 81.04 -->
<g id="node7" class="node">
<title>intoshell &#45; 81.04</title>
<g id="a_node7"><a xlink:title="whats up&#10;&#10; eccentricity: &#10;&#10; piu: &#10;">
<ellipse fill="#7f00ff" stroke="black" cx="787" cy="-16.26" rx="78.48" ry="16.03"/>
<text text-anchor="middle" x="787" y="-12.56" font-family="Times New Roman,serif" font-size="14.00">intoshell &#45; 81.04</text>
</a>
</g>
</g>
<!-- head&#45;down &#45; 1.38&#45;&gt;intoshell &#45; 81.04 -->
<g id="edge12" class="edge">
<title>head&#45;down &#45; 1.38&#45;&gt;intoshell &#45; 81.04</title>
<path fill="none" stroke="black" stroke-width="0.24" d="M315.68,-106.76C389.32,-91.9 503.09,-69.2 602,-50.53 640.82,-43.2 684.29,-35.36 719.33,-29.14"/>
<polygon fill="black" stroke="black" stroke-width="0.24" points="720.22,-32.54 729.45,-27.35 719,-25.64 720.22,-32.54"/>
<text text-anchor="middle" x="606" y="-54.33" font-family="Times New Roman,serif" font-size="14.00">5</text>
</g>
<!-- lateral display &#45; 3.81&#45;&gt;sand spitting &#45; 2.71 -->
<g id="edge20" class="edge">
<title>lateral display &#45; 3.81&#45;&gt;sand spitting &#45; 2.71</title>
<path fill="none" stroke="black" stroke-width="0.43" d="M292.65,-505.17C275.33,-518.66 255.44,-532.9 236,-544.05 219.21,-553.69 200.1,-562.38 182.27,-569.63"/>
<polygon fill="black" stroke="black" stroke-width="0.43" points="180.52,-566.56 172.52,-573.51 183.11,-573.07 180.52,-566.56"/>
<text text-anchor="middle" x="266" y="-532.85" font-family="Times New Roman,serif" font-size="14.00">10</text>
</g>
<!-- lateral display &#45; 3.81&#45;&gt;frontal &#45; 1.18 -->
<g id="edge15" class="edge">
<title>lateral display &#45; 3.81&#45;&gt;frontal &#45; 1.18</title>
<path fill="none" stroke="black" stroke-width="0.7" d="M279.03,-419.94C264.2,-410.83 248.53,-401.14 234,-392.05 217.11,-381.49 198.68,-369.78 182.4,-359.38"/>
<polygon fill="black" stroke="black" stroke-width="0.7" points="183.91,-356.19 173.6,-353.75 180.14,-362.08 183.91,-356.19"/>
<text text-anchor="middle" x="242" y="-380.85" font-family="Times New Roman,serif" font-size="14.00">26</text>
</g>
<!-- lateral display &#45; 3.81&#45;&gt;head&#45;down &#45; 1.38 -->
<g id="edge16" class="edge">
<title>lateral display &#45; 3.81&#45;&gt;head&#45;down &#45; 1.38</title>
<path fill="none" stroke="black" stroke-width="0.78" d="M349.71,-409.73C353.44,-358.43 353.28,-277.36 325,-214.53 316.72,-196.13 303.01,-179.25 288.89,-165.19"/>
<polygon fill="black" stroke="black" stroke-width="0.78" points="291.14,-162.5 281.5,-158.11 286.3,-167.55 291.14,-162.5"/>
<text text-anchor="middle" x="352" y="-268.85" font-family="Times New Roman,serif" font-size="14.00">35</text>
</g>
<!-- lateral display &#45; 3.81&#45;&gt;lateral display &#45; 3.81 -->
<g id="edge18" class="edge">
<title>lateral display &#45; 3.81&#45;&gt;lateral display &#45; 3.81</title>
<path fill="none" stroke="black" d="M448.76,-472.88C461.59,-470.68 470,-466.57 470,-460.55 470,-456.33 465.84,-453.04 458.91,-450.69"/>
<polygon fill="black" stroke="black" points="459.31,-447.19 448.76,-448.23 457.65,-453.99 459.31,-447.19"/>
<text text-anchor="middle" x="478" y="-456.85" font-family="Times New Roman,serif" font-size="14.00">75</text>
</g>
<!-- lateral display &#45; 3.81&#45;&gt;unknown &#45; 2.44 -->
<g id="edge22" class="edge">
<title>lateral display &#45; 3.81&#45;&gt;unknown &#45; 2.44</title>
<path fill="none" stroke="black" stroke-width="0.37" d="M330.59,-410.23C316.58,-360.86 294.41,-288.93 278,-265.05 275.07,-260.79 271.45,-256.77 267.59,-253.1"/>
<polygon fill="black" stroke="black" stroke-width="0.37" points="269.84,-250.42 260,-246.49 265.25,-255.69 269.84,-250.42"/>
<text text-anchor="middle" x="319" y="-324.85" font-family="Times New Roman,serif" font-size="14.00">8</text>
</g>
<!-- lateral display &#45; 3.81&#45;&gt;intoshell &#45; 81.04 -->
<g id="edge17" class="edge">
<title>lateral display &#45; 3.81&#45;&gt;intoshell &#45; 81.04</title>
<path fill="none" stroke="black" stroke-width="0.33" d="M451.18,-454.07C572.09,-446.22 759.74,-428.49 820,-392.05 849.29,-374.34 865,-363.78 865,-329.55 865,-329.55 865,-329.55 865,-122.53 865,-88.29 838.04,-57.93 815.82,-38.71"/>
<polygon fill="black" stroke="black" stroke-width="0.33" points="817.83,-35.84 807.9,-32.15 813.37,-41.23 817.83,-35.84"/>
<text text-anchor="middle" x="869" y="-227.09" font-family="Times New Roman,serif" font-size="14.00">7</text>
</g>
<!-- lunging/shooting out &#45; 1.07 -->
<g id="node8" class="node">
<title>lunging/shooting out &#45; 1.07</title>
<g id="a_node8"><a xlink:title="whats up&#10;&#10; eccentricity: &#10;&#10; piu: &#10;">
<ellipse fill="#ddbcff" stroke="black" cx="496" cy="-328.55" rx="124.4" ry="16.03"/>
<text text-anchor="middle" x="496" y="-324.85" font-family="Times New Roman,serif" font-size="14.00">lunging/shooting out &#45; 1.07</text>
</a>
</g>
</g>
<!-- lateral display &#45; 3.81&#45;&gt;lunging/shooting out &#45; 1.07 -->
<g id="edge19" class="edge">
<title>lateral display &#45; 3.81&#45;&gt;lunging/shooting out &#45; 1.07</title>
<path fill="none" stroke="black" stroke-width="0.09" d="M383.84,-413.47C395.56,-401.03 408.8,-388 422,-377.05 433.82,-367.26 447.78,-357.82 460.37,-349.98"/>
<polygon fill="black" stroke="black" stroke-width="0.09" points="462.53,-352.77 469.24,-344.57 458.88,-346.79 462.53,-352.77"/>
<text text-anchor="middle" x="426" y="-380.85" font-family="Times New Roman,serif" font-size="14.00">3</text>
</g>
<!-- tailbeat &#45; 1.17 -->
<g id="node9" class="node">
<title>tailbeat &#45; 1.17</title>
<g id="a_node9"><a xlink:title="whats up&#10;&#10; eccentricity: &#10;&#10; piu: &#10;">
<ellipse fill="#cd9cff" stroke="black" cx="706" cy="-328.55" rx="67.35" ry="16.03"/>
<text text-anchor="middle" x="706" y="-324.85" font-family="Times New Roman,serif" font-size="14.00">tailbeat &#45; 1.17</text>
</a>
</g>
</g>
<!-- lateral display &#45; 3.81&#45;&gt;tailbeat &#45; 1.17 -->
<g id="edge21" class="edge">
<title>lateral display &#45; 3.81&#45;&gt;tailbeat &#45; 1.17</title>
<path fill="none" stroke="black" stroke-width="0.09" d="M429.96,-429.92C486.62,-410.21 562.4,-383.55 629,-359.05 640.02,-355 651.87,-350.52 662.9,-346.3"/>
<polygon fill="black" stroke="black" stroke-width="0.09" points="664.26,-349.53 672.34,-342.67 661.75,-342.99 664.26,-349.53"/>
<text text-anchor="middle" x="578" y="-380.85" font-family="Times New Roman,serif" font-size="14.00">3</text>
</g>
<!-- unknown &#45; 2.44&#45;&gt;frontal &#45; 1.18 -->
<g id="edge23" class="edge">
<title>unknown &#45; 2.44&#45;&gt;frontal &#45; 1.18</title>
<path fill="none" stroke="black" stroke-width="0.17" d="M213.61,-246.47C205.43,-251.87 196.5,-258.32 189,-265.05 180.08,-273.07 171.28,-282.58 163.5,-291.74"/>
<polygon fill="black" stroke="black" stroke-width="0.17" points="160.63,-289.72 156.95,-299.65 166.02,-294.18 160.63,-289.72"/>
<text text-anchor="middle" x="193" y="-268.85" font-family="Times New Roman,serif" font-size="14.00">4</text>
</g>
<!-- unknown &#45; 2.44&#45;&gt;head&#45;down &#45; 1.38 -->
<g id="edge24" class="edge">
<title>unknown &#45; 2.44&#45;&gt;head&#45;down &#45; 1.38</title>
<path fill="none" stroke="black" stroke-width="0.17" d="M238,-214.26C238,-203.48 238,-188.47 238,-173.82"/>
<polygon fill="black" stroke="black" stroke-width="0.17" points="241.5,-173.78 238,-163.78 234.5,-173.78 241.5,-173.78"/>
<text text-anchor="middle" x="242" y="-185.33" font-family="Times New Roman,serif" font-size="14.00">4</text>
</g>
<!-- unknown &#45; 2.44&#45;&gt;lateral display &#45; 3.81 -->
<g id="edge25" class="edge">
<title>unknown &#45; 2.44&#45;&gt;lateral display &#45; 3.81</title>
<path fill="none" stroke="black" stroke-width="0.24" d="M242.11,-247.1C248.9,-271.45 263.57,-320.19 282,-359.05 289.06,-373.93 297.79,-389.37 306.45,-403.55"/>
<polygon fill="black" stroke="black" stroke-width="0.24" points="303.57,-405.55 311.82,-412.2 309.52,-401.86 303.57,-405.55"/>
<text text-anchor="middle" x="286" y="-324.85" font-family="Times New Roman,serif" font-size="14.00">5</text>
</g>
<!-- intoshell &#45; 81.04&#45;&gt;head&#45;down &#45; 1.38 -->
<g id="edge26" class="edge">
<title>intoshell &#45; 81.04&#45;&gt;head&#45;down &#45; 1.38</title>
<path fill="none" stroke="black" stroke-width="0.24" d="M745.13,-30.13C709.47,-40.74 656.74,-55.61 610,-65.53 515.5,-85.58 406.06,-101.49 330.47,-111.34"/>
<polygon fill="black" stroke="black" stroke-width="0.24" points="329.96,-107.88 320.49,-112.63 330.86,-114.82 329.96,-107.88"/>
<text text-anchor="middle" x="672" y="-54.33" font-family="Times New Roman,serif" font-size="14.00">5</text>
</g>
<!-- intoshell &#45; 81.04&#45;&gt;lateral display &#45; 3.81 -->
<g id="edge27" class="edge">
<title>intoshell &#45; 81.04&#45;&gt;lateral display &#45; 3.81</title>
<path fill="none" stroke="black" stroke-width="0.17" d="M823.6,-30.79C859.54,-46.72 909,-76.93 909,-122.53 909,-329.55 909,-329.55 909,-329.55 909,-420.44 627.83,-447.79 462.18,-456.02"/>
<polygon fill="black" stroke="black" stroke-width="0.17" points="461.76,-452.53 451.94,-456.51 462.09,-459.53 461.76,-452.53"/>
<text text-anchor="middle" x="913" y="-227.09" font-family="Times New Roman,serif" font-size="14.00">4</text>
</g>
<!-- lunging/shooting out &#45; 1.07&#45;&gt;lateral display &#45; 3.81 -->
<g id="edge28" class="edge">
<title>lunging/shooting out &#45; 1.07&#45;&gt;lateral display &#45; 3.81</title>
<path fill="none" stroke="black" stroke-width="0.24" d="M480.64,-344.87C467.5,-357.79 447.92,-376.59 430,-392.05 422.93,-398.15 415.4,-404.4 407.85,-410.52"/>
<polygon fill="black" stroke="black" stroke-width="0.24" points="405.27,-408.1 399.67,-417.09 409.66,-413.56 405.27,-408.1"/>
<text text-anchor="middle" x="450" y="-380.85" font-family="Times New Roman,serif" font-size="14.00">5</text>
</g>
<!-- tailbeat &#45; 1.17&#45;&gt;tailbeat &#45; 1.17 -->
<g id="edge29" class="edge">
<title>tailbeat &#45; 1.17&#45;&gt;tailbeat &#45; 1.17</title>
<path fill="none" stroke="black" stroke-width="0.37" d="M757.56,-339.04C776.08,-339.27 791.18,-335.77 791.18,-328.55 791.18,-322.74 781.4,-319.35 767.93,-318.36"/>
<polygon fill="black" stroke="black" stroke-width="0.37" points="767.66,-314.85 757.56,-318.06 767.46,-321.85 767.66,-314.85"/>
<text text-anchor="middle" x="795.18" y="-324.85" font-family="Times New Roman,serif" font-size="14.00">8</text>
</g>
</g>
</svg>
