<?xml version="1.0" encoding="UTF-8" standalone="no"?>
<!DOCTYPE svg PUBLIC "-//W3C//DTD SVG 1.1//EN"
 "http://www.w3.org/Graphics/SVG/1.1/DTD/svg11.dtd">
<!-- Generated by graphviz version 2.38.0 (20140413.2041)
 -->
<!-- Title: %3 Pages: 1 -->
<svg width="1038pt" height="361pt"
 viewBox="0.00 0.00 1038.35 361.00" xmlns="http://www.w3.org/2000/svg" xmlns:xlink="http://www.w3.org/1999/xlink">
<g id="graph0" class="graph" transform="scale(1 1) rotate(0) translate(4 357)">
<title>%3</title>
<polygon fill="white" stroke="none" points="-4,4 -4,-357 1034.35,-357 1034.35,4 -4,4"/>
<!-- fish&#45;left out of shell &#45; 0.0 -->
<g id="node1" class="node"><title>fish&#45;left out of shell &#45; 0.0</title>
<g id="a_node1"><a xlink:title="1234 &#013; 234 &#013; 234">
<ellipse fill="#ffffff" stroke="black" cx="112.43" cy="-323" rx="112.36" ry="16.0303"/>
<text text-anchor="middle" x="112.43" y="-319.3" font-family="Times New Roman,serif" font-size="14.00">fish&#45;left out of shell &#45; 0.0</text>
</a>
</g>
</g>
<!-- lateral display &#45; 573.77 -->
<g id="node2" class="node"><title>lateral display &#45; 573.77</title>
<g id="a_node2"><a xlink:title="1234 &#013; 234 &#013; 234">
<ellipse fill="#30ff75" stroke="black" cx="202.43" cy="-191.5" rx="87.5" ry="41"/>
<text text-anchor="middle" x="202.43" y="-187.8" font-family="Times New Roman,serif" font-size="14.00">lateral display &#45; 573.77</text>
</a>
</g>
</g>
<!-- fish&#45;left out of shell &#45; 0.0&#45;&gt;lateral display &#45; 573.77 -->
<g id="edge1" class="edge"><title>fish&#45;left out of shell &#45; 0.0&#45;&gt;lateral display &#45; 573.77</title>
<path fill="none" stroke="black" stroke-width="3" d="M123.108,-306.636C134.645,-290.035 153.594,-262.77 170.078,-239.051"/>
<polygon fill="black" stroke="black" stroke-width="3" points="172.957,-241.042 175.789,-230.833 167.208,-237.047 172.957,-241.042"/>
<text text-anchor="middle" x="164.93" y="-263.8" font-family="Times New Roman,serif" font-size="14.00">1.0</text>
</g>
<!-- fish&#45;right out of shell &#45; 0.0 -->
<g id="node3" class="node"><title>fish&#45;right out of shell &#45; 0.0</title>
<g id="a_node3"><a xlink:title="1234 &#013; 234 &#013; 234">
<ellipse fill="#ffffff" stroke="black" cx="507.43" cy="-323" rx="118.588" ry="16.0303"/>
<text text-anchor="middle" x="507.43" y="-319.3" font-family="Times New Roman,serif" font-size="14.00">fish&#45;right out of shell &#45; 0.0</text>
</a>
</g>
</g>
<!-- intoshell &#45; 2555.61 -->
<g id="node4" class="node"><title>intoshell &#45; 2555.61</title>
<g id="a_node4"><a xlink:title="1234 &#013; 234 &#013; 234">
<ellipse fill="#00ff55" stroke="black" cx="507.43" cy="-191.5" rx="108" ry="50.5"/>
<text text-anchor="middle" x="507.43" y="-187.8" font-family="Times New Roman,serif" font-size="14.00">intoshell &#45; 2555.61</text>
</a>
</g>
</g>
<!-- fish&#45;right out of shell &#45; 0.0&#45;&gt;intoshell &#45; 2555.61 -->
<g id="edge2" class="edge"><title>fish&#45;right out of shell &#45; 0.0&#45;&gt;intoshell &#45; 2555.61</title>
<path fill="none" stroke="black" stroke-width="3" d="M507.43,-306.636C507.43,-293.052 507.43,-272.329 507.43,-252.251"/>
<polygon fill="black" stroke="black" stroke-width="3" points="510.93,-252.167 507.43,-242.167 503.93,-252.167 510.93,-252.167"/>
<text text-anchor="middle" x="516.93" y="-263.8" font-family="Times New Roman,serif" font-size="14.00">1.0</text>
</g>
<!-- tailbeat &#45; 1131.03 -->
<g id="node6" class="node"><title>tailbeat &#45; 1131.03</title>
<g id="a_node6"><a xlink:title="1234 &#013; 234 &#013; 234">
<ellipse fill="#1aff66" stroke="black" cx="704.43" cy="-45" rx="97" ry="45"/>
<text text-anchor="middle" x="704.43" y="-41.3" font-family="Times New Roman,serif" font-size="14.00">tailbeat &#45; 1131.03</text>
</a>
</g>
</g>
<!-- intoshell &#45; 2555.61&#45;&gt;tailbeat &#45; 1131.03 -->
<g id="edge3" class="edge"><title>intoshell &#45; 2555.61&#45;&gt;tailbeat &#45; 1131.03</title>
<path fill="none" stroke="black" stroke-width="2.01" d="M564.675,-148.511C589.995,-129.938 619.754,-108.11 645.289,-89.3803"/>
<polygon fill="black" stroke="black" stroke-width="2.01" points="647.427,-92.1528 653.42,-83.4161 643.286,-86.5084 647.427,-92.1528"/>
<text text-anchor="middle" x="630.93" y="-111.8" font-family="Times New Roman,serif" font-size="14.00">0.67</text>
</g>
<!-- frontal &#45; 101.91 -->
<g id="node5" class="node"><title>frontal &#45; 101.91</title>
<g id="a_node5"><a xlink:title="1234 &#013; 234 &#013; 234">
<ellipse fill="#68ff9a" stroke="black" cx="306.43" cy="-323" rx="64" ry="30"/>
<text text-anchor="middle" x="306.43" y="-319.3" font-family="Times New Roman,serif" font-size="14.00">frontal &#45; 101.91</text>
</a>
</g>
</g>
<!-- frontal &#45; 101.91&#45;&gt;lateral display &#45; 573.77 -->
<g id="edge4" class="edge"><title>frontal &#45; 101.91&#45;&gt;lateral display &#45; 573.77</title>
<path fill="none" stroke="black" stroke-width="1.32" d="M284.374,-294.536C271.227,-278.165 254.205,-256.97 239.085,-238.143"/>
<polygon fill="black" stroke="black" stroke-width="1.32" points="241.729,-235.845 232.738,-230.24 236.271,-240.228 241.729,-235.845"/>
<text text-anchor="middle" x="280.93" y="-263.8" font-family="Times New Roman,serif" font-size="14.00">0.44</text>
</g>
<!-- tailbeat &#45; 1131.03&#45;&gt;tailbeat &#45; 1131.03 -->
<g id="edge5" class="edge"><title>tailbeat &#45; 1131.03&#45;&gt;tailbeat &#45; 1131.03</title>
<path fill="none" stroke="black" stroke-width="2.34" d="M798.283,-56.6438C810.978,-54.6918 819.43,-50.8105 819.43,-45 819.43,-40.9145 815.251,-37.7827 808.358,-35.6048"/>
<polygon fill="black" stroke="black" stroke-width="2.34" points="808.806,-32.1187 798.283,-33.3562 807.281,-38.9506 808.806,-32.1187"/>
<text text-anchor="middle" x="832.93" y="-41.3" font-family="Times New Roman,serif" font-size="14.00">0.78</text>
</g>
<!-- lunging/shooting out &#45; 30.84 -->
<g id="node7" class="node"><title>lunging/shooting out &#45; 30.84</title>
<g id="a_node7"><a xlink:title="1234 &#013; 234 &#013; 234">
<ellipse fill="#8effb4" stroke="black" cx="922.43" cy="-191.5" rx="107.836" ry="22"/>
<text text-anchor="middle" x="922.43" y="-187.8" font-family="Times New Roman,serif" font-size="14.00">lunging/shooting out &#45; 30.84</text>
</a>
</g>
</g>
<!-- lunging/shooting out &#45; 30.84&#45;&gt;tailbeat &#45; 1131.03 -->
<g id="edge7" class="edge"><title>lunging/shooting out &#45; 30.84&#45;&gt;tailbeat &#45; 1131.03</title>
<path fill="none" stroke="black" stroke-width="1.26" d="M891.658,-170.103C859.663,-148.895 808.661,-115.089 767.963,-88.1122"/>
<polygon fill="black" stroke="black" stroke-width="1.26" points="769.714,-85.074 759.445,-82.4664 765.846,-90.9087 769.714,-85.074"/>
<text text-anchor="middle" x="832.93" y="-111.8" font-family="Times New Roman,serif" font-size="14.00">0.42</text>
</g>
<!-- head&#45;down &#45; 184.72 -->
<g id="node8" class="node"><title>head&#45;down &#45; 184.72</title>
<g id="a_node8"><a xlink:title="1234 &#013; 234 &#013; 234">
<ellipse fill="#55ff8d" stroke="black" cx="936.43" cy="-45" rx="72" ry="33.5"/>
<text text-anchor="middle" x="936.43" y="-41.3" font-family="Times New Roman,serif" font-size="14.00">head&#45;down &#45; 184.72</text>
</a>
</g>
</g>
<!-- lunging/shooting out &#45; 30.84&#45;&gt;head&#45;down &#45; 184.72 -->
<g id="edge6" class="edge"><title>lunging/shooting out &#45; 30.84&#45;&gt;head&#45;down &#45; 184.72</title>
<path fill="none" stroke="black" stroke-width="1.26" d="M924.466,-169.488C926.508,-148.412 929.711,-115.351 932.289,-88.7398"/>
<polygon fill="black" stroke="black" stroke-width="1.26" points="935.798,-88.8174 933.279,-78.5264 928.831,-88.1423 935.798,-88.8174"/>
<text text-anchor="middle" x="942.93" y="-111.8" font-family="Times New Roman,serif" font-size="14.00">0.42</text>
</g>
<!-- unknown &#45; 14.12 -->
<g id="node9" class="node"><title>unknown &#45; 14.12</title>
<g id="a_node9"><a xlink:title="1234 &#013; 234 &#013; 234">
<ellipse fill="#a6ffc4" stroke="black" cx="711.43" cy="-191.5" rx="78.0479" ry="17.5"/>
<text text-anchor="middle" x="711.43" y="-187.8" font-family="Times New Roman,serif" font-size="14.00">unknown &#45; 14.12</text>
</a>
</g>
</g>
<!-- unknown &#45; 14.12&#45;&gt;tailbeat &#45; 1131.03 -->
<g id="edge8" class="edge"><title>unknown &#45; 14.12&#45;&gt;tailbeat &#45; 1131.03</title>
<path fill="none" stroke="black" stroke-width="2.01" d="M710.627,-173.924C709.758,-155.992 708.327,-126.451 707.059,-100.272"/>
<polygon fill="black" stroke="black" stroke-width="2.01" points="710.544,-99.8789 706.564,-90.06 703.552,-100.218 710.544,-99.8789"/>
<text text-anchor="middle" x="720.93" y="-111.8" font-family="Times New Roman,serif" font-size="14.00">0.67</text>
</g>
</g>
</svg>
