<?xml version="1.0" encoding="UTF-8" standalone="no"?>
<!DOCTYPE svg PUBLIC "-//W3C//DTD SVG 1.1//EN"
 "http://www.w3.org/Graphics/SVG/1.1/DTD/svg11.dtd">
<!-- Generated by graphviz version 2.38.0 (20140413.2041)
 -->
<!-- Title: %3 Pages: 1 -->
<svg width="1624pt" height="1155pt"
 viewBox="0.00 0.00 1623.51 1154.58" xmlns="http://www.w3.org/2000/svg" xmlns:xlink="http://www.w3.org/1999/xlink">
<g id="graph0" class="graph" transform="scale(1 1) rotate(0) translate(4 1150.58)">
<title>%3</title>
<polygon fill="white" stroke="none" points="-4,4 -4,-1150.58 1619.51,-1150.58 1619.51,4 -4,4"/>
<!-- bite -->
<g id="node1" class="node"><title>bite</title>
<g id="a_node1"><a xlink:title="what should &#013; be here">
<ellipse fill="#c3ffd7" stroke="black" cx="1179" cy="-1130.32" rx="31.5" ry="16.0303"/>
<text text-anchor="middle" x="1179" y="-1126.62" font-family="Times New Roman,serif" font-size="14.00">bite</text>
</a>
</g>
</g>
<!-- lateral display -->
<g id="node2" class="node"><title>lateral display</title>
<g id="a_node2"><a xlink:title="what should &#013; be here">
<ellipse fill="#00ff55" stroke="black" cx="1129" cy="-1012.55" rx="108" ry="50.5"/>
<text text-anchor="middle" x="1129" y="-1008.85" font-family="Times New Roman,serif" font-size="14.00">lateral display</text>
</a>
</g>
</g>
<!-- bite&#45;&gt;lateral display -->
<g id="edge1" class="edge"><title>bite&#45;&gt;lateral display</title>
<path fill="none" stroke="black" stroke-width="3" d="M1172.46,-1114.18C1167.68,-1103.12 1160.87,-1087.34 1154.05,-1071.55"/>
<polygon fill="black" stroke="black" stroke-width="3" points="1157.23,-1070.08 1150.05,-1062.29 1150.8,-1072.86 1157.23,-1070.08"/>
<text text-anchor="middle" x="1174.5" y="-1084.85" font-family="Times New Roman,serif" font-size="14.00">1.0</text>
</g>
<!-- lateral display&#45;&gt;bite -->
<g id="edge2" class="edge"><title>lateral display&#45;&gt;bite</title>
<path fill="none" stroke="black" stroke-width="0.03" d="M1120.5,-1063.06C1120.64,-1074.44 1122.61,-1086.1 1128,-1096.05 1132.04,-1103.5 1138.54,-1109.55 1145.58,-1114.34"/>
<polygon fill="black" stroke="black" stroke-width="0.03" points="1144.25,-1117.62 1154.63,-1119.75 1147.84,-1111.61 1144.25,-1117.62"/>
<text text-anchor="middle" x="1141.5" y="-1084.85" font-family="Times New Roman,serif" font-size="14.00">0.01</text>
</g>
<!-- lateral display&#45;&gt;lateral display -->
<g id="edge8" class="edge"><title>lateral display&#45;&gt;lateral display</title>
<path fill="none" stroke="black" stroke-width="0.69" d="M1233.76,-1024.88C1246.59,-1022.68 1255,-1018.57 1255,-1012.55 1255,-1008.33 1250.84,-1005.04 1243.91,-1002.69"/>
<polygon fill="black" stroke="black" stroke-width="0.69" points="1244.31,-999.187 1233.76,-1000.23 1242.65,-1005.99 1244.31,-999.187"/>
<text text-anchor="middle" x="1268.5" y="-1008.85" font-family="Times New Roman,serif" font-size="14.00">0.23</text>
</g>
<!-- chasing -->
<g id="node3" class="node"><title>chasing</title>
<g id="a_node3"><a xlink:title="what should &#013; be here">
<ellipse fill="#e3ffec" stroke="black" cx="1350" cy="-817.79" rx="42.3529" ry="16.0303"/>
<text text-anchor="middle" x="1350" y="-814.09" font-family="Times New Roman,serif" font-size="14.00">chasing</text>
</a>
</g>
</g>
<!-- lateral display&#45;&gt;chasing -->
<g id="edge3" class="edge"><title>lateral display&#45;&gt;chasing</title>
<path fill="none" stroke="black" stroke-width="0" d="M1227.12,-991.319C1255.96,-981.236 1285.5,-966.249 1307,-944.054 1333.41,-916.79 1343.64,-872.598 1347.58,-844.649"/>
<polygon fill="black" stroke="black" stroke-width="0" points="1351.08,-844.808 1348.83,-834.454 1344.13,-843.951 1351.08,-844.808"/>
<text text-anchor="middle" x="1328.5" y="-932.854" font-family="Times New Roman,serif" font-size="14.00">0.0</text>
</g>
<!-- frontal -->
<g id="node4" class="node"><title>frontal</title>
<g id="a_node4"><a xlink:title="what should &#013; be here">
<ellipse fill="#4dff88" stroke="black" cx="888" cy="-128.527" rx="96.5" ry="45"/>
<text text-anchor="middle" x="888" y="-124.827" font-family="Times New Roman,serif" font-size="14.00">frontal</text>
</a>
</g>
</g>
<!-- lateral display&#45;&gt;frontal -->
<g id="edge5" class="edge"><title>lateral display&#45;&gt;frontal</title>
<path fill="none" stroke="black" stroke-width="0.72" d="M1231.98,-996.894C1270.1,-987.157 1311.43,-970.966 1342,-944.054 1483.74,-819.29 1399,-711.857 1399,-523.027 1399,-523.027 1399,-523.027 1399,-271.527 1399,-227.869 1379.47,-213.93 1342,-191.527 1285.04,-157.473 1109.5,-141.473 994.125,-134.458"/>
<polygon fill="black" stroke="black" stroke-width="0.72" points="994.038,-130.947 983.848,-133.847 993.623,-137.934 994.038,-130.947"/>
<text text-anchor="middle" x="1415.5" y="-573.327" font-family="Times New Roman,serif" font-size="14.00">0.24</text>
</g>
<!-- head&#45;down -->
<g id="node6" class="node"><title>head&#45;down</title>
<g id="a_node6"><a xlink:title="what should &#013; be here">
<ellipse fill="#48ff85" stroke="black" cx="846" cy="-272.527" rx="103" ry="48"/>
<text text-anchor="middle" x="846" y="-268.827" font-family="Times New Roman,serif" font-size="14.00">head&#45;down</text>
</a>
</g>
</g>
<!-- lateral display&#45;&gt;head&#45;down -->
<g id="edge6" class="edge"><title>lateral display&#45;&gt;head&#45;down</title>
<path fill="none" stroke="black" stroke-width="0.87" d="M1202.82,-975.398C1214.04,-966.684 1224.14,-956.277 1231,-944.054 1280.16,-856.422 1246.52,-584.91 1207,-492.527 1172.33,-411.477 1155.79,-386.753 1082,-338.527 1075.82,-334.486 1006.71,-315.655 944.872,-299.295"/>
<polygon fill="black" stroke="black" stroke-width="0.87" points="945.583,-295.863 935.02,-296.693 943.795,-302.631 945.583,-295.863"/>
<text text-anchor="middle" x="1258.5" y="-622.827" font-family="Times New Roman,serif" font-size="14.00">0.29</text>
</g>
<!-- intoshell -->
<g id="node7" class="node"><title>intoshell</title>
<g id="a_node7"><a xlink:title="what should &#013; be here">
<ellipse fill="#54ff8d" stroke="black" cx="555" cy="-522.027" rx="63" ry="29.5"/>
<text text-anchor="middle" x="555" y="-518.327" font-family="Times New Roman,serif" font-size="14.00">intoshell</text>
</a>
</g>
</g>
<!-- lateral display&#45;&gt;intoshell -->
<g id="edge7" class="edge"><title>lateral display&#45;&gt;intoshell</title>
<path fill="none" stroke="black" stroke-width="0.15" d="M1021.29,-1007.91C773.857,-998.115 186,-966.052 186,-882.554 186,-882.554 186,-882.554 186,-675.027 186,-559.78 320.787,-624.173 429,-584.527 455.332,-574.88 483.482,-561.46 506.48,-549.618"/>
<polygon fill="black" stroke="black" stroke-width="0.15" points="508.098,-552.721 515.35,-544.997 504.865,-546.513 508.098,-552.721"/>
<text text-anchor="middle" x="199.5" y="-738.827" font-family="Times New Roman,serif" font-size="14.00">0.05</text>
</g>
<!-- lunging/shooting out -->
<g id="node8" class="node"><title>lunging/shooting out</title>
<g id="a_node8"><a xlink:title="what should &#013; be here">
<ellipse fill="#7affa6" stroke="black" cx="402" cy="-406.527" rx="75.5" ry="35"/>
<text text-anchor="middle" x="402" y="-402.827" font-family="Times New Roman,serif" font-size="14.00">lunging/shooting out</text>
</a>
</g>
</g>
<!-- lateral display&#45;&gt;lunging/shooting out -->
<g id="edge9" class="edge"><title>lateral display&#45;&gt;lunging/shooting out</title>
<path fill="none" stroke="black" stroke-width="0.15" d="M1021.27,-1007.31C822.194,-998.772 404.157,-977.452 263,-944.054 225.171,-935.103 210.624,-937.356 182,-911.054 45.0066,-785.173 27.4401,-607.127 174,-492.527 205.448,-467.936 224.456,-488.095 262,-474.527 275.277,-469.729 277.37,-465.835 290,-459.527 305.872,-451.599 323.186,-443.363 339.352,-435.846"/>
<polygon fill="black" stroke="black" stroke-width="0.15" points="341.113,-438.887 348.718,-431.511 338.173,-432.535 341.113,-438.887"/>
<text text-anchor="middle" x="86.5" y="-672.327" font-family="Times New Roman,serif" font-size="14.00">0.05</text>
</g>
<!-- sand spitting -->
<g id="node9" class="node"><title>sand spitting</title>
<g id="a_node9"><a xlink:title="what should &#013; be here">
<ellipse fill="#3bff7c" stroke="black" cx="513" cy="-742.527" rx="88" ry="41"/>
<text text-anchor="middle" x="513" y="-738.827" font-family="Times New Roman,serif" font-size="14.00">sand spitting</text>
</a>
</g>
</g>
<!-- lateral display&#45;&gt;sand spitting -->
<g id="edge10" class="edge"><title>lateral display&#45;&gt;sand spitting</title>
<path fill="none" stroke="black" stroke-width="0.18" d="M1021.77,-1006.01C878.025,-996.334 633.544,-971.313 570,-911.054 537.805,-880.523 523.795,-831.123 517.698,-793.86"/>
<polygon fill="black" stroke="black" stroke-width="0.18" points="521.119,-793.07 516.179,-783.697 514.195,-794.105 521.119,-793.07"/>
<text text-anchor="middle" x="583.5" y="-877.854" font-family="Times New Roman,serif" font-size="14.00">0.06</text>
</g>
<!-- tailbeat -->
<g id="node12" class="node"><title>tailbeat</title>
<g id="a_node12"><a xlink:title="what should &#013; be here">
<ellipse fill="#96ffb9" stroke="black" cx="941" cy="-626.527" rx="51.5" ry="24"/>
<text text-anchor="middle" x="941" y="-622.827" font-family="Times New Roman,serif" font-size="14.00">tailbeat</text>
</a>
</g>
</g>
<!-- lateral display&#45;&gt;tailbeat -->
<g id="edge11" class="edge"><title>lateral display&#45;&gt;tailbeat</title>
<path fill="none" stroke="black" stroke-width="0.06" d="M1126.79,-961.891C1121.58,-896.308 1104.14,-779.978 1046,-701.527 1029.97,-679.892 1005.7,-662.203 984.529,-649.551"/>
<polygon fill="black" stroke="black" stroke-width="0.06" points="986.09,-646.411 975.68,-644.44 982.589,-652.472 986.09,-646.411"/>
<text text-anchor="middle" x="1118.5" y="-814.09" font-family="Times New Roman,serif" font-size="14.00">0.02</text>
</g>
<!-- flee -->
<g id="node13" class="node"><title>flee</title>
<g id="a_node13"><a xlink:title="what should &#013; be here">
<ellipse fill="#daffe6" stroke="black" cx="888" cy="-16.2635" rx="26.3269" ry="16.0303"/>
<text text-anchor="middle" x="888" y="-12.5635" font-family="Times New Roman,serif" font-size="14.00">flee</text>
</a>
</g>
</g>
<!-- lateral display&#45;&gt;flee -->
<g id="edge4" class="edge"><title>lateral display&#45;&gt;flee</title>
<path fill="none" stroke="black" stroke-width="0" d="M1021,-1010.41C738.613,-1005.99 0,-984.678 0,-882.554 0,-882.554 0,-882.554 0,-127.527 0,-40.2144 684.825,-21.2189 851.676,-17.8866"/>
<polygon fill="black" stroke="black" stroke-width="0" points="851.974,-21.3816 861.905,-17.6892 851.839,-14.3829 851.974,-21.3816"/>
<text text-anchor="middle" x="9.5" y="-518.327" font-family="Times New Roman,serif" font-size="14.00">0.0</text>
</g>
<!-- unknown -->
<g id="node14" class="node"><title>unknown</title>
<g id="a_node14"><a xlink:title="what should &#013; be here">
<ellipse fill="#67ff9a" stroke="black" cx="669" cy="-881.554" rx="63" ry="29.5"/>
<text text-anchor="middle" x="669" y="-877.854" font-family="Times New Roman,serif" font-size="14.00">unknown</text>
</a>
</g>
</g>
<!-- lateral display&#45;&gt;unknown -->
<g id="edge12" class="edge"><title>lateral display&#45;&gt;unknown</title>
<path fill="none" stroke="black" stroke-width="0.12" d="M1022.92,-1002.99C948.407,-994.347 847.528,-977.29 764,-944.054 744.568,-936.322 724.871,-924.387 708.489,-913.081"/>
<polygon fill="black" stroke="black" stroke-width="0.12" points="710.43,-910.167 700.244,-907.252 706.389,-915.883 710.43,-910.167"/>
<text text-anchor="middle" x="777.5" y="-932.854" font-family="Times New Roman,serif" font-size="14.00">0.04</text>
</g>
<!-- chasing&#45;&gt;frontal -->
<g id="edge13" class="edge"><title>chasing&#45;&gt;frontal</title>
<path fill="none" stroke="black" stroke-width="3" d="M1350.37,-801.28C1350.94,-775.491 1352,-722.163 1352,-677.027 1352,-677.027 1352,-677.027 1352,-271.527 1352,-233.232 1350.1,-215.2 1320,-191.527 1270.91,-152.92 1105.9,-138.325 994.623,-132.827"/>
<polygon fill="black" stroke="black" stroke-width="3" points="994.519,-129.318 984.364,-132.338 994.186,-136.31 994.519,-129.318"/>
<text text-anchor="middle" x="1361.5" y="-518.327" font-family="Times New Roman,serif" font-size="14.00">1.0</text>
</g>
<!-- frontal&#45;&gt;bite -->
<g id="edge14" class="edge"><title>frontal&#45;&gt;bite</title>
<path fill="none" stroke="black" stroke-width="0.03" d="M983.304,-136.177C1102.77,-145.488 1300.13,-164.371 1368,-191.527 1391.03,-200.74 1399.32,-203.842 1413,-224.527 1464,-301.614 1492,-490.038 1492,-576.027 1492,-1013.55 1492,-1013.55 1492,-1013.55 1492,-1071.19 1302.96,-1109.16 1218.7,-1123.22"/>
<polygon fill="black" stroke="black" stroke-width="0.03" points="1218.03,-1119.78 1208.73,-1124.85 1219.16,-1126.69 1218.03,-1119.78"/>
<text text-anchor="middle" x="1505.5" y="-622.827" font-family="Times New Roman,serif" font-size="14.00">0.01</text>
</g>
<!-- frontal&#45;&gt;lateral display -->
<g id="edge19" class="edge"><title>frontal&#45;&gt;lateral display</title>
<path fill="none" stroke="black" stroke-width="2.04" d="M980.249,-141.963C1103.35,-161.191 1306,-203.219 1306,-271.527 1306,-468.027 1306,-468.027 1306,-468.027 1306,-665.853 1311.75,-719.328 1263,-911.054 1259.07,-926.494 1259.62,-932.18 1249,-944.054 1239.48,-954.693 1227.88,-964.041 1215.67,-972.122"/>
<polygon fill="black" stroke="black" stroke-width="2.04" points="1213.73,-969.211 1207.15,-977.515 1217.47,-975.127 1213.73,-969.211"/>
<text text-anchor="middle" x="1320.5" y="-573.327" font-family="Times New Roman,serif" font-size="14.00">0.68</text>
</g>
<!-- frontal&#45;&gt;frontal -->
<g id="edge16" class="edge"><title>frontal&#45;&gt;frontal</title>
<path fill="none" stroke="black" stroke-width="0.21" d="M981.445,-140.171C994.085,-138.219 1002.5,-134.337 1002.5,-128.527 1002.5,-124.441 998.34,-121.31 991.476,-119.132"/>
<polygon fill="black" stroke="black" stroke-width="0.21" points="991.969,-115.655 981.445,-116.883 990.437,-122.486 991.969,-115.655"/>
<text text-anchor="middle" x="1016" y="-124.827" font-family="Times New Roman,serif" font-size="14.00">0.07</text>
</g>
<!-- frontal&#45;&gt;head&#45;down -->
<g id="edge17" class="edge"><title>frontal&#45;&gt;head&#45;down</title>
<path fill="none" stroke="black" stroke-width="0.42" d="M875.588,-173.548C872.498,-184.346 869.163,-195.864 866,-206.527 865.181,-209.286 864.337,-212.109 863.48,-214.959"/>
<polygon fill="black" stroke="black" stroke-width="0.42" points="860.08,-214.111 860.533,-224.696 866.78,-216.139 860.08,-214.111"/>
<text text-anchor="middle" x="884.5" y="-195.327" font-family="Times New Roman,serif" font-size="14.00">0.14</text>
</g>
<!-- frontal&#45;&gt;intoshell -->
<g id="edge18" class="edge"><title>frontal&#45;&gt;intoshell</title>
<path fill="none" stroke="black" stroke-width="0.06" d="M816.758,-158.886C746.954,-191.688 643.743,-251.826 592,-338.527 560.505,-391.3 580.242,-414.513 567,-474.527 566.414,-477.183 565.782,-479.917 565.126,-482.667"/>
<polygon fill="black" stroke="black" stroke-width="0.06" points="561.679,-482.03 562.682,-492.577 568.475,-483.707 561.679,-482.03"/>
<text text-anchor="middle" x="605.5" y="-342.327" font-family="Times New Roman,serif" font-size="14.00">0.02</text>
</g>
<!-- frontal&#45;&gt;lunging/shooting out -->
<g id="edge20" class="edge"><title>frontal&#45;&gt;lunging/shooting out</title>
<path fill="none" stroke="black" stroke-width="0.06" d="M793.8,-138.392C703.449,-148.22 574.527,-166.111 531,-191.527 467.432,-228.646 431.458,-310.58 414.426,-361.609"/>
<polygon fill="black" stroke="black" stroke-width="0.06" points="411.013,-360.789 411.269,-371.381 417.674,-362.941 411.013,-360.789"/>
<text text-anchor="middle" x="504.5" y="-268.827" font-family="Times New Roman,serif" font-size="14.00">0.02</text>
</g>
<!-- frontal&#45;&gt;sand spitting -->
<g id="edge21" class="edge"><title>frontal&#45;&gt;sand spitting</title>
<path fill="none" stroke="black" stroke-width="0.06" d="M791.5,-130.648C609.579,-135.389 234,-158.825 234,-271.527 234,-468.027 234,-468.027 234,-468.027 234,-583.746 357.91,-666.697 440.576,-709.16"/>
<polygon fill="black" stroke="black" stroke-width="0.06" points="439.187,-712.38 449.691,-713.765 442.343,-706.132 439.187,-712.38"/>
<text text-anchor="middle" x="248.5" y="-463.327" font-family="Times New Roman,serif" font-size="14.00">0.02</text>
</g>
<!-- frontal&#45;&gt;flee -->
<g id="edge15" class="edge"><title>frontal&#45;&gt;flee</title>
<path fill="none" stroke="black" stroke-width="0.03" d="M888,-83.3139C888,-69.5523 888,-54.8452 888,-42.8105"/>
<polygon fill="black" stroke="black" stroke-width="0.03" points="891.5,-42.6132 888,-32.6132 884.5,-42.6133 891.5,-42.6132"/>
<text text-anchor="middle" x="901.5" y="-54.3269" font-family="Times New Roman,serif" font-size="14.00">0.01</text>
</g>
<!-- frontal&#45;&gt;unknown -->
<g id="edge22" class="edge"><title>frontal&#45;&gt;unknown</title>
<path fill="none" stroke="black" stroke-width="0.06" d="M982.603,-137.488C1056.04,-145.861 1149.25,-162.055 1173,-191.527 1218.27,-247.707 1133.04,-786.243 1079,-834.054 1054.29,-855.919 852.769,-870.398 741.747,-876.796"/>
<polygon fill="black" stroke="black" stroke-width="0.06" points="741.407,-873.309 731.622,-877.371 741.804,-880.298 741.407,-873.309"/>
<text text-anchor="middle" x="1180.5" y="-518.327" font-family="Times New Roman,serif" font-size="14.00">0.02</text>
</g>
<!-- driving -->
<g id="node5" class="node"><title>driving</title>
<g id="a_node5"><a xlink:title="what should &#013; be here">
<ellipse fill="#adffc8" stroke="black" cx="596" cy="-626.527" rx="41.2762" ry="16.5"/>
<text text-anchor="middle" x="596" y="-622.827" font-family="Times New Roman,serif" font-size="14.00">driving</text>
</a>
</g>
</g>
<!-- driving&#45;&gt;head&#45;down -->
<g id="edge23" class="edge"><title>driving&#45;&gt;head&#45;down</title>
<path fill="none" stroke="black" stroke-width="0.51" d="M602.178,-609.888C613.073,-583.625 637.644,-529.872 670,-492.527 694.506,-464.243 714.747,-471.615 737,-441.527 766.014,-402.297 747.794,-379.032 775,-338.527 778.819,-332.841 783.235,-327.31 787.959,-322.03"/>
<polygon fill="black" stroke="black" stroke-width="0.51" points="790.758,-324.163 795.066,-314.484 785.662,-319.363 790.758,-324.163"/>
<text text-anchor="middle" x="733.5" y="-463.327" font-family="Times New Roman,serif" font-size="14.00">0.17</text>
</g>
<!-- driving&#45;&gt;intoshell -->
<g id="edge24" class="edge"><title>driving&#45;&gt;intoshell</title>
<path fill="none" stroke="black" stroke-width="0.51" d="M589.773,-609.959C584.567,-596.945 576.923,-577.835 570.127,-560.844"/>
<polygon fill="black" stroke="black" stroke-width="0.51" points="573.212,-559.133 566.248,-551.148 566.713,-561.732 573.212,-559.133"/>
<text text-anchor="middle" x="593.5" y="-573.327" font-family="Times New Roman,serif" font-size="14.00">0.17</text>
</g>
<!-- driving&#45;&gt;lunging/shooting out -->
<g id="edge25" class="edge"><title>driving&#45;&gt;lunging/shooting out</title>
<path fill="none" stroke="black" stroke-width="0.51" d="M571.583,-613.19C532.602,-593.414 460.234,-556.338 456,-551.527 442.537,-536.229 425.93,-487.975 414.715,-451.507"/>
<polygon fill="black" stroke="black" stroke-width="0.51" points="417.953,-450.124 411.702,-441.57 411.254,-452.156 417.953,-450.124"/>
<text text-anchor="middle" x="469.5" y="-518.327" font-family="Times New Roman,serif" font-size="14.00">0.17</text>
</g>
<!-- driving&#45;&gt;sand spitting -->
<g id="edge26" class="edge"><title>driving&#45;&gt;sand spitting</title>
<path fill="none" stroke="black" stroke-width="1.5" d="M591.524,-643.112C587.711,-654.849 581.496,-671.002 573,-683.527 569.477,-688.72 565.429,-693.816 561.134,-698.699"/>
<polygon fill="black" stroke="black" stroke-width="1.5" points="558.437,-696.461 554.222,-706.181 563.579,-701.211 558.437,-696.461"/>
<text text-anchor="middle" x="591.5" y="-672.327" font-family="Times New Roman,serif" font-size="14.00">0.5</text>
</g>
<!-- head&#45;down&#45;&gt;lateral display -->
<g id="edge30" class="edge"><title>head&#45;down&#45;&gt;lateral display</title>
<path fill="none" stroke="black" stroke-width="0.87" d="M929.566,-300.736C972.558,-317.163 1024.33,-340.888 1065,-371.527 1097.5,-396.008 1095.92,-412.083 1124,-441.527 1147.01,-465.651 1165.66,-461.974 1179,-492.527 1209.36,-562.092 1180.82,-758.458 1174,-834.054 1169.55,-883.393 1169.28,-896.327 1156,-944.054 1155.14,-947.155 1154.18,-950.307 1153.15,-953.471"/>
<polygon fill="black" stroke="black" stroke-width="0.87" points="1149.83,-952.359 1149.89,-962.953 1156.45,-954.634 1149.83,-952.359"/>
<text text-anchor="middle" x="1206.5" y="-622.827" font-family="Times New Roman,serif" font-size="14.00">0.29</text>
</g>
<!-- head&#45;down&#45;&gt;frontal -->
<g id="edge27" class="edge"><title>head&#45;down&#45;&gt;frontal</title>
<path fill="none" stroke="black" stroke-width="0.6" d="M838.811,-224.237C838.623,-213.293 839.652,-201.838 843,-191.527 844.317,-187.471 846.01,-183.458 847.964,-179.542"/>
<polygon fill="black" stroke="black" stroke-width="0.6" points="851.134,-181.042 852.943,-170.603 845.019,-177.636 851.134,-181.042"/>
<text text-anchor="middle" x="852.5" y="-195.327" font-family="Times New Roman,serif" font-size="14.00">0.2</text>
</g>
<!-- head&#45;down&#45;&gt;head&#45;down -->
<g id="edge28" class="edge"><title>head&#45;down&#45;&gt;head&#45;down</title>
<path fill="none" stroke="black" stroke-width="0.87" d="M946.147,-284.283C958.724,-282.211 967,-278.293 967,-272.527 967,-268.473 962.908,-265.332 956.107,-263.104"/>
<polygon fill="black" stroke="black" stroke-width="0.87" points="956.682,-259.644 946.147,-260.77 955.085,-266.46 956.682,-259.644"/>
<text text-anchor="middle" x="980.5" y="-268.827" font-family="Times New Roman,serif" font-size="14.00">0.29</text>
</g>
<!-- head&#45;down&#45;&gt;intoshell -->
<g id="edge29" class="edge"><title>head&#45;down&#45;&gt;intoshell</title>
<path fill="none" stroke="black" stroke-width="0.06" d="M768.939,-304.629C746.565,-314.572 722.404,-326.219 701,-338.527 679.188,-351.07 670.904,-352.03 655,-371.527 623.309,-410.376 638.939,-434.312 609,-474.527 604.979,-479.928 600.228,-485.134 595.238,-489.983"/>
<polygon fill="black" stroke="black" stroke-width="0.06" points="592.802,-487.469 587.813,-496.816 597.542,-492.619 592.802,-487.469"/>
<text text-anchor="middle" x="668.5" y="-402.827" font-family="Times New Roman,serif" font-size="14.00">0.02</text>
</g>
<!-- head&#45;down&#45;&gt;lunging/shooting out -->
<g id="edge31" class="edge"><title>head&#45;down&#45;&gt;lunging/shooting out</title>
<path fill="none" stroke="black" stroke-width="0.24" d="M756.931,-296.976C721.584,-307.685 681.078,-321.752 646,-338.527 634.99,-343.792 634.219,-348.724 623,-353.527 578.72,-372.483 526.355,-385.191 483.715,-393.296"/>
<polygon fill="black" stroke="black" stroke-width="0.24" points="482.852,-389.896 473.656,-395.158 484.126,-396.779 482.852,-389.896"/>
<text text-anchor="middle" x="659.5" y="-342.327" font-family="Times New Roman,serif" font-size="14.00">0.08</text>
</g>
<!-- head&#45;down&#45;&gt;sand spitting -->
<g id="edge32" class="edge"><title>head&#45;down&#45;&gt;sand spitting</title>
<path fill="none" stroke="black" stroke-width="0.3" d="M846.427,-320.531C844.567,-364.272 835.8,-429.326 803,-474.527 793.643,-487.422 780.467,-479.031 772,-492.527 750.206,-527.263 783.339,-547.849 765,-584.527 735.14,-644.248 708.664,-648.208 652,-683.527 633.609,-694.99 612.559,-705.109 592.497,-713.554"/>
<polygon fill="black" stroke="black" stroke-width="0.3" points="590.971,-710.397 583.055,-717.439 593.634,-716.871 590.971,-710.397"/>
<text text-anchor="middle" x="782.5" y="-518.327" font-family="Times New Roman,serif" font-size="14.00">0.1</text>
</g>
<!-- head&#45;down&#45;&gt;tailbeat -->
<g id="edge33" class="edge"><title>head&#45;down&#45;&gt;tailbeat</title>
<path fill="none" stroke="black" stroke-width="0.03" d="M899.356,-313.661C906.332,-321.174 912.58,-329.526 917,-338.527 927.953,-360.832 936.367,-521.562 939.581,-592.28"/>
<polygon fill="black" stroke="black" stroke-width="0.03" points="936.092,-592.595 940.035,-602.429 943.085,-592.283 936.092,-592.595"/>
<text text-anchor="middle" x="947.5" y="-463.327" font-family="Times New Roman,serif" font-size="14.00">0.01</text>
</g>
<!-- head&#45;down&#45;&gt;unknown -->
<g id="edge34" class="edge"><title>head&#45;down&#45;&gt;unknown</title>
<path fill="none" stroke="black" stroke-width="0.06" d="M872.397,-319.017C875.11,-325.395 877.439,-332.004 879,-338.527 901.032,-430.594 895.025,-458.226 879,-551.527 878.295,-555.629 781.854,-831.024 779,-834.054 766.76,-847.048 750.31,-856.562 733.866,-863.466"/>
<polygon fill="black" stroke="black" stroke-width="0.06" points="732.258,-860.337 724.218,-867.237 734.806,-866.857 732.258,-860.337"/>
<text text-anchor="middle" x="887.5" y="-573.327" font-family="Times New Roman,serif" font-size="14.00">0.02</text>
</g>
<!-- intoshell&#45;&gt;lateral display -->
<g id="edge37" class="edge"><title>intoshell&#45;&gt;lateral display</title>
<path fill="none" stroke="black" stroke-width="0.6" d="M599.926,-542.945C614.094,-550.271 629.339,-559.309 642,-569.527 656.968,-581.607 657.764,-587.686 670,-602.527 735.572,-682.055 740.411,-712.387 815,-783.527 890.353,-855.396 989.175,-923.602 1055.66,-966.371"/>
<polygon fill="black" stroke="black" stroke-width="0.6" points="1054.11,-969.532 1064.41,-971.976 1057.88,-963.637 1054.11,-969.532"/>
<text text-anchor="middle" x="824.5" y="-738.827" font-family="Times New Roman,serif" font-size="14.00">0.2</text>
</g>
<!-- intoshell&#45;&gt;frontal -->
<g id="edge35" class="edge"><title>intoshell&#45;&gt;frontal</title>
<path fill="none" stroke="black" stroke-width="0.72" d="M549.312,-492.637C539.208,-433.04 525.703,-294.632 601,-224.527 651.033,-177.944 724.447,-154.171 784.499,-142.055"/>
<polygon fill="black" stroke="black" stroke-width="0.72" points="785.246,-145.475 794.398,-140.138 783.915,-138.603 785.246,-145.475"/>
<text text-anchor="middle" x="559.5" y="-342.327" font-family="Times New Roman,serif" font-size="14.00">0.24</text>
</g>
<!-- intoshell&#45;&gt;head&#45;down -->
<g id="edge36" class="edge"><title>intoshell&#45;&gt;head&#45;down</title>
<path fill="none" stroke="black" stroke-width="0.6" d="M599.17,-500.934C625.726,-487.154 658.765,-466.808 682,-441.527 717.117,-403.318 700.586,-375.502 737,-338.527 746.055,-329.332 756.672,-320.943 767.663,-313.471"/>
<polygon fill="black" stroke="black" stroke-width="0.6" points="769.668,-316.341 776.12,-307.938 765.836,-310.483 769.668,-316.341"/>
<text text-anchor="middle" x="724.5" y="-402.827" font-family="Times New Roman,serif" font-size="14.00">0.2</text>
</g>
<!-- intoshell&#45;&gt;lunging/shooting out -->
<g id="edge38" class="edge"><title>intoshell&#45;&gt;lunging/shooting out</title>
<path fill="none" stroke="black" stroke-width="0.48" d="M508.52,-502.02C492.985,-494.592 476.061,-485.262 462,-474.527 451.815,-466.751 441.995,-457.076 433.351,-447.518"/>
<polygon fill="black" stroke="black" stroke-width="0.48" points="435.911,-445.129 426.688,-439.916 430.648,-449.743 435.911,-445.129"/>
<text text-anchor="middle" x="475.5" y="-463.327" font-family="Times New Roman,serif" font-size="14.00">0.16</text>
</g>
<!-- intoshell&#45;&gt;sand spitting -->
<g id="edge39" class="edge"><title>intoshell&#45;&gt;sand spitting</title>
<path fill="none" stroke="black" stroke-width="0.48" d="M539.261,-550.791C531.666,-565.649 523.289,-584.547 519,-602.527 512.122,-631.358 510.46,-664.487 510.593,-691.169"/>
<polygon fill="black" stroke="black" stroke-width="0.48" points="507.096,-691.477 510.732,-701.429 514.096,-691.382 507.096,-691.477"/>
<text text-anchor="middle" x="532.5" y="-622.827" font-family="Times New Roman,serif" font-size="14.00">0.16</text>
</g>
<!-- intoshell&#45;&gt;unknown -->
<g id="edge40" class="edge"><title>intoshell&#45;&gt;unknown</title>
<path fill="none" stroke="black" stroke-width="0.12" d="M592.47,-545.963C611.759,-559.847 633.743,-579.345 646,-602.527 686.729,-679.556 681.572,-785.628 674.908,-841.88"/>
<polygon fill="black" stroke="black" stroke-width="0.12" points="671.396,-841.754 673.612,-852.115 678.34,-842.633 671.396,-841.754"/>
<text text-anchor="middle" x="686.5" y="-672.327" font-family="Times New Roman,serif" font-size="14.00">0.04</text>
</g>
<!-- lunging/shooting out&#45;&gt;lateral display -->
<g id="edge44" class="edge"><title>lunging/shooting out&#45;&gt;lateral display</title>
<path fill="none" stroke="black" stroke-width="0.9" d="M328.874,-415.908C224.953,-429.888 47,-462.388 47,-521.027 47,-882.554 47,-882.554 47,-882.554 47,-978.733 729.789,-1003.51 1010.58,-1009.63"/>
<polygon fill="black" stroke="black" stroke-width="0.9" points="1010.73,-1013.14 1020.8,-1009.85 1010.88,-1006.14 1010.73,-1013.14"/>
<text text-anchor="middle" x="56.5" y="-672.327" font-family="Times New Roman,serif" font-size="14.00">0.3</text>
</g>
<!-- lunging/shooting out&#45;&gt;frontal -->
<g id="edge41" class="edge"><title>lunging/shooting out&#45;&gt;frontal</title>
<path fill="none" stroke="black" stroke-width="0.45" d="M390.556,-371.842C379.474,-332.48 368.519,-267.3 400,-224.527 444.273,-164.375 651.709,-142.136 781.469,-134.039"/>
<polygon fill="black" stroke="black" stroke-width="0.45" points="782.066,-137.51 791.836,-133.412 781.643,-130.522 782.066,-137.51"/>
<text text-anchor="middle" x="413.5" y="-268.827" font-family="Times New Roman,serif" font-size="14.00">0.15</text>
</g>
<!-- lunging/shooting out&#45;&gt;head&#45;down -->
<g id="edge42" class="edge"><title>lunging/shooting out&#45;&gt;head&#45;down</title>
<path fill="none" stroke="black" stroke-width="0.84" d="M441.739,-376.615C465.947,-359.102 492.829,-339.873 496,-338.527 571.777,-306.361 663.451,-290.071 733.966,-281.843"/>
<polygon fill="black" stroke="black" stroke-width="0.84" points="734.667,-285.287 744.212,-280.687 733.882,-278.331 734.667,-285.287"/>
<text text-anchor="middle" x="509.5" y="-342.327" font-family="Times New Roman,serif" font-size="14.00">0.28</text>
</g>
<!-- lunging/shooting out&#45;&gt;intoshell -->
<g id="edge43" class="edge"><title>lunging/shooting out&#45;&gt;intoshell</title>
<path fill="none" stroke="black" stroke-width="0.12" d="M450.137,-433.838C463.114,-441.585 476.902,-450.436 489,-459.527 500.275,-467.999 511.783,-478.12 521.967,-487.682"/>
<polygon fill="black" stroke="black" stroke-width="0.12" points="519.821,-490.473 529.47,-494.849 524.656,-485.411 519.821,-490.473"/>
<text text-anchor="middle" x="520.5" y="-463.327" font-family="Times New Roman,serif" font-size="14.00">0.04</text>
</g>
<!-- lunging/shooting out&#45;&gt;lunging/shooting out -->
<g id="edge45" class="edge"><title>lunging/shooting out&#45;&gt;lunging/shooting out</title>
<path fill="none" stroke="black" stroke-width="0.39" d="M474.134,-417.074C486.734,-415.668 495.5,-412.152 495.5,-406.527 495.5,-402.572 491.166,-399.66 484.213,-397.79"/>
<polygon fill="black" stroke="black" stroke-width="0.39" points="484.595,-394.303 474.134,-395.98 483.358,-401.193 484.595,-394.303"/>
<text text-anchor="middle" x="509" y="-402.827" font-family="Times New Roman,serif" font-size="14.00">0.13</text>
</g>
<!-- lunging/shooting out&#45;&gt;sand spitting -->
<g id="edge46" class="edge"><title>lunging/shooting out&#45;&gt;sand spitting</title>
<path fill="none" stroke="black" stroke-width="0.18" d="M405.347,-441.719C408.729,-471.177 414.92,-514.651 425,-551.527 441.626,-612.35 448.703,-627.178 477,-683.527 478.774,-687.06 480.697,-690.657 482.7,-694.242"/>
<polygon fill="black" stroke="black" stroke-width="0.18" points="479.774,-696.172 487.805,-703.082 485.836,-692.672 479.774,-696.172"/>
<text text-anchor="middle" x="448.5" y="-573.327" font-family="Times New Roman,serif" font-size="14.00">0.06</text>
</g>
<!-- lunging/shooting out&#45;&gt;tailbeat -->
<g id="edge47" class="edge"><title>lunging/shooting out&#45;&gt;tailbeat</title>
<path fill="none" stroke="black" stroke-width="0.06" d="M473.131,-418.689C516.434,-425.43 572.885,-434.121 623,-441.527 679.396,-449.861 699.258,-433.541 750,-459.527 818.546,-494.631 809.386,-537.021 870,-584.527 878.663,-591.317 888.571,-597.745 898.181,-603.412"/>
<polygon fill="black" stroke="black" stroke-width="0.06" points="896.461,-606.46 906.878,-608.39 899.938,-600.385 896.461,-606.46"/>
<text text-anchor="middle" x="849.5" y="-518.327" font-family="Times New Roman,serif" font-size="14.00">0.02</text>
</g>
<!-- lunging/shooting out&#45;&gt;unknown -->
<g id="edge48" class="edge"><title>lunging/shooting out&#45;&gt;unknown</title>
<path fill="none" stroke="black" stroke-width="0.06" d="M354.616,-433.978C341.51,-441.793 327.468,-450.644 315,-459.527 234.589,-516.816 186.671,-513.02 145,-602.527 110.861,-675.856 107.196,-725.943 164,-783.527 233.031,-853.507 506.428,-825.247 601,-852.054 605.68,-853.38 610.469,-854.941 615.231,-856.637"/>
<polygon fill="black" stroke="black" stroke-width="0.06" points="614.333,-860.039 624.926,-860.277 616.794,-853.485 614.333,-860.039"/>
<text text-anchor="middle" x="158.5" y="-622.827" font-family="Times New Roman,serif" font-size="14.00">0.02</text>
</g>
<!-- sand spitting&#45;&gt;lateral display -->
<g id="edge53" class="edge"><title>sand spitting&#45;&gt;lateral display</title>
<path fill="none" stroke="black" stroke-width="0.06" d="M497.67,-783.207C486.329,-819.769 476.908,-873.837 503,-911.054 559.786,-992.051 845.414,-1008.85 1010.55,-1011.68"/>
<polygon fill="black" stroke="black" stroke-width="0.06" points="1010.71,-1015.18 1020.76,-1011.83 1010.82,-1008.18 1010.71,-1015.18"/>
<text text-anchor="middle" x="516.5" y="-877.854" font-family="Times New Roman,serif" font-size="14.00">0.02</text>
</g>
<!-- sand spitting&#45;&gt;frontal -->
<g id="edge50" class="edge"><title>sand spitting&#45;&gt;frontal</title>
<path fill="none" stroke="black" stroke-width="0.3" d="M435.025,-723.231C389.037,-709.336 332.008,-686.368 291,-650.527 146.475,-524.212 115.982,-385.844 220,-224.527 237.772,-196.964 254.51,-200.689 286,-191.527 454.407,-142.528 659.159,-131.069 781.249,-129.026"/>
<polygon fill="black" stroke="black" stroke-width="0.3" points="781.4,-132.524 791.347,-128.875 781.296,-125.525 781.4,-132.524"/>
<text text-anchor="middle" x="177.5" y="-463.327" font-family="Times New Roman,serif" font-size="14.00">0.1</text>
</g>
<!-- sand spitting&#45;&gt;driving -->
<g id="edge49" class="edge"><title>sand spitting&#45;&gt;driving</title>
<path fill="none" stroke="black" stroke-width="0.21" d="M524.401,-701.577C528.786,-690.223 534.575,-678.299 542,-668.527 548.409,-660.092 556.986,-652.52 565.415,-646.247"/>
<polygon fill="black" stroke="black" stroke-width="0.21" points="567.535,-649.035 573.708,-640.424 563.512,-643.306 567.535,-649.035"/>
<text text-anchor="middle" x="555.5" y="-672.327" font-family="Times New Roman,serif" font-size="14.00">0.07</text>
</g>
<!-- sand spitting&#45;&gt;head&#45;down -->
<g id="edge51" class="edge"><title>sand spitting&#45;&gt;head&#45;down</title>
<path fill="none" stroke="black" stroke-width="0.66" d="M570.718,-711.503C596.311,-695.984 625.257,-675.122 646,-650.527 697.821,-589.082 686.482,-557.357 734,-492.527 740.505,-483.652 744.794,-483.614 751,-474.527 782.2,-428.841 808.244,-371.303 825.124,-329.507"/>
<polygon fill="black" stroke="black" stroke-width="0.66" points="828.447,-330.624 828.9,-320.039 821.945,-328.031 828.447,-330.624"/>
<text text-anchor="middle" x="748.5" y="-518.327" font-family="Times New Roman,serif" font-size="14.00">0.22</text>
</g>
<!-- sand spitting&#45;&gt;intoshell -->
<g id="edge52" class="edge"><title>sand spitting&#45;&gt;intoshell</title>
<path fill="none" stroke="black" stroke-width="0.09" d="M492.323,-702.546C480.113,-674.156 469.303,-635.127 482,-602.527 489.058,-584.406 502.39,-567.912 515.75,-554.704"/>
<polygon fill="black" stroke="black" stroke-width="0.09" points="518.278,-557.13 523.136,-547.714 513.467,-552.046 518.278,-557.13"/>
<text text-anchor="middle" x="495.5" y="-622.827" font-family="Times New Roman,serif" font-size="14.00">0.03</text>
</g>
<!-- sand spitting&#45;&gt;lunging/shooting out -->
<g id="edge54" class="edge"><title>sand spitting&#45;&gt;lunging/shooting out</title>
<path fill="none" stroke="black" stroke-width="0.18" d="M474.916,-705.45C447.162,-676.056 412.348,-631.804 400,-584.527 388.479,-540.415 390.983,-487.987 395.125,-451.696"/>
<polygon fill="black" stroke="black" stroke-width="0.18" points="398.639,-451.797 396.388,-441.444 391.692,-450.941 398.639,-451.797"/>
<text text-anchor="middle" x="413.5" y="-573.327" font-family="Times New Roman,serif" font-size="14.00">0.06</text>
</g>
<!-- sand spitting&#45;&gt;sand spitting -->
<g id="edge55" class="edge"><title>sand spitting&#45;&gt;sand spitting</title>
<path fill="none" stroke="black" stroke-width="1.29" d="M597.831,-753.753C610.459,-752.005 619,-748.263 619,-742.527 619,-738.494 614.777,-735.446 607.88,-733.385"/>
<polygon fill="black" stroke="black" stroke-width="1.29" points="608.333,-729.904 597.831,-731.301 606.912,-736.758 608.333,-729.904"/>
<text text-anchor="middle" x="632.5" y="-738.827" font-family="Times New Roman,serif" font-size="14.00">0.43</text>
</g>
<!-- sand spitting&#45;&gt;tailbeat -->
<g id="edge56" class="edge"><title>sand spitting&#45;&gt;tailbeat</title>
<path fill="none" stroke="black" stroke-width="0.03" d="M588.533,-721.408C674.199,-698.591 811.746,-661.954 887.188,-641.86"/>
<polygon fill="black" stroke="black" stroke-width="0.03" points="888.201,-645.212 896.963,-639.256 886.399,-638.448 888.201,-645.212"/>
<text text-anchor="middle" x="791.5" y="-672.327" font-family="Times New Roman,serif" font-size="14.00">0.01</text>
</g>
<!-- sand spitting&#45;&gt;unknown -->
<g id="edge57" class="edge"><title>sand spitting&#45;&gt;unknown</title>
<path fill="none" stroke="black" stroke-width="0.18" d="M539.378,-781.965C552.41,-799.206 569.156,-819.003 587,-834.054 596.089,-841.72 606.624,-848.781 617.052,-854.961"/>
<polygon fill="black" stroke="black" stroke-width="0.18" points="615.335,-858.011 625.753,-859.94 618.812,-851.936 615.335,-858.011"/>
<text text-anchor="middle" x="600.5" y="-814.09" font-family="Times New Roman,serif" font-size="14.00">0.06</text>
</g>
<!-- fish&#45;left out of shell -->
<g id="node10" class="node"><title>fish&#45;left out of shell</title>
<g id="a_node10"><a xlink:title="what should &#013; be here">
<ellipse fill="#ffffff" stroke="black" cx="1525" cy="-1130.32" rx="90.5193" ry="16.0303"/>
<text text-anchor="middle" x="1525" y="-1126.62" font-family="Times New Roman,serif" font-size="14.00">fish&#45;left out of shell</text>
</a>
</g>
</g>
<!-- fish&#45;left out of shell&#45;&gt;lateral display -->
<g id="edge58" class="edge"><title>fish&#45;left out of shell&#45;&gt;lateral display</title>
<path fill="none" stroke="black" stroke-width="3" d="M1479.96,-1116.15C1419.38,-1098.44 1309.95,-1066.45 1229.33,-1042.88"/>
<polygon fill="black" stroke="black" stroke-width="3" points="1230.23,-1039.5 1219.65,-1040.05 1228.27,-1046.22 1230.23,-1039.5"/>
<text text-anchor="middle" x="1417.5" y="-1084.85" font-family="Times New Roman,serif" font-size="14.00">1.0</text>
</g>
<!-- fish&#45;right out of shell -->
<g id="node11" class="node"><title>fish&#45;right out of shell</title>
<g id="a_node11"><a xlink:title="what should &#013; be here">
<ellipse fill="#ffffff" stroke="black" cx="940" cy="-742.527" rx="96.7474" ry="16.0303"/>
<text text-anchor="middle" x="940" y="-738.827" font-family="Times New Roman,serif" font-size="14.00">fish&#45;right out of shell</text>
</a>
</g>
</g>
<!-- fish&#45;right out of shell&#45;&gt;tailbeat -->
<g id="edge59" class="edge"><title>fish&#45;right out of shell&#45;&gt;tailbeat</title>
<path fill="none" stroke="black" stroke-width="3" d="M940.135,-726.152C940.281,-709.439 940.52,-682.227 940.71,-660.616"/>
<polygon fill="black" stroke="black" stroke-width="3" points="944.21,-660.558 940.798,-650.528 937.211,-660.497 944.21,-660.558"/>
<text text-anchor="middle" x="950.5" y="-672.327" font-family="Times New Roman,serif" font-size="14.00">1.0</text>
</g>
<!-- tailbeat&#45;&gt;lateral display -->
<g id="edge63" class="edge"><title>tailbeat&#45;&gt;lateral display</title>
<path fill="none" stroke="black" stroke-width="0.42" d="M980.273,-642.257C997.753,-649.372 1018.33,-658.531 1036,-668.527 1100.37,-704.944 1117.04,-730.044 1136,-801.527 1149.12,-850.986 1145.76,-909.293 1140.05,-951.907"/>
<polygon fill="black" stroke="black" stroke-width="0.42" points="1136.58,-951.448 1138.63,-961.841 1143.51,-952.434 1136.58,-951.448"/>
<text text-anchor="middle" x="1156.5" y="-814.09" font-family="Times New Roman,serif" font-size="14.00">0.14</text>
</g>
<!-- tailbeat&#45;&gt;frontal -->
<g id="edge60" class="edge"><title>tailbeat&#45;&gt;frontal</title>
<path fill="none" stroke="black" stroke-width="0.42" d="M957.577,-603.657C961.662,-597.657 965.783,-591.013 969,-584.527 975.87,-570.677 975.168,-566.213 980,-551.527 1025.53,-413.132 1065.64,-356.066 1003,-224.527 992.722,-202.943 974.903,-184.573 956.318,-169.905"/>
<polygon fill="black" stroke="black" stroke-width="0.42" points="958.409,-167.098 948.326,-163.847 954.181,-172.677 958.409,-167.098"/>
<text text-anchor="middle" x="1047.5" y="-402.827" font-family="Times New Roman,serif" font-size="14.00">0.14</text>
</g>
<!-- tailbeat&#45;&gt;head&#45;down -->
<g id="edge61" class="edge"><title>tailbeat&#45;&gt;head&#45;down</title>
<path fill="none" stroke="black" stroke-width="0.87" d="M948.485,-602.725C950.19,-596.849 951.838,-590.497 953,-584.527 973.954,-476.853 994.729,-429.204 933,-338.527 927.935,-331.087 921.735,-324.162 914.998,-317.818"/>
<polygon fill="black" stroke="black" stroke-width="0.87" points="917.307,-315.188 907.505,-311.166 912.659,-320.422 917.307,-315.188"/>
<text text-anchor="middle" x="987.5" y="-463.327" font-family="Times New Roman,serif" font-size="14.00">0.29</text>
</g>
<!-- tailbeat&#45;&gt;intoshell -->
<g id="edge62" class="edge"><title>tailbeat&#45;&gt;intoshell</title>
<path fill="none" stroke="black" stroke-width="0.21" d="M895.32,-615.335C860.354,-607.381 810.989,-595.82 768,-584.527 753.22,-580.644 674.805,-557.911 617.397,-541.209"/>
<polygon fill="black" stroke="black" stroke-width="0.21" points="618.24,-537.81 607.661,-538.376 616.284,-544.531 618.24,-537.81"/>
<text text-anchor="middle" x="781.5" y="-573.327" font-family="Times New Roman,serif" font-size="14.00">0.07</text>
</g>
<!-- tailbeat&#45;&gt;tailbeat -->
<g id="edge64" class="edge"><title>tailbeat&#45;&gt;tailbeat</title>
<path fill="none" stroke="black" stroke-width="1.08" d="M989.073,-635.419C1001.31,-634.835 1010.5,-631.871 1010.5,-626.527 1010.5,-622.853 1006.16,-620.304 999.466,-618.88"/>
<polygon fill="black" stroke="black" stroke-width="1.08" points="999.419,-615.349 989.073,-617.635 998.586,-622.299 999.419,-615.349"/>
<text text-anchor="middle" x="1024" y="-622.827" font-family="Times New Roman,serif" font-size="14.00">0.36</text>
</g>
<!-- flee&#45;&gt;lateral display -->
<g id="edge65" class="edge"><title>flee&#45;&gt;lateral display</title>
<path fill="none" stroke="black" stroke-width="3" d="M913.98,-19.3422C1027.58,-28.7721 1475,-69.589 1475,-127.527 1475,-347.027 1475,-347.027 1475,-347.027 1475,-449.674 1445,-473.379 1445,-576.027 1445,-882.554 1445,-882.554 1445,-882.554 1445,-928.578 1328.65,-966.246 1237.15,-988.752"/>
<polygon fill="black" stroke="black" stroke-width="3" points="1236.15,-985.394 1227.25,-991.151 1237.8,-992.196 1236.15,-985.394"/>
<text text-anchor="middle" x="1462.5" y="-518.327" font-family="Times New Roman,serif" font-size="14.00">1.0</text>
</g>
<!-- unknown&#45;&gt;lateral display -->
<g id="edge68" class="edge"><title>unknown&#45;&gt;lateral display</title>
<path fill="none" stroke="black" stroke-width="1.32" d="M679.499,-910.677C685.45,-922.813 694.123,-936.037 706,-944.054 754.667,-976.901 904.234,-994.908 1011.71,-1003.89"/>
<polygon fill="black" stroke="black" stroke-width="1.32" points="1011.72,-1007.4 1021.98,-1004.73 1012.29,-1000.42 1011.72,-1007.4"/>
<text text-anchor="middle" x="719.5" y="-932.854" font-family="Times New Roman,serif" font-size="14.00">0.44</text>
</g>
<!-- unknown&#45;&gt;frontal -->
<g id="edge66" class="edge"><title>unknown&#45;&gt;frontal</title>
<path fill="none" stroke="black" stroke-width="0.48" d="M729.98,-873.556C826.151,-861.161 1006.23,-831.984 1046,-783.527 1124.82,-687.474 1091.72,-334.034 1033,-224.527 1019.01,-198.428 994.348,-178.358 969.29,-163.537"/>
<polygon fill="black" stroke="black" stroke-width="0.48" points="970.853,-160.399 960.428,-158.512 967.401,-166.489 970.853,-160.399"/>
<text text-anchor="middle" x="1106.5" y="-518.327" font-family="Times New Roman,serif" font-size="14.00">0.16</text>
</g>
<!-- unknown&#45;&gt;head&#45;down -->
<g id="edge67" class="edge"><title>unknown&#45;&gt;head&#45;down</title>
<path fill="none" stroke="black" stroke-width="0.6" d="M699,-855.521C719.306,-837.283 745.516,-811.043 763,-783.527 764.848,-780.618 850.379,-554.917 851,-551.527 864.804,-476.21 859.582,-387.493 853.611,-330.901"/>
<polygon fill="black" stroke="black" stroke-width="0.6" points="857.064,-330.276 852.492,-320.718 850.106,-331.04 857.064,-330.276"/>
<text text-anchor="middle" x="854.5" y="-573.327" font-family="Times New Roman,serif" font-size="14.00">0.2</text>
</g>
<!-- unknown&#45;&gt;lunging/shooting out -->
<g id="edge69" class="edge"><title>unknown&#45;&gt;lunging/shooting out</title>
<path fill="none" stroke="black" stroke-width="0.24" d="M623.392,-861.109C615.932,-858.023 608.267,-854.91 601,-852.054 519.394,-819.982 475.999,-847.466 416,-783.527 330.978,-692.92 364.571,-529.382 387.453,-451.31"/>
<polygon fill="black" stroke="black" stroke-width="0.24" points="390.927,-451.909 390.458,-441.325 384.224,-449.892 390.927,-451.909"/>
<text text-anchor="middle" x="376.5" y="-622.827" font-family="Times New Roman,serif" font-size="14.00">0.08</text>
</g>
<!-- unknown&#45;&gt;sand spitting -->
<g id="edge70" class="edge"><title>unknown&#45;&gt;sand spitting</title>
<path fill="none" stroke="black" stroke-width="0.24" d="M653.785,-852.639C643.95,-836.361 630.017,-816.212 614,-801.527 604.439,-792.761 593.328,-784.747 582.044,-777.657"/>
<polygon fill="black" stroke="black" stroke-width="0.24" points="583.769,-774.611 573.404,-772.419 580.14,-780.597 583.769,-774.611"/>
<text text-anchor="middle" x="655.5" y="-814.09" font-family="Times New Roman,serif" font-size="14.00">0.08</text>
</g>
<!-- unknown&#45;&gt;unknown -->
<g id="edge71" class="edge"><title>unknown&#45;&gt;unknown</title>
<path fill="none" stroke="black" stroke-width="0.12" d="M728.694,-891.323C741.088,-890.295 750,-887.038 750,-881.554 750,-877.698 745.594,-874.943 738.67,-873.29"/>
<polygon fill="black" stroke="black" stroke-width="0.12" points="739.105,-869.816 728.694,-871.785 738.06,-876.737 739.105,-869.816"/>
<text text-anchor="middle" x="763.5" y="-877.854" font-family="Times New Roman,serif" font-size="14.00">0.04</text>
</g>
</g>
</svg>
