<?xml version="1.0" encoding="UTF-8" standalone="no"?>
<!DOCTYPE svg PUBLIC "-//W3C//DTD SVG 1.1//EN"
 "http://www.w3.org/Graphics/SVG/1.1/DTD/svg11.dtd">
<!-- Generated by graphviz version 2.38.0 (20140413.2041)
 -->
<!-- Title: %3 Pages: 1 -->
<svg width="685pt" height="669pt"
 viewBox="0.00 0.00 685.00 668.53" xmlns="http://www.w3.org/2000/svg" xmlns:xlink="http://www.w3.org/1999/xlink">
<g id="graph0" class="graph" transform="scale(1 1) rotate(0) translate(4 664.527)">
<title>%3</title>
<polygon fill="white" stroke="none" points="-4,4 -4,-664.527 681,-664.527 681,4 -4,4"/>
<!-- attempted attack -->
<g id="node1" class="node"><title>attempted attack</title>
<g id="a_node1"><a xlink:title="what should &#013; be here">
<ellipse fill="#ffffff" stroke="black" cx="586" cy="-644.263" rx="77.1494" ry="16.0303"/>
<text text-anchor="middle" x="586" y="-640.563" font-family="Times New Roman,serif" font-size="14.00">attempted attack</text>
</a>
</g>
</g>
<!-- operculum spread -->
<g id="node2" class="node"><title>operculum spread</title>
<g id="a_node2"><a xlink:title="what should &#013; be here">
<ellipse fill="#ffffff" stroke="black" cx="426" cy="-535" rx="90" ry="42"/>
<text text-anchor="middle" x="426" y="-531.3" font-family="Times New Roman,serif" font-size="14.00">operculum spread</text>
</a>
</g>
</g>
<!-- attempted attack&#45;&gt;operculum spread -->
<g id="edge1" class="edge"><title>attempted attack&#45;&gt;operculum spread</title>
<path fill="none" stroke="black" stroke-width="3" d="M564.088,-628.574C543.767,-614.951 512.596,-594.054 485.009,-575.56"/>
<polygon fill="black" stroke="black" stroke-width="3" points="486.834,-572.569 476.579,-569.908 482.936,-578.383 486.834,-572.569"/>
<text text-anchor="middle" x="543.5" y="-598.8" font-family="Times New Roman,serif" font-size="14.00">1.0</text>
</g>
<!-- operculum spread&#45;&gt;operculum spread -->
<g id="edge3" class="edge"><title>operculum spread&#45;&gt;operculum spread</title>
<path fill="none" stroke="black" stroke-width="0.18" d="M512.863,-546.167C525.492,-544.394 534,-540.672 534,-535 534,-531.012 529.794,-527.988 522.907,-525.928"/>
<polygon fill="black" stroke="black" stroke-width="0.18" points="523.367,-522.448 512.863,-523.833 521.938,-529.301 523.367,-522.448"/>
<text text-anchor="middle" x="547.5" y="-531.3" font-family="Times New Roman,serif" font-size="14.00">0.06</text>
</g>
<!-- biting -->
<g id="node3" class="node"><title>biting</title>
<g id="a_node3"><a xlink:title="what should &#013; be here">
<ellipse fill="#ffffff" stroke="black" cx="532" cy="-391.5" rx="35.2113" ry="16.0303"/>
<text text-anchor="middle" x="532" y="-387.8" font-family="Times New Roman,serif" font-size="14.00">biting</text>
</a>
</g>
</g>
<!-- operculum spread&#45;&gt;biting -->
<g id="edge2" class="edge"><title>operculum spread&#45;&gt;biting</title>
<path fill="none" stroke="black" stroke-width="0.18" d="M464.461,-496.767C470.943,-489.784 477.382,-482.358 483,-475 497.112,-456.515 510.404,-433.658 519.574,-416.693"/>
<polygon fill="black" stroke="black" stroke-width="0.18" points="522.876,-417.937 524.472,-407.463 516.693,-414.656 522.876,-417.937"/>
<text text-anchor="middle" x="506.5" y="-463.8" font-family="Times New Roman,serif" font-size="14.00">0.06</text>
</g>
<!-- s&#45;bend -->
<g id="node4" class="node"><title>s&#45;bend</title>
<g id="a_node4"><a xlink:title="what should &#013; be here">
<ellipse fill="#ffffff" stroke="black" cx="288" cy="-391.5" rx="108" ry="50.5"/>
<text text-anchor="middle" x="288" y="-387.8" font-family="Times New Roman,serif" font-size="14.00">s&#45;bend</text>
</a>
</g>
</g>
<!-- operculum spread&#45;&gt;s&#45;bend -->
<g id="edge4" class="edge"><title>operculum spread&#45;&gt;s&#45;bend</title>
<path fill="none" stroke="black" stroke-width="1.59" d="M381.229,-498.349C372.603,-490.906 363.824,-482.91 356,-475 347.349,-466.253 338.619,-456.505 330.431,-446.861"/>
<polygon fill="black" stroke="black" stroke-width="1.59" points="333.095,-444.591 323.993,-439.17 327.728,-449.084 333.095,-444.591"/>
<text text-anchor="middle" x="369.5" y="-463.8" font-family="Times New Roman,serif" font-size="14.00">0.53</text>
</g>
<!-- shell -->
<g id="node5" class="node"><title>shell</title>
<g id="a_node5"><a xlink:title="what should &#013; be here">
<ellipse fill="#00ff55" stroke="black" cx="260" cy="-150" rx="88" ry="41"/>
<text text-anchor="middle" x="260" y="-146.3" font-family="Times New Roman,serif" font-size="14.00">shell</text>
</a>
</g>
</g>
<!-- operculum spread&#45;&gt;shell -->
<g id="edge5" class="edge"><title>operculum spread&#45;&gt;shell</title>
<path fill="none" stroke="black" stroke-width="0.36" d="M437.28,-493.116C452.209,-440.028 477.826,-352.732 488,-341 499.981,-327.185 514.534,-337.996 525,-323 554.109,-281.293 568.54,-247.235 535,-209 514.751,-185.917 428.054,-197.292 398,-191 379.477,-187.122 359.814,-182.03 341.312,-176.783"/>
<polygon fill="black" stroke="black" stroke-width="0.36" points="342.04,-173.351 331.462,-173.946 340.102,-180.077 342.04,-173.351"/>
<text text-anchor="middle" x="547.5" y="-311.8" font-family="Times New Roman,serif" font-size="14.00">0.12</text>
</g>
<!-- shooting out -->
<g id="node6" class="node"><title>shooting out</title>
<g id="a_node6"><a xlink:title="what should &#013; be here">
<ellipse fill="#ffffff" stroke="black" cx="125" cy="-29" rx="62" ry="29"/>
<text text-anchor="middle" x="125" y="-25.3" font-family="Times New Roman,serif" font-size="14.00">shooting out</text>
</a>
</g>
</g>
<!-- operculum spread&#45;&gt;shooting out -->
<g id="edge6" class="edge"><title>operculum spread&#45;&gt;shooting out</title>
<path fill="none" stroke="black" stroke-width="0.54" d="M342.72,-518.807C235.55,-496.836 63,-452.192 63,-392.5 63,-392.5 63,-392.5 63,-149 63,-118.015 79.7366,-87.1039 95.8183,-64.5541"/>
<polygon fill="black" stroke="black" stroke-width="0.54" points="98.7661,-66.4549 101.913,-56.3383 93.1443,-62.2841 98.7661,-66.4549"/>
<text text-anchor="middle" x="76.5" y="-262.3" font-family="Times New Roman,serif" font-size="14.00">0.18</text>
</g>
<!-- tail beat -->
<g id="node7" class="node"><title>tail beat</title>
<g id="a_node7"><a xlink:title="what should &#013; be here">
<ellipse fill="#ffffff" stroke="black" cx="503" cy="-29" rx="57" ry="26.5"/>
<text text-anchor="middle" x="503" y="-25.3" font-family="Times New Roman,serif" font-size="14.00">tail beat</text>
</a>
</g>
</g>
<!-- operculum spread&#45;&gt;tail beat -->
<g id="edge7" class="edge"><title>operculum spread&#45;&gt;tail beat</title>
<path fill="none" stroke="black" stroke-width="0.18" d="M495.226,-507.852C541.898,-485.224 595,-447.413 595,-392.5 595,-392.5 595,-392.5 595,-149 595,-112.123 567.005,-79.7196 541.901,-58.076"/>
<polygon fill="black" stroke="black" stroke-width="0.18" points="543.823,-55.1232 533.891,-51.4349 539.355,-60.5119 543.823,-55.1232"/>
<text text-anchor="middle" x="608.5" y="-262.3" font-family="Times New Roman,serif" font-size="14.00">0.06</text>
</g>
<!-- s&#45;bend&#45;&gt;operculum spread -->
<g id="edge8" class="edge"><title>s&#45;bend&#45;&gt;operculum spread</title>
<path fill="none" stroke="black" stroke-width="1.29" d="M352.438,-432.554C363.324,-440.872 373.999,-450.136 383,-460 389.836,-467.491 396.083,-476.247 401.57,-485.062"/>
<polygon fill="black" stroke="black" stroke-width="1.29" points="398.677,-487.045 406.796,-493.851 404.694,-483.467 398.677,-487.045"/>
<text text-anchor="middle" x="407.5" y="-463.8" font-family="Times New Roman,serif" font-size="14.00">0.43</text>
</g>
<!-- s&#45;bend&#45;&gt;s&#45;bend -->
<g id="edge9" class="edge"><title>s&#45;bend&#45;&gt;s&#45;bend</title>
<path fill="none" stroke="black" stroke-width="0.81" d="M392.763,-403.829C405.591,-401.621 414,-397.512 414,-391.5 414,-387.273 409.842,-383.986 402.915,-381.64"/>
<polygon fill="black" stroke="black" stroke-width="0.81" points="403.307,-378.134 392.763,-379.171 401.652,-384.935 403.307,-378.134"/>
<text text-anchor="middle" x="427.5" y="-387.8" font-family="Times New Roman,serif" font-size="14.00">0.27</text>
</g>
<!-- s&#45;bend&#45;&gt;shell -->
<g id="edge10" class="edge"><title>s&#45;bend&#45;&gt;shell</title>
<path fill="none" stroke="black" stroke-width="0.21" d="M250.591,-343.888C239.836,-327.767 229.526,-308.966 224,-290 215.274,-260.052 223.68,-226.171 234.554,-199.356"/>
<polygon fill="black" stroke="black" stroke-width="0.21" points="237.92,-200.388 238.645,-189.818 231.487,-197.628 237.92,-200.388"/>
<text text-anchor="middle" x="237.5" y="-262.3" font-family="Times New Roman,serif" font-size="14.00">0.07</text>
</g>
<!-- s&#45;bend&#45;&gt;shooting out -->
<g id="edge12" class="edge"><title>s&#45;bend&#45;&gt;shooting out</title>
<path fill="none" stroke="black" stroke-width="0.21" d="M243.056,-345.173C236.967,-338.031 231.077,-330.516 226,-323 189.611,-269.134 184.589,-252.316 163,-191 148.584,-150.057 137.945,-101.339 131.647,-68.2987"/>
<polygon fill="black" stroke="black" stroke-width="0.21" points="135.029,-67.3413 129.756,-58.1519 128.148,-68.624 135.029,-67.3413"/>
<text text-anchor="middle" x="188.5" y="-212.8" font-family="Times New Roman,serif" font-size="14.00">0.07</text>
</g>
<!-- s&#45;bend&#45;&gt;tail beat -->
<g id="edge13" class="edge"><title>s&#45;bend&#45;&gt;tail beat</title>
<path fill="none" stroke="black" stroke-width="0.3" d="M377.09,-362.675C428.28,-346.288 483.216,-327.841 487,-323 545.871,-247.685 527.035,-125.36 512.779,-65.4047"/>
<polygon fill="black" stroke="black" stroke-width="0.3" points="516.164,-64.5144 510.366,-55.6466 509.369,-66.1944 516.164,-64.5144"/>
<text text-anchor="middle" x="535.5" y="-212.8" font-family="Times New Roman,serif" font-size="14.00">0.1</text>
</g>
<!-- shell escape -->
<g id="node8" class="node"><title>shell escape</title>
<g id="a_node8"><a xlink:title="what should &#013; be here">
<ellipse fill="#ffffff" stroke="black" cx="369" cy="-266" rx="51" ry="24"/>
<text text-anchor="middle" x="369" y="-262.3" font-family="Times New Roman,serif" font-size="14.00">shell escape</text>
</a>
</g>
</g>
<!-- s&#45;bend&#45;&gt;shell escape -->
<g id="edge11" class="edge"><title>s&#45;bend&#45;&gt;shell escape</title>
<path fill="none" stroke="black" stroke-width="0.21" d="M319.085,-343.105C329.04,-327.927 339.797,-311.525 348.768,-297.848"/>
<polygon fill="black" stroke="black" stroke-width="0.21" points="351.821,-299.575 354.378,-289.293 345.967,-295.736 351.821,-299.575"/>
<text text-anchor="middle" x="353.5" y="-311.8" font-family="Times New Roman,serif" font-size="14.00">0.07</text>
</g>
<!-- shell&#45;&gt;s&#45;bend -->
<g id="edge14" class="edge"><title>shell&#45;&gt;s&#45;bend</title>
<path fill="none" stroke="black" stroke-width="0.93" d="M264.682,-191.045C269.14,-229.181 275.908,-287.074 281.007,-330.681"/>
<polygon fill="black" stroke="black" stroke-width="0.93" points="277.561,-331.35 282.198,-340.875 284.513,-330.537 277.561,-331.35"/>
<text text-anchor="middle" x="288.5" y="-262.3" font-family="Times New Roman,serif" font-size="14.00">0.31</text>
</g>
<!-- shell&#45;&gt;shell -->
<g id="edge15" class="edge"><title>shell&#45;&gt;shell</title>
<path fill="none" stroke="black" stroke-width="1.14" d="M344.831,-161.226C357.459,-159.478 366,-155.736 366,-150 366,-145.967 361.777,-142.919 354.88,-140.858"/>
<polygon fill="black" stroke="black" stroke-width="1.14" points="355.333,-137.377 344.831,-138.774 353.912,-144.231 355.333,-137.377"/>
<text text-anchor="middle" x="379.5" y="-146.3" font-family="Times New Roman,serif" font-size="14.00">0.38</text>
</g>
<!-- shell&#45;&gt;shooting out -->
<g id="edge17" class="edge"><title>shell&#45;&gt;shooting out</title>
<path fill="none" stroke="black" stroke-width="0.36" d="M242.277,-109.634C235.589,-97.7839 227.107,-85.4353 217,-76 206.811,-66.4881 194.283,-58.5002 181.789,-51.9912"/>
<polygon fill="black" stroke="black" stroke-width="0.36" points="183.247,-48.8076 172.731,-47.5124 180.144,-55.0824 183.247,-48.8076"/>
<text text-anchor="middle" x="242.5" y="-79.8" font-family="Times New Roman,serif" font-size="14.00">0.12</text>
</g>
<!-- shell&#45;&gt;tail beat -->
<g id="edge18" class="edge"><title>shell&#45;&gt;tail beat</title>
<path fill="none" stroke="black" stroke-width="0.18" d="M312.369,-116.962C335.209,-103.56 362.539,-88.2806 388,-76 407.724,-66.4868 429.953,-57.2631 449.574,-49.604"/>
<polygon fill="black" stroke="black" stroke-width="0.18" points="450.905,-52.8418 458.974,-45.9753 448.384,-46.3115 450.905,-52.8418"/>
<text text-anchor="middle" x="401.5" y="-79.8" font-family="Times New Roman,serif" font-size="14.00">0.06</text>
</g>
<!-- shell&#45;&gt;shell escape -->
<g id="edge16" class="edge"><title>shell&#45;&gt;shell escape</title>
<path fill="none" stroke="black" stroke-width="0.36" d="M285.213,-189.466C293.696,-201.14 303.652,-213.614 314,-224 319.556,-229.576 325.909,-235.006 332.277,-239.994"/>
<polygon fill="black" stroke="black" stroke-width="0.36" points="330.205,-242.815 340.293,-246.052 334.426,-237.23 330.205,-242.815"/>
<text text-anchor="middle" x="327.5" y="-212.8" font-family="Times New Roman,serif" font-size="14.00">0.12</text>
</g>
<!-- shooting out&#45;&gt;operculum spread -->
<g id="edge19" class="edge"><title>shooting out&#45;&gt;operculum spread</title>
<path fill="none" stroke="black" stroke-width="0.87" d="M81.2811,-49.6446C45.2347,-69.1665 0,-102.857 0,-149 0,-392.5 0,-392.5 0,-392.5 0,-461.5 203.829,-502.747 329.503,-521.621"/>
<polygon fill="black" stroke="black" stroke-width="0.87" points="329.131,-525.104 339.536,-523.105 330.156,-518.179 329.131,-525.104"/>
<text text-anchor="middle" x="13.5" y="-262.3" font-family="Times New Roman,serif" font-size="14.00">0.29</text>
</g>
<!-- shooting out&#45;&gt;s&#45;bend -->
<g id="edge20" class="edge"><title>shooting out&#45;&gt;s&#45;bend</title>
<path fill="none" stroke="black" stroke-width="1.71" d="M123.162,-58.02C121.504,-96.3884 121.545,-167.012 139,-224 153.304,-270.699 189.579,-311.737 222.754,-341.387"/>
<polygon fill="black" stroke="black" stroke-width="1.71" points="220.827,-344.351 230.66,-348.295 225.433,-339.08 220.827,-344.351"/>
<text text-anchor="middle" x="152.5" y="-212.8" font-family="Times New Roman,serif" font-size="14.00">0.57</text>
</g>
<!-- shooting out&#45;&gt;shell -->
<g id="edge21" class="edge"><title>shooting out&#45;&gt;shell</title>
<path fill="none" stroke="black" stroke-width="0.42" d="M149.565,-55.9292C160.437,-67.0422 173.558,-79.9747 186,-91 192.41,-96.68 199.301,-102.468 206.207,-108.081"/>
<polygon fill="black" stroke="black" stroke-width="0.42" points="204.303,-111.042 214.292,-114.574 208.686,-105.583 204.303,-111.042"/>
<text text-anchor="middle" x="199.5" y="-79.8" font-family="Times New Roman,serif" font-size="14.00">0.14</text>
</g>
<!-- tail beat&#45;&gt;attempted attack -->
<g id="edge22" class="edge"><title>tail beat&#45;&gt;attempted attack</title>
<path fill="none" stroke="black" stroke-width="0.51" d="M548.706,-45.1601C591.858,-62.6975 650,-96.1357 650,-149 650,-536 650,-536 650,-536 650,-568.927 627.484,-600.531 609.162,-620.796"/>
<polygon fill="black" stroke="black" stroke-width="0.51" points="606.457,-618.564 602.15,-628.244 611.553,-623.362 606.457,-618.564"/>
<text text-anchor="middle" x="663.5" y="-311.8" font-family="Times New Roman,serif" font-size="14.00">0.17</text>
</g>
<!-- tail beat&#45;&gt;s&#45;bend -->
<g id="edge23" class="edge"><title>tail beat&#45;&gt;s&#45;bend</title>
<path fill="none" stroke="black" stroke-width="1.5" d="M502.056,-55.8271C498.955,-106.177 485.688,-218.754 429,-290 411.58,-311.893 388.19,-331.151 365.473,-346.796"/>
<polygon fill="black" stroke="black" stroke-width="1.5" points="363.492,-343.91 357.147,-352.394 367.398,-349.719 363.492,-343.91"/>
<text text-anchor="middle" x="480.5" y="-212.8" font-family="Times New Roman,serif" font-size="14.00">0.5</text>
</g>
<!-- tail beat&#45;&gt;tail beat -->
<g id="edge25" class="edge"><title>tail beat&#45;&gt;tail beat</title>
<path fill="none" stroke="black" stroke-width="0.51" d="M555.913,-38.9464C568.6,-38.169 578,-34.8535 578,-29 578,-24.8842 573.353,-22.0233 566.183,-20.4171"/>
<polygon fill="black" stroke="black" stroke-width="0.51" points="566.287,-16.9002 555.913,-19.0536 565.366,-23.8393 566.287,-16.9002"/>
<text text-anchor="middle" x="591.5" y="-25.3" font-family="Times New Roman,serif" font-size="14.00">0.17</text>
</g>
<!-- tail beat&#45;&gt;shell escape -->
<g id="edge24" class="edge"><title>tail beat&#45;&gt;shell escape</title>
<path fill="none" stroke="black" stroke-width="0.51" d="M482.718,-53.9762C470.393,-69.1777 454.81,-89.5743 443,-109 429.578,-131.078 400.676,-194.162 383.229,-233.014"/>
<polygon fill="black" stroke="black" stroke-width="0.51" points="379.95,-231.773 379.057,-242.33 386.339,-234.634 379.95,-231.773"/>
<text text-anchor="middle" x="456.5" y="-146.3" font-family="Times New Roman,serif" font-size="14.00">0.17</text>
</g>
<!-- shell escape&#45;&gt;shell -->
<g id="edge26" class="edge"><title>shell escape&#45;&gt;shell</title>
<path fill="none" stroke="black" stroke-width="3" d="M360.622,-242.23C355.926,-231.416 349.327,-218.756 341,-209 335.063,-202.044 328.123,-195.487 320.848,-189.461"/>
<polygon fill="black" stroke="black" stroke-width="3" points="322.868,-186.596 312.853,-183.137 318.525,-192.086 322.868,-186.596"/>
<text text-anchor="middle" x="359.5" y="-212.8" font-family="Times New Roman,serif" font-size="14.00">1.0</text>
</g>
</g>
</svg>
