<?xml version="1.0" encoding="UTF-8" standalone="no"?>
<!DOCTYPE svg PUBLIC "-//W3C//DTD SVG 1.1//EN"
 "http://www.w3.org/Graphics/SVG/1.1/DTD/svg11.dtd">
<!-- Generated by graphviz version 2.38.0 (20140413.2041)
 -->
<!-- Title: multi6 Pages: 1 -->
<svg width="992pt" height="813pt"
 viewBox="0.00 0.00 992.00 813.00" xmlns="http://www.w3.org/2000/svg" xmlns:xlink="http://www.w3.org/1999/xlink">
<g id="graph0" class="graph" transform="scale(1 1) rotate(0) translate(4 809)">
<title>multi6</title>
<polygon fill="white" stroke="none" points="-4,4 -4,-809 988,-809 988,4 -4,4"/>
<!-- bite -->
<g id="node1" class="node"><title>bite</title>
<g id="a_node1"><a xlink:title="what should &#013; be here">
<ellipse fill="#c1cdcd" stroke="black" cx="127" cy="-787" rx="43" ry="18"/>
<text text-anchor="middle" x="127" y="-783.3" font-family="Times New Roman,serif" font-size="14.00">bite</text>
</a>
</g>
</g>
<!-- bite&#45;&gt;bite -->
<g id="edge1" class="edge"><title>bite&#45;&gt;bite</title>
<path fill="none" stroke="magenta" stroke-width="0.9" d="M165.719,-794.873C178.149,-794.792 188,-792.168 188,-787 188,-783.366 183.13,-780.99 175.917,-779.871"/>
<polygon fill="magenta" stroke="magenta" stroke-width="0.9" points="175.947,-776.364 165.719,-779.127 175.437,-783.346 175.947,-776.364"/>
<text text-anchor="middle" x="192" y="-783.3" font-family="Times New Roman,serif" font-size="14.00">1</text>
</g>
<!-- lateral display -->
<g id="node2" class="node"><title>lateral display</title>
<g id="a_node2"><a xlink:title="what should &#013; be here">
<ellipse fill="#c1cdcd" stroke="black" cx="358" cy="-700" rx="61.99" ry="18"/>
<text text-anchor="middle" x="358" y="-696.3" font-family="Times New Roman,serif" font-size="14.00">lateral display</text>
</a>
</g>
</g>
<!-- bite&#45;&gt;lateral display -->
<g id="edge2" class="edge"><title>bite&#45;&gt;lateral display</title>
<path fill="none" stroke="magenta" stroke-width="0.9" d="M158.154,-774.537C197.622,-760.014 265.981,-734.86 311.6,-718.074"/>
<polygon fill="magenta" stroke="magenta" stroke-width="0.9" points="313.078,-721.259 321.254,-714.521 310.66,-714.69 313.078,-721.259"/>
<text text-anchor="middle" x="265" y="-739.8" font-family="Times New Roman,serif" font-size="14.00">21</text>
</g>
<!-- intoshell -->
<g id="node7" class="node"><title>intoshell</title>
<g id="a_node7"><a xlink:title="what should &#013; be here">
<ellipse fill="#c1cdcd" stroke="black" cx="551" cy="-18" rx="43" ry="18"/>
<text text-anchor="middle" x="551" y="-14.3" font-family="Times New Roman,serif" font-size="14.00">intoshell</text>
</a>
</g>
</g>
<!-- bite&#45;&gt;intoshell -->
<g id="edge3" class="edge"><title>bite&#45;&gt;intoshell</title>
<path fill="none" stroke="#7fff00" stroke-width="0.9" d="M89.5827,-777.815C52.1208,-767.158 0,-744.511 0,-701 0,-701 0,-701 0,-90 0,-40.1204 359.773,-24.4921 497.889,-20.3302"/>
<polygon fill="#7fff00" stroke="#7fff00" stroke-width="0.9" points="498.329,-23.819 508.222,-20.0279 498.124,-16.822 498.329,-23.819"/>
<text text-anchor="middle" x="4" y="-391.8" font-family="Times New Roman,serif" font-size="14.00">1</text>
</g>
<!-- lateral display&#45;&gt;bite -->
<g id="edge4" class="edge"><title>lateral display&#45;&gt;bite</title>
<path fill="none" stroke="magenta" stroke-width="0.9" d="M307.076,-710.249C279.816,-716.038 245.982,-724.585 217,-736 196.513,-744.069 174.903,-755.95 157.994,-766.106"/>
<polygon fill="magenta" stroke="magenta" stroke-width="0.9" points="155.824,-763.331 149.121,-771.536 159.478,-769.302 155.824,-763.331"/>
<text text-anchor="middle" x="221" y="-739.8" font-family="Times New Roman,serif" font-size="14.00">9</text>
</g>
<!-- lateral display&#45;&gt;lateral display -->
<g id="edge8" class="edge"><title>lateral display&#45;&gt;lateral display</title>
<path fill="none" stroke="#c1cdcd" stroke-width="0.8" d="M413.895,-707.752C427.569,-707.178 437.745,-704.594 437.745,-700 437.745,-696.626 432.257,-694.337 423.926,-693.131"/>
<polygon fill="#c1cdcd" stroke="#c1cdcd" stroke-width="0.8" points="424.164,-689.639 413.895,-692.248 423.55,-696.612 424.164,-689.639"/>
</g>
<!-- frontal -->
<g id="node5" class="node"><title>frontal</title>
<g id="a_node5"><a xlink:title="what should &#013; be here">
<ellipse fill="#c1cdcd" stroke="black" cx="622" cy="-265" rx="43" ry="18"/>
<text text-anchor="middle" x="622" y="-261.3" font-family="Times New Roman,serif" font-size="14.00">frontal</text>
</a>
</g>
</g>
<!-- lateral display&#45;&gt;frontal -->
<g id="edge5" class="edge"><title>lateral display&#45;&gt;frontal</title>
<path fill="none" stroke="#c1cdcd" stroke-width="0.8" d="M417.8,-695.515C556.904,-686.897 890,-661.746 890,-614 890,-614 890,-614 890,-351 890,-305.385 750.982,-281.741 673.114,-271.831"/>
<polygon fill="#c1cdcd" stroke="#c1cdcd" stroke-width="0.8" points="673.369,-268.336 663.014,-270.579 672.507,-275.283 673.369,-268.336"/>
</g>
<!-- head&#45;down -->
<g id="node6" class="node"><title>head&#45;down</title>
<g id="a_node6"><a xlink:title="what should &#013; be here">
<ellipse fill="#c1cdcd" stroke="black" cx="608" cy="-526" rx="52.7911" ry="18"/>
<text text-anchor="middle" x="608" y="-522.3" font-family="Times New Roman,serif" font-size="14.00">head&#45;down</text>
</a>
</g>
</g>
<!-- lateral display&#45;&gt;head&#45;down -->
<g id="edge6" class="edge"><title>lateral display&#45;&gt;head&#45;down</title>
<path fill="none" stroke="#c1cdcd" stroke-width="0.8" d="M382.643,-683.363C393.429,-677.665 405.978,-670.915 417,-664 475.463,-627.322 538.793,-576.987 576.038,-548.659"/>
<polygon fill="#c1cdcd" stroke="#c1cdcd" stroke-width="0.8" points="578.605,-551.106 584.477,-542.288 574.387,-545.52 578.605,-551.106"/>
</g>
<!-- lateral display&#45;&gt;intoshell -->
<g id="edge7" class="edge"><title>lateral display&#45;&gt;intoshell</title>
<path fill="none" stroke="#c1cdcd" stroke-width="0.8" d="M300.377,-693.529C217.8,-683.73 76,-659.793 76,-614 76,-614 76,-614 76,-90 76,-48.0614 374.786,-27.7628 498.484,-21.3383"/>
<polygon fill="#c1cdcd" stroke="#c1cdcd" stroke-width="0.8" points="498.681,-24.8329 508.49,-20.8292 498.325,-17.8419 498.681,-24.8329"/>
</g>
<!-- lunging/shooting out -->
<g id="node8" class="node"><title>lunging/shooting out</title>
<g id="a_node8"><a xlink:title="what should &#013; be here">
<ellipse fill="#c1cdcd" stroke="black" cx="364" cy="-91" rx="89.8845" ry="18"/>
<text text-anchor="middle" x="364" y="-87.3" font-family="Times New Roman,serif" font-size="14.00">lunging/shooting out</text>
</a>
</g>
</g>
<!-- lateral display&#45;&gt;lunging/shooting out -->
<g id="edge9" class="edge"><title>lateral display&#45;&gt;lunging/shooting out</title>
<path fill="none" stroke="#c1cdcd" stroke-width="0.8" d="M300.913,-692.925C269.309,-687.902 230.168,-679.067 198,-664 164.674,-648.39 132,-650.8 132,-614 132,-614 132,-614 132,-177 132,-143.828 219.246,-118.899 286.797,-104.878"/>
<polygon fill="#c1cdcd" stroke="#c1cdcd" stroke-width="0.8" points="287.503,-108.306 296.608,-102.889 286.112,-101.446 287.503,-108.306"/>
</g>
<!-- unknown -->
<g id="node9" class="node"><title>unknown</title>
<g id="a_node9"><a xlink:title="what should &#013; be here">
<ellipse fill="#c1cdcd" stroke="black" cx="432" cy="-178" rx="46.5926" ry="18"/>
<text text-anchor="middle" x="432" y="-174.3" font-family="Times New Roman,serif" font-size="14.00">unknown</text>
</a>
</g>
</g>
<!-- lateral display&#45;&gt;unknown -->
<g id="edge10" class="edge"><title>lateral display&#45;&gt;unknown</title>
<path fill="none" stroke="#c1cdcd" stroke-width="0.8" d="M300.256,-693.441C250.891,-685.132 188,-664.572 188,-614 188,-614 188,-614 188,-481.5 188,-446.752 344.638,-267.112 407.046,-202.328"/>
<polygon fill="#c1cdcd" stroke="#c1cdcd" stroke-width="0.8" points="409.701,-204.618 414.173,-195.014 404.687,-199.733 409.701,-204.618"/>
</g>
<!-- driving -->
<g id="node10" class="node"><title>driving</title>
<g id="a_node10"><a xlink:title="what should &#013; be here">
<ellipse fill="#7fff00" stroke="black" cx="561" cy="-352" rx="43" ry="18"/>
<text text-anchor="middle" x="561" y="-348.3" font-family="Times New Roman,serif" font-size="14.00">driving</text>
</a>
</g>
</g>
<!-- lateral display&#45;&gt;driving -->
<g id="edge11" class="edge"><title>lateral display&#45;&gt;driving</title>
<path fill="none" stroke="#7fff00" stroke-width="0.9" d="M418.974,-696.911C511.51,-692.26 680.34,-677.464 715,-631 781.01,-542.51 649.756,-422.519 589.275,-374.327"/>
<polygon fill="#7fff00" stroke="#7fff00" stroke-width="0.9" points="591.264,-371.439 581.238,-368.014 586.94,-376.943 591.264,-371.439"/>
<text text-anchor="middle" x="732" y="-522.3" font-family="Times New Roman,serif" font-size="14.00">4</text>
</g>
<!-- sand spitting -->
<g id="node11" class="node"><title>sand spitting</title>
<g id="a_node11"><a xlink:title="what should &#013; be here">
<ellipse fill="#7fff00" stroke="black" cx="444" cy="-439" rx="57.6901" ry="18"/>
<text text-anchor="middle" x="444" y="-435.3" font-family="Times New Roman,serif" font-size="14.00">sand spitting</text>
</a>
</g>
</g>
<!-- lateral display&#45;&gt;sand spitting -->
<g id="edge12" class="edge"><title>lateral display&#45;&gt;sand spitting</title>
<path fill="none" stroke="#7fff00" stroke-width="0.9" d="M365.075,-682.001C367.37,-676.31 369.871,-669.911 372,-664 397.397,-593.497 423.369,-509.009 436.049,-466.785"/>
<polygon fill="#7fff00" stroke="#7fff00" stroke-width="0.9" points="439.465,-467.579 438.978,-456.995 432.759,-465.573 439.465,-467.579"/>
<text text-anchor="middle" x="411" y="-565.8" font-family="Times New Roman,serif" font-size="14.00">7</text>
</g>
<!-- tailbeat -->
<g id="node12" class="node"><title>tailbeat</title>
<g id="a_node12"><a xlink:title="what should &#013; be here">
<ellipse fill="#7fff00" stroke="black" cx="629" cy="-613" rx="43" ry="18"/>
<text text-anchor="middle" x="629" y="-609.3" font-family="Times New Roman,serif" font-size="14.00">tailbeat</text>
</a>
</g>
</g>
<!-- lateral display&#45;&gt;tailbeat -->
<g id="edge13" class="edge"><title>lateral display&#45;&gt;tailbeat</title>
<path fill="none" stroke="#7fff00" stroke-width="0.9" d="M404.556,-688.132C430.724,-681.724 463.882,-673.103 493,-664 525.932,-653.705 562.614,-640.089 589.576,-629.666"/>
<polygon fill="#7fff00" stroke="#7fff00" stroke-width="0.9" points="590.993,-632.87 599.044,-625.982 588.455,-626.346 590.993,-632.87"/>
<text text-anchor="middle" x="543" y="-652.8" font-family="Times New Roman,serif" font-size="14.00">26</text>
</g>
<!-- fish&#45;left out of shell -->
<g id="node3" class="node"><title>fish&#45;left out of shell</title>
<g id="a_node3"><a xlink:title="what should &#013; be here">
<ellipse fill="#c1cdcd" stroke="black" cx="747" cy="-787" rx="83.3857" ry="18"/>
<text text-anchor="middle" x="747" y="-783.3" font-family="Times New Roman,serif" font-size="14.00">fish&#45;left out of shell</text>
</a>
</g>
</g>
<!-- fish&#45;left out of shell&#45;&gt;lateral display -->
<g id="edge14" class="edge"><title>fish&#45;left out of shell&#45;&gt;lateral display</title>
<path fill="none" stroke="magenta" stroke-width="0.9" d="M690.436,-773.64C617.079,-757.611 489.79,-729.797 415.822,-713.635"/>
<polygon fill="magenta" stroke="magenta" stroke-width="0.9" points="416.267,-710.149 405.75,-711.434 414.772,-716.988 416.267,-710.149"/>
<text text-anchor="middle" x="580" y="-739.8" font-family="Times New Roman,serif" font-size="14.00">1</text>
</g>
<!-- fish&#45;left out of shell&#45;&gt;head&#45;down -->
<g id="edge15" class="edge"><title>fish&#45;left out of shell&#45;&gt;head&#45;down</title>
<path fill="none" stroke="#7fff00" stroke-width="0.9" d="M794.483,-772.101C858.771,-750.763 961.222,-706.317 922,-649 865.378,-566.255 743.775,-539.622 669.616,-531.055"/>
<polygon fill="#7fff00" stroke="#7fff00" stroke-width="0.9" points="669.796,-527.555 659.479,-529.963 669.046,-534.514 669.796,-527.555"/>
<text text-anchor="middle" x="933" y="-652.8" font-family="Times New Roman,serif" font-size="14.00">1</text>
</g>
<!-- fish&#45;right out of shell -->
<g id="node4" class="node"><title>fish&#45;right out of shell</title>
<g id="a_node4"><a xlink:title="what should &#013; be here">
<ellipse fill="#c1cdcd" stroke="black" cx="358" cy="-787" rx="89.0842" ry="18"/>
<text text-anchor="middle" x="358" y="-783.3" font-family="Times New Roman,serif" font-size="14.00">fish&#45;right out of shell</text>
</a>
</g>
</g>
<!-- fish&#45;right out of shell&#45;&gt;lateral display -->
<g id="edge16" class="edge"><title>fish&#45;right out of shell&#45;&gt;lateral display</title>
<path fill="none" stroke="#c1cdcd" stroke-width="0.8" d="M358,-768.799C358,-757.163 358,-741.548 358,-728.237"/>
<polygon fill="#c1cdcd" stroke="#c1cdcd" stroke-width="0.8" points="361.5,-728.175 358,-718.175 354.5,-728.175 361.5,-728.175"/>
</g>
<!-- frontal&#45;&gt;bite -->
<g id="edge17" class="edge"><title>frontal&#45;&gt;bite</title>
<path fill="none" stroke="#c1cdcd" stroke-width="0.8" d="M587.89,-276.047C567.794,-282.372 542.066,-291.183 520,-301 464.038,-325.897 38,-507.25 38,-568.5 38,-701 38,-701 38,-701 38,-731.256 65.2329,-754.048 89.5703,-768.376"/>
<polygon fill="#c1cdcd" stroke="#c1cdcd" stroke-width="0.8" points="87.9111,-771.458 98.3499,-773.27 91.3193,-765.344 87.9111,-771.458"/>
</g>
<!-- frontal&#45;&gt;lateral display -->
<g id="edge21" class="edge"><title>frontal&#45;&gt;lateral display</title>
<path fill="none" stroke="#c1cdcd" stroke-width="0.8" d="M663.651,-269.505C743.133,-277.706 908,-301.325 908,-351 908,-614 908,-614 908,-614 908,-661.584 577.155,-686.727 428.61,-695.427"/>
<polygon fill="#c1cdcd" stroke="#c1cdcd" stroke-width="0.8" points="428.019,-691.955 418.237,-696.025 428.422,-698.944 428.019,-691.955"/>
</g>
<!-- frontal&#45;&gt;frontal -->
<g id="edge18" class="edge"><title>frontal&#45;&gt;frontal</title>
<path fill="none" stroke="#c1cdcd" stroke-width="0.8" d="M660.719,-272.873C673.149,-272.792 683,-270.168 683,-265 683,-261.366 678.13,-258.99 670.917,-257.871"/>
<polygon fill="#c1cdcd" stroke="#c1cdcd" stroke-width="0.8" points="670.947,-254.364 660.719,-257.127 670.437,-261.346 670.947,-254.364"/>
</g>
<!-- frontal&#45;&gt;head&#45;down -->
<g id="edge19" class="edge"><title>frontal&#45;&gt;head&#45;down</title>
<path fill="none" stroke="#c1cdcd" stroke-width="0.8" d="M641.206,-281.247C652.748,-294.434 665.957,-314.414 673,-334 696.529,-399.436 721.212,-430.635 685,-490 679.336,-499.286 670.333,-506.213 660.414,-511.34"/>
<polygon fill="#c1cdcd" stroke="#c1cdcd" stroke-width="0.8" points="658.777,-508.239 651.116,-515.558 661.669,-514.614 658.777,-508.239"/>
</g>
<!-- frontal&#45;&gt;intoshell -->
<g id="edge20" class="edge"><title>frontal&#45;&gt;intoshell</title>
<path fill="none" stroke="magenta" stroke-width="0.9" d="M629.437,-247.252C645.088,-209.209 676.765,-114.872 636,-54 627.703,-41.61 614.139,-33.6019 600.258,-28.4275"/>
<polygon fill="magenta" stroke="magenta" stroke-width="0.9" points="601.251,-25.0699 590.658,-25.2789 599.069,-31.7212 601.251,-25.0699"/>
<text text-anchor="middle" x="660" y="-130.8" font-family="Times New Roman,serif" font-size="14.00">1</text>
</g>
<!-- frontal&#45;&gt;lunging/shooting out -->
<g id="edge22" class="edge"><title>frontal&#45;&gt;lunging/shooting out</title>
<path fill="none" stroke="magenta" stroke-width="0.9" d="M594.831,-251.006C584.218,-245.165 572.373,-237.634 563,-229 535.335,-203.517 543.022,-183.926 514,-160 486.826,-137.597 451.078,-121.011 421.296,-109.83"/>
<polygon fill="magenta" stroke="magenta" stroke-width="0.9" points="422.449,-106.525 411.855,-106.389 420.052,-113.101 422.449,-106.525"/>
<text text-anchor="middle" x="544" y="-174.3" font-family="Times New Roman,serif" font-size="14.00">2</text>
</g>
<!-- frontal&#45;&gt;unknown -->
<g id="edge25" class="edge"><title>frontal&#45;&gt;unknown</title>
<path fill="none" stroke="#7fff00" stroke-width="0.9" d="M582.726,-257.422C556.842,-252.081 522.733,-243.083 495,-229 480.974,-221.877 467.092,-211.341 455.944,-201.774"/>
<polygon fill="#7fff00" stroke="#7fff00" stroke-width="0.9" points="458.153,-199.055 448.347,-195.042 453.51,-204.294 458.153,-199.055"/>
<text text-anchor="middle" x="499" y="-217.8" font-family="Times New Roman,serif" font-size="14.00">1</text>
</g>
<!-- frontal&#45;&gt;sand spitting -->
<g id="edge23" class="edge"><title>frontal&#45;&gt;sand spitting</title>
<path fill="none" stroke="#7fff00" stroke-width="0.9" d="M591.071,-277.658C564.588,-288.872 526.761,-307.963 501,-334 478.924,-356.312 462.928,-388.929 453.599,-411.666"/>
<polygon fill="#7fff00" stroke="#7fff00" stroke-width="0.9" points="450.312,-410.459 449.897,-421.046 456.824,-413.029 450.312,-410.459"/>
<text text-anchor="middle" x="505" y="-348.3" font-family="Times New Roman,serif" font-size="14.00">1</text>
</g>
<!-- frontal&#45;&gt;tailbeat -->
<g id="edge24" class="edge"><title>frontal&#45;&gt;tailbeat</title>
<path fill="none" stroke="#7fff00" stroke-width="0.9" d="M664.657,-267.98C717.886,-273.008 802,-290.522 802,-351 802,-527 802,-527 802,-527 802,-581.318 732.45,-600.927 681.547,-608.005"/>
<polygon fill="#7fff00" stroke="#7fff00" stroke-width="0.9" points="680.803,-604.571 671.321,-609.296 681.68,-611.516 680.803,-604.571"/>
<text text-anchor="middle" x="806" y="-435.3" font-family="Times New Roman,serif" font-size="14.00">4</text>
</g>
<!-- head&#45;down&#45;&gt;lateral display -->
<g id="edge29" class="edge"><title>head&#45;down&#45;&gt;lateral display</title>
<path fill="none" stroke="#c1cdcd" stroke-width="0.8" d="M593.673,-543.796C564.425,-570.886 496.978,-625.117 435,-664 425.344,-670.058 414.517,-675.989 404.05,-681.197"/>
<polygon fill="#c1cdcd" stroke="#c1cdcd" stroke-width="0.8" points="402.469,-678.074 394.984,-685.572 405.512,-684.378 402.469,-678.074"/>
</g>
<!-- head&#45;down&#45;&gt;frontal -->
<g id="edge26" class="edge"><title>head&#45;down&#45;&gt;frontal</title>
<path fill="none" stroke="#c1cdcd" stroke-width="0.8" d="M641.608,-512.092C651.429,-506.897 661.054,-499.748 667,-490 703.212,-430.635 678.529,-399.436 655,-334 649.612,-319.017 640.616,-303.803 633.139,-291.576"/>
<polygon fill="#c1cdcd" stroke="#c1cdcd" stroke-width="0.8" points="636.01,-289.562 627.803,-282.861 630.04,-293.217 636.01,-289.562"/>
</g>
<!-- head&#45;down&#45;&gt;head&#45;down -->
<g id="edge27" class="edge"><title>head&#45;down&#45;&gt;head&#45;down</title>
<path fill="none" stroke="#c1cdcd" stroke-width="0.8" d="M655.545,-533.827C668.639,-533.449 678.645,-530.84 678.645,-526 678.645,-522.521 673.476,-520.195 665.706,-519.021"/>
<polygon fill="#c1cdcd" stroke="#c1cdcd" stroke-width="0.8" points="665.801,-515.517 655.545,-518.173 665.219,-522.493 665.801,-515.517"/>
</g>
<!-- head&#45;down&#45;&gt;intoshell -->
<g id="edge28" class="edge"><title>head&#45;down&#45;&gt;intoshell</title>
<path fill="none" stroke="magenta" stroke-width="0.9" d="M654.289,-517.398C746.858,-500.88 946,-458.18 946,-396.5 946,-396.5 946,-396.5 946,-90 946,-55.5686 710.501,-31.9787 603.179,-23.016"/>
<polygon fill="magenta" stroke="magenta" stroke-width="0.9" points="603.151,-19.502 592.898,-22.1694 602.577,-26.4783 603.151,-19.502"/>
<text text-anchor="middle" x="950" y="-261.3" font-family="Times New Roman,serif" font-size="14.00">1</text>
</g>
<!-- head&#45;down&#45;&gt;lunging/shooting out -->
<g id="edge30" class="edge"><title>head&#45;down&#45;&gt;lunging/shooting out</title>
<path fill="none" stroke="magenta" stroke-width="0.9" d="M555.46,-523.583C454.657,-519.43 244,-503.191 244,-440 244,-440 244,-440 244,-177 244,-152.35 249.738,-143.556 268,-127 276.386,-119.397 286.556,-113.41 297.099,-108.705"/>
<polygon fill="magenta" stroke="magenta" stroke-width="0.9" points="298.493,-111.917 306.425,-104.893 295.844,-105.437 298.493,-111.917"/>
<text text-anchor="middle" x="248" y="-304.8" font-family="Times New Roman,serif" font-size="14.00">7</text>
</g>
<!-- head&#45;down&#45;&gt;unknown -->
<g id="edge31" class="edge"><title>head&#45;down&#45;&gt;unknown</title>
<path fill="none" stroke="#c1cdcd" stroke-width="0.8" d="M609.02,-508C616.157,-472.799 636.491,-390.506 604,-334 596.438,-320.849 587.414,-324.719 575,-316 523.993,-280.173 509.72,-272.421 465,-229 457.152,-221.38 449.254,-212.402 442.94,-204.171"/>
<polygon fill="#c1cdcd" stroke="#c1cdcd" stroke-width="0.8" points="445.696,-202.009 437.002,-195.953 440.022,-206.108 445.696,-202.009"/>
</g>
<!-- head&#45;down&#45;&gt;driving -->
<g id="edge32" class="edge"><title>head&#45;down&#45;&gt;driving</title>
<path fill="none" stroke="#7fff00" stroke-width="0.9" d="M599.115,-508.127C592.368,-494.637 583.365,-475.059 578,-457 570.458,-431.611 566.01,-401.68 563.568,-380.462"/>
<polygon fill="#7fff00" stroke="#7fff00" stroke-width="0.9" points="567.017,-379.799 562.468,-370.231 560.057,-380.548 567.017,-379.799"/>
<text text-anchor="middle" x="582" y="-435.3" font-family="Times New Roman,serif" font-size="14.00">1</text>
</g>
<!-- head&#45;down&#45;&gt;sand spitting -->
<g id="edge33" class="edge"><title>head&#45;down&#45;&gt;sand spitting</title>
<path fill="none" stroke="#7fff00" stroke-width="0.9" d="M580.18,-510.581C553.015,-496.502 511.492,-474.98 481.438,-459.404"/>
<polygon fill="#7fff00" stroke="#7fff00" stroke-width="0.9" points="482.997,-456.27 472.508,-454.776 479.776,-462.485 482.997,-456.27"/>
<text text-anchor="middle" x="540" y="-478.8" font-family="Times New Roman,serif" font-size="14.00">2</text>
</g>
<!-- head&#45;down&#45;&gt;tailbeat -->
<g id="edge34" class="edge"><title>head&#45;down&#45;&gt;tailbeat</title>
<path fill="none" stroke="#7fff00" stroke-width="0.9" d="M612.243,-544.175C615.117,-555.806 618.974,-571.419 622.264,-584.734"/>
<polygon fill="#7fff00" stroke="#7fff00" stroke-width="0.9" points="618.954,-585.93 624.75,-594.799 625.75,-584.251 618.954,-585.93"/>
<text text-anchor="middle" x="624" y="-565.8" font-family="Times New Roman,serif" font-size="14.00">3</text>
</g>
<!-- intoshell&#45;&gt;lateral display -->
<g id="edge37" class="edge"><title>intoshell&#45;&gt;lateral display</title>
<path fill="none" stroke="#c1cdcd" stroke-width="0.8" d="M508.512,-21.2672C395.013,-27.612 94,-47.9054 94,-90 94,-614 94,-614 94,-614 94,-656.044 213.531,-679.664 291.799,-690.833"/>
<polygon fill="#c1cdcd" stroke="#c1cdcd" stroke-width="0.8" points="291.69,-694.352 302.077,-692.263 292.655,-687.418 291.69,-694.352"/>
</g>
<!-- intoshell&#45;&gt;frontal -->
<g id="edge35" class="edge"><title>intoshell&#45;&gt;frontal</title>
<path fill="none" stroke="#c1cdcd" stroke-width="0.8" d="M556.021,-35.9354C566.029,-69.7483 589.127,-148.045 608,-214 610.148,-221.507 612.446,-229.659 614.545,-237.16"/>
<polygon fill="#c1cdcd" stroke="#c1cdcd" stroke-width="0.8" points="611.194,-238.171 617.253,-246.862 617.936,-236.289 611.194,-238.171"/>
</g>
<!-- intoshell&#45;&gt;head&#45;down -->
<g id="edge36" class="edge"><title>intoshell&#45;&gt;head&#45;down</title>
<path fill="none" stroke="#c1cdcd" stroke-width="0.8" d="M593.306,-21.526C702.26,-28.5941 984,-50.6734 984,-90 984,-440 984,-440 984,-440 984,-502.736 771.898,-497.778 710,-508 695.177,-510.448 679.145,-513.112 664.278,-515.59"/>
<polygon fill="#c1cdcd" stroke="#c1cdcd" stroke-width="0.8" points="663.49,-512.173 654.201,-517.27 664.641,-519.078 663.49,-512.173"/>
</g>
<!-- intoshell&#45;&gt;unknown -->
<g id="edge38" class="edge"><title>intoshell&#45;&gt;unknown</title>
<path fill="none" stroke="#c1cdcd" stroke-width="0.8" d="M542.293,-35.9699C532.396,-54.6171 515.234,-85.0948 497,-109 484.746,-125.065 469.155,-141.484 456.314,-154.163"/>
<polygon fill="#c1cdcd" stroke="#c1cdcd" stroke-width="0.8" points="453.844,-151.683 449.118,-161.165 458.726,-156.7 453.844,-151.683"/>
</g>
<!-- lunging/shooting out&#45;&gt;lateral display -->
<g id="edge42" class="edge"><title>lunging/shooting out&#45;&gt;lateral display</title>
<path fill="none" stroke="#c1cdcd" stroke-width="0.8" d="M303.186,-104.262C239.853,-118.161 150,-143.336 150,-177 150,-614 150,-614 150,-614 150,-650.8 182.674,-648.39 216,-664 240.741,-675.589 269.606,-683.49 294.873,-688.807"/>
<polygon fill="#c1cdcd" stroke="#c1cdcd" stroke-width="0.8" points="294.233,-692.248 304.727,-690.79 295.614,-685.385 294.233,-692.248"/>
</g>
<!-- lunging/shooting out&#45;&gt;frontal -->
<g id="edge39" class="edge"><title>lunging/shooting out&#45;&gt;frontal</title>
<path fill="none" stroke="#c1cdcd" stroke-width="0.8" d="M430.993,-103.135C470.164,-112.59 518.361,-129.668 552,-160 576.751,-182.318 596.937,-215.146 609.164,-237.926"/>
<polygon fill="#c1cdcd" stroke="#c1cdcd" stroke-width="0.8" points="606.177,-239.768 613.907,-247.014 612.383,-236.529 606.177,-239.768"/>
</g>
<!-- lunging/shooting out&#45;&gt;head&#45;down -->
<g id="edge40" class="edge"><title>lunging/shooting out&#45;&gt;head&#45;down</title>
<path fill="none" stroke="magenta" stroke-width="0.9" d="M332.999,-108.123C309.778,-122.666 282,-146.448 282,-177 282,-353 282,-353 282,-353 282,-471.545 452.708,-508.59 547.064,-520.013"/>
<polygon fill="magenta" stroke="magenta" stroke-width="0.9" points="546.728,-523.497 557.063,-521.162 547.528,-516.543 546.728,-523.497"/>
<text text-anchor="middle" x="290" y="-304.8" font-family="Times New Roman,serif" font-size="14.00">12</text>
</g>
<!-- lunging/shooting out&#45;&gt;intoshell -->
<g id="edge41" class="edge"><title>lunging/shooting out&#45;&gt;intoshell</title>
<path fill="none" stroke="#c1cdcd" stroke-width="0.8" d="M404.116,-74.7687C435.627,-62.8046 479.304,-46.2214 510.829,-34.2519"/>
<polygon fill="#c1cdcd" stroke="#c1cdcd" stroke-width="0.8" points="512.09,-37.5173 520.196,-30.6956 509.605,-30.9731 512.09,-37.5173"/>
</g>
<!-- lunging/shooting out&#45;&gt;lunging/shooting out -->
<g id="edge43" class="edge"><title>lunging/shooting out&#45;&gt;lunging/shooting out</title>
<path fill="none" stroke="magenta" stroke-width="0.9" d="M448.43,-97.2453C462.217,-96.3513 471.692,-94.2695 471.692,-91 471.692,-88.5989 466.582,-86.8384 458.407,-85.7185"/>
<polygon fill="magenta" stroke="magenta" stroke-width="0.9" points="458.72,-82.2326 448.43,-84.7547 458.047,-89.2001 458.72,-82.2326"/>
<text text-anchor="middle" x="479.692" y="-87.3" font-family="Times New Roman,serif" font-size="14.00">10</text>
</g>
<!-- lunging/shooting out&#45;&gt;unknown -->
<g id="edge44" class="edge"><title>lunging/shooting out&#45;&gt;unknown</title>
<path fill="none" stroke="magenta" stroke-width="0.9" d="M377.536,-108.92C387.582,-121.477 401.423,-138.779 412.638,-152.797"/>
<polygon fill="magenta" stroke="magenta" stroke-width="0.9" points="409.909,-154.989 418.889,-160.611 415.375,-150.616 409.909,-154.989"/>
<text text-anchor="middle" x="407" y="-130.8" font-family="Times New Roman,serif" font-size="14.00">2</text>
</g>
<!-- unknown&#45;&gt;lateral display -->
<g id="edge46" class="edge"><title>unknown&#45;&gt;lateral display</title>
<path fill="none" stroke="#c1cdcd" stroke-width="0.8" d="M420.498,-195.812C374.075,-254.04 206,-445.505 206,-481.5 206,-614 206,-614 206,-614 206,-657.308 252.12,-678.606 293.611,-689.049"/>
<polygon fill="#c1cdcd" stroke="#c1cdcd" stroke-width="0.8" points="292.94,-692.487 303.475,-691.357 294.535,-685.671 292.94,-692.487"/>
</g>
<!-- unknown&#45;&gt;frontal -->
<g id="edge49" class="edge"><title>unknown&#45;&gt;frontal</title>
<path fill="none" stroke="#7fff00" stroke-width="0.9" d="M460.249,-192.366C473.131,-198.654 488.49,-206.423 502,-214 512.971,-220.153 514.696,-223.482 526,-229 542.791,-237.196 562.017,-244.573 578.83,-250.417"/>
<polygon fill="#7fff00" stroke="#7fff00" stroke-width="0.9" points="577.82,-253.77 588.415,-253.675 580.073,-247.143 577.82,-253.77"/>
<text text-anchor="middle" x="530" y="-217.8" font-family="Times New Roman,serif" font-size="14.00">1</text>
</g>
<!-- unknown&#45;&gt;head&#45;down -->
<g id="edge45" class="edge"><title>unknown&#45;&gt;head&#45;down</title>
<path fill="none" stroke="#c1cdcd" stroke-width="0.8" d="M451.393,-194.58C460.776,-204.82 471.938,-218.26 483,-229 527.72,-272.421 541.993,-280.173 593,-316 605.414,-324.719 614.438,-320.849 622,-334 651.901,-386.003 637.063,-459.846 622.6,-498.724"/>
<polygon fill="#c1cdcd" stroke="#c1cdcd" stroke-width="0.8" points="619.245,-497.684 618.764,-508.268 625.74,-500.295 619.245,-497.684"/>
</g>
<!-- unknown&#45;&gt;intoshell -->
<g id="edge50" class="edge"><title>unknown&#45;&gt;intoshell</title>
<path fill="none" stroke="#7fff00" stroke-width="0.9" d="M459.804,-163.198C480.516,-151.518 507.891,-132.873 524,-109 538.496,-87.5179 539.277,-80.028 546,-55 546.767,-52.1435 547.421,-49.126 547.978,-46.1024"/>
<polygon fill="#7fff00" stroke="#7fff00" stroke-width="0.9" points="551.467,-46.437 549.516,-36.0233 544.547,-45.3805 551.467,-46.437"/>
<text text-anchor="middle" x="546" y="-87.3" font-family="Times New Roman,serif" font-size="14.00">3</text>
</g>
<!-- unknown&#45;&gt;lunging/shooting out -->
<g id="edge47" class="edge"><title>unknown&#45;&gt;lunging/shooting out</title>
<path fill="none" stroke="magenta" stroke-width="0.9" d="M405.839,-163.057C397.293,-157.455 388.372,-150.333 382,-142 376.799,-135.198 373.003,-126.756 370.277,-118.757"/>
<polygon fill="magenta" stroke="magenta" stroke-width="0.9" points="373.585,-117.601 367.372,-109.019 366.877,-119.603 373.585,-117.601"/>
<text text-anchor="middle" x="386" y="-130.8" font-family="Times New Roman,serif" font-size="14.00">3</text>
</g>
<!-- unknown&#45;&gt;unknown -->
<g id="edge48" class="edge"><title>unknown&#45;&gt;unknown</title>
<path fill="none" stroke="magenta" stroke-width="0.9" d="M474.377,-185.858C486.985,-185.623 496.796,-183.004 496.796,-178 496.796,-174.482 491.946,-172.142 484.683,-170.982"/>
<polygon fill="magenta" stroke="magenta" stroke-width="0.9" points="484.628,-167.466 474.377,-170.142 484.06,-174.443 484.628,-167.466"/>
<text text-anchor="middle" x="500.796" y="-174.3" font-family="Times New Roman,serif" font-size="14.00">5</text>
</g>
<!-- driving&#45;&gt;lateral display -->
<g id="edge53" class="edge"><title>driving&#45;&gt;lateral display</title>
<path fill="none" stroke="#7fff00" stroke-width="0.9" d="M529.143,-364.346C478.25,-382.531 383.621,-416.619 377,-421 346.192,-441.387 320,-444.557 320,-481.5 320,-614 320,-614 320,-614 320,-635.215 329.987,-657.017 339.722,-673.23"/>
<polygon fill="#7fff00" stroke="#7fff00" stroke-width="0.9" points="337.03,-675.519 345.347,-682.082 342.938,-671.765 337.03,-675.519"/>
<text text-anchor="middle" x="324" y="-522.3" font-family="Times New Roman,serif" font-size="14.00">5</text>
</g>
<!-- driving&#45;&gt;frontal -->
<g id="edge51" class="edge"><title>driving&#45;&gt;frontal</title>
<path fill="none" stroke="#7fff00" stroke-width="0.9" d="M572.761,-334.611C581.707,-322.147 594.163,-304.79 604.308,-290.652"/>
<polygon fill="#7fff00" stroke="#7fff00" stroke-width="0.9" points="607.288,-292.504 610.275,-282.339 601.601,-288.422 607.288,-292.504"/>
<text text-anchor="middle" x="600" y="-304.8" font-family="Times New Roman,serif" font-size="14.00">3</text>
</g>
<!-- driving&#45;&gt;head&#45;down -->
<g id="edge52" class="edge"><title>driving&#45;&gt;head&#45;down</title>
<path fill="none" stroke="#7fff00" stroke-width="0.9" d="M571.325,-369.618C574.487,-375.283 577.727,-381.764 580,-388 593.356,-424.648 600.976,-469.259 604.8,-497.402"/>
<polygon fill="#7fff00" stroke="#7fff00" stroke-width="0.9" points="601.375,-498.212 606.126,-507.682 608.317,-497.316 601.375,-498.212"/>
<text text-anchor="middle" x="602" y="-435.3" font-family="Times New Roman,serif" font-size="14.00">2</text>
</g>
<!-- driving&#45;&gt;sand spitting -->
<g id="edge54" class="edge"><title>driving&#45;&gt;sand spitting</title>
<path fill="none" stroke="#7fff00" stroke-width="0.9" d="M550.03,-369.473C542.322,-380.091 531.233,-393.616 519,-403 510.097,-409.83 499.646,-415.75 489.421,-420.68"/>
<polygon fill="#7fff00" stroke="#7fff00" stroke-width="0.9" points="487.78,-417.581 480.144,-424.926 490.694,-423.946 487.78,-417.581"/>
<text text-anchor="middle" x="539" y="-391.8" font-family="Times New Roman,serif" font-size="14.00">1</text>
</g>
<!-- sand spitting&#45;&gt;lateral display -->
<g id="edge57" class="edge"><title>sand spitting&#45;&gt;lateral display</title>
<path fill="none" stroke="#7fff00" stroke-width="0.9" d="M434.416,-457.014C426.976,-470.583 416.671,-490.197 409,-508 384.958,-563.799 369.779,-633.759 362.702,-671.614"/>
<polygon fill="#7fff00" stroke="#7fff00" stroke-width="0.9" points="359.188,-671.377 360.842,-681.841 366.075,-672.629 359.188,-671.377"/>
<text text-anchor="middle" x="394" y="-565.8" font-family="Times New Roman,serif" font-size="14.00">3</text>
</g>
<!-- sand spitting&#45;&gt;head&#45;down -->
<g id="edge56" class="edge"><title>sand spitting&#45;&gt;head&#45;down</title>
<path fill="none" stroke="#7fff00" stroke-width="0.9" d="M460.658,-456.462C472.284,-467.21 488.601,-480.89 505,-490 521.009,-498.894 539.668,-506.072 556.673,-511.557"/>
<polygon fill="#7fff00" stroke="#7fff00" stroke-width="0.9" points="555.874,-514.974 566.462,-514.592 557.947,-508.288 555.874,-514.974"/>
<text text-anchor="middle" x="509" y="-478.8" font-family="Times New Roman,serif" font-size="14.00">1</text>
</g>
<!-- sand spitting&#45;&gt;unknown -->
<g id="edge59" class="edge"><title>sand spitting&#45;&gt;unknown</title>
<path fill="none" stroke="#7fff00" stroke-width="0.9" d="M442.251,-420.958C438.696,-385.354 430.731,-300.456 428,-229 427.745,-222.338 427.621,-220.656 428,-214 428.146,-211.435 428.352,-208.77 428.594,-206.107"/>
<polygon fill="#7fff00" stroke="#7fff00" stroke-width="0.9" points="432.086,-206.369 429.657,-196.056 425.124,-205.633 432.086,-206.369"/>
<text text-anchor="middle" x="438" y="-304.8" font-family="Times New Roman,serif" font-size="14.00">1</text>
</g>
<!-- sand spitting&#45;&gt;driving -->
<g id="edge55" class="edge"><title>sand spitting&#45;&gt;driving</title>
<path fill="none" stroke="#7fff00" stroke-width="0.9" d="M465.383,-422.161C478.748,-412.289 496.338,-399.351 512,-388 518.285,-383.445 525.046,-378.588 531.479,-373.987"/>
<polygon fill="#7fff00" stroke="#7fff00" stroke-width="0.9" points="533.866,-376.584 539.971,-367.925 529.799,-370.886 533.866,-376.584"/>
<text text-anchor="middle" x="516" y="-391.8" font-family="Times New Roman,serif" font-size="14.00">6</text>
</g>
<!-- sand spitting&#45;&gt;sand spitting -->
<g id="edge58" class="edge"><title>sand spitting&#45;&gt;sand spitting</title>
<path fill="none" stroke="#7fff00" stroke-width="0.9" d="M496.462,-446.781C509.818,-446.269 519.845,-443.676 519.845,-439 519.845,-435.603 514.552,-433.305 506.534,-432.106"/>
<polygon fill="#7fff00" stroke="#7fff00" stroke-width="0.9" points="506.73,-428.61 496.462,-431.219 506.117,-435.583 506.73,-428.61"/>
<text text-anchor="middle" x="523.845" y="-435.3" font-family="Times New Roman,serif" font-size="14.00">1</text>
</g>
<!-- tailbeat&#45;&gt;lateral display -->
<g id="edge62" class="edge"><title>tailbeat&#45;&gt;lateral display</title>
<path fill="none" stroke="#7fff00" stroke-width="0.9" d="M610.783,-629.522C596.52,-640.842 575.693,-655.614 555,-664 514.512,-680.407 466.262,-689.141 427.646,-693.781"/>
<polygon fill="#7fff00" stroke="#7fff00" stroke-width="0.9" points="427.078,-690.323 417.537,-694.929 427.869,-697.278 427.078,-690.323"/>
<text text-anchor="middle" x="592" y="-652.8" font-family="Times New Roman,serif" font-size="14.00">15</text>
</g>
<!-- tailbeat&#45;&gt;frontal -->
<g id="edge60" class="edge"><title>tailbeat&#45;&gt;frontal</title>
<path fill="none" stroke="#7fff00" stroke-width="0.9" d="M672.216,-612.485C708.664,-610.826 760.567,-603.391 797,-577 873.149,-521.84 839.416,-421.598 816,-334 811.63,-317.65 810.746,-310.873 797,-301 777.506,-286.998 717.51,-277.124 673.177,-271.511"/>
<polygon fill="#7fff00" stroke="#7fff00" stroke-width="0.9" points="673.48,-268.022 663.128,-270.277 672.627,-274.97 673.48,-268.022"/>
<text text-anchor="middle" x="852" y="-435.3" font-family="Times New Roman,serif" font-size="14.00">10</text>
</g>
<!-- tailbeat&#45;&gt;head&#45;down -->
<g id="edge61" class="edge"><title>tailbeat&#45;&gt;head&#45;down</title>
<path fill="none" stroke="#7fff00" stroke-width="0.9" d="M615.379,-595.558C611.58,-590.006 607.959,-583.548 606,-577 603.834,-569.759 603.371,-561.665 603.704,-554.134"/>
<polygon fill="#7fff00" stroke="#7fff00" stroke-width="0.9" points="607.204,-554.282 604.61,-544.01 600.232,-553.658 607.204,-554.282"/>
<text text-anchor="middle" x="610" y="-565.8" font-family="Times New Roman,serif" font-size="14.00">8</text>
</g>
<!-- tailbeat&#45;&gt;tailbeat -->
<g id="edge63" class="edge"><title>tailbeat&#45;&gt;tailbeat</title>
<path fill="none" stroke="#7fff00" stroke-width="0.9" d="M667.719,-620.873C680.149,-620.792 690,-618.168 690,-613 690,-609.366 685.13,-606.99 677.917,-605.871"/>
<polygon fill="#7fff00" stroke="#7fff00" stroke-width="0.9" points="677.947,-602.364 667.719,-605.127 677.437,-609.346 677.947,-602.364"/>
<text text-anchor="middle" x="698" y="-609.3" font-family="Times New Roman,serif" font-size="14.00">14</text>
</g>
</g>
</svg>
