<?xml version="1.0" encoding="UTF-8" standalone="no"?>
<!DOCTYPE svg PUBLIC "-//W3C//DTD SVG 1.1//EN"
 "http://www.w3.org/Graphics/SVG/1.1/DTD/svg11.dtd">
<!-- Generated by graphviz version 2.38.0 (20140413.2041)
 -->
<!-- Title: multi7&#45;2021_4_20 Pages: 1 -->
<svg width="904pt" height="726pt"
 viewBox="0.00 0.00 904.00 726.00" xmlns="http://www.w3.org/2000/svg" xmlns:xlink="http://www.w3.org/1999/xlink">
<g id="graph0" class="graph" transform="scale(1 1) rotate(0) translate(4 722)">
<title>multi7&#45;2021_4_20</title>
<polygon fill="white" stroke="none" points="-4,4 -4,-722 900,-722 900,4 -4,4"/>
<!-- fish&#45;left out of shell -->
<g id="node1" class="node"><title>fish&#45;left out of shell</title>
<g id="a_node1"><a xlink:title="what should &#013; be here">
<ellipse fill="#c1cdcd" stroke="black" cx="460" cy="-700" rx="83.3857" ry="18"/>
<text text-anchor="middle" x="460" y="-696.3" font-family="Times New Roman,serif" font-size="14.00">fish&#45;left out of shell</text>
</a>
</g>
</g>
<!-- lateral display -->
<g id="node2" class="node"><title>lateral display</title>
<g id="a_node2"><a xlink:title="what should &#013; be here">
<ellipse fill="#c1cdcd" stroke="black" cx="460" cy="-613" rx="61.99" ry="18"/>
<text text-anchor="middle" x="460" y="-609.3" font-family="Times New Roman,serif" font-size="14.00">lateral display</text>
</a>
</g>
</g>
<!-- fish&#45;left out of shell&#45;&gt;lateral display -->
<g id="edge1" class="edge"><title>fish&#45;left out of shell&#45;&gt;lateral display</title>
<path fill="none" stroke="#c1cdcd" stroke-width="0.8" d="M460,-681.799C460,-670.163 460,-654.548 460,-641.237"/>
<polygon fill="#c1cdcd" stroke="#c1cdcd" stroke-width="0.8" points="463.5,-641.175 460,-631.175 456.5,-641.175 463.5,-641.175"/>
</g>
<!-- lateral display&#45;&gt;lateral display -->
<g id="edge4" class="edge"><title>lateral display&#45;&gt;lateral display</title>
<path fill="none" stroke="#c1cdcd" stroke-width="0.8" d="M517.705,-619.568C530.457,-618.951 539.745,-616.762 539.745,-613 539.745,-610.355 535.153,-608.487 527.994,-607.397"/>
<polygon fill="#c1cdcd" stroke="#c1cdcd" stroke-width="0.8" points="527.988,-603.881 517.705,-606.432 527.334,-610.851 527.988,-603.881"/>
</g>
<!-- tailbeat -->
<g id="node4" class="node"><title>tailbeat</title>
<g id="a_node4"><a xlink:title="what should &#013; be here">
<ellipse fill="#c1cdcd" stroke="black" cx="663" cy="-540" rx="43" ry="18"/>
<text text-anchor="middle" x="663" y="-536.3" font-family="Times New Roman,serif" font-size="14.00">tailbeat</text>
</a>
</g>
</g>
<!-- lateral display&#45;&gt;tailbeat -->
<g id="edge6" class="edge"><title>lateral display&#45;&gt;tailbeat</title>
<path fill="none" stroke="#c1cdcd" stroke-width="0.8" d="M495.626,-598.115C514.282,-591.853 537.344,-584.248 558,-577 578.167,-569.924 600.535,-561.566 619.531,-554.686"/>
<polygon fill="#c1cdcd" stroke="#c1cdcd" stroke-width="0.8" points="620.901,-557.912 629.128,-551.237 618.534,-551.325 620.901,-557.912"/>
</g>
<!-- frontal -->
<g id="node5" class="node"><title>frontal</title>
<g id="a_node5"><a xlink:title="what should &#013; be here">
<ellipse fill="#c1cdcd" stroke="black" cx="493" cy="-366" rx="43" ry="18"/>
<text text-anchor="middle" x="493" y="-362.3" font-family="Times New Roman,serif" font-size="14.00">frontal</text>
</a>
</g>
</g>
<!-- lateral display&#45;&gt;frontal -->
<g id="edge2" class="edge"><title>lateral display&#45;&gt;frontal</title>
<path fill="none" stroke="#c1cdcd" stroke-width="0.8" d="M458.653,-594.772C460.476,-552.674 474.823,-444.334 484.99,-393.755"/>
<polygon fill="#c1cdcd" stroke="#c1cdcd" stroke-width="0.8" points="488.433,-394.393 487.09,-383.884 481.586,-392.936 488.433,-394.393"/>
</g>
<!-- head&#45;down -->
<g id="node6" class="node"><title>head&#45;down</title>
<g id="a_node6"><a xlink:title="what should &#013; be here">
<ellipse fill="#c1cdcd" stroke="black" cx="740" cy="-105" rx="52.7911" ry="18"/>
<text text-anchor="middle" x="740" y="-101.3" font-family="Times New Roman,serif" font-size="14.00">head&#45;down</text>
</a>
</g>
</g>
<!-- lateral display&#45;&gt;head&#45;down -->
<g id="edge3" class="edge"><title>lateral display&#45;&gt;head&#45;down</title>
<path fill="none" stroke="#c1cdcd" stroke-width="0.8" d="M519.26,-607.838C634.675,-599.258 878,-577.307 878,-541 878,-541 878,-541 878,-191 878,-149.595 833.754,-128.038 795.297,-117.013"/>
<polygon fill="#c1cdcd" stroke="#c1cdcd" stroke-width="0.8" points="795.727,-113.504 785.162,-114.302 793.918,-120.267 795.727,-113.504"/>
</g>
<!-- intoshell -->
<g id="node7" class="node"><title>intoshell</title>
<g id="a_node7"><a xlink:title="what should &#013; be here">
<ellipse fill="#c1cdcd" stroke="black" cx="596" cy="-453" rx="43" ry="18"/>
<text text-anchor="middle" x="596" y="-449.3" font-family="Times New Roman,serif" font-size="14.00">intoshell</text>
</a>
</g>
</g>
<!-- lateral display&#45;&gt;intoshell -->
<g id="edge8" class="edge"><title>lateral display&#45;&gt;intoshell</title>
<path fill="none" stroke="#7fff00" stroke-width="0.9" d="M492.173,-597.484C502.147,-591.998 512.69,-585.092 521,-577 550.046,-548.718 572.378,-506.938 584.854,-480.093"/>
<polygon fill="#7fff00" stroke="#7fff00" stroke-width="0.9" points="588.065,-481.484 588.998,-470.931 581.688,-478.599 588.065,-481.484"/>
<text text-anchor="middle" x="566" y="-536.3" font-family="Times New Roman,serif" font-size="14.00">6</text>
</g>
<!-- lunging/shooting out -->
<g id="node8" class="node"><title>lunging/shooting out</title>
<g id="a_node8"><a xlink:title="what should &#013; be here">
<ellipse fill="#c1cdcd" stroke="black" cx="470" cy="-279" rx="89.8845" ry="18"/>
<text text-anchor="middle" x="470" y="-275.3" font-family="Times New Roman,serif" font-size="14.00">lunging/shooting out</text>
</a>
</g>
</g>
<!-- lateral display&#45;&gt;lunging/shooting out -->
<g id="edge5" class="edge"><title>lateral display&#45;&gt;lunging/shooting out</title>
<path fill="none" stroke="#c1cdcd" stroke-width="0.8" d="M441.154,-595.62C428.078,-582.366 413,-562.435 413,-541 413,-541 413,-541 413,-365 413,-341.923 414.347,-334.299 427,-315 429.83,-310.683 433.361,-306.639 437.176,-302.943"/>
<polygon fill="#c1cdcd" stroke="#c1cdcd" stroke-width="0.8" points="439.551,-305.515 444.75,-296.284 434.929,-300.258 439.551,-305.515"/>
</g>
<!-- bite -->
<g id="node10" class="node"><title>bite</title>
<g id="a_node10"><a xlink:title="what should &#013; be here">
<ellipse fill="#7fff00" stroke="black" cx="346" cy="-192" rx="43" ry="18"/>
<text text-anchor="middle" x="346" y="-188.3" font-family="Times New Roman,serif" font-size="14.00">bite</text>
</a>
</g>
</g>
<!-- lateral display&#45;&gt;bite -->
<g id="edge7" class="edge"><title>lateral display&#45;&gt;bite</title>
<path fill="none" stroke="#7fff00" stroke-width="0.9" d="M398.452,-611.124C319.13,-608.989 186.482,-601.71 145,-577 128.264,-567.031 120,-560.48 120,-541 120,-541 120,-541 120,-278 120,-253.35 124.338,-242.867 144,-228 167.022,-210.592 241.952,-201.193 293.777,-196.642"/>
<polygon fill="#7fff00" stroke="#7fff00" stroke-width="0.9" points="294.141,-200.124 303.812,-195.796 293.553,-193.149 294.141,-200.124"/>
<text text-anchor="middle" x="128" y="-405.8" font-family="Times New Roman,serif" font-size="14.00">18</text>
</g>
<!-- mouth -->
<g id="node11" class="node"><title>mouth</title>
<g id="a_node11"><a xlink:title="what should &#013; be here">
<ellipse fill="#7fff00" stroke="black" cx="139" cy="-105" rx="43" ry="18"/>
<text text-anchor="middle" x="139" y="-101.3" font-family="Times New Roman,serif" font-size="14.00">mouth</text>
</a>
</g>
</g>
<!-- lateral display&#45;&gt;mouth -->
<g id="edge9" class="edge"><title>lateral display&#45;&gt;mouth</title>
<path fill="none" stroke="#7fff00" stroke-width="0.9" d="M400.397,-607.911C285.37,-599.217 44,-576.717 44,-541 44,-541 44,-541 44,-191 44,-159.325 73.6944,-136.499 99.88,-122.528"/>
<polygon fill="#7fff00" stroke="#7fff00" stroke-width="0.9" points="101.59,-125.586 108.941,-117.956 98.4368,-119.336 101.59,-125.586"/>
<text text-anchor="middle" x="48" y="-362.3" font-family="Times New Roman,serif" font-size="14.00">1</text>
</g>
<!-- fish&#45;right out of shell -->
<g id="node3" class="node"><title>fish&#45;right out of shell</title>
<g id="a_node3"><a xlink:title="what should &#013; be here">
<ellipse fill="#c1cdcd" stroke="black" cx="773" cy="-700" rx="89.0842" ry="18"/>
<text text-anchor="middle" x="773" y="-696.3" font-family="Times New Roman,serif" font-size="14.00">fish&#45;right out of shell</text>
</a>
</g>
</g>
<!-- fish&#45;right out of shell&#45;&gt;lateral display -->
<g id="edge11" class="edge"><title>fish&#45;right out of shell&#45;&gt;lateral display</title>
<path fill="none" stroke="#7fff00" stroke-width="0.9" d="M722.015,-685.154C664.701,-669.59 572.047,-644.428 513.66,-628.572"/>
<polygon fill="#7fff00" stroke="#7fff00" stroke-width="0.9" points="514.452,-625.161 503.884,-625.917 512.618,-631.916 514.452,-625.161"/>
<text text-anchor="middle" x="640" y="-652.8" font-family="Times New Roman,serif" font-size="14.00">1</text>
</g>
<!-- fish&#45;right out of shell&#45;&gt;tailbeat -->
<g id="edge10" class="edge"><title>fish&#45;right out of shell&#45;&gt;tailbeat</title>
<path fill="none" stroke="magenta" stroke-width="0.9" d="M761.228,-682.091C741.876,-654.294 703.234,-598.791 680.613,-566.299"/>
<polygon fill="magenta" stroke="magenta" stroke-width="0.9" points="683.273,-563.994 674.687,-557.787 677.529,-567.994 683.273,-563.994"/>
<text text-anchor="middle" x="730" y="-609.3" font-family="Times New Roman,serif" font-size="14.00">1</text>
</g>
<!-- tailbeat&#45;&gt;lateral display -->
<g id="edge15" class="edge"><title>tailbeat&#45;&gt;lateral display</title>
<path fill="none" stroke="#c1cdcd" stroke-width="0.8" d="M636.496,-554.355C619.255,-561.297 596.491,-569.81 576,-577 556.042,-584.003 533.837,-591.339 514.171,-597.476"/>
<polygon fill="#c1cdcd" stroke="#c1cdcd" stroke-width="0.8" points="512.969,-594.184 504.445,-600.477 515.032,-600.873 512.969,-594.184"/>
</g>
<!-- tailbeat&#45;&gt;tailbeat -->
<g id="edge16" class="edge"><title>tailbeat&#45;&gt;tailbeat</title>
<path fill="none" stroke="#c1cdcd" stroke-width="0.8" d="M702.895,-546.735C714.764,-546.534 724,-544.289 724,-540 724,-537.051 719.635,-535.069 713.049,-534.052"/>
<polygon fill="#c1cdcd" stroke="#c1cdcd" stroke-width="0.8" points="713.135,-530.548 702.895,-533.265 712.594,-537.527 713.135,-530.548"/>
</g>
<!-- tailbeat&#45;&gt;frontal -->
<g id="edge12" class="edge"><title>tailbeat&#45;&gt;frontal</title>
<path fill="none" stroke="#c1cdcd" stroke-width="0.8" d="M628.733,-528.888C600.279,-518.012 560.812,-498.498 535,-471 514.326,-448.976 500.355,-416.992 494.156,-394.318"/>
<polygon fill="#c1cdcd" stroke="#c1cdcd" stroke-width="0.8" points="497.501,-393.253 491.8,-384.323 490.688,-394.859 497.501,-393.253"/>
</g>
<!-- tailbeat&#45;&gt;head&#45;down -->
<g id="edge13" class="edge"><title>tailbeat&#45;&gt;head&#45;down</title>
<path fill="none" stroke="#c1cdcd" stroke-width="0.8" d="M688.987,-525.501C709.948,-514.485 737.712,-496.543 751,-471 809.973,-357.638 763.805,-196.802 745.786,-133.3"/>
<polygon fill="#c1cdcd" stroke="#c1cdcd" stroke-width="0.8" points="749.046,-131.962 742.967,-123.284 742.308,-133.858 749.046,-131.962"/>
</g>
<!-- tailbeat&#45;&gt;intoshell -->
<g id="edge14" class="edge"><title>tailbeat&#45;&gt;intoshell</title>
<path fill="none" stroke="#c1cdcd" stroke-width="0.8" d="M646.424,-523.205C640.657,-517.387 634.308,-510.602 629,-504 622.845,-496.344 616.739,-487.531 611.485,-479.457"/>
<polygon fill="#c1cdcd" stroke="#c1cdcd" stroke-width="0.8" points="614.273,-477.319 605.956,-470.756 608.365,-481.073 614.273,-477.319"/>
</g>
<!-- unknown -->
<g id="node9" class="node"><title>unknown</title>
<g id="a_node9"><a xlink:title="what should &#013; be here">
<ellipse fill="magenta" stroke="black" cx="704" cy="-453" rx="46.5926" ry="18"/>
<text text-anchor="middle" x="704" y="-449.3" font-family="Times New Roman,serif" font-size="14.00">unknown</text>
</a>
</g>
</g>
<!-- tailbeat&#45;&gt;unknown -->
<g id="edge17" class="edge"><title>tailbeat&#45;&gt;unknown</title>
<path fill="none" stroke="magenta" stroke-width="0.9" d="M676.323,-522.583C680.466,-516.931 684.786,-510.408 688,-504 691.637,-496.75 694.679,-488.497 697.1,-480.816"/>
<polygon fill="magenta" stroke="magenta" stroke-width="0.9" points="700.471,-481.76 699.923,-471.179 693.753,-479.792 700.471,-481.76"/>
<text text-anchor="middle" x="699" y="-492.8" font-family="Times New Roman,serif" font-size="14.00">1</text>
</g>
<!-- frontal&#45;&gt;lateral display -->
<g id="edge19" class="edge"><title>frontal&#45;&gt;lateral display</title>
<path fill="none" stroke="#c1cdcd" stroke-width="0.8" d="M494.348,-384.209C492.533,-426.186 478.252,-534.102 468.088,-584.854"/>
<polygon fill="#c1cdcd" stroke="#c1cdcd" stroke-width="0.8" points="464.636,-584.264 465.988,-594.772 471.484,-585.714 464.636,-584.264"/>
</g>
<!-- frontal&#45;&gt;tailbeat -->
<g id="edge20" class="edge"><title>frontal&#45;&gt;tailbeat</title>
<path fill="none" stroke="#c1cdcd" stroke-width="0.8" d="M503.807,-383.561C513.755,-405.716 528.777,-445.195 553,-471 573.754,-493.11 603.336,-510.058 626.702,-521.505"/>
<polygon fill="#c1cdcd" stroke="#c1cdcd" stroke-width="0.8" points="625.434,-524.778 635.967,-525.922 628.446,-518.459 625.434,-524.778"/>
</g>
<!-- frontal&#45;&gt;frontal -->
<g id="edge18" class="edge"><title>frontal&#45;&gt;frontal</title>
<path fill="none" stroke="#c1cdcd" stroke-width="0.8" d="M531.719,-373.873C544.149,-373.792 554,-371.168 554,-366 554,-362.366 549.13,-359.99 541.917,-358.871"/>
<polygon fill="#c1cdcd" stroke="#c1cdcd" stroke-width="0.8" points="541.947,-355.364 531.719,-358.127 541.437,-362.346 541.947,-355.364"/>
</g>
<!-- frontal&#45;&gt;head&#45;down -->
<g id="edge23" class="edge"><title>frontal&#45;&gt;head&#45;down</title>
<path fill="none" stroke="#7fff00" stroke-width="0.9" d="M534.967,-361.813C581.442,-357.441 652.408,-347.99 672,-330 704.174,-300.457 711.87,-182.332 726,-141 726.953,-138.213 728.003,-135.325 729.087,-132.457"/>
<polygon fill="#7fff00" stroke="#7fff00" stroke-width="0.9" points="732.419,-133.547 732.811,-122.959 725.902,-130.991 732.419,-133.547"/>
<text text-anchor="middle" x="716" y="-231.8" font-family="Times New Roman,serif" font-size="14.00">11</text>
</g>
<!-- frontal&#45;&gt;lunging/shooting out -->
<g id="edge24" class="edge"><title>frontal&#45;&gt;lunging/shooting out</title>
<path fill="none" stroke="#7fff00" stroke-width="0.9" d="M489.181,-347.801C486.954,-338.122 484.001,-325.84 481,-315 480.261,-312.33 479.455,-309.556 478.627,-306.792"/>
<polygon fill="#7fff00" stroke="#7fff00" stroke-width="0.9" points="481.904,-305.541 475.608,-297.02 475.216,-307.607 481.904,-305.541"/>
<text text-anchor="middle" x="489" y="-318.8" font-family="Times New Roman,serif" font-size="14.00">1</text>
</g>
<!-- frontal&#45;&gt;bite -->
<g id="edge21" class="edge"><title>frontal&#45;&gt;bite</title>
<path fill="none" stroke="#7fff00" stroke-width="0.9" d="M449.955,-364.266C421.536,-361.459 385.519,-353.093 363,-330 334.86,-301.143 336.355,-251.078 340.693,-220.122"/>
<polygon fill="#7fff00" stroke="#7fff00" stroke-width="0.9" points="344.183,-220.462 342.303,-210.035 337.271,-219.359 344.183,-220.462"/>
<text text-anchor="middle" x="353" y="-275.3" font-family="Times New Roman,serif" font-size="14.00">32</text>
</g>
<!-- frontal&#45;&gt;mouth -->
<g id="edge25" class="edge"><title>frontal&#45;&gt;mouth</title>
<path fill="none" stroke="#7fff00" stroke-width="0.9" d="M452.574,-359.727C384.344,-350.092 250.306,-327.765 215,-297 165.744,-254.079 148.07,-174.873 141.997,-133.225"/>
<polygon fill="#7fff00" stroke="#7fff00" stroke-width="0.9" points="145.458,-132.698 140.662,-123.251 138.52,-133.627 145.458,-132.698"/>
<text text-anchor="middle" x="179" y="-231.8" font-family="Times New Roman,serif" font-size="14.00">1</text>
</g>
<!-- chasing -->
<g id="node12" class="node"><title>chasing</title>
<g id="a_node12"><a xlink:title="what should &#013; be here">
<ellipse fill="#7fff00" stroke="black" cx="267" cy="-279" rx="43" ry="18"/>
<text text-anchor="middle" x="267" y="-275.3" font-family="Times New Roman,serif" font-size="14.00">chasing</text>
</a>
</g>
</g>
<!-- frontal&#45;&gt;chasing -->
<g id="edge22" class="edge"><title>frontal&#45;&gt;chasing</title>
<path fill="none" stroke="#7fff00" stroke-width="0.9" d="M462.05,-353.359C421.926,-338.269 351.859,-311.916 307.531,-295.244"/>
<polygon fill="#7fff00" stroke="#7fff00" stroke-width="0.9" points="308.53,-291.881 297.938,-291.636 306.066,-298.432 308.53,-291.881"/>
<text text-anchor="middle" x="398" y="-318.8" font-family="Times New Roman,serif" font-size="14.00">1</text>
</g>
<!-- head&#45;down&#45;&gt;lateral display -->
<g id="edge28" class="edge"><title>head&#45;down&#45;&gt;lateral display</title>
<path fill="none" stroke="#c1cdcd" stroke-width="0.8" d="M788.693,-112.065C834.563,-120.979 896,-142.21 896,-191 896,-541 896,-541 896,-541 896,-577.228 653.734,-599.162 530.323,-607.782"/>
<polygon fill="#c1cdcd" stroke="#c1cdcd" stroke-width="0.8" points="529.942,-604.3 520.205,-608.477 530.422,-611.283 529.942,-604.3"/>
</g>
<!-- head&#45;down&#45;&gt;tailbeat -->
<g id="edge29" class="edge"><title>head&#45;down&#45;&gt;tailbeat</title>
<path fill="none" stroke="#c1cdcd" stroke-width="0.8" d="M750.42,-122.901C775.852,-177.221 831.531,-350.798 769,-471 756.153,-495.695 729.776,-513.285 706.436,-524.381"/>
<polygon fill="#c1cdcd" stroke="#c1cdcd" stroke-width="0.8" points="704.705,-521.321 697.005,-528.598 707.563,-527.711 704.705,-521.321"/>
</g>
<!-- head&#45;down&#45;&gt;frontal -->
<g id="edge26" class="edge"><title>head&#45;down&#45;&gt;frontal</title>
<path fill="none" stroke="#c1cdcd" stroke-width="0.8" d="M729.353,-122.991C698.043,-172.749 607.208,-315.55 587,-330 572.806,-340.149 555.322,-347.716 539.298,-353.166"/>
<polygon fill="#c1cdcd" stroke="#c1cdcd" stroke-width="0.8" points="538.006,-349.905 529.552,-356.291 540.143,-356.571 538.006,-349.905"/>
</g>
<!-- head&#45;down&#45;&gt;head&#45;down -->
<g id="edge27" class="edge"><title>head&#45;down&#45;&gt;head&#45;down</title>
<path fill="none" stroke="#c1cdcd" stroke-width="0.8" d="M787.545,-112.827C800.639,-112.449 810.645,-109.84 810.645,-105 810.645,-101.521 805.476,-99.1952 797.706,-98.0215"/>
<polygon fill="#c1cdcd" stroke="#c1cdcd" stroke-width="0.8" points="797.801,-94.5173 787.545,-97.1731 797.219,-101.493 797.801,-94.5173"/>
</g>
<!-- intoshell&#45;&gt;lateral display -->
<g id="edge30" class="edge"><title>intoshell&#45;&gt;lateral display</title>
<path fill="none" stroke="#c1cdcd" stroke-width="0.8" d="M581.289,-470.065C568.828,-483.752 550.56,-504.005 535,-522 516.08,-543.881 495.035,-569.226 480.065,-587.434"/>
<polygon fill="#c1cdcd" stroke="#c1cdcd" stroke-width="0.8" points="477.281,-585.309 473.644,-595.26 482.693,-589.749 477.281,-585.309"/>
</g>
<!-- intoshell&#45;&gt;tailbeat -->
<g id="edge33" class="edge"><title>intoshell&#45;&gt;tailbeat</title>
<path fill="none" stroke="#7fff00" stroke-width="0.9" d="M610.287,-470.178C615.344,-476.032 621.012,-482.741 626,-489 632.493,-497.148 639.348,-506.257 645.369,-514.445"/>
<polygon fill="#7fff00" stroke="#7fff00" stroke-width="0.9" points="642.571,-516.548 651.292,-522.565 648.227,-512.423 642.571,-516.548"/>
<text text-anchor="middle" x="642" y="-492.8" font-family="Times New Roman,serif" font-size="14.00">6</text>
</g>
<!-- intoshell&#45;&gt;frontal -->
<g id="edge31" class="edge"><title>intoshell&#45;&gt;frontal</title>
<path fill="none" stroke="#7fff00" stroke-width="0.9" d="M578.808,-436.362C567.634,-426.339 552.657,-413.163 539,-402 533.467,-397.477 527.452,-392.762 521.652,-388.311"/>
<polygon fill="#7fff00" stroke="#7fff00" stroke-width="0.9" points="523.469,-385.296 513.389,-382.034 519.234,-390.87 523.469,-385.296"/>
<text text-anchor="middle" x="561" y="-405.8" font-family="Times New Roman,serif" font-size="14.00">2</text>
</g>
<!-- intoshell&#45;&gt;head&#45;down -->
<g id="edge32" class="edge"><title>intoshell&#45;&gt;head&#45;down</title>
<path fill="none" stroke="#7fff00" stroke-width="0.9" d="M611.991,-435.992C637.388,-409.546 686.562,-353.968 711,-297 720.868,-273.996 722.24,-267.575 727,-243 734.3,-205.313 737.557,-160.967 738.971,-133.165"/>
<polygon fill="#7fff00" stroke="#7fff00" stroke-width="0.9" points="742.475,-133.175 739.442,-123.023 735.482,-132.85 742.475,-133.175"/>
<text text-anchor="middle" x="728" y="-275.3" font-family="Times New Roman,serif" font-size="14.00">1</text>
</g>
<!-- lunging/shooting out&#45;&gt;lateral display -->
<g id="edge37" class="edge"><title>lunging/shooting out&#45;&gt;lateral display</title>
<path fill="none" stroke="#7fff00" stroke-width="0.9" d="M432.998,-295.413C406.324,-309.269 375,-332.467 375,-365 375,-541 375,-541 375,-541 375,-564.616 394.566,-581.915 414.924,-593.522"/>
<polygon fill="#7fff00" stroke="#7fff00" stroke-width="0.9" points="413.477,-596.716 423.952,-598.303 416.753,-590.53 413.477,-596.716"/>
<text text-anchor="middle" x="379" y="-449.3" font-family="Times New Roman,serif" font-size="14.00">6</text>
</g>
<!-- lunging/shooting out&#45;&gt;frontal -->
<g id="edge34" class="edge"><title>lunging/shooting out&#45;&gt;frontal</title>
<path fill="none" stroke="#c1cdcd" stroke-width="0.8" d="M474.647,-297.175C477.826,-308.921 482.103,-324.729 485.729,-338.129"/>
<polygon fill="#c1cdcd" stroke="#c1cdcd" stroke-width="0.8" points="482.355,-339.06 488.346,-347.799 489.112,-337.232 482.355,-339.06"/>
</g>
<!-- lunging/shooting out&#45;&gt;head&#45;down -->
<g id="edge36" class="edge"><title>lunging/shooting out&#45;&gt;head&#45;down</title>
<path fill="none" stroke="#7fff00" stroke-width="0.9" d="M487.419,-261.133C517.299,-232.964 581.192,-175.992 644,-141 658.759,-132.778 675.822,-125.829 691.433,-120.345"/>
<polygon fill="#7fff00" stroke="#7fff00" stroke-width="0.9" points="692.587,-123.649 700.932,-117.121 690.337,-117.021 692.587,-123.649"/>
<text text-anchor="middle" x="595" y="-188.3" font-family="Times New Roman,serif" font-size="14.00">1</text>
</g>
<!-- lunging/shooting out&#45;&gt;lunging/shooting out -->
<g id="edge38" class="edge"><title>lunging/shooting out&#45;&gt;lunging/shooting out</title>
<path fill="none" stroke="#7fff00" stroke-width="0.9" d="M551.709,-286.471C566.955,-285.551 577.692,-283.061 577.692,-279 577.692,-275.923 571.526,-273.748 561.904,-272.474"/>
<polygon fill="#7fff00" stroke="#7fff00" stroke-width="0.9" points="561.99,-268.967 551.709,-271.529 561.344,-275.937 561.99,-268.967"/>
<text text-anchor="middle" x="581.692" y="-275.3" font-family="Times New Roman,serif" font-size="14.00">3</text>
</g>
<!-- lunging/shooting out&#45;&gt;bite -->
<g id="edge35" class="edge"><title>lunging/shooting out&#45;&gt;bite</title>
<path fill="none" stroke="#7fff00" stroke-width="0.9" d="M446.092,-261.611C426.051,-247.873 397.34,-228.193 375.804,-213.43"/>
<polygon fill="#7fff00" stroke="#7fff00" stroke-width="0.9" points="377.579,-210.403 367.352,-207.636 373.621,-216.177 377.579,-210.403"/>
<text text-anchor="middle" x="420" y="-231.8" font-family="Times New Roman,serif" font-size="14.00">1</text>
</g>
<!-- unknown&#45;&gt;tailbeat -->
<g id="edge39" class="edge"><title>unknown&#45;&gt;tailbeat</title>
<path fill="none" stroke="magenta" stroke-width="0.9" d="M691.934,-470.609C688.135,-476.273 684.12,-482.756 681,-489 677.329,-496.345 674.035,-504.626 671.3,-512.305"/>
<polygon fill="magenta" stroke="magenta" stroke-width="0.9" points="667.935,-511.328 668.041,-521.923 674.565,-513.575 667.935,-511.328"/>
<text text-anchor="middle" x="685" y="-492.8" font-family="Times New Roman,serif" font-size="14.00">1</text>
</g>
<!-- bite&#45;&gt;lateral display -->
<g id="edge43" class="edge"><title>bite&#45;&gt;lateral display</title>
<path fill="none" stroke="#7fff00" stroke-width="0.9" d="M303.698,-195.749C257.871,-199.681 189.006,-208.692 172,-228 118.839,-288.356 159,-328.07 159,-408.5 159,-541 159,-541 159,-541 159,-588.046 300.053,-603.952 389.042,-609.306"/>
<polygon fill="#7fff00" stroke="#7fff00" stroke-width="0.9" points="388.905,-612.804 399.088,-609.88 389.304,-605.816 388.905,-612.804"/>
<text text-anchor="middle" x="167" y="-405.8" font-family="Times New Roman,serif" font-size="14.00">36</text>
</g>
<!-- bite&#45;&gt;frontal -->
<g id="edge41" class="edge"><title>bite&#45;&gt;frontal</title>
<path fill="none" stroke="#7fff00" stroke-width="0.9" d="M386.513,-198.115C450.368,-207.101 569.777,-227.965 595,-261 620.575,-294.496 569.635,-328.451 530.956,-348.075"/>
<polygon fill="#7fff00" stroke="#7fff00" stroke-width="0.9" points="529.365,-344.957 521.936,-352.511 532.454,-351.239 529.365,-344.957"/>
<text text-anchor="middle" x="606" y="-275.3" font-family="Times New Roman,serif" font-size="14.00">9</text>
</g>
<!-- bite&#45;&gt;head&#45;down -->
<g id="edge42" class="edge"><title>bite&#45;&gt;head&#45;down</title>
<path fill="none" stroke="#7fff00" stroke-width="0.9" d="M378.985,-180.447C414.318,-169.435 472.179,-152.237 523,-141 576.234,-129.229 637.638,-119.695 681.511,-113.568"/>
<polygon fill="#7fff00" stroke="#7fff00" stroke-width="0.9" points="682.005,-117.033 691.432,-112.199 681.047,-110.099 682.005,-117.033"/>
<text text-anchor="middle" x="527" y="-144.8" font-family="Times New Roman,serif" font-size="14.00">1</text>
</g>
<!-- bite&#45;&gt;bite -->
<g id="edge40" class="edge"><title>bite&#45;&gt;bite</title>
<path fill="none" stroke="#7fff00" stroke-width="0.9" d="M384.719,-199.873C397.149,-199.792 407,-197.168 407,-192 407,-188.366 402.13,-185.99 394.917,-184.871"/>
<polygon fill="#7fff00" stroke="#7fff00" stroke-width="0.9" points="394.947,-181.364 384.719,-184.127 394.437,-188.346 394.947,-181.364"/>
<text text-anchor="middle" x="415" y="-188.3" font-family="Times New Roman,serif" font-size="14.00">20</text>
</g>
<!-- bite&#45;&gt;mouth -->
<g id="edge44" class="edge"><title>bite&#45;&gt;mouth</title>
<path fill="none" stroke="#7fff00" stroke-width="0.9" d="M316.342,-178.822C279.989,-163.894 218.275,-138.553 178.08,-122.047"/>
<polygon fill="#7fff00" stroke="#7fff00" stroke-width="0.9" points="179.183,-118.717 168.603,-118.156 176.524,-125.192 179.183,-118.717"/>
<text text-anchor="middle" x="259" y="-144.8" font-family="Times New Roman,serif" font-size="14.00">5</text>
</g>
<!-- mouth&#45;&gt;lateral display -->
<g id="edge47" class="edge"><title>mouth&#45;&gt;lateral display</title>
<path fill="none" stroke="#7fff00" stroke-width="0.9" d="M99.9108,-112.634C58.7981,-122.113 0,-143.903 0,-191 0,-541 0,-541 0,-541 0,-579.945 260.855,-600.498 389.694,-608.274"/>
<polygon fill="#7fff00" stroke="#7fff00" stroke-width="0.9" points="389.673,-611.779 399.863,-608.878 390.088,-604.791 389.673,-611.779"/>
<text text-anchor="middle" x="4" y="-362.3" font-family="Times New Roman,serif" font-size="14.00">4</text>
</g>
<!-- mouth&#45;&gt;frontal -->
<g id="edge46" class="edge"><title>mouth&#45;&gt;frontal</title>
<path fill="none" stroke="#7fff00" stroke-width="0.9" d="M126.209,-122.466C107.203,-149.093 75.9909,-202.687 98,-243 119.267,-281.955 143.638,-274.681 182,-297 209.321,-312.895 214.911,-320.317 245,-330 310.249,-350.999 389.178,-359.408 440.198,-362.77"/>
<polygon fill="#7fff00" stroke="#7fff00" stroke-width="0.9" points="440.135,-366.272 450.331,-363.395 440.566,-359.286 440.135,-366.272"/>
<text text-anchor="middle" x="102" y="-231.8" font-family="Times New Roman,serif" font-size="14.00">2</text>
</g>
<!-- flee -->
<g id="node13" class="node"><title>flee</title>
<g id="a_node13"><a xlink:title="what should &#013; be here">
<ellipse fill="#7fff00" stroke="black" cx="673" cy="-18" rx="43" ry="18"/>
<text text-anchor="middle" x="673" y="-14.3" font-family="Times New Roman,serif" font-size="14.00">flee</text>
</a>
</g>
</g>
<!-- mouth&#45;&gt;flee -->
<g id="edge45" class="edge"><title>mouth&#45;&gt;flee</title>
<path fill="none" stroke="#7fff00" stroke-width="0.9" d="M178.701,-97.6806C274.491,-82.433 518.138,-43.6503 623.36,-26.9014"/>
<polygon fill="#7fff00" stroke="#7fff00" stroke-width="0.9" points="624.076,-30.3317 633.401,-25.3032 622.975,-23.4188 624.076,-30.3317"/>
<text text-anchor="middle" x="442" y="-57.8" font-family="Times New Roman,serif" font-size="14.00">1</text>
</g>
<!-- chasing&#45;&gt;lateral display -->
<g id="edge48" class="edge"><title>chasing&#45;&gt;lateral display</title>
<path fill="none" stroke="#7fff00" stroke-width="0.9" d="M275.692,-296.759C283.585,-313.554 294,-340.381 294,-365 294,-541 294,-541 294,-541 294,-585.003 343.918,-602.096 389.007,-608.561"/>
<polygon fill="#7fff00" stroke="#7fff00" stroke-width="0.9" points="388.768,-612.059 399.13,-609.852 389.654,-605.115 388.768,-612.059"/>
<text text-anchor="middle" x="298" y="-449.3" font-family="Times New Roman,serif" font-size="14.00">1</text>
</g>
<!-- flee&#45;&gt;tailbeat -->
<g id="edge49" class="edge"><title>flee&#45;&gt;tailbeat</title>
<path fill="none" stroke="#7fff00" stroke-width="0.9" d="M712.627,-25.2534C747.588,-33.095 796.526,-50.277 820,-87 828.617,-100.481 820.276,-107.002 820,-123 817.325,-278.18 862.483,-333.239 791,-471 782.141,-488.073 778.854,-493.109 763,-504 747.285,-514.796 727.901,-522.587 710.396,-528.038"/>
<polygon fill="#7fff00" stroke="#7fff00" stroke-width="0.9" points="708.961,-524.811 700.348,-530.981 710.929,-531.528 708.961,-524.811"/>
<text text-anchor="middle" x="835" y="-275.3" font-family="Times New Roman,serif" font-size="14.00">1</text>
</g>
</g>
</svg>
