<?xml version="1.0" encoding="UTF-8" standalone="no"?>
<!DOCTYPE svg PUBLIC "-//W3C//DTD SVG 1.1//EN"
 "http://www.w3.org/Graphics/SVG/1.1/DTD/svg11.dtd">
<!-- Generated by graphviz version 2.38.0 (20140413.2041)
 -->
<!-- Title: Multi_12_10_17_e1_second_01_04_19 Pages: 1 -->
<svg width="1824pt" height="1088pt"
 viewBox="0.00 0.00 1824.35 1088.00" xmlns="http://www.w3.org/2000/svg" xmlns:xlink="http://www.w3.org/1999/xlink">
<g id="graph0" class="graph" transform="scale(1 1) rotate(0) translate(4 1084)">
<title>Multi_12_10_17_e1_second_01_04_19</title>
<polygon fill="white" stroke="none" points="-4,4 -4,-1084 1820.35,-1084 1820.35,4 -4,4"/>
<!-- biting -->
<g id="node1" class="node"><title>biting</title>
<g id="a_node1"><a xlink:title="what should &#013; be here">
<ellipse fill="magenta" stroke="black" cx="439.349" cy="-1062" rx="43" ry="18"/>
<text text-anchor="middle" x="439.349" y="-1058.3" font-family="Times New Roman,serif" font-size="14.00">biting</text>
</a>
</g>
</g>
<!-- carrying -->
<g id="node2" class="node"><title>carrying</title>
<g id="a_node2"><a xlink:title="what should &#013; be here">
<ellipse fill="#c1cdcd" stroke="black" cx="439.349" cy="-975" rx="43" ry="18"/>
<text text-anchor="middle" x="439.349" y="-971.3" font-family="Times New Roman,serif" font-size="14.00">carrying</text>
</a>
</g>
</g>
<!-- biting&#45;&gt;carrying -->
<g id="edge1" class="edge"><title>biting&#45;&gt;carrying</title>
<path fill="none" stroke="magenta" stroke-width="0.9" d="M439.349,-1043.8C439.349,-1032.16 439.349,-1016.55 439.349,-1003.24"/>
<polygon fill="magenta" stroke="magenta" stroke-width="0.9" points="442.849,-1003.18 439.349,-993.175 435.849,-1003.18 442.849,-1003.18"/>
<text text-anchor="middle" x="452.849" y="-1014.8" font-family="Times New Roman,serif" font-size="14.00">0.25</text>
</g>
<!-- operculum spread -->
<g id="node3" class="node"><title>operculum spread</title>
<g id="a_node3"><a xlink:title="what should &#013; be here">
<ellipse fill="#c1cdcd" stroke="black" cx="1169.35" cy="-366" rx="77.1866" ry="18"/>
<text text-anchor="middle" x="1169.35" y="-362.3" font-family="Times New Roman,serif" font-size="14.00">operculum spread</text>
</a>
</g>
</g>
<!-- biting&#45;&gt;operculum spread -->
<g id="edge2" class="edge"><title>biting&#45;&gt;operculum spread</title>
<path fill="none" stroke="magenta" stroke-width="0.9" d="M482.454,-1060.6C713.24,-1058.18 1792.35,-1043.26 1792.35,-976 1792.35,-976 1792.35,-976 1792.35,-756.5 1792.35,-653.586 1590.1,-439.732 1494.35,-402 1452.2,-385.389 1336.2,-375.883 1254.86,-371.082"/>
<polygon fill="magenta" stroke="magenta" stroke-width="0.9" points="1254.81,-367.573 1244.63,-370.491 1254.41,-374.561 1254.81,-367.573"/>
<text text-anchor="middle" x="1802.85" y="-710.3" font-family="Times New Roman,serif" font-size="14.00">0.25</text>
</g>
<!-- s&#45;bend -->
<g id="node4" class="node"><title>s&#45;bend</title>
<g id="a_node4"><a xlink:title="what should &#013; be here">
<ellipse fill="#c1cdcd" stroke="black" cx="1055.35" cy="-888" rx="43" ry="18"/>
<text text-anchor="middle" x="1055.35" y="-884.3" font-family="Times New Roman,serif" font-size="14.00">s&#45;bend</text>
</a>
</g>
</g>
<!-- biting&#45;&gt;s&#45;bend -->
<g id="edge3" class="edge"><title>biting&#45;&gt;s&#45;bend</title>
<path fill="none" stroke="magenta" stroke-width="0.9" d="M482.565,-1060.91C611.971,-1060.31 990.281,-1055.97 1036.35,-1026 1071.04,-1003.43 1067.63,-949.155 1061.7,-916.095"/>
<polygon fill="magenta" stroke="magenta" stroke-width="0.9" points="1065.11,-915.301 1059.73,-906.174 1058.25,-916.664 1065.11,-915.301"/>
<text text-anchor="middle" x="1079.85" y="-971.3" font-family="Times New Roman,serif" font-size="14.00">0.25</text>
</g>
<!-- shell -->
<g id="node5" class="node"><title>shell</title>
<g id="a_node5"><a xlink:title="what should &#013; be here">
<ellipse fill="#c1cdcd" stroke="black" cx="404.349" cy="-540" rx="43" ry="18"/>
<text text-anchor="middle" x="404.349" y="-536.3" font-family="Times New Roman,serif" font-size="14.00">shell</text>
</a>
</g>
</g>
<!-- biting&#45;&gt;shell -->
<g id="edge4" class="edge"><title>biting&#45;&gt;shell</title>
<path fill="none" stroke="magenta" stroke-width="0.9" d="M413.914,-1047.31C381.219,-1028.09 325.974,-989.689 303.349,-939 243.808,-805.601 344.307,-630.744 386.78,-566.279"/>
<polygon fill="magenta" stroke="magenta" stroke-width="0.9" points="389.945,-567.843 392.6,-557.586 384.128,-563.949 389.945,-567.843"/>
<text text-anchor="middle" x="305.849" y="-797.3" font-family="Times New Roman,serif" font-size="14.00">0.25</text>
</g>
<!-- carrying&#45;&gt;carrying -->
<g id="edge5" class="edge"><title>carrying&#45;&gt;carrying</title>
<path fill="none" stroke="magenta" stroke-width="0.9" d="M478.068,-982.873C490.498,-982.792 500.349,-980.168 500.349,-975 500.349,-971.366 495.479,-968.99 488.266,-967.871"/>
<polygon fill="magenta" stroke="magenta" stroke-width="0.9" points="488.296,-964.364 478.068,-967.127 487.787,-971.346 488.296,-964.364"/>
<text text-anchor="middle" x="513.849" y="-971.3" font-family="Times New Roman,serif" font-size="14.00">0.25</text>
</g>
<!-- carrying&#45;&gt;s&#45;bend -->
<g id="edge8" class="edge"><title>carrying&#45;&gt;s&#45;bend</title>
<path fill="none" stroke="magenta" stroke-width="0.9" d="M482.081,-972.905C558.895,-970.398 725.183,-962.512 863.349,-939 915.25,-930.168 973.616,-914.059 1012.23,-902.511"/>
<polygon fill="magenta" stroke="magenta" stroke-width="0.9" points="1013.53,-905.775 1022.09,-899.533 1011.5,-899.074 1013.53,-905.775"/>
<text text-anchor="middle" x="946.849" y="-927.8" font-family="Times New Roman,serif" font-size="14.00">0.06</text>
</g>
<!-- carrying&#45;&gt;shell -->
<g id="edge9" class="edge"><title>carrying&#45;&gt;shell</title>
<path fill="none" stroke="#c1cdcd" stroke-width="0.8" d="M413.727,-960.472C406.934,-954.603 400.7,-947.194 397.349,-939 347.879,-818.031 393.893,-775.669 391.349,-645 390.752,-614.336 388.175,-606.593 390.349,-576 390.543,-573.281 390.819,-570.452 391.191,-567.634"/>
<polygon fill="#c1cdcd" stroke="#c1cdcd" stroke-width="0.8" points="394.656,-568.144 392.979,-557.683 387.766,-566.907 394.656,-568.144"/>
</g>
<!-- digging -->
<g id="node7" class="node"><title>digging</title>
<g id="a_node7"><a xlink:title="what should &#013; be here">
<ellipse fill="#c1cdcd" stroke="black" cx="982.349" cy="-714" rx="43" ry="18"/>
<text text-anchor="middle" x="982.349" y="-710.3" font-family="Times New Roman,serif" font-size="14.00">digging</text>
</a>
</g>
</g>
<!-- carrying&#45;&gt;digging -->
<g id="edge6" class="edge"><title>carrying&#45;&gt;digging</title>
<path fill="none" stroke="#c1cdcd" stroke-width="0.8" d="M464.916,-960.258C552.503,-916.295 839.856,-779.19 944.182,-731.528"/>
<polygon fill="#c1cdcd" stroke="#c1cdcd" stroke-width="0.8" points="945.753,-734.658 953.405,-727.331 942.854,-728.287 945.753,-734.658"/>
</g>
<!-- driving -->
<g id="node9" class="node"><title>driving</title>
<g id="a_node9"><a xlink:title="what should &#013; be here">
<ellipse fill="#c1cdcd" stroke="black" cx="645.349" cy="-453" rx="43" ry="18"/>
<text text-anchor="middle" x="645.349" y="-449.3" font-family="Times New Roman,serif" font-size="14.00">driving</text>
</a>
</g>
</g>
<!-- carrying&#45;&gt;driving -->
<g id="edge7" class="edge"><title>carrying&#45;&gt;driving</title>
<path fill="none" stroke="magenta" stroke-width="0.9" d="M437.901,-956.852C436.148,-930.636 434.534,-879.19 444.349,-837 469.503,-728.876 488.43,-703.704 546.349,-609 561.523,-584.189 571.098,-582.119 587.349,-558 604.58,-532.428 621.422,-501.349 632.478,-479.862"/>
<polygon fill="magenta" stroke="magenta" stroke-width="0.9" points="635.715,-481.218 637.131,-470.719 629.476,-478.043 635.715,-481.218"/>
<text text-anchor="middle" x="507.849" y="-710.3" font-family="Times New Roman,serif" font-size="14.00">0.12</text>
</g>
<!-- tail quiver -->
<g id="node10" class="node"><title>tail quiver</title>
<g id="a_node10"><a xlink:title="what should &#013; be here">
<ellipse fill="#c1cdcd" stroke="black" cx="919.349" cy="-18" rx="48.1917" ry="18"/>
<text text-anchor="middle" x="919.349" y="-14.3" font-family="Times New Roman,serif" font-size="14.00">tail quiver</text>
</a>
</g>
</g>
<!-- carrying&#45;&gt;tail quiver -->
<g id="edge10" class="edge"><title>carrying&#45;&gt;tail quiver</title>
<path fill="none" stroke="magenta" stroke-width="0.9" d="M409.88,-961.731C383.763,-949.938 345.51,-930.339 317.349,-906 197.665,-802.56 152.855,-782.902 75.3493,-645 -8.32462,-496.123 -33.9403,-402.724 61.3493,-261 165.191,-106.556 243.592,-94.0034 425.349,-54 506.98,-36.0337 749.569,-25.1689 861.535,-20.9821"/>
<polygon fill="magenta" stroke="magenta" stroke-width="0.9" points="861.767,-24.476 871.631,-20.6094 861.509,-17.4808 861.767,-24.476"/>
<text text-anchor="middle" x="24.8493" y="-492.8" font-family="Times New Roman,serif" font-size="14.00">0.06</text>
</g>
<!-- operculum spread&#45;&gt;carrying -->
<g id="edge12" class="edge"><title>operculum spread&#45;&gt;carrying</title>
<path fill="none" stroke="#7fff00" stroke-width="0.9" d="M1245.21,-369.641C1321.55,-373.382 1433.27,-382.134 1471.35,-402 1484.38,-408.798 1660.51,-585.387 1684.35,-663 1709.01,-743.299 1740.07,-789.141 1684.35,-852 1577.44,-972.602 1124.81,-923.968 964.349,-939 791.871,-955.158 586.831,-966.584 492.122,-971.421"/>
<polygon fill="#7fff00" stroke="#7fff00" stroke-width="0.9" points="491.753,-967.935 481.943,-971.937 492.108,-974.926 491.753,-967.935"/>
<text text-anchor="middle" x="1702.85" y="-666.8" font-family="Times New Roman,serif" font-size="14.00">0.05</text>
</g>
<!-- operculum spread&#45;&gt;operculum spread -->
<g id="edge15" class="edge"><title>operculum spread&#45;&gt;operculum spread</title>
<path fill="none" stroke="#7fff00" stroke-width="0.9" d="M1239.61,-373.598C1254.2,-372.798 1264.69,-370.266 1264.69,-366 1264.69,-362.801 1258.79,-360.576 1249.69,-359.327"/>
<polygon fill="#7fff00" stroke="#7fff00" stroke-width="0.9" points="1249.89,-355.831 1239.61,-358.402 1249.25,-362.802 1249.89,-355.831"/>
<text text-anchor="middle" x="1278.19" y="-362.3" font-family="Times New Roman,serif" font-size="14.00">0.25</text>
</g>
<!-- operculum spread&#45;&gt;s&#45;bend -->
<g id="edge17" class="edge"><title>operculum spread&#45;&gt;s&#45;bend</title>
<path fill="none" stroke="#7fff00" stroke-width="0.9" d="M1214.55,-380.625C1262.17,-397.609 1334.94,-431.622 1369.35,-489 1411.21,-558.805 1400.35,-588.103 1400.35,-669.5 1400.35,-802 1400.35,-802 1400.35,-802 1400.35,-828.384 1390.75,-838.065 1368.35,-852 1326.14,-878.256 1185.98,-884.871 1108.31,-886.5"/>
<polygon fill="#7fff00" stroke="#7fff00" stroke-width="0.9" points="1108.17,-883.002 1098.24,-886.691 1108.3,-890.001 1108.17,-883.002"/>
<text text-anchor="middle" x="1415.85" y="-623.3" font-family="Times New Roman,serif" font-size="14.00">0.05</text>
</g>
<!-- operculum spread&#45;&gt;shell -->
<g id="edge18" class="edge"><title>operculum spread&#45;&gt;shell</title>
<path fill="none" stroke="#7fff00" stroke-width="0.9" d="M1161.11,-383.943C1155.33,-394.486 1146.78,-407.752 1136.35,-417 1096.2,-452.609 1078.75,-452.555 1028.35,-471 821.073,-546.861 754.176,-502.132 534.349,-522 507.77,-524.402 478.267,-528.17 454.095,-531.549"/>
<polygon fill="#7fff00" stroke="#7fff00" stroke-width="0.9" points="453.495,-528.099 444.086,-532.968 454.478,-535.029 453.495,-528.099"/>
<text text-anchor="middle" x="1123.85" y="-449.3" font-family="Times New Roman,serif" font-size="14.00">0.2</text>
</g>
<!-- operculum spread&#45;&gt;digging -->
<g id="edge13" class="edge"><title>operculum spread&#45;&gt;digging</title>
<path fill="none" stroke="#7fff00" stroke-width="0.9" d="M1215.01,-380.771C1224.66,-385.868 1233.63,-392.754 1239.35,-402 1272.37,-455.432 1225.33,-636.303 1178.35,-678 1157.55,-696.461 1085.46,-705.543 1034.77,-709.742"/>
<polygon fill="#7fff00" stroke="#7fff00" stroke-width="0.9" points="1034.32,-706.267 1024.63,-710.542 1034.87,-713.245 1034.32,-706.267"/>
<text text-anchor="middle" x="1257.85" y="-536.3" font-family="Times New Roman,serif" font-size="14.00">0.05</text>
</g>
<!-- fin spread -->
<g id="node11" class="node"><title>fin spread</title>
<g id="a_node11"><a xlink:title="what should &#013; be here">
<ellipse fill="#c1cdcd" stroke="black" cx="1398.35" cy="-279" rx="47.3916" ry="18"/>
<text text-anchor="middle" x="1398.35" y="-275.3" font-family="Times New Roman,serif" font-size="14.00">fin spread</text>
</a>
</g>
</g>
<!-- operculum spread&#45;&gt;fin spread -->
<g id="edge14" class="edge"><title>operculum spread&#45;&gt;fin spread</title>
<path fill="none" stroke="#7fff00" stroke-width="0.9" d="M1215.81,-351.537C1233.29,-345.793 1253.1,-338.454 1270.35,-330 1281.31,-324.629 1282.36,-320.306 1293.35,-315 1311.54,-306.218 1332.49,-298.747 1350.87,-292.992"/>
<polygon fill="#7fff00" stroke="#7fff00" stroke-width="0.9" points="1351.96,-296.32 1360.5,-290.057 1349.92,-289.624 1351.96,-296.32"/>
<text text-anchor="middle" x="1302.85" y="-318.8" font-family="Times New Roman,serif" font-size="14.00">0.1</text>
</g>
<!-- ramming -->
<g id="node12" class="node"><title>ramming</title>
<g id="a_node12"><a xlink:title="what should &#013; be here">
<ellipse fill="#c1cdcd" stroke="black" cx="550.349" cy="-279" rx="44.393" ry="18"/>
<text text-anchor="middle" x="550.349" y="-275.3" font-family="Times New Roman,serif" font-size="14.00">ramming</text>
</a>
</g>
</g>
<!-- operculum spread&#45;&gt;ramming -->
<g id="edge16" class="edge"><title>operculum spread&#45;&gt;ramming</title>
<path fill="none" stroke="#7fff00" stroke-width="0.9" d="M1092.73,-363.539C1003.94,-360.788 853.537,-352.858 726.349,-330 679.769,-321.629 627.792,-306.065 592.479,-294.517"/>
<polygon fill="#7fff00" stroke="#7fff00" stroke-width="0.9" points="593.572,-291.192 582.979,-291.376 591.375,-297.838 593.572,-291.192"/>
<text text-anchor="middle" x="735.849" y="-318.8" font-family="Times New Roman,serif" font-size="14.00">0.1</text>
</g>
<!-- shell escape -->
<g id="node13" class="node"><title>shell escape</title>
<g id="a_node13"><a xlink:title="what should &#013; be here">
<ellipse fill="#c1cdcd" stroke="black" cx="782.349" cy="-192" rx="53.8905" ry="18"/>
<text text-anchor="middle" x="782.349" y="-188.3" font-family="Times New Roman,serif" font-size="14.00">shell escape</text>
</a>
</g>
</g>
<!-- operculum spread&#45;&gt;shell escape -->
<g id="edge19" class="edge"><title>operculum spread&#45;&gt;shell escape</title>
<path fill="none" stroke="#7fff00" stroke-width="0.9" d="M1155.46,-348.278C1135.78,-325.574 1097.68,-285.073 1057.35,-261 991.219,-221.525 903.092,-204.9 844.624,-197.941"/>
<polygon fill="#7fff00" stroke="#7fff00" stroke-width="0.9" points="844.755,-194.433 834.425,-196.789 843.969,-201.389 844.755,-194.433"/>
<text text-anchor="middle" x="1113.85" y="-275.3" font-family="Times New Roman,serif" font-size="14.00">0.1</text>
</g>
<!-- away -->
<g id="node15" class="node"><title>away</title>
<g id="a_node15"><a xlink:title="what should &#013; be here">
<ellipse fill="#7fff00" stroke="black" cx="1207.35" cy="-279" rx="43" ry="18"/>
<text text-anchor="middle" x="1207.35" y="-275.3" font-family="Times New Roman,serif" font-size="14.00">away</text>
</a>
</g>
</g>
<!-- operculum spread&#45;&gt;away -->
<g id="edge11" class="edge"><title>operculum spread&#45;&gt;away</title>
<path fill="none" stroke="#7fff00" stroke-width="0.9" d="M1165.45,-347.612C1164.07,-337.649 1163.82,-325.149 1168.35,-315 1170.52,-310.14 1173.73,-305.673 1177.4,-301.674"/>
<polygon fill="#7fff00" stroke="#7fff00" stroke-width="0.9" points="1180.03,-304.007 1184.86,-294.579 1175.2,-298.935 1180.03,-304.007"/>
<text text-anchor="middle" x="1177.85" y="-318.8" font-family="Times New Roman,serif" font-size="14.00">0.1</text>
</g>
<!-- s&#45;bend&#45;&gt;biting -->
<g id="edge20" class="edge"><title>s&#45;bend&#45;&gt;biting</title>
<path fill="none" stroke="magenta" stroke-width="0.9" d="M1033,-903.553C1015.07,-914.656 988.93,-929.596 964.349,-939 796.332,-1003.28 584.595,-1039.81 489.553,-1054.03"/>
<polygon fill="magenta" stroke="magenta" stroke-width="0.9" points="489.018,-1050.57 479.637,-1055.49 490.041,-1057.49 489.018,-1050.57"/>
<text text-anchor="middle" x="924.849" y="-971.3" font-family="Times New Roman,serif" font-size="14.00">0.05</text>
</g>
<!-- s&#45;bend&#45;&gt;operculum spread -->
<g id="edge26" class="edge"><title>s&#45;bend&#45;&gt;operculum spread</title>
<path fill="none" stroke="#7fff00" stroke-width="0.9" d="M1098.13,-885.626C1162.6,-882.869 1288.21,-874.816 1392.35,-852 1459.76,-837.232 1539.35,-871.009 1539.35,-802 1539.35,-802 1539.35,-802 1539.35,-669.5 1539.35,-508.282 1443.14,-464.06 1294.35,-402 1274.95,-393.911 1253.1,-387.071 1233.16,-381.643"/>
<polygon fill="#7fff00" stroke="#7fff00" stroke-width="0.9" points="1233.8,-378.192 1223.24,-379.014 1232.01,-384.959 1233.8,-378.192"/>
<text text-anchor="middle" x="1552.85" y="-623.3" font-family="Times New Roman,serif" font-size="14.00">0.23</text>
</g>
<!-- s&#45;bend&#45;&gt;s&#45;bend -->
<g id="edge24" class="edge"><title>s&#45;bend&#45;&gt;s&#45;bend</title>
<path fill="none" stroke="#c1cdcd" stroke-width="0.8" d="M1094.07,-895.873C1106.5,-895.792 1116.35,-893.168 1116.35,-888 1116.35,-884.366 1111.48,-881.99 1104.27,-880.871"/>
<polygon fill="#c1cdcd" stroke="#c1cdcd" stroke-width="0.8" points="1104.3,-877.364 1094.07,-880.127 1103.79,-884.346 1104.3,-877.364"/>
</g>
<!-- s&#45;bend&#45;&gt;shell -->
<g id="edge25" class="edge"><title>s&#45;bend&#45;&gt;shell</title>
<path fill="none" stroke="#c1cdcd" stroke-width="0.8" d="M1012.16,-886.229C890.339,-883.691 550.667,-874.439 506.349,-852 402.183,-799.258 393.504,-633.6 398.841,-568.069"/>
<polygon fill="#c1cdcd" stroke="#c1cdcd" stroke-width="0.8" points="402.326,-568.393 399.848,-558.092 395.361,-567.69 402.326,-568.393"/>
</g>
<!-- s&#45;bend&#45;&gt;digging -->
<g id="edge21" class="edge"><title>s&#45;bend&#45;&gt;digging</title>
<path fill="none" stroke="#c1cdcd" stroke-width="0.8" d="M1046.29,-870.225C1039.67,-849.186 1031.57,-812.316 1018.35,-783 1011.67,-768.193 1001.94,-752.997 994.04,-740.737"/>
<polygon fill="#c1cdcd" stroke="#c1cdcd" stroke-width="0.8" points="996.779,-738.524 988.441,-731.988 990.883,-742.297 996.779,-738.524"/>
</g>
<!-- head jolting -->
<g id="node8" class="node"><title>head jolting</title>
<g id="a_node8"><a xlink:title="what should &#013; be here">
<ellipse fill="#c1cdcd" stroke="black" cx="810.349" cy="-105" rx="55.4913" ry="18"/>
<text text-anchor="middle" x="810.349" y="-101.3" font-family="Times New Roman,serif" font-size="14.00">head jolting</text>
</a>
</g>
</g>
<!-- s&#45;bend&#45;&gt;head jolting -->
<g id="edge22" class="edge"><title>s&#45;bend&#45;&gt;head jolting</title>
<path fill="none" stroke="magenta" stroke-width="0.9" d="M1098.37,-885.938C1200.79,-883.081 1456.69,-873.913 1539.35,-852 1584.71,-839.974 1632.35,-848.928 1632.35,-802 1632.35,-802 1632.35,-802 1632.35,-669.5 1632.35,-526.145 1728.32,-473.119 1658.35,-348 1637.22,-310.211 1611.32,-321.091 1575.35,-297 1498.16,-245.31 1489.31,-215.81 1406.35,-174 1362.67,-151.984 1349.51,-149.544 1301.35,-141 1132.25,-111.005 1086.17,-140.753 915.349,-123 899.604,-121.364 882.63,-118.917 867.016,-116.386"/>
<polygon fill="magenta" stroke="magenta" stroke-width="0.9" points="867.417,-112.905 856.978,-114.719 866.269,-119.81 867.417,-112.905"/>
<text text-anchor="middle" x="1689.85" y="-492.8" font-family="Times New Roman,serif" font-size="14.00">0.05</text>
</g>
<!-- s&#45;bend&#45;&gt;ramming -->
<g id="edge23" class="edge"><title>s&#45;bend&#45;&gt;ramming</title>
<path fill="none" stroke="magenta" stroke-width="0.9" d="M1012.39,-886.407C895.85,-884.476 579.762,-876.969 540.349,-852 488.75,-819.31 491.229,-790.408 473.349,-732 452.995,-665.508 439.955,-642.165 461.349,-576 464.385,-566.61 469.365,-566.517 474.349,-558 487.709,-535.175 490.811,-529.031 499.349,-504 522.971,-434.749 538.928,-349.719 546.074,-307.087"/>
<polygon fill="magenta" stroke="magenta" stroke-width="0.9" points="549.532,-307.633 547.701,-297.197 542.624,-306.497 549.532,-307.633"/>
<text text-anchor="middle" x="474.849" y="-579.8" font-family="Times New Roman,serif" font-size="14.00">0.05</text>
</g>
<!-- s&#45;bend&#45;&gt;shell escape -->
<g id="edge28" class="edge"><title>s&#45;bend&#45;&gt;shell escape</title>
<path fill="none" stroke="#7fff00" stroke-width="0.9" d="M1012.25,-886.145C964.358,-883.929 885.47,-876.47 822.349,-852 655.684,-787.388 561.187,-764.036 516.349,-591 499.502,-525.983 518.768,-523.743 593.349,-435 616.75,-407.156 632.864,-410.895 657.349,-384 713.116,-322.744 713.936,-297.281 759.349,-228 761.425,-224.834 763.607,-221.508 765.767,-218.219"/>
<polygon fill="#7fff00" stroke="#7fff00" stroke-width="0.9" points="768.779,-220.009 771.344,-209.73 762.928,-216.165 768.779,-220.009"/>
<text text-anchor="middle" x="533.849" y="-536.3" font-family="Times New Roman,serif" font-size="14.00">0.05</text>
</g>
<!-- scratching -->
<g id="node17" class="node"><title>scratching</title>
<g id="a_node17"><a xlink:title="what should &#013; be here">
<ellipse fill="#7fff00" stroke="black" cx="925.349" cy="-801" rx="48.1917" ry="18"/>
<text text-anchor="middle" x="925.349" y="-797.3" font-family="Times New Roman,serif" font-size="14.00">scratching</text>
</a>
</g>
</g>
<!-- s&#45;bend&#45;&gt;scratching -->
<g id="edge27" class="edge"><title>s&#45;bend&#45;&gt;scratching</title>
<path fill="none" stroke="#7fff00" stroke-width="0.9" d="M1033,-872.388C1012.02,-858.667 980.412,-838.002 956.868,-822.609"/>
<polygon fill="#7fff00" stroke="#7fff00" stroke-width="0.9" points="958.564,-819.535 948.279,-816.992 954.733,-825.394 958.564,-819.535"/>
<text text-anchor="middle" x="1011.85" y="-840.8" font-family="Times New Roman,serif" font-size="14.00">0.05</text>
</g>
<!-- shell&#45;&gt;biting -->
<g id="edge29" class="edge"><title>shell&#45;&gt;biting</title>
<path fill="none" stroke="magenta" stroke-width="0.9" d="M376.894,-553.953C306.187,-589.431 123.349,-695.481 123.349,-843.5 123.349,-976 123.349,-976 123.349,-976 123.349,-1029.95 297.288,-1050.63 387.069,-1057.72"/>
<polygon fill="magenta" stroke="magenta" stroke-width="0.9" points="386.823,-1061.21 397.06,-1058.48 387.354,-1054.23 386.823,-1061.21"/>
<text text-anchor="middle" x="147.849" y="-797.3" font-family="Times New Roman,serif" font-size="14.00">0.02</text>
</g>
<!-- shell&#45;&gt;carrying -->
<g id="edge30" class="edge"><title>shell&#45;&gt;carrying</title>
<path fill="none" stroke="#c1cdcd" stroke-width="0.8" d="M409.946,-558.038C409.575,-563.731 408.767,-570.122 408.349,-576 406.175,-606.593 408.752,-614.336 409.349,-645 411.893,-775.669 365.879,-818.031 415.349,-939 416.827,-942.614 418.866,-946.075 421.156,-949.319"/>
<polygon fill="#c1cdcd" stroke="#c1cdcd" stroke-width="0.8" points="418.61,-951.738 427.595,-957.353 424.072,-947.361 418.61,-951.738"/>
</g>
<!-- shell&#45;&gt;operculum spread -->
<g id="edge39" class="edge"><title>shell&#45;&gt;operculum spread</title>
<path fill="none" stroke="#7fff00" stroke-width="0.9" d="M444.738,-533.589C470.393,-530.184 504.308,-525.741 534.349,-522 630.056,-510.08 879.845,-515.62 965.349,-471 984.328,-461.096 978.581,-445.296 997.349,-435 1041.55,-410.752 1063.46,-437.882 1109.35,-417 1123.12,-410.735 1136.28,-400.434 1146.75,-390.806"/>
<polygon fill="#7fff00" stroke="#7fff00" stroke-width="0.9" points="1149.41,-393.103 1154.2,-383.652 1144.56,-388.055 1149.41,-393.103"/>
<text text-anchor="middle" x="1010.85" y="-449.3" font-family="Times New Roman,serif" font-size="14.00">0.03</text>
</g>
<!-- shell&#45;&gt;s&#45;bend -->
<g id="edge33" class="edge"><title>shell&#45;&gt;s&#45;bend</title>
<path fill="none" stroke="#c1cdcd" stroke-width="0.8" d="M407.186,-558.092C410.834,-614.805 414.384,-796.321 524.349,-852 566.538,-873.361 876.386,-882.771 1002.4,-885.816"/>
<polygon fill="#c1cdcd" stroke="#c1cdcd" stroke-width="0.8" points="1002.5,-889.319 1012.58,-886.058 1002.67,-882.321 1002.5,-889.319"/>
</g>
<!-- shell&#45;&gt;shell -->
<g id="edge34" class="edge"><title>shell&#45;&gt;shell</title>
<path fill="none" stroke="#c1cdcd" stroke-width="0.8" d="M443.068,-547.873C455.498,-547.792 465.349,-545.168 465.349,-540 465.349,-536.366 460.479,-533.99 453.266,-532.871"/>
<polygon fill="#c1cdcd" stroke="#c1cdcd" stroke-width="0.8" points="453.296,-529.364 443.068,-532.127 452.787,-536.346 453.296,-529.364"/>
</g>
<!-- bumping -->
<g id="node6" class="node"><title>bumping</title>
<g id="a_node6"><a xlink:title="what should &#013; be here">
<ellipse fill="#c1cdcd" stroke="black" cx="214.349" cy="-18" rx="44.6926" ry="18"/>
<text text-anchor="middle" x="214.349" y="-14.3" font-family="Times New Roman,serif" font-size="14.00">bumping</text>
</a>
</g>
</g>
<!-- shell&#45;&gt;bumping -->
<g id="edge37" class="edge"><title>shell&#45;&gt;bumping</title>
<path fill="none" stroke="#7fff00" stroke-width="0.9" d="M363.136,-534.638C321.259,-529.428 260.102,-519.432 242.349,-504 211.255,-476.972 217.572,-457.561 210.349,-417 185.899,-279.698 202.487,-111.516 210.603,-46.4818"/>
<polygon fill="#7fff00" stroke="#7fff00" stroke-width="0.9" points="214.114,-46.6211 211.917,-36.2565 207.171,-45.7289 214.114,-46.6211"/>
<text text-anchor="middle" x="211.849" y="-275.3" font-family="Times New Roman,serif" font-size="14.00">0.02</text>
</g>
<!-- shell&#45;&gt;digging -->
<g id="edge31" class="edge"><title>shell&#45;&gt;digging</title>
<path fill="none" stroke="#c1cdcd" stroke-width="0.8" d="M445.648,-545.066C502.986,-552.272 608.286,-570.325 689.349,-609 735.159,-630.856 733.731,-657.928 780.349,-678 828.399,-698.688 887.466,-707.206 929.372,-710.683"/>
<polygon fill="#c1cdcd" stroke="#c1cdcd" stroke-width="0.8" points="929.135,-714.175 939.371,-711.444 929.666,-707.195 929.135,-714.175"/>
</g>
<!-- shell&#45;&gt;head jolting -->
<g id="edge32" class="edge"><title>shell&#45;&gt;head jolting</title>
<path fill="none" stroke="magenta" stroke-width="0.9" d="M365.136,-532.193C348.189,-527.222 329.684,-518.669 318.349,-504 266.611,-437.04 284.897,-398.972 295.349,-315 305.203,-235.843 278.27,-192.305 339.349,-141 369.662,-115.538 622.282,-108.574 744.549,-106.689"/>
<polygon fill="magenta" stroke="magenta" stroke-width="0.9" points="744.952,-110.184 754.899,-106.537 744.849,-103.184 744.952,-110.184"/>
<text text-anchor="middle" x="308.849" y="-318.8" font-family="Times New Roman,serif" font-size="14.00">0.05</text>
</g>
<!-- shell&#45;&gt;driving -->
<g id="edge38" class="edge"><title>shell&#45;&gt;driving</title>
<path fill="none" stroke="#7fff00" stroke-width="0.9" d="M427.246,-524.499C445.597,-513.425 472.327,-498.497 497.349,-489 529.257,-476.889 566.675,-468.085 595.904,-462.336"/>
<polygon fill="#7fff00" stroke="#7fff00" stroke-width="0.9" points="596.713,-465.745 605.878,-460.43 595.399,-458.87 596.713,-465.745"/>
<text text-anchor="middle" x="510.849" y="-492.8" font-family="Times New Roman,serif" font-size="14.00">0.02</text>
</g>
<!-- shell&#45;&gt;ramming -->
<g id="edge40" class="edge"><title>shell&#45;&gt;ramming</title>
<path fill="none" stroke="#7fff00" stroke-width="0.9" d="M406.603,-521.726C412.719,-481.084 433.049,-378.092 488.349,-315 494.572,-307.901 502.6,-301.922 510.802,-297.028"/>
<polygon fill="#7fff00" stroke="#7fff00" stroke-width="0.9" points="512.617,-300.024 519.694,-292.14 509.245,-293.89 512.617,-300.024"/>
<text text-anchor="middle" x="451.849" y="-405.8" font-family="Times New Roman,serif" font-size="14.00">0.02</text>
</g>
<!-- shell&#45;&gt;shell escape -->
<g id="edge35" class="edge"><title>shell&#45;&gt;shell escape</title>
<path fill="none" stroke="#c1cdcd" stroke-width="0.8" d="M398.019,-521.842C395.756,-501.038 397.466,-465.03 404.349,-435 423.536,-351.298 426.234,-320.295 488.349,-261 509.802,-240.521 518.341,-237.754 546.349,-228 602.599,-208.41 670.492,-199.765 719.077,-195.962"/>
<polygon fill="#c1cdcd" stroke="#c1cdcd" stroke-width="0.8" points="719.425,-199.446 729.141,-195.222 718.911,-192.465 719.425,-199.446"/>
</g>
<!-- shooting out -->
<g id="node14" class="node"><title>shooting out</title>
<g id="a_node14"><a xlink:title="what should &#013; be here">
<ellipse fill="#c1cdcd" stroke="black" cx="840.349" cy="-453" rx="57.6901" ry="18"/>
<text text-anchor="middle" x="840.349" y="-449.3" font-family="Times New Roman,serif" font-size="14.00">shooting out</text>
</a>
</g>
</g>
<!-- shell&#45;&gt;shooting out -->
<g id="edge36" class="edge"><title>shell&#45;&gt;shooting out</title>
<path fill="none" stroke="#c1cdcd" stroke-width="0.8" d="M441.598,-530.927C517.503,-515.489 690.196,-481.79 781.452,-464.578"/>
<polygon fill="#c1cdcd" stroke="#c1cdcd" stroke-width="0.8" points="782.181,-468.002 791.362,-462.713 780.887,-461.122 782.181,-468.002"/>
</g>
<!-- bumping&#45;&gt;shell -->
<g id="edge43" class="edge"><title>bumping&#45;&gt;shell</title>
<path fill="none" stroke="#7fff00" stroke-width="0.9" d="M190.774,-33.3985C169.776,-48.227 142.349,-73.4435 142.349,-104 142.349,-454 142.349,-454 142.349,-454 142.349,-497.845 276.781,-522.49 353.055,-532.945"/>
<polygon fill="#7fff00" stroke="#7fff00" stroke-width="0.9" points="353.037,-536.473 363.412,-534.326 353.962,-529.535 353.037,-536.473"/>
<text text-anchor="middle" x="151.849" y="-275.3" font-family="Times New Roman,serif" font-size="14.00">0.5</text>
</g>
<!-- bumping&#45;&gt;digging -->
<g id="edge41" class="edge"><title>bumping&#45;&gt;digging</title>
<path fill="none" stroke="#c1cdcd" stroke-width="0.8" d="M171.722,-23.8583C125.533,-31.7702 58.3493,-52.1842 58.3493,-104 58.3493,-323.5 58.3493,-323.5 58.3493,-323.5 58.3493,-390.226 44.4942,-419.033 86.3493,-471 256.722,-682.532 394.835,-625.63 661.349,-678 754.881,-696.379 865.777,-705.784 929.709,-710.028"/>
<polygon fill="#c1cdcd" stroke="#c1cdcd" stroke-width="0.8" points="929.733,-713.537 939.938,-710.689 930.185,-706.551 929.733,-713.537"/>
</g>
<!-- bumping&#45;&gt;head jolting -->
<g id="edge42" class="edge"><title>bumping&#45;&gt;head jolting</title>
<path fill="none" stroke="magenta" stroke-width="0.9" d="M255.962,-24.9347C359.677,-39.7262 629.972,-78.275 750.652,-95.4861"/>
<polygon fill="magenta" stroke="magenta" stroke-width="0.9" points="750.421,-98.9885 760.815,-96.9355 751.409,-92.0586 750.421,-98.9885"/>
<text text-anchor="middle" x="557.849" y="-57.8" font-family="Times New Roman,serif" font-size="14.00">0.5</text>
</g>
<!-- digging&#45;&gt;carrying -->
<g id="edge44" class="edge"><title>digging&#45;&gt;carrying</title>
<path fill="none" stroke="#c1cdcd" stroke-width="0.8" d="M957.066,-728.6C869.927,-772.353 582.687,-909.409 477.916,-957.29"/>
<polygon fill="#c1cdcd" stroke="#c1cdcd" stroke-width="0.8" points="476.301,-954.18 468.649,-961.508 479.201,-960.551 476.301,-954.18"/>
</g>
<!-- digging&#45;&gt;operculum spread -->
<g id="edge54" class="edge"><title>digging&#45;&gt;operculum spread</title>
<path fill="none" stroke="#7fff00" stroke-width="0.9" d="M1023.06,-708.009C1045.44,-703.434 1072.41,-694.69 1091.35,-678 1099.48,-670.833 1209.18,-427.04 1211.35,-417 1212.76,-410.484 1214.18,-408.037 1211.35,-402 1209.29,-397.611 1206.39,-393.58 1203.05,-389.94"/>
<polygon fill="#7fff00" stroke="#7fff00" stroke-width="0.9" points="1205.41,-387.35 1195.73,-383.025 1200.6,-392.437 1205.41,-387.35"/>
<text text-anchor="middle" x="1178.85" y="-536.3" font-family="Times New Roman,serif" font-size="14.00">0.02</text>
</g>
<!-- digging&#45;&gt;s&#45;bend -->
<g id="edge50" class="edge"><title>digging&#45;&gt;s&#45;bend</title>
<path fill="none" stroke="#c1cdcd" stroke-width="0.8" d="M1001.8,-730.365C1013.67,-743.625 1027.62,-763.644 1036.35,-783 1047.6,-807.933 1055.13,-838.33 1057.85,-859.806"/>
<polygon fill="#c1cdcd" stroke="#c1cdcd" stroke-width="0.8" points="1054.37,-860.234 1058.81,-869.857 1061.34,-859.57 1054.37,-860.234"/>
</g>
<!-- digging&#45;&gt;shell -->
<g id="edge51" class="edge"><title>digging&#45;&gt;shell</title>
<path fill="none" stroke="#c1cdcd" stroke-width="0.8" d="M939.365,-712.219C893.481,-710.121 819.988,-702.817 762.349,-678 715.731,-657.928 717.159,-630.856 671.349,-609 599.858,-574.892 509.515,-556.823 454.283,-548.088"/>
<polygon fill="#c1cdcd" stroke="#c1cdcd" stroke-width="0.8" points="454.807,-544.628 444.391,-546.564 453.741,-551.546 454.807,-544.628"/>
</g>
<!-- digging&#45;&gt;digging -->
<g id="edge45" class="edge"><title>digging&#45;&gt;digging</title>
<path fill="none" stroke="#c1cdcd" stroke-width="0.8" d="M1021.07,-721.873C1033.5,-721.792 1043.35,-719.168 1043.35,-714 1043.35,-710.366 1038.48,-707.99 1031.27,-706.871"/>
<polygon fill="#c1cdcd" stroke="#c1cdcd" stroke-width="0.8" points="1031.3,-703.364 1021.07,-706.127 1030.79,-710.346 1031.3,-703.364"/>
</g>
<!-- digging&#45;&gt;head jolting -->
<g id="edge48" class="edge"><title>digging&#45;&gt;head jolting</title>
<path fill="none" stroke="magenta" stroke-width="0.9" d="M1001.05,-697.515C1007.12,-691.83 1013.52,-685.049 1018.35,-678 1027.35,-664.854 1028.74,-660.518 1032.35,-645 1053.48,-554.073 1057.61,-523.646 1028.35,-435 1025.34,-425.87 1019.14,-426.202 1016.35,-417 1014.42,-410.619 1014.96,-408.52 1016.35,-402 1033.76,-320.311 1118.17,-305.63 1087.35,-228 1067.74,-178.615 1052.07,-166.301 1005.35,-141 999.281,-137.714 924.164,-124.789 868.97,-115.605"/>
<polygon fill="magenta" stroke="magenta" stroke-width="0.9" points="869.355,-112.121 858.917,-113.936 868.209,-119.026 869.355,-112.121"/>
<text text-anchor="middle" x="1029.85" y="-405.8" font-family="Times New Roman,serif" font-size="14.00">0.05</text>
</g>
<!-- digging&#45;&gt;driving -->
<g id="edge46" class="edge"><title>digging&#45;&gt;driving</title>
<path fill="none" stroke="#c1cdcd" stroke-width="0.8" d="M940.455,-709.689C915.327,-705.733 884.63,-697.051 864.349,-678 798.6,-616.236 859.891,-546.459 790.349,-489 756.548,-461.071 735.974,-481.28 693.349,-471 690.526,-470.319 687.635,-469.583 684.737,-468.811"/>
<polygon fill="#c1cdcd" stroke="#c1cdcd" stroke-width="0.8" points="685.52,-465.396 674.947,-466.082 683.64,-472.139 685.52,-465.396"/>
</g>
<!-- digging&#45;&gt;tail quiver -->
<g id="edge56" class="edge"><title>digging&#45;&gt;tail quiver</title>
<path fill="none" stroke="#7fff00" stroke-width="0.9" d="M1025.43,-712.304C1137.66,-710.155 1432.85,-702.239 1469.35,-678 1469.6,-677.832 1627.35,-367.303 1627.35,-367 1627.35,-367 1627.35,-367 1627.35,-104 1627.35,-79.3504 1623.87,-67.6567 1603.35,-54 1551.97,-19.8088 1134.09,-18.055 977.932,-18.6138"/>
<polygon fill="#7fff00" stroke="#7fff00" stroke-width="0.9" points="977.576,-15.1151 967.59,-18.6556 977.604,-22.1151 977.576,-15.1151"/>
<text text-anchor="middle" x="1640.85" y="-362.3" font-family="Times New Roman,serif" font-size="14.00">0.01</text>
</g>
<!-- digging&#45;&gt;fin spread -->
<g id="edge47" class="edge"><title>digging&#45;&gt;fin spread</title>
<path fill="none" stroke="#c1cdcd" stroke-width="0.8" d="M1024.66,-709.83C1079.21,-705.126 1170.49,-694.977 1199.35,-678 1215.44,-668.533 1214.89,-660.469 1225.35,-645 1250.33,-608.053 1256.36,-598.354 1275.35,-558 1300.2,-505.188 1298.11,-488.54 1321.35,-435 1341.43,-388.739 1368.27,-336.514 1384.39,-306.029"/>
<polygon fill="#c1cdcd" stroke="#c1cdcd" stroke-width="0.8" points="1387.62,-307.403 1389.22,-296.93 1381.44,-304.12 1387.62,-307.403"/>
</g>
<!-- digging&#45;&gt;ramming -->
<g id="edge49" class="edge"><title>digging&#45;&gt;ramming</title>
<path fill="none" stroke="#c1cdcd" stroke-width="0.8" d="M948.902,-702.658C935.713,-697.147 921.356,-689.147 911.349,-678 850.299,-609.994 907.305,-538.293 830.349,-489 796,-466.998 777.13,-488.641 740.349,-471 717.876,-460.221 716.712,-450.695 697.349,-435 668.824,-411.878 658.345,-409.934 632.349,-384 607.456,-359.166 583.041,-326.889 567.417,-304.924"/>
<polygon fill="#c1cdcd" stroke="#c1cdcd" stroke-width="0.8" points="570.095,-302.647 561.481,-296.478 564.368,-306.672 570.095,-302.647"/>
</g>
<!-- digging&#45;&gt;shell escape -->
<g id="edge52" class="edge"><title>digging&#45;&gt;shell escape</title>
<path fill="none" stroke="#c1cdcd" stroke-width="0.8" d="M975.279,-696.14C960.561,-661.883 924.553,-582.281 883.349,-522 872.331,-505.881 871.154,-498.942 854.349,-489 822.61,-470.222 796.672,-499.567 773.349,-471 713.53,-397.731 750.52,-273.832 771.194,-219.676"/>
<polygon fill="#c1cdcd" stroke="#c1cdcd" stroke-width="0.8" points="774.555,-220.693 774.958,-210.106 768.041,-218.131 774.555,-220.693"/>
</g>
<!-- digging&#45;&gt;shooting out -->
<g id="edge55" class="edge"><title>digging&#45;&gt;shooting out</title>
<path fill="none" stroke="#7fff00" stroke-width="0.9" d="M983.982,-695.919C988.078,-649.057 996.673,-519.91 970.349,-489 967.703,-485.892 929.227,-475.753 894.817,-467.182"/>
<polygon fill="#7fff00" stroke="#7fff00" stroke-width="0.9" points="895.332,-463.704 884.784,-464.698 893.65,-470.498 895.332,-463.704"/>
<text text-anchor="middle" x="1002.85" y="-579.8" font-family="Times New Roman,serif" font-size="14.00">0.01</text>
</g>
<!-- belly display -->
<g id="node16" class="node"><title>belly display</title>
<g id="a_node16"><a xlink:title="what should &#013; be here">
<ellipse fill="#7fff00" stroke="black" cx="613.349" cy="-627" rx="58.4896" ry="18"/>
<text text-anchor="middle" x="613.349" y="-623.3" font-family="Times New Roman,serif" font-size="14.00">belly display</text>
</a>
</g>
</g>
<!-- digging&#45;&gt;belly display -->
<g id="edge53" class="edge"><title>digging&#45;&gt;belly display</title>
<path fill="none" stroke="#7fff00" stroke-width="0.9" d="M938.937,-713.267C881.779,-712.376 778.874,-706.449 696.349,-678 677.338,-671.446 657.984,-660.111 642.752,-649.888"/>
<polygon fill="#7fff00" stroke="#7fff00" stroke-width="0.9" points="644.511,-646.849 634.294,-644.043 640.531,-652.608 644.511,-646.849"/>
<text text-anchor="middle" x="709.849" y="-666.8" font-family="Times New Roman,serif" font-size="14.00">0.01</text>
</g>
<!-- head jolting&#45;&gt;carrying -->
<g id="edge64" class="edge"><title>head jolting&#45;&gt;carrying</title>
<path fill="none" stroke="#7fff00" stroke-width="0.9" d="M755.403,-106.886C645.085,-109.161 400.363,-116.845 320.349,-141 288.041,-150.754 94.9068,-224.899 54.3493,-315 25.8693,-378.27 40.2445,-404.592 60.3493,-471 113.577,-646.817 171.576,-673.221 283.349,-819 325.94,-874.548 332.757,-892.809 385.349,-939 391.606,-944.495 398.796,-949.757 405.846,-954.456"/>
<polygon fill="#7fff00" stroke="#7fff00" stroke-width="0.9" points="404.314,-957.631 414.621,-960.082 408.092,-951.738 404.314,-957.631"/>
<text text-anchor="middle" x="105.849" y="-536.3" font-family="Times New Roman,serif" font-size="14.00">0.17</text>
</g>
<!-- head jolting&#45;&gt;operculum spread -->
<g id="edge65" class="edge"><title>head jolting&#45;&gt;operculum spread</title>
<path fill="none" stroke="#7fff00" stroke-width="0.9" d="M857.55,-114.371C875.593,-117.379 896.386,-120.615 915.349,-123 1097.36,-145.896 1215.99,-100.236 1304.35,-261 1312.06,-275.022 1312.74,-283.377 1304.35,-297 1301.61,-301.442 1250.18,-326.604 1211.61,-345.031"/>
<polygon fill="#7fff00" stroke="#7fff00" stroke-width="0.9" points="1209.64,-342.093 1202.12,-349.554 1212.65,-348.412 1209.64,-342.093"/>
<text text-anchor="middle" x="1305.85" y="-231.8" font-family="Times New Roman,serif" font-size="14.00">0.17</text>
</g>
<!-- head jolting&#45;&gt;s&#45;bend -->
<g id="edge60" class="edge"><title>head jolting&#45;&gt;s&#45;bend</title>
<path fill="none" stroke="#c1cdcd" stroke-width="0.8" d="M856.973,-114.77C875.129,-117.864 896.15,-121.054 915.349,-123 1106.98,-142.426 1158.76,-107.043 1348.35,-141 1395.25,-149.4 1407.88,-152.392 1450.35,-174 1634.67,-267.792 1647.73,-293.984 1681.35,-348 1715.02,-402.101 1703.34,-425.403 1707.35,-489 1712.5,-570.728 1670.35,-587.61 1670.35,-669.5 1670.35,-802 1670.35,-802 1670.35,-802 1670.35,-844.306 1629.78,-839.539 1589.35,-852 1500.69,-879.327 1225.34,-885.318 1108.57,-886.631"/>
<polygon fill="#c1cdcd" stroke="#c1cdcd" stroke-width="0.8" points="1108.4,-883.133 1098.44,-886.738 1108.47,-890.132 1108.4,-883.133"/>
</g>
<!-- head jolting&#45;&gt;shell -->
<g id="edge61" class="edge"><title>head jolting&#45;&gt;shell</title>
<path fill="none" stroke="magenta" stroke-width="0.9" d="M768.283,-116.727C698.474,-136.149 556.932,-182.567 461.349,-261 436.296,-281.558 425.021,-285.172 412.349,-315 391.449,-364.196 407.61,-381.648 404.349,-435 402.477,-465.638 400.037,-473.332 401.349,-504 401.459,-506.559 401.613,-509.221 401.795,-511.882"/>
<polygon fill="magenta" stroke="magenta" stroke-width="0.9" points="398.312,-512.237 402.592,-521.929 405.29,-511.683 398.312,-512.237"/>
<text text-anchor="middle" x="425.849" y="-318.8" font-family="Times New Roman,serif" font-size="14.00">0.29</text>
</g>
<!-- head jolting&#45;&gt;bumping -->
<g id="edge57" class="edge"><title>head jolting&#45;&gt;bumping</title>
<path fill="none" stroke="magenta" stroke-width="0.9" d="M767.43,-93.5521C719.789,-82.2994 640.489,-64.5894 571.349,-54 464.637,-37.656 338.749,-27.398 268.586,-22.478"/>
<polygon fill="magenta" stroke="magenta" stroke-width="0.9" points="268.448,-18.9603 258.231,-21.7624 267.966,-25.9436 268.448,-18.9603"/>
<text text-anchor="middle" x="664.849" y="-57.8" font-family="Times New Roman,serif" font-size="14.00">0.07</text>
</g>
<!-- head jolting&#45;&gt;digging -->
<g id="edge58" class="edge"><title>head jolting&#45;&gt;digging</title>
<path fill="none" stroke="magenta" stroke-width="0.9" d="M856.984,-114.666C875.141,-117.747 896.16,-120.955 915.349,-123 992.129,-131.182 1188.7,-117.797 1262.35,-141 1358.33,-171.239 1405.57,-172.985 1454.35,-261 1498.96,-341.487 1361.52,-577.158 1299.35,-645 1280.86,-665.18 1273.08,-668.655 1247.35,-678 1177.07,-703.525 1090.29,-710.785 1035.61,-712.659"/>
<polygon fill="magenta" stroke="magenta" stroke-width="0.9" points="1035.35,-709.166 1025.46,-712.958 1035.55,-716.163 1035.35,-709.166"/>
<text text-anchor="middle" x="1453.85" y="-405.8" font-family="Times New Roman,serif" font-size="14.00">0.07</text>
</g>
<!-- head jolting&#45;&gt;head jolting -->
<g id="edge59" class="edge"><title>head jolting&#45;&gt;head jolting</title>
<path fill="none" stroke="magenta" stroke-width="0.9" d="M860.331,-112.806C873.569,-112.36 883.594,-109.758 883.594,-105 883.594,-101.543 878.302,-99.2244 870.33,-98.0437"/>
<polygon fill="magenta" stroke="magenta" stroke-width="0.9" points="870.592,-94.5534 860.331,-97.1942 869.999,-101.528 870.592,-94.5534"/>
<text text-anchor="middle" x="897.094" y="-101.3" font-family="Times New Roman,serif" font-size="14.00">0.29</text>
</g>
<!-- head jolting&#45;&gt;tail quiver -->
<g id="edge66" class="edge"><title>head jolting&#45;&gt;tail quiver</title>
<path fill="none" stroke="#7fff00" stroke-width="0.9" d="M834.872,-88.864C844.014,-82.949 854.351,-75.9297 863.349,-69 874.16,-60.6749 885.493,-50.7972 895.115,-42.029"/>
<polygon fill="#7fff00" stroke="#7fff00" stroke-width="0.9" points="897.772,-44.3387 902.744,-34.983 893.023,-39.1961 897.772,-44.3387"/>
<text text-anchor="middle" x="894.849" y="-57.8" font-family="Times New Roman,serif" font-size="14.00">0.17</text>
</g>
<!-- head jolting&#45;&gt;shell escape -->
<g id="edge62" class="edge"><title>head jolting&#45;&gt;shell escape</title>
<path fill="none" stroke="#c1cdcd" stroke-width="0.8" d="M801.863,-122.82C799.214,-128.499 796.441,-134.937 794.349,-141 791.856,-148.227 789.688,-156.215 787.907,-163.645"/>
<polygon fill="#c1cdcd" stroke="#c1cdcd" stroke-width="0.8" points="784.439,-163.115 785.652,-173.64 791.267,-164.655 784.439,-163.115"/>
</g>
<!-- head jolting&#45;&gt;shooting out -->
<g id="edge63" class="edge"><title>head jolting&#45;&gt;shooting out</title>
<path fill="none" stroke="magenta" stroke-width="0.9" d="M858.378,-114.217C908.636,-123.023 980.896,-136.363 985.349,-141 1022.75,-179.945 1000.11,-207.169 1004.35,-261 1005.6,-276.951 1010.68,-282.306 1004.35,-297 978.193,-357.711 915.267,-405.73 875.407,-431.411"/>
<polygon fill="magenta" stroke="magenta" stroke-width="0.9" points="873.375,-428.555 866.785,-436.851 877.11,-434.475 873.375,-428.555"/>
<text text-anchor="middle" x="1021.85" y="-275.3" font-family="Times New Roman,serif" font-size="14.00">0.14</text>
</g>
<!-- driving&#45;&gt;carrying -->
<g id="edge67" class="edge"><title>driving&#45;&gt;carrying</title>
<path fill="none" stroke="magenta" stroke-width="0.9" d="M653.113,-470.74C667.569,-504.129 695.798,-581.276 680.349,-645 647.277,-781.415 520.896,-903.854 465.56,-952.152"/>
<polygon fill="magenta" stroke="magenta" stroke-width="0.9" points="463.217,-949.551 457.93,-958.733 467.789,-954.852 463.217,-949.551"/>
<text text-anchor="middle" x="676.849" y="-710.3" font-family="Times New Roman,serif" font-size="14.00">0.33</text>
</g>
<!-- driving&#45;&gt;s&#45;bend -->
<g id="edge69" class="edge"><title>driving&#45;&gt;s&#45;bend</title>
<path fill="none" stroke="#7fff00" stroke-width="0.9" d="M677.386,-465.11C689.868,-470.711 703.509,-478.57 713.349,-489 773.567,-552.825 793.349,-581.751 793.349,-669.5 793.349,-802 793.349,-802 793.349,-802 793.349,-845.845 927.781,-870.49 1004.06,-880.945"/>
<polygon fill="#7fff00" stroke="#7fff00" stroke-width="0.9" points="1004.04,-884.473 1014.41,-882.326 1004.96,-877.535 1004.04,-884.473"/>
<text text-anchor="middle" x="802.849" y="-666.8" font-family="Times New Roman,serif" font-size="14.00">0.2</text>
</g>
<!-- driving&#45;&gt;digging -->
<g id="edge68" class="edge"><title>driving&#45;&gt;digging</title>
<path fill="none" stroke="#c1cdcd" stroke-width="0.8" d="M681.546,-462.897C691.287,-465.704 701.712,-468.676 711.349,-471 753.974,-481.28 774.548,-461.071 808.349,-489 877.891,-546.459 816.6,-616.236 882.349,-678 896.215,-691.025 914.949,-699.203 932.503,-704.337"/>
<polygon fill="#c1cdcd" stroke="#c1cdcd" stroke-width="0.8" points="932.094,-707.85 942.656,-707.023 933.884,-701.082 932.094,-707.85"/>
</g>
<!-- tail quiver&#45;&gt;shell -->
<g id="edge72" class="edge"><title>tail quiver&#45;&gt;shell</title>
<path fill="none" stroke="#7fff00" stroke-width="0.9" d="M871.233,-20.1342C771.744,-22.9092 546.581,-31.5333 473.349,-54 398.565,-76.9431 379.172,-89.4346 320.349,-141 209.293,-238.355 231.077,-332.132 281.349,-471 287.435,-487.81 290.111,-493.189 304.349,-504 319.412,-515.436 338.507,-523.332 355.965,-528.687"/>
<polygon fill="#7fff00" stroke="#7fff00" stroke-width="0.9" points="355.435,-532.175 366.012,-531.553 357.356,-525.444 355.435,-532.175"/>
<text text-anchor="middle" x="257.849" y="-275.3" font-family="Times New Roman,serif" font-size="14.00">0.33</text>
</g>
<!-- tail quiver&#45;&gt;digging -->
<g id="edge70" class="edge"><title>tail quiver&#45;&gt;digging</title>
<path fill="none" stroke="magenta" stroke-width="0.9" d="M967.625,-19.467C1090.42,-23.6943 1409.49,-54.7086 1473.35,-261 1524.09,-424.917 1551.94,-520.991 1433.35,-645 1379.66,-701.144 1143.32,-711.171 1035.86,-712.792"/>
<polygon fill="magenta" stroke="magenta" stroke-width="0.9" points="1035.52,-709.296 1025.57,-712.928 1035.62,-716.296 1035.52,-709.296"/>
<text text-anchor="middle" x="1517.85" y="-362.3" font-family="Times New Roman,serif" font-size="14.00">1.0</text>
</g>
<!-- tail quiver&#45;&gt;head jolting -->
<g id="edge71" class="edge"><title>tail quiver&#45;&gt;head jolting</title>
<path fill="none" stroke="#7fff00" stroke-width="0.9" d="M879.287,-28.01C863.086,-33.3269 845.214,-41.541 832.349,-54 825.788,-60.3545 821.05,-69.0047 817.692,-77.3238"/>
<polygon fill="#7fff00" stroke="#7fff00" stroke-width="0.9" points="814.382,-76.1854 814.357,-86.7802 820.983,-78.5135 814.382,-76.1854"/>
<text text-anchor="middle" x="845.849" y="-57.8" font-family="Times New Roman,serif" font-size="14.00">0.33</text>
</g>
<!-- tail quiver&#45;&gt;shell escape -->
<g id="edge73" class="edge"><title>tail quiver&#45;&gt;shell escape</title>
<path fill="none" stroke="#7fff00" stroke-width="0.9" d="M924.445,-35.9571C929.955,-57.8496 935.905,-96.2996 919.349,-123 901.372,-151.994 866.933,-169.013 837.084,-178.773"/>
<polygon fill="#7fff00" stroke="#7fff00" stroke-width="0.9" points="835.703,-175.536 827.167,-181.812 837.754,-182.229 835.703,-175.536"/>
<text text-anchor="middle" x="943.849" y="-101.3" font-family="Times New Roman,serif" font-size="14.00">0.33</text>
</g>
<!-- fin spread&#45;&gt;carrying -->
<g id="edge74" class="edge"><title>fin spread&#45;&gt;carrying</title>
<path fill="none" stroke="magenta" stroke-width="0.9" d="M1436.92,-289.734C1457.3,-295.64 1482.36,-304.144 1503.35,-315 1556.43,-342.447 1679.98,-436.413 1708.35,-489 1765.37,-594.682 1746.35,-636.418 1746.35,-756.5 1746.35,-889 1746.35,-889 1746.35,-889 1746.35,-941.913 849.211,-954.675 796.349,-957 688.3,-961.753 561.887,-967.914 492.206,-971.363"/>
<polygon fill="magenta" stroke="magenta" stroke-width="0.9" points="491.748,-967.881 481.934,-971.872 492.095,-974.873 491.748,-967.881"/>
<text text-anchor="middle" x="1759.85" y="-623.3" font-family="Times New Roman,serif" font-size="14.00">1.0</text>
</g>
<!-- fin spread&#45;&gt;s&#45;bend -->
<g id="edge76" class="edge"><title>fin spread&#45;&gt;s&#45;bend</title>
<path fill="none" stroke="#7fff00" stroke-width="0.9" d="M1432.28,-291.736C1459.15,-302.58 1495.93,-321.106 1519.35,-348 1579.24,-416.775 1594.35,-447.801 1594.35,-539 1594.35,-802 1594.35,-802 1594.35,-802 1594.35,-860.188 1529.91,-838.316 1473.35,-852 1345.15,-883.017 1189.12,-887.665 1108.81,-887.73"/>
<polygon fill="#7fff00" stroke="#7fff00" stroke-width="0.9" points="1108.47,-884.229 1098.46,-887.713 1108.46,-891.229 1108.47,-884.229"/>
<text text-anchor="middle" x="1607.85" y="-579.8" font-family="Times New Roman,serif" font-size="14.00">0.33</text>
</g>
<!-- fin spread&#45;&gt;shell -->
<g id="edge77" class="edge"><title>fin spread&#45;&gt;shell</title>
<path fill="none" stroke="#7fff00" stroke-width="0.9" d="M1371.41,-293.855C1361.86,-299.576 1351.47,-306.798 1343.35,-315 1317.92,-340.671 1326.74,-359.32 1300.35,-384 1240.37,-440.088 1214.87,-443.902 1137.35,-471 883.458,-559.753 802.307,-498.837 534.349,-522 507.76,-524.298 478.257,-528.058 454.087,-531.457"/>
<polygon fill="#7fff00" stroke="#7fff00" stroke-width="0.9" points="453.483,-528.008 444.078,-532.887 454.473,-534.938 453.483,-528.008"/>
<text text-anchor="middle" x="1293.85" y="-405.8" font-family="Times New Roman,serif" font-size="14.00">0.17</text>
</g>
<!-- fin spread&#45;&gt;digging -->
<g id="edge75" class="edge"><title>fin spread&#45;&gt;digging</title>
<path fill="none" stroke="#7fff00" stroke-width="0.9" d="M1396.56,-297.334C1395.32,-307.054 1393.33,-319.333 1390.35,-330 1383.37,-354.957 1378.13,-360.003 1368.35,-384 1313.19,-519.278 1350.3,-609.35 1221.35,-678 1189.94,-694.719 1095.17,-704.651 1034.83,-709.448"/>
<polygon fill="#7fff00" stroke="#7fff00" stroke-width="0.9" points="1034.42,-705.969 1024.72,-710.23 1034.96,-712.949 1034.42,-705.969"/>
<text text-anchor="middle" x="1351.85" y="-492.8" font-family="Times New Roman,serif" font-size="14.00">0.17</text>
</g>
<!-- fin spread&#45;&gt;tail quiver -->
<g id="edge79" class="edge"><title>fin spread&#45;&gt;tail quiver</title>
<path fill="none" stroke="#7fff00" stroke-width="0.9" d="M1380.86,-262.052C1356.35,-240.245 1309.78,-200.781 1265.35,-174 1162.18,-111.822 1029.71,-59.334 962.542,-34.4552"/>
<polygon fill="#7fff00" stroke="#7fff00" stroke-width="0.9" points="963.711,-31.156 953.117,-30.9871 961.293,-37.7253 963.711,-31.156"/>
<text text-anchor="middle" x="1244.85" y="-144.8" font-family="Times New Roman,serif" font-size="14.00">0.17</text>
</g>
<!-- fin spread&#45;&gt;shell escape -->
<g id="edge78" class="edge"><title>fin spread&#45;&gt;shell escape</title>
<path fill="none" stroke="#7fff00" stroke-width="0.9" d="M1356.78,-270.026C1340.46,-267.016 1321.56,-263.675 1304.35,-261 1137.54,-235.068 939.689,-211.156 842.434,-199.849"/>
<polygon fill="#7fff00" stroke="#7fff00" stroke-width="0.9" points="842.829,-196.372 832.492,-198.697 842.023,-203.325 842.829,-196.372"/>
<text text-anchor="middle" x="1189.85" y="-231.8" font-family="Times New Roman,serif" font-size="14.00">0.17</text>
</g>
<!-- ramming&#45;&gt;carrying -->
<g id="edge82" class="edge"><title>ramming&#45;&gt;carrying</title>
<path fill="none" stroke="#7fff00" stroke-width="0.9" d="M519.742,-292.321C460.313,-318.211 331.126,-384.633 285.349,-489 208.917,-663.256 318.539,-726.737 382.349,-906 387.752,-921.178 387.582,-926.188 397.349,-939 401.036,-943.836 405.507,-948.443 410.14,-952.633"/>
<polygon fill="#7fff00" stroke="#7fff00" stroke-width="0.9" points="408.082,-955.477 417.979,-959.258 412.601,-950.13 408.082,-955.477"/>
<text text-anchor="middle" x="274.849" y="-623.3" font-family="Times New Roman,serif" font-size="14.00">0.2</text>
</g>
<!-- ramming&#45;&gt;shell -->
<g id="edge80" class="edge"><title>ramming&#45;&gt;shell</title>
<path fill="none" stroke="#c1cdcd" stroke-width="0.8" d="M538.506,-296.497C534.51,-302.263 530.111,-308.837 526.349,-315 476.622,-396.476 470.698,-420.556 424.349,-504 422.632,-507.092 420.814,-510.326 419.001,-513.527"/>
<polygon fill="#c1cdcd" stroke="#c1cdcd" stroke-width="0.8" points="415.905,-511.891 413.995,-522.312 421.987,-515.356 415.905,-511.891"/>
</g>
<!-- ramming&#45;&gt;shell escape -->
<g id="edge81" class="edge"><title>ramming&#45;&gt;shell escape</title>
<path fill="none" stroke="magenta" stroke-width="0.9" d="M552.88,-260.591C555.413,-249.578 560.438,-235.965 570.349,-228 592.818,-209.944 665.416,-200.933 719.432,-196.627"/>
<polygon fill="magenta" stroke="magenta" stroke-width="0.9" points="719.92,-200.1 729.626,-195.851 719.39,-193.12 719.92,-200.1"/>
<text text-anchor="middle" x="579.849" y="-231.8" font-family="Times New Roman,serif" font-size="14.00">0.5</text>
</g>
<!-- ramming&#45;&gt;shooting out -->
<g id="edge83" class="edge"><title>ramming&#45;&gt;shooting out</title>
<path fill="none" stroke="#7fff00" stroke-width="0.9" d="M569.203,-295.361C608.537,-327.198 698.575,-398.924 733.349,-417 749.948,-425.628 769.092,-432.697 786.558,-438.167"/>
<polygon fill="#7fff00" stroke="#7fff00" stroke-width="0.9" points="786.031,-441.664 796.616,-441.202 788.054,-434.962 786.031,-441.664"/>
<text text-anchor="middle" x="691.849" y="-362.3" font-family="Times New Roman,serif" font-size="14.00">0.2</text>
</g>
<!-- shell escape&#45;&gt;biting -->
<g id="edge84" class="edge"><title>shell escape&#45;&gt;biting</title>
<path fill="none" stroke="magenta" stroke-width="0.9" d="M729,-194.686C579.262,-199.935 163.191,-218.266 120.349,-261 104.193,-277.116 77.3493,-646.68 77.3493,-669.5 77.3493,-976 77.3493,-976 77.3493,-976 77.3493,-1038.66 285.517,-1055.17 386.137,-1059.49"/>
<polygon fill="magenta" stroke="magenta" stroke-width="0.9" points="386.269,-1062.99 396.402,-1059.9 386.551,-1056 386.269,-1062.99"/>
<text text-anchor="middle" x="94.8493" y="-623.3" font-family="Times New Roman,serif" font-size="14.00">0.06</text>
</g>
<!-- shell escape&#45;&gt;operculum spread -->
<g id="edge90" class="edge"><title>shell escape&#45;&gt;operculum spread</title>
<path fill="none" stroke="#7fff00" stroke-width="0.9" d="M835.185,-195.864C865.575,-199.72 903.19,-208.454 931.349,-228 961.627,-249.016 948.269,-274.356 977.349,-297 1013.1,-324.839 1061.17,-341.846 1100.26,-351.89"/>
<polygon fill="#7fff00" stroke="#7fff00" stroke-width="0.9" points="1099.45,-355.293 1110,-354.295 1101.13,-348.498 1099.45,-355.293"/>
<text text-anchor="middle" x="990.849" y="-275.3" font-family="Times New Roman,serif" font-size="14.00">0.06</text>
</g>
<!-- shell escape&#45;&gt;s&#45;bend -->
<g id="edge86" class="edge"><title>shell escape&#45;&gt;s&#45;bend</title>
<path fill="none" stroke="magenta" stroke-width="0.9" d="M815.449,-206.295C828.618,-212.18 843.632,-219.662 856.349,-228 963.028,-297.94 960.863,-355.009 1072.35,-417 1096.31,-430.323 1115.04,-412.967 1131.35,-435 1164.03,-479.143 1089.99,-511.577 1119.35,-558 1181.14,-655.707 1354.35,-553.896 1354.35,-669.5 1354.35,-802 1354.35,-802 1354.35,-802 1354.35,-852.756 1192.92,-874.815 1107.29,-882.945"/>
<polygon fill="magenta" stroke="magenta" stroke-width="0.9" points="1106.88,-879.468 1097.24,-883.869 1107.52,-886.439 1106.88,-879.468"/>
<text text-anchor="middle" x="1132.85" y="-536.3" font-family="Times New Roman,serif" font-size="14.00">0.06</text>
</g>
<!-- shell escape&#45;&gt;shell -->
<g id="edge87" class="edge"><title>shell escape&#45;&gt;shell</title>
<path fill="none" stroke="#c1cdcd" stroke-width="0.8" d="M729.489,-196.309C684.525,-200.281 618.952,-208.983 564.349,-228 536.341,-237.754 527.802,-240.521 506.349,-261 444.234,-320.295 441.536,-351.298 422.349,-435 416.487,-460.573 414.377,-490.48 412.023,-511.642"/>
<polygon fill="#c1cdcd" stroke="#c1cdcd" stroke-width="0.8" points="408.515,-511.485 410.748,-521.842 415.461,-512.354 408.515,-511.485"/>
</g>
<!-- shell escape&#45;&gt;digging -->
<g id="edge85" class="edge"><title>shell escape&#45;&gt;digging</title>
<path fill="none" stroke="magenta" stroke-width="0.9" d="M807.018,-208.223C825.236,-220.536 849.519,-239.344 865.349,-261 905.142,-315.435 902.576,-337.238 921.349,-402 930.037,-431.972 913.828,-447.49 934.349,-471 950.986,-490.059 970.188,-471.388 988.349,-489 1017.93,-517.682 1013.13,-535.439 1020.35,-576 1027.36,-615.389 1010.26,-659.823 996.769,-687.121"/>
<polygon fill="magenta" stroke="magenta" stroke-width="0.9" points="993.477,-685.869 992.013,-696.362 999.701,-689.072 993.477,-685.869"/>
<text text-anchor="middle" x="947.849" y="-449.3" font-family="Times New Roman,serif" font-size="14.00">0.06</text>
</g>
<!-- shell escape&#45;&gt;head jolting -->
<g id="edge89" class="edge"><title>shell escape&#45;&gt;head jolting</title>
<path fill="none" stroke="#7fff00" stroke-width="0.9" d="M788.016,-173.799C791.887,-162.047 797.094,-146.238 801.507,-132.842"/>
<polygon fill="#7fff00" stroke="#7fff00" stroke-width="0.9" points="804.887,-133.768 804.692,-123.175 798.238,-131.578 804.887,-133.768"/>
<text text-anchor="middle" x="811.849" y="-144.8" font-family="Times New Roman,serif" font-size="14.00">0.18</text>
</g>
<!-- shell escape&#45;&gt;shell escape -->
<g id="edge88" class="edge"><title>shell escape&#45;&gt;shell escape</title>
<path fill="none" stroke="#c1cdcd" stroke-width="0.8" d="M831.107,-199.817C844.276,-199.404 854.295,-196.799 854.295,-192 854.295,-188.551 849.119,-186.235 841.318,-185.052"/>
<polygon fill="#c1cdcd" stroke="#c1cdcd" stroke-width="0.8" points="841.368,-181.543 831.107,-184.183 840.775,-188.518 841.368,-181.543"/>
</g>
<!-- shell escape&#45;&gt;shooting out -->
<g id="edge91" class="edge"><title>shell escape&#45;&gt;shooting out</title>
<path fill="none" stroke="#7fff00" stroke-width="0.9" d="M786.169,-210.056C796.016,-254.031 822.331,-371.537 834.287,-424.929"/>
<polygon fill="#7fff00" stroke="#7fff00" stroke-width="0.9" points="830.943,-426.013 836.544,-435.006 837.774,-424.483 830.943,-426.013"/>
<text text-anchor="middle" x="826.849" y="-318.8" font-family="Times New Roman,serif" font-size="14.00">0.06</text>
</g>
<!-- shooting out&#45;&gt;operculum spread -->
<g id="edge97" class="edge"><title>shooting out&#45;&gt;operculum spread</title>
<path fill="none" stroke="#7fff00" stroke-width="0.9" d="M883.989,-440.963C893.312,-438.811 903.129,-436.699 912.349,-435 971.878,-424.032 988.865,-432.605 1047.35,-417 1062.7,-412.904 1097.27,-398.55 1125.71,-386.266"/>
<polygon fill="#7fff00" stroke="#7fff00" stroke-width="0.9" points="1127.3,-389.39 1135.08,-382.197 1124.51,-382.969 1127.3,-389.39"/>
<text text-anchor="middle" x="1095.85" y="-405.8" font-family="Times New Roman,serif" font-size="14.00">0.2</text>
</g>
<!-- shooting out&#45;&gt;shell -->
<g id="edge94" class="edge"><title>shooting out&#45;&gt;shell</title>
<path fill="none" stroke="#c1cdcd" stroke-width="0.8" d="M793.96,-463.926C710.876,-480.717 537.779,-514.447 453.052,-530.34"/>
<polygon fill="#c1cdcd" stroke="#c1cdcd" stroke-width="0.8" points="452.356,-526.91 443.17,-532.188 453.642,-533.791 452.356,-526.91"/>
</g>
<!-- shooting out&#45;&gt;bumping -->
<g id="edge92" class="edge"><title>shooting out&#45;&gt;bumping</title>
<path fill="none" stroke="magenta" stroke-width="0.9" d="M823.849,-435.494C818.209,-429.726 811.921,-423.155 806.349,-417 766.555,-373.04 764.604,-354.466 720.349,-315 567.914,-179.057 343.513,-74.3468 253.659,-35.4449"/>
<polygon fill="magenta" stroke="magenta" stroke-width="0.9" points="254.952,-32.1911 244.383,-31.4562 252.187,-38.6218 254.952,-32.1911"/>
<text text-anchor="middle" x="641.849" y="-231.8" font-family="Times New Roman,serif" font-size="14.00">0.17</text>
</g>
<!-- shooting out&#45;&gt;digging -->
<g id="edge93" class="edge"><title>shooting out&#45;&gt;digging</title>
<path fill="none" stroke="magenta" stroke-width="0.9" d="M885.022,-464.464C908.75,-470.933 934.589,-479.748 942.349,-489 971.838,-524.158 950.364,-545.813 958.349,-591 964.109,-623.59 971.577,-660.901 976.643,-685.59"/>
<polygon fill="magenta" stroke="magenta" stroke-width="0.9" points="973.273,-686.578 978.72,-695.665 980.128,-685.164 973.273,-686.578"/>
<text text-anchor="middle" x="971.849" y="-579.8" font-family="Times New Roman,serif" font-size="14.00">0.17</text>
</g>
<!-- shooting out&#45;&gt;head jolting -->
<g id="edge96" class="edge"><title>shooting out&#45;&gt;head jolting</title>
<path fill="none" stroke="#7fff00" stroke-width="0.9" d="M846.457,-434.801C861.29,-390.271 895.695,-268.118 863.349,-174 857.643,-157.395 846.038,-141.73 835.138,-129.63"/>
<polygon fill="#7fff00" stroke="#7fff00" stroke-width="0.9" points="837.554,-127.091 828.146,-122.219 832.463,-131.895 837.554,-127.091"/>
<text text-anchor="middle" x="886.849" y="-275.3" font-family="Times New Roman,serif" font-size="14.00">0.4</text>
</g>
<!-- shooting out&#45;&gt;shell escape -->
<g id="edge95" class="edge"><title>shooting out&#45;&gt;shell escape</title>
<path fill="none" stroke="magenta" stroke-width="0.9" d="M828.753,-435.201C813.88,-412.534 788.871,-370.332 779.349,-330 770.567,-292.798 773.99,-248.328 777.758,-220.367"/>
<polygon fill="magenta" stroke="magenta" stroke-width="0.9" points="781.266,-220.562 779.249,-210.161 774.34,-219.55 781.266,-220.562"/>
<text text-anchor="middle" x="792.849" y="-318.8" font-family="Times New Roman,serif" font-size="14.00">0.17</text>
</g>
<!-- away&#45;&gt;operculum spread -->
<g id="edge99" class="edge"><title>away&#45;&gt;operculum spread</title>
<path fill="none" stroke="#7fff00" stroke-width="0.9" d="M1201.07,-296.833C1197.31,-306.611 1192.31,-319.111 1187.35,-330 1185.99,-332.984 1184.51,-336.08 1182.99,-339.14"/>
<polygon fill="#7fff00" stroke="#7fff00" stroke-width="0.9" points="1179.87,-337.567 1178.47,-348.069 1186.11,-340.733 1179.87,-337.567"/>
<text text-anchor="middle" x="1207.85" y="-318.8" font-family="Times New Roman,serif" font-size="14.00">0.67</text>
</g>
<!-- away&#45;&gt;away -->
<g id="edge98" class="edge"><title>away&#45;&gt;away</title>
<path fill="none" stroke="#7fff00" stroke-width="0.9" d="M1246.07,-286.873C1258.5,-286.792 1268.35,-284.168 1268.35,-279 1268.35,-275.366 1263.48,-272.99 1256.27,-271.871"/>
<polygon fill="#7fff00" stroke="#7fff00" stroke-width="0.9" points="1256.3,-268.364 1246.07,-271.127 1255.79,-275.346 1256.3,-268.364"/>
<text text-anchor="middle" x="1281.85" y="-275.3" font-family="Times New Roman,serif" font-size="14.00">0.33</text>
</g>
<!-- belly display&#45;&gt;shell -->
<g id="edge100" class="edge"><title>belly display&#45;&gt;shell</title>
<path fill="none" stroke="#7fff00" stroke-width="0.9" d="M579.305,-612.154C542.09,-597.019 482.561,-572.809 443.457,-556.905"/>
<polygon fill="#7fff00" stroke="#7fff00" stroke-width="0.9" points="444.563,-553.576 433.981,-553.051 441.926,-560.061 444.563,-553.576"/>
<text text-anchor="middle" x="531.849" y="-579.8" font-family="Times New Roman,serif" font-size="14.00">1.0</text>
</g>
<!-- scratching&#45;&gt;digging -->
<g id="edge101" class="edge"><title>scratching&#45;&gt;digging</title>
<path fill="none" stroke="#7fff00" stroke-width="0.9" d="M936.611,-783.207C944.861,-770.903 956.199,-753.996 965.522,-740.093"/>
<polygon fill="#7fff00" stroke="#7fff00" stroke-width="0.9" points="968.643,-741.724 971.305,-731.469 962.829,-737.825 968.643,-741.724"/>
<text text-anchor="middle" x="970.849" y="-753.8" font-family="Times New Roman,serif" font-size="14.00">0.17</text>
</g>
<!-- scratching&#45;&gt;scratching -->
<g id="edge102" class="edge"><title>scratching&#45;&gt;scratching</title>
<path fill="none" stroke="#7fff00" stroke-width="0.9" d="M968.892,-808.851C981.601,-808.58 991.445,-805.963 991.445,-801 991.445,-797.51 986.578,-795.181 979.271,-794.01"/>
<polygon fill="#7fff00" stroke="#7fff00" stroke-width="0.9" points="979.148,-790.488 968.892,-793.149 978.568,-797.464 979.148,-790.488"/>
<text text-anchor="middle" x="1004.95" y="-797.3" font-family="Times New Roman,serif" font-size="14.00">0.83</text>
</g>
</g>
</svg>
