<?xml version="1.0" encoding="UTF-8" standalone="no"?>
<!DOCTYPE svg PUBLIC "-//W3C//DTD SVG 1.1//EN"
 "http://www.w3.org/Graphics/SVG/1.1/DTD/svg11.dtd">
<!-- Generated by graphviz version 2.38.0 (20140413.2041)
 -->
<!-- Title: 2018&#45;10&#45;28_37_control_F Pages: 1 -->
<svg width="671pt" height="188pt"
 viewBox="0.00 0.00 670.79 188.00" xmlns="http://www.w3.org/2000/svg" xmlns:xlink="http://www.w3.org/1999/xlink">
<g id="graph0" class="graph" transform="scale(1 1) rotate(0) translate(4 184)">
<title>2018&#45;10&#45;28_37_control_F</title>
<polygon fill="white" stroke="none" points="-4,4 -4,-184 666.789,-184 666.789,4 -4,4"/>
<!-- attempted attack -->
<g id="node1" class="node"><title>attempted attack</title>
<g id="a_node1"><a xlink:title="what should &#013; be here">
<ellipse fill="#c1cdcd" stroke="black" cx="70.8437" cy="-162" rx="70.6878" ry="18"/>
<text text-anchor="middle" x="70.8437" y="-158.3" font-family="Times New Roman,serif" font-size="14.00">attempted attack</text>
</a>
</g>
</g>
<!-- tail beat -->
<g id="node3" class="node"><title>tail beat</title>
<g id="a_node3"><a xlink:title="what should &#013; be here">
<ellipse fill="#c1cdcd" stroke="black" cx="202.844" cy="-90" rx="43" ry="18"/>
<text text-anchor="middle" x="202.844" y="-86.3" font-family="Times New Roman,serif" font-size="14.00">tail beat</text>
</a>
</g>
</g>
<!-- attempted attack&#45;&gt;tail beat -->
<g id="edge1" class="edge"><title>attempted attack&#45;&gt;tail beat</title>
<path fill="none" stroke="#c1cdcd" stroke-width="0.8" d="M100.139,-145.465C120.252,-134.798 147.034,-120.596 168.206,-109.368"/>
<polygon fill="#c1cdcd" stroke="#c1cdcd" stroke-width="0.8" points="170.002,-112.378 177.197,-104.6 166.723,-106.193 170.002,-112.378"/>
</g>
<!-- s&#45;bend -->
<g id="node2" class="node"><title>s&#45;bend</title>
<g id="a_node2"><a xlink:title="what should &#013; be here">
<ellipse fill="#c1cdcd" stroke="black" cx="202.844" cy="-18" rx="43" ry="18"/>
<text text-anchor="middle" x="202.844" y="-14.3" font-family="Times New Roman,serif" font-size="14.00">s&#45;bend</text>
</a>
</g>
</g>
<!-- s&#45;bend&#45;&gt;tail beat -->
<g id="edge2" class="edge"><title>s&#45;bend&#45;&gt;tail beat</title>
<path fill="none" stroke="#c1cdcd" stroke-width="0.8" d="M208.757,-36.2753C209.558,-44.03 209.784,-53.3618 209.434,-62.0054"/>
<polygon fill="#c1cdcd" stroke="#c1cdcd" stroke-width="0.8" points="205.938,-61.8325 208.722,-72.055 212.92,-62.3275 205.938,-61.8325"/>
</g>
<!-- tail beat&#45;&gt;s&#45;bend -->
<g id="edge3" class="edge"><title>tail beat&#45;&gt;s&#45;bend</title>
<path fill="none" stroke="#c1cdcd" stroke-width="0.8" d="M196.965,-72.055C196.147,-64.3456 195.905,-55.0269 196.239,-46.3642"/>
<polygon fill="#c1cdcd" stroke="#c1cdcd" stroke-width="0.8" points="199.738,-46.4915 196.931,-36.2753 192.754,-46.0122 199.738,-46.4915"/>
</g>
<!-- biting -->
<g id="node4" class="node"><title>biting</title>
<g id="a_node4"><a xlink:title="what should &#013; be here">
<ellipse fill="#c1cdcd" stroke="black" cx="478.844" cy="-162" rx="43" ry="18"/>
<text text-anchor="middle" x="478.844" y="-158.3" font-family="Times New Roman,serif" font-size="14.00">biting</text>
</a>
</g>
</g>
<!-- shooting out -->
<g id="node5" class="node"><title>shooting out</title>
<g id="a_node5"><a xlink:title="what should &#013; be here">
<ellipse fill="#c1cdcd" stroke="black" cx="478.844" cy="-90" rx="57.6901" ry="18"/>
<text text-anchor="middle" x="478.844" y="-86.3" font-family="Times New Roman,serif" font-size="14.00">shooting out</text>
</a>
</g>
</g>
<!-- biting&#45;&gt;shooting out -->
<g id="edge4" class="edge"><title>biting&#45;&gt;shooting out</title>
<path fill="none" stroke="#c1cdcd" stroke-width="0.8" d="M478.844,-143.697C478.844,-135.983 478.844,-126.712 478.844,-118.112"/>
<polygon fill="#c1cdcd" stroke="#c1cdcd" stroke-width="0.8" points="482.344,-118.104 478.844,-108.104 475.344,-118.104 482.344,-118.104"/>
</g>
<!-- shell -->
<g id="node8" class="node"><title>shell</title>
<g id="a_node8"><a xlink:title="what should &#013; be here">
<ellipse fill="#c1cdcd" stroke="black" cx="543.844" cy="-18" rx="43" ry="18"/>
<text text-anchor="middle" x="543.844" y="-14.3" font-family="Times New Roman,serif" font-size="14.00">shell</text>
</a>
</g>
</g>
<!-- shooting out&#45;&gt;shell -->
<g id="edge5" class="edge"><title>shooting out&#45;&gt;shell</title>
<path fill="none" stroke="#c1cdcd" stroke-width="0.8" d="M494.248,-72.411C502.542,-63.4786 512.913,-52.3096 522.025,-42.4976"/>
<polygon fill="#c1cdcd" stroke="#c1cdcd" stroke-width="0.8" points="524.758,-44.6977 528.998,-34.9881 519.628,-39.9345 524.758,-44.6977"/>
</g>
<!-- carrying -->
<g id="node6" class="node"><title>carrying</title>
<g id="a_node6"><a xlink:title="what should &#013; be here">
<ellipse fill="#c1cdcd" stroke="black" cx="202.844" cy="-162" rx="43" ry="18"/>
<text text-anchor="middle" x="202.844" y="-158.3" font-family="Times New Roman,serif" font-size="14.00">carrying</text>
</a>
</g>
</g>
<!-- carrying&#45;&gt;tail beat -->
<g id="edge6" class="edge"><title>carrying&#45;&gt;tail beat</title>
<path fill="none" stroke="#c1cdcd" stroke-width="0.8" d="M202.844,-143.697C202.844,-135.983 202.844,-126.712 202.844,-118.112"/>
<polygon fill="#c1cdcd" stroke="#c1cdcd" stroke-width="0.8" points="206.344,-118.104 202.844,-108.104 199.344,-118.104 206.344,-118.104"/>
</g>
<!-- operculum spread -->
<g id="node7" class="node"><title>operculum spread</title>
<g id="a_node7"><a xlink:title="what should &#013; be here">
<ellipse fill="#c1cdcd" stroke="black" cx="340.844" cy="-162" rx="77.1866" ry="18"/>
<text text-anchor="middle" x="340.844" y="-158.3" font-family="Times New Roman,serif" font-size="14.00">operculum spread</text>
</a>
</g>
</g>
<!-- operculum spread&#45;&gt;tail beat -->
<g id="edge7" class="edge"><title>operculum spread&#45;&gt;tail beat</title>
<path fill="none" stroke="#c1cdcd" stroke-width="0.8" d="M310.217,-145.465C288.956,-134.68 260.568,-120.28 238.321,-108.996"/>
<polygon fill="#c1cdcd" stroke="#c1cdcd" stroke-width="0.8" points="239.703,-105.772 229.202,-104.37 236.537,-112.015 239.703,-105.772"/>
</g>
<!-- shell&#45;&gt;shell -->
<g id="edge8" class="edge"><title>shell&#45;&gt;shell</title>
<path fill="none" stroke="#c1cdcd" stroke-width="0.8" d="M573.974,-30.943C590.127,-33.1425 604.844,-28.8281 604.844,-18 604.844,-9.54053 595.862,-5.05676 584.229,-4.54869"/>
<polygon fill="#c1cdcd" stroke="#c1cdcd" stroke-width="0.8" points="583.788,-1.06616 573.974,-5.05701 584.135,-8.05758 583.788,-1.06616"/>
</g>
<!-- shell escape -->
<g id="node9" class="node"><title>shell escape</title>
<g id="a_node9"><a xlink:title="what should &#013; be here">
<ellipse fill="#c1cdcd" stroke="black" cx="608.844" cy="-90" rx="53.8905" ry="18"/>
<text text-anchor="middle" x="608.844" y="-86.3" font-family="Times New Roman,serif" font-size="14.00">shell escape</text>
</a>
</g>
</g>
<!-- shell escape&#45;&gt;shell -->
<g id="edge9" class="edge"><title>shell escape&#45;&gt;shell</title>
<path fill="none" stroke="#c1cdcd" stroke-width="0.8" d="M593.44,-72.411C585.145,-63.4786 574.774,-52.3096 565.663,-42.4976"/>
<polygon fill="#c1cdcd" stroke="#c1cdcd" stroke-width="0.8" points="568.059,-39.9345 558.69,-34.9881 562.93,-44.6977 568.059,-39.9345"/>
</g>
</g>
</svg>
