<?xml version="1.0" encoding="UTF-8" standalone="no"?>
<!DOCTYPE svg PUBLIC "-//W3C//DTD SVG 1.1//EN"
 "http://www.w3.org/Graphics/SVG/1.1/DTD/svg11.dtd">
<!-- Generated by graphviz version 2.38.0 (20140413.2041)
 -->
<!-- Title: Tempo_22_10_17_d1_first_03_09_19 Pages: 1 -->
<svg width="692pt" height="566pt"
 viewBox="0.00 0.00 692.00 566.00" xmlns="http://www.w3.org/2000/svg" xmlns:xlink="http://www.w3.org/1999/xlink">
<g id="graph0" class="graph" transform="scale(1 1) rotate(0) translate(4 562)">
<title>Tempo_22_10_17_d1_first_03_09_19</title>
<polygon fill="white" stroke="none" points="-4,4 -4,-562 688,-562 688,4 -4,4"/>
<!-- Affiliative behavior -->
<g id="node1" class="node"><title>Affiliative behavior</title>
<g id="a_node1"><a xlink:title="what should &#013; be here">
<ellipse fill="#c1cdcd" stroke="black" cx="400" cy="-540" rx="83.3857" ry="18"/>
<text text-anchor="middle" x="400" y="-536.3" font-family="Times New Roman,serif" font-size="14.00">Affiliative behavior</text>
</a>
</g>
</g>
<!-- Affiliative behavior&#45;&gt;Affiliative behavior -->
<g id="edge1" class="edge"><title>Affiliative behavior&#45;&gt;Affiliative behavior</title>
<path fill="none" stroke="magenta" stroke-width="0.9" d="M475.905,-547.525C490.692,-546.651 501.193,-544.143 501.193,-540 501.193,-536.893 495.286,-534.705 486.094,-533.437"/>
<polygon fill="magenta" stroke="magenta" stroke-width="0.9" points="486.189,-529.931 475.905,-532.475 485.531,-536.9 486.189,-529.931"/>
<text text-anchor="middle" x="505.193" y="-536.3" font-family="Times New Roman,serif" font-size="14.00">3</text>
</g>
<!-- Submissive behavior -->
<g id="node2" class="node"><title>Submissive behavior</title>
<g id="a_node2"><a xlink:title="what should &#013; be here">
<ellipse fill="#c1cdcd" stroke="black" cx="539" cy="-453" rx="89.0842" ry="18"/>
<text text-anchor="middle" x="539" y="-449.3" font-family="Times New Roman,serif" font-size="14.00">Submissive behavior</text>
</a>
</g>
</g>
<!-- Affiliative behavior&#45;&gt;Submissive behavior -->
<g id="edge2" class="edge"><title>Affiliative behavior&#45;&gt;Submissive behavior</title>
<path fill="none" stroke="magenta" stroke-width="0.9" d="M426.472,-522.812C448.264,-509.486 479.361,-490.47 503.344,-475.804"/>
<polygon fill="magenta" stroke="magenta" stroke-width="0.9" points="505.448,-478.62 512.153,-470.417 501.796,-472.648 505.448,-478.62"/>
<text text-anchor="middle" x="482" y="-492.8" font-family="Times New Roman,serif" font-size="14.00">2</text>
</g>
<!-- Escape -->
<g id="node3" class="node"><title>Escape</title>
<g id="a_node3"><a xlink:title="what should &#013; be here">
<ellipse fill="#c1cdcd" stroke="black" cx="435" cy="-105" rx="43" ry="18"/>
<text text-anchor="middle" x="435" y="-101.3" font-family="Times New Roman,serif" font-size="14.00">Escape</text>
</a>
</g>
</g>
<!-- Affiliative behavior&#45;&gt;Escape -->
<g id="edge3" class="edge"><title>Affiliative behavior&#45;&gt;Escape</title>
<path fill="none" stroke="#7fff00" stroke-width="0.9" d="M472.516,-531.096C554.29,-520.116 676,-496.617 676,-454 676,-454 676,-454 676,-191 676,-161.69 658.468,-155.506 633,-141 588.585,-115.702 530.201,-107.894 488.359,-105.843"/>
<polygon fill="#7fff00" stroke="#7fff00" stroke-width="0.9" points="488.494,-102.346 478.363,-105.447 488.217,-109.341 488.494,-102.346"/>
<text text-anchor="middle" x="680" y="-318.8" font-family="Times New Roman,serif" font-size="14.00">1</text>
</g>
<!-- Maintenance -->
<g id="node4" class="node"><title>Maintenance</title>
<g id="a_node4"><a xlink:title="what should &#013; be here">
<ellipse fill="#c1cdcd" stroke="black" cx="312" cy="-192" rx="57.6901" ry="18"/>
<text text-anchor="middle" x="312" y="-188.3" font-family="Times New Roman,serif" font-size="14.00">Maintenance</text>
</a>
</g>
</g>
<!-- Affiliative behavior&#45;&gt;Maintenance -->
<g id="edge4" class="edge"><title>Affiliative behavior&#45;&gt;Maintenance</title>
<path fill="none" stroke="#7fff00" stroke-width="0.9" d="M392.796,-521.756C386.38,-504.818 378,-478.084 378,-454 378,-454 378,-454 378,-278 378,-252.887 359.805,-230.713 342.522,-215.314"/>
<polygon fill="#7fff00" stroke="#7fff00" stroke-width="0.9" points="344.614,-212.5 334.713,-208.729 340.102,-217.852 344.614,-212.5"/>
<text text-anchor="middle" x="382" y="-362.3" font-family="Times New Roman,serif" font-size="14.00">1</text>
</g>
<!-- Restrained aggression -->
<g id="node6" class="node"><title>Restrained aggression</title>
<g id="a_node6"><a xlink:title="what should &#013; be here">
<ellipse fill="#c1cdcd" stroke="black" cx="194" cy="-366" rx="91.784" ry="18"/>
<text text-anchor="middle" x="194" y="-362.3" font-family="Times New Roman,serif" font-size="14.00">Restrained aggression</text>
</a>
</g>
</g>
<!-- Affiliative behavior&#45;&gt;Restrained aggression -->
<g id="edge5" class="edge"><title>Affiliative behavior&#45;&gt;Restrained aggression</title>
<path fill="none" stroke="#7fff00" stroke-width="0.9" d="M356.436,-524.489C343.447,-519.111 329.596,-512.266 318,-504 294.542,-487.278 242.966,-426.588 214.272,-391.854"/>
<polygon fill="#7fff00" stroke="#7fff00" stroke-width="0.9" points="216.895,-389.534 207.838,-384.036 211.49,-393.982 216.895,-389.534"/>
<text text-anchor="middle" x="286" y="-449.3" font-family="Times New Roman,serif" font-size="14.00">2</text>
</g>
<!-- Submissive behavior&#45;&gt;Affiliative behavior -->
<g id="edge6" class="edge"><title>Submissive behavior&#45;&gt;Affiliative behavior</title>
<path fill="none" stroke="#c1cdcd" stroke-width="0.8" d="M525.484,-471.133C516.382,-481.752 503.594,-495.031 490,-504 479.833,-510.708 468.187,-516.427 456.721,-521.179"/>
<polygon fill="#c1cdcd" stroke="#c1cdcd" stroke-width="0.8" points="455.189,-518.021 447.169,-524.944 457.756,-524.534 455.189,-518.021"/>
</g>
<!-- Submissive behavior&#45;&gt;Submissive behavior -->
<g id="edge9" class="edge"><title>Submissive behavior&#45;&gt;Submissive behavior</title>
<path fill="none" stroke="#c1cdcd" stroke-width="0.8" d="M620.216,-460.471C635.37,-459.551 646.042,-457.061 646.042,-453 646.042,-449.923 639.913,-447.748 630.35,-446.474"/>
<polygon fill="#c1cdcd" stroke="#c1cdcd" stroke-width="0.8" points="630.498,-442.973 620.216,-445.529 629.848,-449.942 630.498,-442.973"/>
</g>
<!-- Submissive behavior&#45;&gt;Escape -->
<g id="edge10" class="edge"><title>Submissive behavior&#45;&gt;Escape</title>
<path fill="none" stroke="#7fff00" stroke-width="0.9" d="M578.127,-436.725C605.8,-423.07 638,-400.074 638,-367 638,-367 638,-367 638,-191 638,-125.987 548.317,-109.847 488.17,-106.332"/>
<polygon fill="#7fff00" stroke="#7fff00" stroke-width="0.9" points="488.209,-102.83 478.051,-105.842 487.87,-109.822 488.209,-102.83"/>
<text text-anchor="middle" x="642" y="-275.3" font-family="Times New Roman,serif" font-size="14.00">3</text>
</g>
<!-- Submissive behavior&#45;&gt;Maintenance -->
<g id="edge7" class="edge"><title>Submissive behavior&#45;&gt;Maintenance</title>
<path fill="none" stroke="#c1cdcd" stroke-width="0.8" d="M537.947,-434.852C540.676,-393.116 552.645,-285.468 497,-228 480.421,-210.878 424.457,-202.026 378.321,-197.515"/>
<polygon fill="#c1cdcd" stroke="#c1cdcd" stroke-width="0.8" points="378.623,-194.028 368.343,-196.59 377.977,-200.998 378.623,-194.028"/>
</g>
<!-- Submissive behavior&#45;&gt;Restrained aggression -->
<g id="edge8" class="edge"><title>Submissive behavior&#45;&gt;Restrained aggression</title>
<path fill="none" stroke="#c1cdcd" stroke-width="0.8" d="M482.474,-439.065C441.404,-428.791 384.732,-414.176 335,-402 309.204,-395.684 280.847,-389.001 256.324,-383.186"/>
<polygon fill="#c1cdcd" stroke="#c1cdcd" stroke-width="0.8" points="256.961,-379.74 246.423,-380.835 255.344,-386.551 256.961,-379.74"/>
</g>
<!-- Escape&#45;&gt;Submissive behavior -->
<g id="edge15" class="edge"><title>Escape&#45;&gt;Submissive behavior</title>
<path fill="none" stroke="#7fff00" stroke-width="0.9" d="M476.36,-110.252C523.471,-117.648 594,-137.632 594,-191 594,-367 594,-367 594,-367 594,-390.05 579.567,-411.79 565.488,-427.514"/>
<polygon fill="#7fff00" stroke="#7fff00" stroke-width="0.9" points="562.577,-425.498 558.236,-435.163 567.656,-430.314 562.577,-425.498"/>
<text text-anchor="middle" x="598" y="-275.3" font-family="Times New Roman,serif" font-size="14.00">1</text>
</g>
<!-- Escape&#45;&gt;Escape -->
<g id="edge12" class="edge"><title>Escape&#45;&gt;Escape</title>
<path fill="none" stroke="#7fff00" stroke-width="0.9" d="M473.719,-112.873C486.149,-112.792 496,-110.168 496,-105 496,-101.366 491.13,-98.9901 483.917,-97.8714"/>
<polygon fill="#7fff00" stroke="#7fff00" stroke-width="0.9" points="483.947,-94.3644 473.719,-97.1269 483.437,-101.346 483.947,-94.3644"/>
<text text-anchor="middle" x="500" y="-101.3" font-family="Times New Roman,serif" font-size="14.00">7</text>
</g>
<!-- Escape&#45;&gt;Maintenance -->
<g id="edge11" class="edge"><title>Escape&#45;&gt;Maintenance</title>
<path fill="none" stroke="#c1cdcd" stroke-width="0.8" d="M418.185,-121.846C406.763,-132.198 391.053,-145.664 376,-156 368.103,-161.422 359.286,-166.696 350.781,-171.436"/>
<polygon fill="#c1cdcd" stroke="#c1cdcd" stroke-width="0.8" points="348.85,-168.502 341.733,-176.351 352.191,-174.653 348.85,-168.502"/>
</g>
<!-- Presence -->
<g id="node5" class="node"><title>Presence</title>
<g id="a_node5"><a xlink:title="what should &#013; be here">
<ellipse fill="#c1cdcd" stroke="black" cx="312" cy="-18" rx="43" ry="18"/>
<text text-anchor="middle" x="312" y="-14.3" font-family="Times New Roman,serif" font-size="14.00">Presence</text>
</a>
</g>
</g>
<!-- Escape&#45;&gt;Presence -->
<g id="edge13" class="edge"><title>Escape&#45;&gt;Presence</title>
<path fill="none" stroke="#7fff00" stroke-width="0.9" d="M413.575,-89.1941C393.766,-75.5052 364.133,-55.0269 341.979,-39.7171"/>
<polygon fill="#7fff00" stroke="#7fff00" stroke-width="0.9" points="343.809,-36.7272 333.592,-33.9214 339.829,-42.4859 343.809,-36.7272"/>
<text text-anchor="middle" x="385" y="-57.8" font-family="Times New Roman,serif" font-size="14.00">2</text>
</g>
<!-- Escape&#45;&gt;Restrained aggression -->
<g id="edge14" class="edge"><title>Escape&#45;&gt;Restrained aggression</title>
<path fill="none" stroke="#7fff00" stroke-width="0.9" d="M432.403,-123.138C427.71,-150.235 415.993,-203.906 392,-243 363.066,-290.145 350.377,-301.448 303,-330 290.275,-337.669 275.688,-343.843 261.412,-348.742"/>
<polygon fill="#7fff00" stroke="#7fff00" stroke-width="0.9" points="260.031,-345.51 251.604,-351.932 262.196,-352.167 260.031,-345.51"/>
<text text-anchor="middle" x="404" y="-231.8" font-family="Times New Roman,serif" font-size="14.00">4</text>
</g>
<!-- Maintenance&#45;&gt;Affiliative behavior -->
<g id="edge16" class="edge"><title>Maintenance&#45;&gt;Affiliative behavior</title>
<path fill="none" stroke="magenta" stroke-width="0.9" d="M365.239,-199.147C383.063,-204.034 401.144,-212.698 412,-228 474.087,-315.51 432.633,-454.387 410.912,-512.286"/>
<polygon fill="magenta" stroke="magenta" stroke-width="0.9" points="407.571,-511.221 407.24,-521.81 414.103,-513.739 407.571,-511.221"/>
<text text-anchor="middle" x="449" y="-362.3" font-family="Times New Roman,serif" font-size="14.00">1</text>
</g>
<!-- Maintenance&#45;&gt;Submissive behavior -->
<g id="edge20" class="edge"><title>Maintenance&#45;&gt;Submissive behavior</title>
<path fill="none" stroke="#c1cdcd" stroke-width="0.8" d="M369.201,-195.568C422.253,-199.251 495.597,-207.962 515,-228 566.732,-281.427 560.025,-378.226 549.368,-425.112"/>
<polygon fill="#c1cdcd" stroke="#c1cdcd" stroke-width="0.8" points="545.963,-424.3 546.906,-434.852 552.75,-426.015 545.963,-424.3"/>
</g>
<!-- Maintenance&#45;&gt;Escape -->
<g id="edge21" class="edge"><title>Maintenance&#45;&gt;Escape</title>
<path fill="none" stroke="#7fff00" stroke-width="0.9" d="M323.943,-174.002C332.038,-163.437 343.508,-150.167 356,-141 367.083,-132.867 380.354,-126.071 392.827,-120.698"/>
<polygon fill="#7fff00" stroke="#7fff00" stroke-width="0.9" points="394.238,-123.903 402.16,-116.868 391.58,-117.427 394.238,-123.903"/>
<text text-anchor="middle" x="364" y="-144.8" font-family="Times New Roman,serif" font-size="14.00">13</text>
</g>
<!-- Maintenance&#45;&gt;Maintenance -->
<g id="edge17" class="edge"><title>Maintenance&#45;&gt;Maintenance</title>
<path fill="none" stroke="#c1cdcd" stroke-width="0.8" d="M364.462,-199.781C377.818,-199.269 387.845,-196.676 387.845,-192 387.845,-188.603 382.552,-186.305 374.534,-185.106"/>
<polygon fill="#c1cdcd" stroke="#c1cdcd" stroke-width="0.8" points="374.73,-181.61 364.462,-184.219 374.117,-188.583 374.73,-181.61"/>
</g>
<!-- Maintenance&#45;&gt;Presence -->
<g id="edge18" class="edge"><title>Maintenance&#45;&gt;Presence</title>
<path fill="none" stroke="#c1cdcd" stroke-width="0.8" d="M307.757,-173.879C304.726,-144.001 304.443,-82.1129 306.91,-46.2736"/>
<polygon fill="#c1cdcd" stroke="#c1cdcd" stroke-width="0.8" points="310.419,-46.3082 307.764,-36.0516 303.443,-45.7256 310.419,-46.3082"/>
</g>
<!-- Maintenance&#45;&gt;Restrained aggression -->
<g id="edge19" class="edge"><title>Maintenance&#45;&gt;Restrained aggression</title>
<path fill="none" stroke="#c1cdcd" stroke-width="0.8" d="M321.066,-209.899C326.711,-231.729 328.474,-270.111 312,-297 298.328,-319.315 274.291,-335.46 251.396,-346.402"/>
<polygon fill="#c1cdcd" stroke="#c1cdcd" stroke-width="0.8" points="249.702,-343.327 242.028,-350.631 252.582,-349.707 249.702,-343.327"/>
</g>
<!-- Out&#45;of&#45;FOV -->
<g id="node7" class="node"><title>Out&#45;of&#45;FOV</title>
<g id="a_node7"><a xlink:title="what should &#013; be here">
<ellipse fill="#c1cdcd" stroke="black" cx="199" cy="-105" rx="57.6901" ry="18"/>
<text text-anchor="middle" x="199" y="-101.3" font-family="Times New Roman,serif" font-size="14.00">Out&#45;of&#45;FOV</text>
</a>
</g>
</g>
<!-- Maintenance&#45;&gt;Out&#45;of&#45;FOV -->
<g id="edge22" class="edge"><title>Maintenance&#45;&gt;Out&#45;of&#45;FOV</title>
<path fill="none" stroke="#7fff00" stroke-width="0.9" d="M286.296,-175.717C276.88,-169.841 266.266,-162.886 257,-156 245.802,-147.678 234.038,-137.776 224.053,-128.989"/>
<polygon fill="#7fff00" stroke="#7fff00" stroke-width="0.9" points="226.267,-126.273 216.473,-122.232 221.609,-131.499 226.267,-126.273"/>
<text text-anchor="middle" x="261" y="-144.8" font-family="Times New Roman,serif" font-size="14.00">3</text>
</g>
<!-- Overt aggression -->
<g id="node8" class="node"><title>Overt aggression</title>
<g id="a_node8"><a xlink:title="what should &#013; be here">
<ellipse fill="#7fff00" stroke="black" cx="221" cy="-279" rx="73.387" ry="18"/>
<text text-anchor="middle" x="221" y="-275.3" font-family="Times New Roman,serif" font-size="14.00">Overt aggression</text>
</a>
</g>
</g>
<!-- Maintenance&#45;&gt;Overt aggression -->
<g id="edge23" class="edge"><title>Maintenance&#45;&gt;Overt aggression</title>
<path fill="none" stroke="#7fff00" stroke-width="0.9" d="M299.718,-209.678C291.811,-219.865 280.988,-232.841 270,-243 265.164,-247.471 259.741,-251.861 254.312,-255.939"/>
<polygon fill="#7fff00" stroke="#7fff00" stroke-width="0.9" points="251.908,-253.359 245.86,-262.058 256.013,-259.029 251.908,-253.359"/>
<text text-anchor="middle" x="288" y="-231.8" font-family="Times New Roman,serif" font-size="14.00">2</text>
</g>
<!-- Presence&#45;&gt;Maintenance -->
<g id="edge24" class="edge"><title>Presence&#45;&gt;Maintenance</title>
<path fill="none" stroke="#c1cdcd" stroke-width="0.8" d="M316.236,-36.0516C319.272,-65.8802 319.558,-127.764 317.096,-163.643"/>
<polygon fill="#c1cdcd" stroke="#c1cdcd" stroke-width="0.8" points="313.585,-163.623 316.243,-173.879 320.561,-164.204 313.585,-163.623"/>
</g>
<!-- Presence&#45;&gt;Presence -->
<g id="edge25" class="edge"><title>Presence&#45;&gt;Presence</title>
<path fill="none" stroke="#c1cdcd" stroke-width="0.8" d="M350.719,-25.8731C363.149,-25.7923 373,-23.168 373,-18 373,-14.3663 368.13,-11.9901 360.917,-10.8714"/>
<polygon fill="#c1cdcd" stroke="#c1cdcd" stroke-width="0.8" points="360.947,-7.36435 350.719,-10.1269 360.437,-14.3458 360.947,-7.36435"/>
</g>
<!-- Presence&#45;&gt;Restrained aggression -->
<g id="edge26" class="edge"><title>Presence&#45;&gt;Restrained aggression</title>
<path fill="none" stroke="magenta" stroke-width="0.9" d="M269.18,-19.798C200.249,-21.8187 68.5061,-28.9407 30,-54 8.27928,-68.1356 0,-78.0847 0,-104 0,-280 0,-280 0,-280 0,-327.302 48.9845,-348.529 97.7249,-357.942"/>
<polygon fill="magenta" stroke="magenta" stroke-width="0.9" points="97.3216,-361.425 107.779,-359.723 98.5433,-354.532 97.3216,-361.425"/>
<text text-anchor="middle" x="4" y="-188.3" font-family="Times New Roman,serif" font-size="14.00">5</text>
</g>
<!-- Restrained aggression&#45;&gt;Affiliative behavior -->
<g id="edge27" class="edge"><title>Restrained aggression&#45;&gt;Affiliative behavior</title>
<path fill="none" stroke="#c1cdcd" stroke-width="0.8" d="M200,-384.041C208.37,-406.024 225.24,-444.571 249,-471 271.808,-496.37 305.914,-512.831 335.944,-523.191"/>
<polygon fill="#c1cdcd" stroke="#c1cdcd" stroke-width="0.8" points="334.938,-526.544 345.531,-526.343 337.125,-519.895 334.938,-526.544"/>
</g>
<!-- Restrained aggression&#45;&gt;Submissive behavior -->
<g id="edge33" class="edge"><title>Restrained aggression&#45;&gt;Submissive behavior</title>
<path fill="none" stroke="#c1cdcd" stroke-width="0.8" d="M256.249,-379.352C285.76,-385.929 321.312,-394.241 353,-402 396.441,-412.636 445.178,-425.133 481.937,-434.972"/>
<polygon fill="#c1cdcd" stroke="#c1cdcd" stroke-width="0.8" points="481.407,-438.454 491.973,-437.673 483.226,-431.694 481.407,-438.454"/>
</g>
<!-- Restrained aggression&#45;&gt;Escape -->
<g id="edge28" class="edge"><title>Restrained aggression&#45;&gt;Escape</title>
<path fill="none" stroke="#c1cdcd" stroke-width="0.8" d="M265.037,-354.58C303.725,-345.459 349.737,-328.477 380,-297 427.2,-247.905 433.169,-223.761 440,-156 440.749,-148.567 440.438,-140.511 439.691,-133.081"/>
<polygon fill="#c1cdcd" stroke="#c1cdcd" stroke-width="0.8" points="443.158,-132.597 438.412,-123.125 436.215,-133.49 443.158,-132.597"/>
</g>
<!-- Restrained aggression&#45;&gt;Maintenance -->
<g id="edge29" class="edge"><title>Restrained aggression&#45;&gt;Maintenance</title>
<path fill="none" stroke="#c1cdcd" stroke-width="0.8" d="M229.439,-349.258C251.836,-338.344 279.086,-321.344 294,-297 308.076,-274.025 308.838,-242.659 308.766,-220.398"/>
<polygon fill="#c1cdcd" stroke="#c1cdcd" stroke-width="0.8" points="312.265,-220.26 308.718,-210.277 305.265,-220.294 312.265,-220.26"/>
</g>
<!-- Restrained aggression&#45;&gt;Presence -->
<g id="edge31" class="edge"><title>Restrained aggression&#45;&gt;Presence</title>
<path fill="none" stroke="magenta" stroke-width="0.9" d="M126.897,-353.557C86.9588,-342.467 44,-321.007 44,-280 44,-280 44,-280 44,-104 44,-59.0373 182.793,-34.7685 260.617,-24.6947"/>
<polygon fill="magenta" stroke="magenta" stroke-width="0.9" points="261.228,-28.1454 270.712,-23.4231 260.353,-21.2003 261.228,-28.1454"/>
<text text-anchor="middle" x="48" y="-188.3" font-family="Times New Roman,serif" font-size="14.00">4</text>
</g>
<!-- Restrained aggression&#45;&gt;Restrained aggression -->
<g id="edge32" class="edge"><title>Restrained aggression&#45;&gt;Restrained aggression</title>
<path fill="none" stroke="#c1cdcd" stroke-width="0.8" d="M277.658,-373.442C292.93,-372.5 303.642,-370.02 303.642,-366 303.642,-362.954 297.49,-360.792 287.864,-359.513"/>
<polygon fill="#c1cdcd" stroke="#c1cdcd" stroke-width="0.8" points="287.94,-356.005 277.658,-358.558 287.288,-362.974 287.94,-356.005"/>
</g>
<!-- Restrained aggression&#45;&gt;Out&#45;of&#45;FOV -->
<g id="edge30" class="edge"><title>Restrained aggression&#45;&gt;Out&#45;of&#45;FOV</title>
<path fill="none" stroke="magenta" stroke-width="0.9" d="M136.418,-351.751C124.901,-346.67 113.926,-339.661 106,-330 76.8948,-294.524 85.8328,-273.698 90,-228 93.5703,-188.847 80.7821,-171.162 106,-141 114.73,-130.559 126.911,-123.229 139.587,-118.085"/>
<polygon fill="magenta" stroke="magenta" stroke-width="0.9" points="141.115,-121.254 149.329,-114.561 138.734,-114.671 141.115,-121.254"/>
<text text-anchor="middle" x="94" y="-231.8" font-family="Times New Roman,serif" font-size="14.00">3</text>
</g>
<!-- Restrained aggression&#45;&gt;Overt aggression -->
<g id="edge34" class="edge"><title>Restrained aggression&#45;&gt;Overt aggression</title>
<path fill="none" stroke="#7fff00" stroke-width="0.9" d="M199.464,-347.799C203.197,-336.047 208.218,-320.238 212.474,-306.842"/>
<polygon fill="#7fff00" stroke="#7fff00" stroke-width="0.9" points="215.853,-307.766 215.544,-297.175 209.181,-305.647 215.853,-307.766"/>
<text text-anchor="middle" x="214" y="-318.8" font-family="Times New Roman,serif" font-size="14.00">5</text>
</g>
<!-- Out&#45;of&#45;FOV&#45;&gt;Maintenance -->
<g id="edge35" class="edge"><title>Out&#45;of&#45;FOV&#45;&gt;Maintenance</title>
<path fill="none" stroke="#c1cdcd" stroke-width="0.8" d="M230.296,-120.341C241.402,-126.067 253.694,-133.167 264,-141 273.829,-148.47 283.489,-157.983 291.537,-166.702"/>
<polygon fill="#c1cdcd" stroke="#c1cdcd" stroke-width="0.8" points="289.155,-169.289 298.433,-174.404 294.37,-164.619 289.155,-169.289"/>
</g>
<!-- Out&#45;of&#45;FOV&#45;&gt;Restrained aggression -->
<g id="edge37" class="edge"><title>Out&#45;of&#45;FOV&#45;&gt;Restrained aggression</title>
<path fill="none" stroke="magenta" stroke-width="0.9" d="M186.372,-122.739C162.801,-156.125 116.452,-233.268 139,-297 144.858,-313.557 156.65,-329.033 167.818,-341.026"/>
<polygon fill="magenta" stroke="magenta" stroke-width="0.9" points="165.508,-343.67 174.998,-348.381 170.516,-338.78 165.508,-343.67"/>
<text text-anchor="middle" x="141" y="-231.8" font-family="Times New Roman,serif" font-size="14.00">1</text>
</g>
<!-- Out&#45;of&#45;FOV&#45;&gt;Out&#45;of&#45;FOV -->
<g id="edge36" class="edge"><title>Out&#45;of&#45;FOV&#45;&gt;Out&#45;of&#45;FOV</title>
<path fill="none" stroke="#c1cdcd" stroke-width="0.8" d="M251.462,-112.781C264.818,-112.269 274.845,-109.676 274.845,-105 274.845,-101.603 269.552,-99.3047 261.534,-98.1058"/>
<polygon fill="#c1cdcd" stroke="#c1cdcd" stroke-width="0.8" points="261.73,-94.6096 251.462,-97.2192 261.117,-101.583 261.73,-94.6096"/>
</g>
<!-- Out&#45;of&#45;FOV&#45;&gt;Overt aggression -->
<g id="edge38" class="edge"><title>Out&#45;of&#45;FOV&#45;&gt;Overt aggression</title>
<path fill="none" stroke="#7fff00" stroke-width="0.9" d="M201.181,-123.052C204.996,-152.88 212.912,-214.764 217.501,-250.643"/>
<polygon fill="#7fff00" stroke="#7fff00" stroke-width="0.9" points="214.07,-251.404 218.81,-260.879 221.013,-250.516 214.07,-251.404"/>
<text text-anchor="middle" x="217" y="-188.3" font-family="Times New Roman,serif" font-size="14.00">1</text>
</g>
<!-- Overt aggression&#45;&gt;Affiliative behavior -->
<g id="edge39" class="edge"><title>Overt aggression&#45;&gt;Affiliative behavior</title>
<path fill="none" stroke="#7fff00" stroke-width="0.9" d="M250.961,-295.6C271.109,-307.49 296.844,-325.613 313,-348 355.687,-407.15 325.394,-442.11 364,-504 366.4,-507.848 369.312,-511.578 372.428,-515.078"/>
<polygon fill="#7fff00" stroke="#7fff00" stroke-width="0.9" points="369.985,-517.586 379.457,-522.332 375.012,-512.715 369.985,-517.586"/>
<text text-anchor="middle" x="344" y="-405.8" font-family="Times New Roman,serif" font-size="14.00">1</text>
</g>
<!-- Overt aggression&#45;&gt;Maintenance -->
<g id="edge40" class="edge"><title>Overt aggression&#45;&gt;Maintenance</title>
<path fill="none" stroke="#7fff00" stroke-width="0.9" d="M232.105,-261.146C239.334,-250.893 249.371,-237.91 260,-228 265.363,-223 271.504,-218.208 277.644,-213.86"/>
<polygon fill="#7fff00" stroke="#7fff00" stroke-width="0.9" points="279.632,-216.741 285.941,-208.229 275.701,-210.949 279.632,-216.741"/>
<text text-anchor="middle" x="264" y="-231.8" font-family="Times New Roman,serif" font-size="14.00">1</text>
</g>
<!-- Overt aggression&#45;&gt;Restrained aggression -->
<g id="edge41" class="edge"><title>Overt aggression&#45;&gt;Restrained aggression</title>
<path fill="none" stroke="#7fff00" stroke-width="0.9" d="M204.476,-296.818C200.227,-302.196 196.229,-308.463 194,-315 191.563,-322.148 190.783,-330.212 190.814,-337.745"/>
<polygon fill="#7fff00" stroke="#7fff00" stroke-width="0.9" points="187.326,-338.071 191.311,-347.888 194.317,-337.728 187.326,-338.071"/>
<text text-anchor="middle" x="198" y="-318.8" font-family="Times New Roman,serif" font-size="14.00">6</text>
</g>
</g>
</svg>
