<?xml version="1.0" encoding="UTF-8" standalone="no"?>
<!DOCTYPE svg PUBLIC "-//W3C//DTD SVG 1.1//EN"
 "http://www.w3.org/Graphics/SVG/1.1/DTD/svg11.dtd">
<!-- Generated by graphviz version 2.38.0 (20140413.2041)
 -->
<!-- Title: %3 Pages: 1 -->
<svg width="757pt" height="465pt"
 viewBox="0.00 0.00 757.00 465.00" xmlns="http://www.w3.org/2000/svg" xmlns:xlink="http://www.w3.org/1999/xlink">
<g id="graph0" class="graph" transform="scale(1 1) rotate(0) translate(4 461)">
<title>%3</title>
<polygon fill="white" stroke="none" points="-4,4 -4,-461 753,-461 753,4 -4,4"/>
<!-- Escape -->
<g id="node1" class="node"><title>Escape</title>
<g id="a_node1"><a xlink:title="what should &#013; be here">
<ellipse fill="#c1cdcd" stroke="black" cx="206" cy="-439" rx="43" ry="18"/>
<text text-anchor="middle" x="206" y="-435.3" font-family="Times New Roman,serif" font-size="14.00">Escape</text>
</a>
</g>
</g>
<!-- Escape&#45;&gt;Escape -->
<g id="edge1" class="edge"><title>Escape&#45;&gt;Escape</title>
<path fill="none" stroke="#c1cdcd" stroke-width="0.8" d="M245.895,-445.735C257.764,-445.534 267,-443.289 267,-439 267,-436.051 262.635,-434.069 256.049,-433.052"/>
<polygon fill="#c1cdcd" stroke="#c1cdcd" stroke-width="0.8" points="256.135,-429.548 245.895,-432.265 255.594,-436.527 256.135,-429.548"/>
</g>
<!-- Maintenance -->
<g id="node2" class="node"><title>Maintenance</title>
<g id="a_node2"><a xlink:title="what should &#013; be here">
<ellipse fill="#c1cdcd" stroke="black" cx="406" cy="-366" rx="57.6901" ry="18"/>
<text text-anchor="middle" x="406" y="-362.3" font-family="Times New Roman,serif" font-size="14.00">Maintenance</text>
</a>
</g>
</g>
<!-- Escape&#45;&gt;Maintenance -->
<g id="edge2" class="edge"><title>Escape&#45;&gt;Maintenance</title>
<path fill="none" stroke="#c1cdcd" stroke-width="0.8" d="M235.57,-425.633C267.446,-413.67 318.485,-395.5 356.469,-382.561"/>
<polygon fill="#c1cdcd" stroke="#c1cdcd" stroke-width="0.8" points="357.968,-385.749 366.317,-379.226 355.722,-379.119 357.968,-385.749"/>
</g>
<!-- Presence -->
<g id="node3" class="node"><title>Presence</title>
<g id="a_node3"><a xlink:title="what should &#013; be here">
<ellipse fill="#c1cdcd" stroke="black" cx="601" cy="-192" rx="43" ry="18"/>
<text text-anchor="middle" x="601" y="-188.3" font-family="Times New Roman,serif" font-size="14.00">Presence</text>
</a>
</g>
</g>
<!-- Escape&#45;&gt;Presence -->
<g id="edge3" class="edge"><title>Escape&#45;&gt;Presence</title>
<path fill="none" stroke="magenta" stroke-width="0.9" d="M248.594,-436.255C326.389,-431.099 493.602,-410.699 604,-330 642.466,-301.882 655.543,-271.89 637,-228 635.066,-223.423 632.209,-219.149 628.935,-215.27"/>
<polygon fill="magenta" stroke="magenta" stroke-width="0.9" points="631.263,-212.643 621.793,-207.892 626.234,-217.512 631.263,-212.643"/>
<text text-anchor="middle" x="625" y="-318.8" font-family="Times New Roman,serif" font-size="14.00">3</text>
</g>
<!-- Submissive behavior -->
<g id="node4" class="node"><title>Submissive behavior</title>
<g id="a_node4"><a xlink:title="what should &#013; be here">
<ellipse fill="#c1cdcd" stroke="black" cx="191" cy="-18" rx="89.0842" ry="18"/>
<text text-anchor="middle" x="191" y="-14.3" font-family="Times New Roman,serif" font-size="14.00">Submissive behavior</text>
</a>
</g>
</g>
<!-- Escape&#45;&gt;Submissive behavior -->
<g id="edge4" class="edge"><title>Escape&#45;&gt;Submissive behavior</title>
<path fill="none" stroke="magenta" stroke-width="0.9" d="M164.662,-433.786C118.284,-428.417 46.5798,-418.001 24,-403 7.98283,-392.359 0,-386.23 0,-367 0,-367 0,-367 0,-104 0,-79.3504 4.60177,-69.209 24,-54 37.3671,-43.5197 72.2708,-35.4054 106.733,-29.6405"/>
<polygon fill="magenta" stroke="magenta" stroke-width="0.9" points="107.589,-33.0479 116.905,-28.002 106.476,-26.137 107.589,-33.0479"/>
<text text-anchor="middle" x="4" y="-231.8" font-family="Times New Roman,serif" font-size="14.00">3</text>
</g>
<!-- Restrained aggression -->
<g id="node6" class="node"><title>Restrained aggression</title>
<g id="a_node6"><a xlink:title="what should &#013; be here">
<ellipse fill="#7fff00" stroke="black" cx="288" cy="-105" rx="91.784" ry="18"/>
<text text-anchor="middle" x="288" y="-101.3" font-family="Times New Roman,serif" font-size="14.00">Restrained aggression</text>
</a>
</g>
</g>
<!-- Escape&#45;&gt;Restrained aggression -->
<g id="edge5" class="edge"><title>Escape&#45;&gt;Restrained aggression</title>
<path fill="none" stroke="#7fff00" stroke-width="0.9" d="M166.39,-431.851C130.767,-423.804 84,-405.842 84,-367 84,-367 84,-367 84,-191 84,-166.35 88.4917,-156.068 108,-141 122.687,-129.657 161.326,-121.386 199.057,-115.742"/>
<polygon fill="#7fff00" stroke="#7fff00" stroke-width="0.9" points="199.734,-119.181 209.133,-114.292 198.736,-112.253 199.734,-119.181"/>
<text text-anchor="middle" x="88" y="-275.3" font-family="Times New Roman,serif" font-size="14.00">2</text>
</g>
<!-- Maintenance&#45;&gt;Escape -->
<g id="edge6" class="edge"><title>Maintenance&#45;&gt;Escape</title>
<path fill="none" stroke="#c1cdcd" stroke-width="0.8" d="M372.736,-380.749C338.937,-393.359 286.626,-411.926 249.558,-424.467"/>
<polygon fill="#c1cdcd" stroke="#c1cdcd" stroke-width="0.8" points="248.374,-421.172 240.01,-427.676 250.604,-427.808 248.374,-421.172"/>
</g>
<!-- Maintenance&#45;&gt;Maintenance -->
<g id="edge7" class="edge"><title>Maintenance&#45;&gt;Maintenance</title>
<path fill="none" stroke="#c1cdcd" stroke-width="0.8" d="M459.855,-372.617C472.509,-372.073 481.845,-369.867 481.845,-366 481.845,-363.281 477.23,-361.383 470.09,-360.307"/>
<polygon fill="#c1cdcd" stroke="#c1cdcd" stroke-width="0.8" points="470.129,-356.797 459.855,-359.383 469.5,-363.768 470.129,-356.797"/>
</g>
<!-- Maintenance&#45;&gt;Presence -->
<g id="edge8" class="edge"><title>Maintenance&#45;&gt;Presence</title>
<path fill="none" stroke="#c1cdcd" stroke-width="0.8" d="M462.742,-362.194C507.562,-356.385 567.325,-340.279 598,-297 613.709,-274.836 608.918,-242.876 604.093,-220.246"/>
<polygon fill="#c1cdcd" stroke="#c1cdcd" stroke-width="0.8" points="607.463,-219.277 601.879,-210.273 600.629,-220.794 607.463,-219.277"/>
</g>
<!-- Maintenance&#45;&gt;Submissive behavior -->
<g id="edge9" class="edge"><title>Maintenance&#45;&gt;Submissive behavior</title>
<path fill="none" stroke="magenta" stroke-width="0.9" d="M462.137,-361.312C552.454,-353.82 720,-332.805 720,-280 720,-280 720,-280 720,-104 720,-60.4961 437.503,-35.1829 285.388,-24.706"/>
<polygon fill="magenta" stroke="magenta" stroke-width="0.9" points="285.328,-21.194 275.114,-24.0073 284.853,-28.1779 285.328,-21.194"/>
<text text-anchor="middle" x="724" y="-188.3" font-family="Times New Roman,serif" font-size="14.00">2</text>
</g>
<!-- Affiliative behavior -->
<g id="node5" class="node"><title>Affiliative behavior</title>
<g id="a_node5"><a xlink:title="what should &#013; be here">
<ellipse fill="#7fff00" stroke="black" cx="313" cy="-279" rx="83.3857" ry="18"/>
<text text-anchor="middle" x="313" y="-275.3" font-family="Times New Roman,serif" font-size="14.00">Affiliative behavior</text>
</a>
</g>
</g>
<!-- Maintenance&#45;&gt;Affiliative behavior -->
<g id="edge10" class="edge"><title>Maintenance&#45;&gt;Affiliative behavior</title>
<path fill="none" stroke="#7fff00" stroke-width="0.9" d="M388.069,-348.611C374.135,-335.876 354.613,-318.034 338.97,-303.736"/>
<polygon fill="#7fff00" stroke="#7fff00" stroke-width="0.9" points="340.936,-300.792 331.194,-296.629 336.214,-305.959 340.936,-300.792"/>
<text text-anchor="middle" x="370" y="-318.8" font-family="Times New Roman,serif" font-size="14.00">2</text>
</g>
<!-- Maintenance&#45;&gt;Restrained aggression -->
<g id="edge12" class="edge"><title>Maintenance&#45;&gt;Restrained aggression</title>
<path fill="none" stroke="#7fff00" stroke-width="0.9" d="M350.04,-361.015C306.899,-354.66 249.885,-338.391 221,-297 184.262,-244.355 234.076,-169.582 265.622,-131.071"/>
<polygon fill="#7fff00" stroke="#7fff00" stroke-width="0.9" points="268.666,-132.888 272.42,-122.98 263.307,-128.384 268.666,-132.888"/>
<text text-anchor="middle" x="220" y="-231.8" font-family="Times New Roman,serif" font-size="14.00">12</text>
</g>
<!-- Overt aggression -->
<g id="node7" class="node"><title>Overt aggression</title>
<g id="a_node7"><a xlink:title="what should &#013; be here">
<ellipse fill="#7fff00" stroke="black" cx="525" cy="-279" rx="73.387" ry="18"/>
<text text-anchor="middle" x="525" y="-275.3" font-family="Times New Roman,serif" font-size="14.00">Overt aggression</text>
</a>
</g>
</g>
<!-- Maintenance&#45;&gt;Overt aggression -->
<g id="edge11" class="edge"><title>Maintenance&#45;&gt;Overt aggression</title>
<path fill="none" stroke="#7fff00" stroke-width="0.9" d="M428.104,-349.211C446.654,-335.962 473.358,-316.887 494.037,-302.116"/>
<polygon fill="#7fff00" stroke="#7fff00" stroke-width="0.9" points="496.101,-304.943 502.204,-296.283 492.032,-299.247 496.101,-304.943"/>
<text text-anchor="middle" x="477" y="-318.8" font-family="Times New Roman,serif" font-size="14.00">1</text>
</g>
<!-- Presence&#45;&gt;Escape -->
<g id="edge13" class="edge"><title>Presence&#45;&gt;Escape</title>
<path fill="none" stroke="magenta" stroke-width="0.9" d="M630.06,-205.361C679.622,-228.196 771.657,-279.307 734,-330 677.618,-405.901 381.163,-429.272 258.848,-435.748"/>
<polygon fill="magenta" stroke="magenta" stroke-width="0.9" points="258.415,-432.265 248.607,-436.272 258.773,-439.256 258.415,-432.265"/>
<text text-anchor="middle" x="745" y="-318.8" font-family="Times New Roman,serif" font-size="14.00">3</text>
</g>
<!-- Presence&#45;&gt;Maintenance -->
<g id="edge14" class="edge"><title>Presence&#45;&gt;Maintenance</title>
<path fill="none" stroke="#c1cdcd" stroke-width="0.8" d="M613.859,-209.513C624.668,-231.613 634.406,-271.031 616,-297 584.478,-341.474 522.24,-357.253 473.59,-362.651"/>
<polygon fill="#c1cdcd" stroke="#c1cdcd" stroke-width="0.8" points="473.039,-359.189 463.43,-363.652 473.725,-366.155 473.039,-359.189"/>
</g>
<!-- Presence&#45;&gt;Presence -->
<g id="edge15" class="edge"><title>Presence&#45;&gt;Presence</title>
<path fill="none" stroke="#c1cdcd" stroke-width="0.8" d="M639.719,-199.873C652.149,-199.792 662,-197.168 662,-192 662,-188.366 657.13,-185.99 649.917,-184.871"/>
<polygon fill="#c1cdcd" stroke="#c1cdcd" stroke-width="0.8" points="649.947,-181.364 639.719,-184.127 649.437,-188.346 649.947,-181.364"/>
</g>
<!-- Presence&#45;&gt;Restrained aggression -->
<g id="edge17" class="edge"><title>Presence&#45;&gt;Restrained aggression</title>
<path fill="none" stroke="#7fff00" stroke-width="0.9" d="M591.204,-174.193C583.645,-162.85 572.107,-148.61 558,-141 528.779,-125.236 450.32,-116.234 385.463,-111.319"/>
<polygon fill="#7fff00" stroke="#7fff00" stroke-width="0.9" points="385.409,-107.806 375.18,-110.565 384.897,-114.787 385.409,-107.806"/>
<text text-anchor="middle" x="580" y="-144.8" font-family="Times New Roman,serif" font-size="14.00">4</text>
</g>
<!-- Presence&#45;&gt;Overt aggression -->
<g id="edge16" class="edge"><title>Presence&#45;&gt;Overt aggression</title>
<path fill="none" stroke="#7fff00" stroke-width="0.9" d="M575.336,-206.476C566.181,-212.199 556.331,-219.521 549,-228 543.09,-234.835 538.288,-243.378 534.575,-251.458"/>
<polygon fill="#7fff00" stroke="#7fff00" stroke-width="0.9" points="531.239,-250.364 530.586,-260.939 537.691,-253.079 531.239,-250.364"/>
<text text-anchor="middle" x="553" y="-231.8" font-family="Times New Roman,serif" font-size="14.00">1</text>
</g>
<!-- Submissive behavior&#45;&gt;Escape -->
<g id="edge18" class="edge"><title>Submissive behavior&#45;&gt;Escape</title>
<path fill="none" stroke="magenta" stroke-width="0.9" d="M123.447,-29.8018C82.46,-40.6428 38,-62.0668 38,-104 38,-367 38,-367 38,-367 38,-417.55 103.334,-432.665 152.515,-436.881"/>
<polygon fill="magenta" stroke="magenta" stroke-width="0.9" points="152.508,-440.389 162.736,-437.624 153.016,-433.408 152.508,-440.389"/>
<text text-anchor="middle" x="42" y="-231.8" font-family="Times New Roman,serif" font-size="14.00">2</text>
</g>
<!-- Submissive behavior&#45;&gt;Maintenance -->
<g id="edge19" class="edge"><title>Submissive behavior&#45;&gt;Maintenance</title>
<path fill="none" stroke="magenta" stroke-width="0.9" d="M187.922,-36.1937C180.672,-81.2229 165.927,-205.439 205,-297 212.55,-314.691 216.437,-320.22 233,-330 264.804,-348.78 305.01,-357.634 338.655,-361.747"/>
<polygon fill="magenta" stroke="magenta" stroke-width="0.9" points="338.546,-365.256 348.87,-362.876 339.315,-358.298 338.546,-365.256"/>
<text text-anchor="middle" x="187" y="-188.3" font-family="Times New Roman,serif" font-size="14.00">3</text>
</g>
<!-- Submissive behavior&#45;&gt;Restrained aggression -->
<g id="edge20" class="edge"><title>Submissive behavior&#45;&gt;Restrained aggression</title>
<path fill="none" stroke="#7fff00" stroke-width="0.9" d="M201.935,-36.0407C209.1,-46.3642 219.129,-59.3563 230,-69 235.504,-73.8829 241.782,-78.4695 248.127,-82.613"/>
<polygon fill="#7fff00" stroke="#7fff00" stroke-width="0.9" points="246.413,-85.6687 256.754,-87.9749 250.108,-79.7234 246.413,-85.6687"/>
<text text-anchor="middle" x="234" y="-57.8" font-family="Times New Roman,serif" font-size="14.00">1</text>
</g>
<!-- Affiliative behavior&#45;&gt;Maintenance -->
<g id="edge21" class="edge"><title>Affiliative behavior&#45;&gt;Maintenance</title>
<path fill="none" stroke="#7fff00" stroke-width="0.9" d="M320.146,-297.319C325.103,-307.748 332.517,-320.752 342,-330 348.39,-336.231 356.112,-341.684 363.949,-346.315"/>
<polygon fill="#7fff00" stroke="#7fff00" stroke-width="0.9" points="362.334,-349.422 372.78,-351.192 365.718,-343.294 362.334,-349.422"/>
<text text-anchor="middle" x="346" y="-318.8" font-family="Times New Roman,serif" font-size="14.00">2</text>
</g>
<!-- Restrained aggression&#45;&gt;Escape -->
<g id="edge22" class="edge"><title>Restrained aggression&#45;&gt;Escape</title>
<path fill="none" stroke="#7fff00" stroke-width="0.9" d="M228.965,-118.937C198.893,-128.771 164.794,-145.63 146,-174 95.4168,-250.359 156.61,-363.441 188.718,-413.092"/>
<polygon fill="#7fff00" stroke="#7fff00" stroke-width="0.9" points="185.908,-415.188 194.341,-421.601 191.748,-411.329 185.908,-415.188"/>
<text text-anchor="middle" x="139" y="-275.3" font-family="Times New Roman,serif" font-size="14.00">4</text>
</g>
<!-- Restrained aggression&#45;&gt;Maintenance -->
<g id="edge23" class="edge"><title>Restrained aggression&#45;&gt;Maintenance</title>
<path fill="none" stroke="#7fff00" stroke-width="0.9" d="M306.72,-122.805C334.433,-149.075 385.226,-202.911 405,-261 413.512,-286.005 412.622,-316.392 410.297,-337.845"/>
<polygon fill="#7fff00" stroke="#7fff00" stroke-width="0.9" points="406.809,-337.526 409.033,-347.885 413.755,-338.4 406.809,-337.526"/>
<text text-anchor="middle" x="406" y="-231.8" font-family="Times New Roman,serif" font-size="14.00">10</text>
</g>
<!-- Restrained aggression&#45;&gt;Presence -->
<g id="edge25" class="edge"><title>Restrained aggression&#45;&gt;Presence</title>
<path fill="none" stroke="#7fff00" stroke-width="0.9" d="M374.762,-110.962C418.973,-115.518 472.974,-124.253 519,-141 529.618,-144.864 551.978,-158.651 570.67,-170.772"/>
<polygon fill="#7fff00" stroke="#7fff00" stroke-width="0.9" points="568.929,-173.815 579.214,-176.359 572.76,-167.956 568.929,-173.815"/>
<text text-anchor="middle" x="550" y="-144.8" font-family="Times New Roman,serif" font-size="14.00">4</text>
</g>
<!-- Restrained aggression&#45;&gt;Submissive behavior -->
<g id="edge27" class="edge"><title>Restrained aggression&#45;&gt;Submissive behavior</title>
<path fill="none" stroke="#7fff00" stroke-width="0.9" d="M272.361,-87.17C262.779,-77.1664 250.074,-64.4358 238,-54 233.151,-49.8088 227.842,-45.5608 222.593,-41.5378"/>
<polygon fill="#7fff00" stroke="#7fff00" stroke-width="0.9" points="224.569,-38.6444 214.47,-35.4415 220.367,-44.2432 224.569,-38.6444"/>
<text text-anchor="middle" x="258" y="-57.8" font-family="Times New Roman,serif" font-size="14.00">1</text>
</g>
<!-- Restrained aggression&#45;&gt;Restrained aggression -->
<g id="edge26" class="edge"><title>Restrained aggression&#45;&gt;Restrained aggression</title>
<path fill="none" stroke="#7fff00" stroke-width="0.9" d="M371.658,-112.442C386.93,-111.5 397.642,-109.02 397.642,-105 397.642,-101.954 391.49,-99.7916 381.864,-98.5128"/>
<polygon fill="#7fff00" stroke="#7fff00" stroke-width="0.9" points="381.94,-95.0047 371.658,-97.5576 381.288,-101.974 381.94,-95.0047"/>
<text text-anchor="middle" x="405.642" y="-101.3" font-family="Times New Roman,serif" font-size="14.00">10</text>
</g>
<!-- Restrained aggression&#45;&gt;Overt aggression -->
<g id="edge24" class="edge"><title>Restrained aggression&#45;&gt;Overt aggression</title>
<path fill="none" stroke="#7fff00" stroke-width="0.9" d="M369.492,-113.243C393.192,-118.332 418.045,-126.84 438,-141 476.981,-168.66 502.503,-219.82 515.286,-251.19"/>
<polygon fill="#7fff00" stroke="#7fff00" stroke-width="0.9" points="512.078,-252.595 518.99,-260.625 518.593,-250.037 512.078,-252.595"/>
<text text-anchor="middle" x="500" y="-188.3" font-family="Times New Roman,serif" font-size="14.00">2</text>
</g>
<!-- Overt aggression&#45;&gt;Maintenance -->
<g id="edge28" class="edge"><title>Overt aggression&#45;&gt;Maintenance</title>
<path fill="none" stroke="#7fff00" stroke-width="0.9" d="M514.444,-297.048C507.206,-307.634 496.799,-320.908 485,-330 475.626,-337.224 464.527,-343.319 453.657,-348.295"/>
<polygon fill="#7fff00" stroke="#7fff00" stroke-width="0.9" points="452,-345.198 444.212,-352.381 454.779,-351.623 452,-345.198"/>
<text text-anchor="middle" x="505" y="-318.8" font-family="Times New Roman,serif" font-size="14.00">3</text>
</g>
<!-- Overt aggression&#45;&gt;Presence -->
<g id="edge29" class="edge"><title>Overt aggression&#45;&gt;Presence</title>
<path fill="none" stroke="#7fff00" stroke-width="0.9" d="M540.365,-261.324C545.66,-255.543 551.612,-249.006 557,-243 564.606,-234.52 572.875,-225.162 580.169,-216.858"/>
<polygon fill="#7fff00" stroke="#7fff00" stroke-width="0.9" points="582.85,-219.109 586.81,-209.282 577.586,-214.494 582.85,-219.109"/>
<text text-anchor="middle" x="573" y="-231.8" font-family="Times New Roman,serif" font-size="14.00">1</text>
</g>
</g>
</svg>
