<?xml version="1.0" encoding="UTF-8" standalone="no"?>
<!DOCTYPE svg PUBLIC "-//W3C//DTD SVG 1.1//EN"
 "http://www.w3.org/Graphics/SVG/1.1/DTD/svg11.dtd">
<!-- Generated by graphviz version 2.38.0 (20140413.2041)
 -->
<!-- Title: Tempo_22_10_17_d1_first_03_09_19 Pages: 1 -->
<svg width="726pt" height="611pt"
 viewBox="0.00 0.00 726.00 611.00" xmlns="http://www.w3.org/2000/svg" xmlns:xlink="http://www.w3.org/1999/xlink">
<g id="graph0" class="graph" transform="scale(1 1) rotate(0) translate(4 607)">
<title>Tempo_22_10_17_d1_first_03_09_19</title>
<polygon fill="white" stroke="none" points="-4,4 -4,-607 722,-607 722,4 -4,4"/>
<!-- Affiliative behavior -->
<g id="node1" class="node"><title>Affiliative behavior</title>
<g id="a_node1"><a xlink:title="what should &#013; be here">
<ellipse fill="#c1cdcd" stroke="black" cx="538" cy="-585" rx="83.3857" ry="18"/>
<text text-anchor="middle" x="538" y="-581.3" font-family="Times New Roman,serif" font-size="14.00">Affiliative behavior</text>
</a>
</g>
</g>
<!-- Maintenance -->
<g id="node2" class="node"><title>Maintenance</title>
<g id="a_node2"><a xlink:title="what should &#013; be here">
<ellipse fill="#c1cdcd" stroke="black" cx="377" cy="-498" rx="57.6901" ry="18"/>
<text text-anchor="middle" x="377" y="-494.3" font-family="Times New Roman,serif" font-size="14.00">Maintenance</text>
</a>
</g>
</g>
<!-- Affiliative behavior&#45;&gt;Maintenance -->
<g id="edge1" class="edge"><title>Affiliative behavior&#45;&gt;Maintenance</title>
<path fill="none" stroke="#c1cdcd" stroke-width="0.8" d="M507.717,-568.012C481.202,-554.013 442.583,-533.625 414.195,-518.637"/>
<polygon fill="#c1cdcd" stroke="#c1cdcd" stroke-width="0.8" points="415.47,-515.352 404.992,-513.779 412.201,-521.543 415.47,-515.352"/>
</g>
<!-- Escape -->
<g id="node3" class="node"><title>Escape</title>
<g id="a_node3"><a xlink:title="what should &#013; be here">
<ellipse fill="#c1cdcd" stroke="black" cx="307" cy="-105" rx="43" ry="18"/>
<text text-anchor="middle" x="307" y="-101.3" font-family="Times New Roman,serif" font-size="14.00">Escape</text>
</a>
</g>
</g>
<!-- Affiliative behavior&#45;&gt;Escape -->
<g id="edge2" class="edge"><title>Affiliative behavior&#45;&gt;Escape</title>
<path fill="none" stroke="#7fff00" stroke-width="0.9" d="M611.442,-576.284C658.191,-566.831 710,-545.798 710,-499 710,-499 710,-499 710,-177 710,-141.771 468.066,-118.51 359.105,-109.82"/>
<polygon fill="#7fff00" stroke="#7fff00" stroke-width="0.9" points="359.231,-106.32 348.988,-109.025 358.682,-113.298 359.231,-106.32"/>
<text text-anchor="middle" x="714" y="-320.3" font-family="Times New Roman,serif" font-size="14.00">1</text>
</g>
<!-- Restrained aggression -->
<g id="node4" class="node"><title>Restrained aggression</title>
<g id="a_node4"><a xlink:title="what should &#013; be here">
<ellipse fill="#c1cdcd" stroke="black" cx="363" cy="-251" rx="91.784" ry="18"/>
<text text-anchor="middle" x="363" y="-247.3" font-family="Times New Roman,serif" font-size="14.00">Restrained aggression</text>
</a>
</g>
</g>
<!-- Affiliative behavior&#45;&gt;Restrained aggression -->
<g id="edge3" class="edge"><title>Affiliative behavior&#45;&gt;Restrained aggression</title>
<path fill="none" stroke="#7fff00" stroke-width="0.9" d="M577.271,-568.98C585.534,-563.921 593.195,-557.366 598,-549 655.996,-448.026 674.032,-375.195 598,-287 580.378,-266.559 519.371,-257.87 463.936,-254.26"/>
<polygon fill="#7fff00" stroke="#7fff00" stroke-width="0.9" points="463.853,-250.749 453.661,-253.644 463.433,-257.737 463.853,-250.749"/>
<text text-anchor="middle" x="653" y="-407.3" font-family="Times New Roman,serif" font-size="14.00">2</text>
</g>
<!-- Maintenance&#45;&gt;Affiliative behavior -->
<g id="edge4" class="edge"><title>Maintenance&#45;&gt;Affiliative behavior</title>
<path fill="none" stroke="magenta" stroke-width="0.9" d="M393.273,-515.712C404.465,-526.431 420.124,-539.978 436,-549 448.828,-556.29 463.425,-562.409 477.486,-567.387"/>
<polygon fill="magenta" stroke="magenta" stroke-width="0.9" points="476.512,-570.752 487.107,-570.651 478.762,-564.123 476.512,-570.752"/>
<text text-anchor="middle" x="440" y="-537.8" font-family="Times New Roman,serif" font-size="14.00">3</text>
</g>
<!-- Maintenance&#45;&gt;Maintenance -->
<g id="edge6" class="edge"><title>Maintenance&#45;&gt;Maintenance</title>
<path fill="none" stroke="#c1cdcd" stroke-width="0.8" d="M429.462,-505.781C442.818,-505.269 452.845,-502.676 452.845,-498 452.845,-494.603 447.552,-492.305 439.534,-491.106"/>
<polygon fill="#c1cdcd" stroke="#c1cdcd" stroke-width="0.8" points="439.73,-487.61 429.462,-490.219 439.117,-494.583 439.73,-487.61"/>
</g>
<!-- Maintenance&#45;&gt;Escape -->
<g id="edge5" class="edge"><title>Maintenance&#45;&gt;Escape</title>
<path fill="none" stroke="#c1cdcd" stroke-width="0.8" d="M328.958,-487.744C296.835,-478.455 257.26,-460.811 238,-429 229.713,-415.313 237.252,-408.983 238,-393 241.337,-321.655 234.495,-301.984 253,-233 257.689,-215.521 263.521,-212.897 270,-196 278.156,-174.729 285.722,-149.976 292.375,-131.82"/>
<polygon fill="#c1cdcd" stroke="#c1cdcd" stroke-width="0.8" points="295.646,-133.065 295.975,-122.475 289.114,-130.548 295.646,-133.065"/>
</g>
<!-- Maintenance&#45;&gt;Restrained aggression -->
<g id="edge8" class="edge"><title>Maintenance&#45;&gt;Restrained aggression</title>
<path fill="none" stroke="#c1cdcd" stroke-width="0.8" d="M396.877,-480.72C403.703,-475.512 410.82,-469.2 416,-462 457.679,-404.076 490.556,-367.286 454,-306 444.917,-290.773 429.889,-279.582 414.598,-271.47"/>
<polygon fill="#c1cdcd" stroke="#c1cdcd" stroke-width="0.8" points="416.124,-268.32 405.607,-267.042 413.032,-274.6 416.124,-268.32"/>
</g>
<!-- Submissive behavior -->
<g id="node5" class="node"><title>Submissive behavior</title>
<g id="a_node5"><a xlink:title="what should &#013; be here">
<ellipse fill="#c1cdcd" stroke="black" cx="163" cy="-178" rx="89.0842" ry="18"/>
<text text-anchor="middle" x="163" y="-174.3" font-family="Times New Roman,serif" font-size="14.00">Submissive behavior</text>
</a>
</g>
</g>
<!-- Maintenance&#45;&gt;Submissive behavior -->
<g id="edge9" class="edge"><title>Maintenance&#45;&gt;Submissive behavior</title>
<path fill="none" stroke="#c1cdcd" stroke-width="0.8" d="M322.36,-491.981C274.077,-486.407 208.354,-476.273 187,-462 164.864,-447.204 154,-438.626 154,-412 154,-412 154,-412 154,-250 154,-235.651 154,-219.671 154.846,-206.511"/>
<polygon fill="#c1cdcd" stroke="#c1cdcd" stroke-width="0.8" points="158.362,-206.49 155.775,-196.216 151.39,-205.862 158.362,-206.49"/>
</g>
<!-- Overt aggression -->
<g id="node6" class="node"><title>Overt aggression</title>
<g id="a_node6"><a xlink:title="what should &#013; be here">
<ellipse fill="#c1cdcd" stroke="black" cx="355" cy="-324" rx="73.387" ry="18"/>
<text text-anchor="middle" x="355" y="-320.3" font-family="Times New Roman,serif" font-size="14.00">Overt aggression</text>
</a>
</g>
</g>
<!-- Maintenance&#45;&gt;Overt aggression -->
<g id="edge7" class="edge"><title>Maintenance&#45;&gt;Overt aggression</title>
<path fill="none" stroke="#c1cdcd" stroke-width="0.8" d="M381.986,-479.92C391.653,-459.192 408.244,-423.259 398,-393 392.54,-376.873 381.554,-361.562 371.886,-349.566"/>
<polygon fill="#c1cdcd" stroke="#c1cdcd" stroke-width="0.8" points="374.556,-347.302 365.489,-341.822 369.159,-351.761 374.556,-347.302"/>
</g>
<!-- Presence -->
<g id="node7" class="node"><title>Presence</title>
<g id="a_node7"><a xlink:title="what should &#013; be here">
<ellipse fill="#7fff00" stroke="black" cx="307" cy="-18" rx="43" ry="18"/>
<text text-anchor="middle" x="307" y="-14.3" font-family="Times New Roman,serif" font-size="14.00">Presence</text>
</a>
</g>
</g>
<!-- Maintenance&#45;&gt;Presence -->
<g id="edge11" class="edge"><title>Maintenance&#45;&gt;Presence</title>
<path fill="none" stroke="#7fff00" stroke-width="0.9" d="M431.658,-492.031C514.928,-482.928 664,-459.938 664,-412 664,-412 664,-412 664,-104 664,-42.2352 459.218,-25.2712 359.848,-20.6753"/>
<polygon fill="#7fff00" stroke="#7fff00" stroke-width="0.9" points="359.851,-17.1722 349.708,-20.2324 359.546,-24.1655 359.851,-17.1722"/>
<text text-anchor="middle" x="668" y="-247.3" font-family="Times New Roman,serif" font-size="14.00">2</text>
</g>
<!-- Out&#45;of&#45;FOV -->
<g id="node8" class="node"><title>Out&#45;of&#45;FOV</title>
<g id="a_node8"><a xlink:title="what should &#013; be here">
<ellipse fill="#7fff00" stroke="black" cx="314" cy="-411" rx="57.6901" ry="18"/>
<text text-anchor="middle" x="314" y="-407.3" font-family="Times New Roman,serif" font-size="14.00">Out&#45;of&#45;FOV</text>
</a>
</g>
</g>
<!-- Maintenance&#45;&gt;Out&#45;of&#45;FOV -->
<g id="edge10" class="edge"><title>Maintenance&#45;&gt;Out&#45;of&#45;FOV</title>
<path fill="none" stroke="#7fff00" stroke-width="0.9" d="M364.553,-480.207C355.407,-467.866 342.827,-450.894 332.505,-436.967"/>
<polygon fill="#7fff00" stroke="#7fff00" stroke-width="0.9" points="335.187,-434.708 326.421,-428.758 329.564,-438.876 335.187,-434.708"/>
<text text-anchor="middle" x="354" y="-450.8" font-family="Times New Roman,serif" font-size="14.00">3</text>
</g>
<!-- Escape&#45;&gt;Maintenance -->
<g id="edge13" class="edge"><title>Escape&#45;&gt;Maintenance</title>
<path fill="none" stroke="#c1cdcd" stroke-width="0.8" d="M309.057,-123.143C306.29,-141.418 297.55,-171.095 288,-196 281.521,-212.897 275.689,-215.521 271,-233 252.495,-301.984 259.337,-321.655 256,-393 255.252,-408.983 247.713,-415.313 256,-429 271.616,-454.792 300.587,-471.271 326.333,-481.535"/>
<polygon fill="#c1cdcd" stroke="#c1cdcd" stroke-width="0.8" points="325.416,-484.929 336.008,-485.171 327.879,-478.377 325.416,-484.929"/>
</g>
<!-- Escape&#45;&gt;Escape -->
<g id="edge12" class="edge"><title>Escape&#45;&gt;Escape</title>
<path fill="none" stroke="#c1cdcd" stroke-width="0.8" d="M346.895,-111.735C358.764,-111.534 368,-109.289 368,-105 368,-102.051 363.635,-100.069 357.049,-99.0521"/>
<polygon fill="#c1cdcd" stroke="#c1cdcd" stroke-width="0.8" points="357.135,-95.5484 346.895,-98.2648 356.594,-102.527 357.135,-95.5484"/>
</g>
<!-- Escape&#45;&gt;Restrained aggression -->
<g id="edge14" class="edge"><title>Escape&#45;&gt;Restrained aggression</title>
<path fill="none" stroke="#c1cdcd" stroke-width="0.8" d="M326.703,-121.121C331.398,-127.09 335.795,-134.151 339,-141 351.459,-167.624 360.577,-200.087 364.269,-222.627"/>
<polygon fill="#c1cdcd" stroke="#c1cdcd" stroke-width="0.8" points="360.839,-223.38 365.637,-232.826 367.777,-222.45 360.839,-223.38"/>
</g>
<!-- Escape&#45;&gt;Submissive behavior -->
<g id="edge15" class="edge"><title>Escape&#45;&gt;Submissive behavior</title>
<path fill="none" stroke="#c1cdcd" stroke-width="0.8" d="M283.785,-120.169C263.645,-130.791 234.089,-145.462 209.204,-157.237"/>
<polygon fill="#c1cdcd" stroke="#c1cdcd" stroke-width="0.8" points="207.489,-154.176 199.924,-161.594 210.464,-160.512 207.489,-154.176"/>
</g>
<!-- Escape&#45;&gt;Presence -->
<g id="edge16" class="edge"><title>Escape&#45;&gt;Presence</title>
<path fill="none" stroke="#7fff00" stroke-width="0.9" d="M307,-86.799C307,-75.1626 307,-59.5479 307,-46.2368"/>
<polygon fill="#7fff00" stroke="#7fff00" stroke-width="0.9" points="310.5,-46.1754 307,-36.1754 303.5,-46.1755 310.5,-46.1754"/>
<text text-anchor="middle" x="311" y="-57.8" font-family="Times New Roman,serif" font-size="14.00">2</text>
</g>
<!-- Restrained aggression&#45;&gt;Affiliative behavior -->
<g id="edge22" class="edge"><title>Restrained aggression&#45;&gt;Affiliative behavior</title>
<path fill="none" stroke="#7fff00" stroke-width="0.9" d="M437.512,-261.598C501.671,-272.015 584,-291.516 584,-323 584,-499 584,-499 584,-499 584,-521.086 571.839,-542.931 560.023,-558.944"/>
<polygon fill="#7fff00" stroke="#7fff00" stroke-width="0.9" points="556.969,-557.169 553.574,-567.205 562.486,-561.477 556.969,-557.169"/>
<text text-anchor="middle" x="588" y="-407.3" font-family="Times New Roman,serif" font-size="14.00">2</text>
</g>
<!-- Restrained aggression&#45;&gt;Maintenance -->
<g id="edge18" class="edge"><title>Restrained aggression&#45;&gt;Maintenance</title>
<path fill="none" stroke="#c1cdcd" stroke-width="0.8" d="M418.468,-265.473C439.202,-273.749 460.427,-286.598 472,-306 508.556,-367.286 475.679,-404.076 434,-462 429.953,-467.625 424.724,-472.708 419.049,-477.146"/>
<polygon fill="#c1cdcd" stroke="#c1cdcd" stroke-width="0.8" points="416.656,-474.551 410.503,-483.175 420.691,-480.271 416.656,-474.551"/>
</g>
<!-- Restrained aggression&#45;&gt;Escape -->
<g id="edge17" class="edge"><title>Restrained aggression&#45;&gt;Escape</title>
<path fill="none" stroke="#c1cdcd" stroke-width="0.8" d="M353.192,-232.826C345.471,-210.867 335.498,-171.981 321,-141 319.582,-137.971 317.932,-134.9 316.23,-131.9"/>
<polygon fill="#c1cdcd" stroke="#c1cdcd" stroke-width="0.8" points="319.225,-130.089 311.151,-123.229 313.184,-133.626 319.225,-130.089"/>
</g>
<!-- Restrained aggression&#45;&gt;Restrained aggression -->
<g id="edge20" class="edge"><title>Restrained aggression&#45;&gt;Restrained aggression</title>
<path fill="none" stroke="#c1cdcd" stroke-width="0.8" d="M448.959,-257.245C462.995,-256.351 472.642,-254.27 472.642,-251 472.642,-248.599 467.439,-246.838 459.116,-245.719"/>
<polygon fill="#c1cdcd" stroke="#c1cdcd" stroke-width="0.8" points="459.245,-242.215 448.959,-244.755 458.584,-249.184 459.245,-242.215"/>
</g>
<!-- Restrained aggression&#45;&gt;Submissive behavior -->
<g id="edge21" class="edge"><title>Restrained aggression&#45;&gt;Submissive behavior</title>
<path fill="none" stroke="#c1cdcd" stroke-width="0.8" d="M316.474,-235.461C284.528,-224.615 242.36,-209.701 210.263,-197.925"/>
<polygon fill="#c1cdcd" stroke="#c1cdcd" stroke-width="0.8" points="211.241,-194.556 200.648,-194.38 208.819,-201.123 211.241,-194.556"/>
</g>
<!-- Restrained aggression&#45;&gt;Overt aggression -->
<g id="edge19" class="edge"><title>Restrained aggression&#45;&gt;Overt aggression</title>
<path fill="none" stroke="#c1cdcd" stroke-width="0.8" d="M366.943,-269.029C366.889,-277.029 366.033,-286.765 364.655,-295.753"/>
<polygon fill="#c1cdcd" stroke="#c1cdcd" stroke-width="0.8" points="361.172,-295.346 362.815,-305.813 368.057,-296.606 361.172,-295.346"/>
</g>
<!-- Submissive behavior&#45;&gt;Affiliative behavior -->
<g id="edge27" class="edge"><title>Submissive behavior&#45;&gt;Affiliative behavior</title>
<path fill="none" stroke="#7fff00" stroke-width="0.9" d="M80.5449,-185.054C40.1158,-193.019 0,-210.799 0,-250 0,-499 0,-499 0,-499 0,-543.832 295.239,-568.887 448.296,-578.864"/>
<polygon fill="#7fff00" stroke="#7fff00" stroke-width="0.9" points="448.412,-582.379 458.616,-579.528 448.862,-575.393 448.412,-582.379"/>
<text text-anchor="middle" x="4" y="-363.8" font-family="Times New Roman,serif" font-size="14.00">1</text>
</g>
<!-- Submissive behavior&#45;&gt;Maintenance -->
<g id="edge24" class="edge"><title>Submissive behavior&#45;&gt;Maintenance</title>
<path fill="none" stroke="#c1cdcd" stroke-width="0.8" d="M170.225,-196.216C172,-210.595 172,-231.634 172,-250 172,-412 172,-412 172,-412 172,-438.626 182.864,-447.204 205,-462 223.068,-474.077 272.901,-483.19 314.37,-489.085"/>
<polygon fill="#c1cdcd" stroke="#c1cdcd" stroke-width="0.8" points="314.05,-492.574 324.435,-490.478 315.009,-485.64 314.05,-492.574"/>
</g>
<!-- Submissive behavior&#45;&gt;Escape -->
<g id="edge23" class="edge"><title>Submissive behavior&#45;&gt;Escape</title>
<path fill="none" stroke="#c1cdcd" stroke-width="0.8" d="M190.256,-160.711C212.235,-149.239 243.265,-133.938 267.872,-122.434"/>
<polygon fill="#c1cdcd" stroke="#c1cdcd" stroke-width="0.8" points="269.353,-125.605 276.957,-118.227 266.412,-119.253 269.353,-125.605"/>
</g>
<!-- Submissive behavior&#45;&gt;Restrained aggression -->
<g id="edge25" class="edge"><title>Submissive behavior&#45;&gt;Restrained aggression</title>
<path fill="none" stroke="#c1cdcd" stroke-width="0.8" d="M209.14,-193.408C241.096,-204.253 283.418,-219.218 315.631,-231.036"/>
<polygon fill="#c1cdcd" stroke="#c1cdcd" stroke-width="0.8" points="314.688,-234.418 325.281,-234.594 317.11,-227.85 314.688,-234.418"/>
</g>
<!-- Submissive behavior&#45;&gt;Submissive behavior -->
<g id="edge26" class="edge"><title>Submissive behavior&#45;&gt;Submissive behavior</title>
<path fill="none" stroke="#c1cdcd" stroke-width="0.8" d="M246.477,-184.274C260.421,-183.396 270.042,-181.305 270.042,-178 270.042,-175.573 264.853,-173.801 256.574,-172.683"/>
<polygon fill="#c1cdcd" stroke="#c1cdcd" stroke-width="0.8" points="256.763,-169.185 246.477,-171.726 256.103,-176.154 256.763,-169.185"/>
</g>
<!-- Overt aggression&#45;&gt;Affiliative behavior -->
<g id="edge31" class="edge"><title>Overt aggression&#45;&gt;Affiliative behavior</title>
<path fill="none" stroke="#7fff00" stroke-width="0.9" d="M389.57,-340.049C399.231,-345.378 409.207,-352.061 417,-360 475.022,-419.114 512.937,-511.718 529.09,-557.102"/>
<polygon fill="#7fff00" stroke="#7fff00" stroke-width="0.9" points="525.876,-558.515 532.468,-566.81 532.487,-556.215 525.876,-558.515"/>
<text text-anchor="middle" x="491" y="-450.8" font-family="Times New Roman,serif" font-size="14.00">1</text>
</g>
<!-- Overt aggression&#45;&gt;Maintenance -->
<g id="edge28" class="edge"><title>Overt aggression&#45;&gt;Maintenance</title>
<path fill="none" stroke="#c1cdcd" stroke-width="0.8" d="M379.608,-341.018C393.542,-353.747 409.138,-372.729 416,-393 425.069,-419.788 413.106,-451.023 399.878,-472.218"/>
<polygon fill="#c1cdcd" stroke="#c1cdcd" stroke-width="0.8" points="396.883,-470.399 394.188,-480.645 402.685,-474.316 396.883,-470.399"/>
</g>
<!-- Overt aggression&#45;&gt;Restrained aggression -->
<g id="edge30" class="edge"><title>Overt aggression&#45;&gt;Restrained aggression</title>
<path fill="none" stroke="#c1cdcd" stroke-width="0.8" d="M351.058,-305.813C351.123,-297.789 351.987,-288.047 353.372,-279.069"/>
<polygon fill="#c1cdcd" stroke="#c1cdcd" stroke-width="0.8" points="356.852,-279.497 355.22,-269.029 349.968,-278.23 356.852,-279.497"/>
</g>
<!-- Overt aggression&#45;&gt;Overt aggression -->
<g id="edge29" class="edge"><title>Overt aggression&#45;&gt;Overt aggression</title>
<path fill="none" stroke="magenta" stroke-width="0.9" d="M423.592,-330.45C436.954,-329.701 446.443,-327.551 446.443,-324 446.443,-321.42 441.434,-319.58 433.57,-318.479"/>
<polygon fill="magenta" stroke="magenta" stroke-width="0.9" points="433.873,-314.992 423.592,-317.55 433.224,-321.962 433.873,-314.992"/>
<text text-anchor="middle" x="450.443" y="-320.3" font-family="Times New Roman,serif" font-size="14.00">2</text>
</g>
<!-- Presence&#45;&gt;Maintenance -->
<g id="edge32" class="edge"><title>Presence&#45;&gt;Maintenance</title>
<path fill="none" stroke="#7fff00" stroke-width="0.9" d="M265.932,-23.741C192.43,-33.3781 46,-58.3109 46,-104 46,-412 46,-412 46,-412 46,-466.079 213.847,-486.241 310.493,-493.368"/>
<polygon fill="#7fff00" stroke="#7fff00" stroke-width="0.9" points="310.252,-496.86 320.475,-494.076 310.748,-489.877 310.252,-496.86"/>
<text text-anchor="middle" x="50" y="-247.3" font-family="Times New Roman,serif" font-size="14.00">4</text>
</g>
<!-- Presence&#45;&gt;Presence -->
<g id="edge33" class="edge"><title>Presence&#45;&gt;Presence</title>
<path fill="none" stroke="#7fff00" stroke-width="0.9" d="M345.719,-25.8731C358.149,-25.7923 368,-23.168 368,-18 368,-14.3663 363.13,-11.9901 355.917,-10.8714"/>
<polygon fill="#7fff00" stroke="#7fff00" stroke-width="0.9" points="355.947,-7.36435 345.719,-10.1269 355.437,-14.3458 355.947,-7.36435"/>
<text text-anchor="middle" x="376" y="-14.3" font-family="Times New Roman,serif" font-size="14.00">11</text>
</g>
<!-- Out&#45;of&#45;FOV&#45;&gt;Maintenance -->
<g id="edge34" class="edge"><title>Out&#45;of&#45;FOV&#45;&gt;Maintenance</title>
<path fill="none" stroke="#7fff00" stroke-width="0.9" d="M316.808,-429.407C319.095,-439.615 323.114,-452.358 330,-462 333.485,-466.879 337.856,-471.367 342.521,-475.385"/>
<polygon fill="#7fff00" stroke="#7fff00" stroke-width="0.9" points="340.519,-478.263 350.545,-481.689 344.844,-472.759 340.519,-478.263"/>
<text text-anchor="middle" x="334" y="-450.8" font-family="Times New Roman,serif" font-size="14.00">2</text>
</g>
<!-- Out&#45;of&#45;FOV&#45;&gt;Overt aggression -->
<g id="edge36" class="edge"><title>Out&#45;of&#45;FOV&#45;&gt;Overt aggression</title>
<path fill="none" stroke="#7fff00" stroke-width="0.9" d="M322.297,-392.799C328.021,-380.932 335.741,-364.928 342.242,-351.449"/>
<polygon fill="#7fff00" stroke="#7fff00" stroke-width="0.9" points="345.523,-352.703 346.715,-342.175 339.218,-349.662 345.523,-352.703"/>
<text text-anchor="middle" x="341" y="-363.8" font-family="Times New Roman,serif" font-size="14.00">1</text>
</g>
<!-- Out&#45;of&#45;FOV&#45;&gt;Out&#45;of&#45;FOV -->
<g id="edge35" class="edge"><title>Out&#45;of&#45;FOV&#45;&gt;Out&#45;of&#45;FOV</title>
<path fill="none" stroke="#7fff00" stroke-width="0.9" d="M366.462,-418.781C379.818,-418.269 389.845,-415.676 389.845,-411 389.845,-407.603 384.552,-405.305 376.534,-404.106"/>
<polygon fill="#7fff00" stroke="#7fff00" stroke-width="0.9" points="376.73,-400.61 366.462,-403.219 376.117,-407.583 376.73,-400.61"/>
<text text-anchor="middle" x="393.845" y="-407.3" font-family="Times New Roman,serif" font-size="14.00">1</text>
</g>
</g>
</svg>
