<?xml version="1.0" encoding="UTF-8" standalone="no"?>
<!DOCTYPE svg PUBLIC "-//W3C//DTD SVG 1.1//EN"
 "http://www.w3.org/Graphics/SVG/1.1/DTD/svg11.dtd">
<!-- Generated by graphviz version 2.38.0 (20140413.2041)
 -->
<!-- Title: Multi_12_10_17_h1_second_25_03_19_II(1) Pages: 1 -->
<svg width="741pt" height="465pt"
 viewBox="0.00 0.00 740.93 465.00" xmlns="http://www.w3.org/2000/svg" xmlns:xlink="http://www.w3.org/1999/xlink">
<g id="graph0" class="graph" transform="scale(1 1) rotate(0) translate(4 461)">
<title>Multi_12_10_17_h1_second_25_03_19_II(1)</title>
<polygon fill="white" stroke="none" points="-4,4 -4,-461 736.929,-461 736.929,4 -4,4"/>
<!-- Affiliative behavior -->
<g id="node1" class="node"><title>Affiliative behavior</title>
<g id="a_node1"><a xlink:title="what should &#013; be here">
<ellipse fill="#c1cdcd" stroke="black" cx="246" cy="-439" rx="83.3857" ry="18"/>
<text text-anchor="middle" x="246" y="-435.3" font-family="Times New Roman,serif" font-size="14.00">Affiliative behavior</text>
</a>
</g>
</g>
<!-- Affiliative behavior&#45;&gt;Affiliative behavior -->
<g id="edge1" class="edge"><title>Affiliative behavior&#45;&gt;Affiliative behavior</title>
<path fill="none" stroke="magenta" stroke-width="0.9" d="M321.905,-446.525C336.692,-445.651 347.193,-443.143 347.193,-439 347.193,-435.893 341.286,-433.705 332.094,-432.437"/>
<polygon fill="magenta" stroke="magenta" stroke-width="0.9" points="332.189,-428.931 321.905,-431.475 331.531,-435.9 332.189,-428.931"/>
<text text-anchor="middle" x="351.193" y="-435.3" font-family="Times New Roman,serif" font-size="14.00">3</text>
</g>
<!-- Submissive behavior -->
<g id="node2" class="node"><title>Submissive behavior</title>
<g id="a_node2"><a xlink:title="what should &#013; be here">
<ellipse fill="#c1cdcd" stroke="black" cx="111" cy="-352" rx="89.0842" ry="18"/>
<text text-anchor="middle" x="111" y="-348.3" font-family="Times New Roman,serif" font-size="14.00">Submissive behavior</text>
</a>
</g>
</g>
<!-- Affiliative behavior&#45;&gt;Submissive behavior -->
<g id="edge2" class="edge"><title>Affiliative behavior&#45;&gt;Submissive behavior</title>
<path fill="none" stroke="magenta" stroke-width="0.9" d="M220.29,-421.812C199.125,-408.486 168.923,-389.47 145.63,-374.804"/>
<polygon fill="magenta" stroke="magenta" stroke-width="0.9" points="147.402,-371.784 137.074,-369.417 143.672,-377.707 147.402,-371.784"/>
<text text-anchor="middle" x="191" y="-391.8" font-family="Times New Roman,serif" font-size="14.00">2</text>
</g>
<!-- Maintenance -->
<g id="node4" class="node"><title>Maintenance</title>
<g id="a_node4"><a xlink:title="what should &#013; be here">
<ellipse fill="#c1cdcd" stroke="black" cx="344" cy="-105" rx="57.6901" ry="18"/>
<text text-anchor="middle" x="344" y="-101.3" font-family="Times New Roman,serif" font-size="14.00">Maintenance</text>
</a>
</g>
</g>
<!-- Affiliative behavior&#45;&gt;Maintenance -->
<g id="edge3" class="edge"><title>Affiliative behavior&#45;&gt;Maintenance</title>
<path fill="none" stroke="#7fff00" stroke-width="0.9" d="M243.025,-420.667C239.432,-399.994 233.108,-364.412 227,-334 209.769,-248.202 133.311,-209.318 188,-141 199.624,-126.479 241.834,-117.57 279.418,-112.376"/>
<polygon fill="#7fff00" stroke="#7fff00" stroke-width="0.9" points="279.899,-115.843 289.358,-111.071 278.988,-108.903 279.899,-115.843"/>
<text text-anchor="middle" x="220" y="-275.3" font-family="Times New Roman,serif" font-size="14.00">3</text>
</g>
<!-- Submissive behavior&#45;&gt;Affiliative behavior -->
<g id="edge4" class="edge"><title>Submissive behavior&#45;&gt;Affiliative behavior</title>
<path fill="none" stroke="magenta" stroke-width="0.9" d="M124.21,-370.093C133.114,-380.697 145.639,-393.974 159,-403 168.704,-409.556 179.823,-415.19 190.796,-419.904"/>
<polygon fill="magenta" stroke="magenta" stroke-width="0.9" points="189.781,-423.27 200.362,-423.81 192.427,-416.79 189.781,-423.27"/>
<text text-anchor="middle" x="163" y="-391.8" font-family="Times New Roman,serif" font-size="14.00">1</text>
</g>
<!-- Submissive behavior&#45;&gt;Submissive behavior -->
<g id="edge7" class="edge"><title>Submissive behavior&#45;&gt;Submissive behavior</title>
<path fill="none" stroke="#c1cdcd" stroke-width="0.8" d="M194.477,-358.274C208.421,-357.396 218.042,-355.305 218.042,-352 218.042,-349.573 212.853,-347.801 204.574,-346.683"/>
<polygon fill="#c1cdcd" stroke="#c1cdcd" stroke-width="0.8" points="204.763,-343.185 194.477,-345.726 204.103,-350.154 204.763,-343.185"/>
</g>
<!-- Escape -->
<g id="node3" class="node"><title>Escape</title>
<g id="a_node3"><a xlink:title="what should &#013; be here">
<ellipse fill="#c1cdcd" stroke="black" cx="147" cy="-18" rx="43" ry="18"/>
<text text-anchor="middle" x="147" y="-14.3" font-family="Times New Roman,serif" font-size="14.00">Escape</text>
</a>
</g>
</g>
<!-- Submissive behavior&#45;&gt;Escape -->
<g id="edge8" class="edge"><title>Submissive behavior&#45;&gt;Escape</title>
<path fill="none" stroke="#7fff00" stroke-width="0.9" d="M56.1504,-337.704C28.1853,-327.308 0,-309.51 0,-280 0,-280 0,-280 0,-104 0,-58.1491 54.2591,-36.6368 96.8478,-26.8135"/>
<polygon fill="#7fff00" stroke="#7fff00" stroke-width="0.9" points="97.7892,-30.1912 106.832,-24.6698 96.3197,-23.3472 97.7892,-30.1912"/>
<text text-anchor="middle" x="4" y="-188.3" font-family="Times New Roman,serif" font-size="14.00">1</text>
</g>
<!-- Submissive behavior&#45;&gt;Maintenance -->
<g id="edge5" class="edge"><title>Submissive behavior&#45;&gt;Maintenance</title>
<path fill="none" stroke="#c1cdcd" stroke-width="0.8" d="M104.759,-333.9C97.4716,-293.839 96.434,-193.36 151,-141 168.633,-124.08 228.992,-114.963 277.646,-110.319"/>
<polygon fill="#c1cdcd" stroke="#c1cdcd" stroke-width="0.8" points="278.189,-113.784 287.832,-109.395 277.556,-106.813 278.189,-113.784"/>
</g>
<!-- Restrained aggression -->
<g id="node6" class="node"><title>Restrained aggression</title>
<g id="a_node6"><a xlink:title="what should &#013; be here">
<ellipse fill="#c1cdcd" stroke="black" cx="344" cy="-279" rx="91.784" ry="18"/>
<text text-anchor="middle" x="344" y="-275.3" font-family="Times New Roman,serif" font-size="14.00">Restrained aggression</text>
</a>
</g>
</g>
<!-- Submissive behavior&#45;&gt;Restrained aggression -->
<g id="edge6" class="edge"><title>Submissive behavior&#45;&gt;Restrained aggression</title>
<path fill="none" stroke="#c1cdcd" stroke-width="0.8" d="M153.957,-336.202C190.214,-324.714 242.431,-308.778 283.001,-296.809"/>
<polygon fill="#c1cdcd" stroke="#c1cdcd" stroke-width="0.8" points="284.176,-300.112 292.783,-293.934 282.202,-293.396 284.176,-300.112"/>
</g>
<!-- Escape&#45;&gt;Submissive behavior -->
<g id="edge12" class="edge"><title>Escape&#45;&gt;Submissive behavior</title>
<path fill="none" stroke="#7fff00" stroke-width="0.9" d="M114.693,-30.1258C84.4862,-42.8258 44,-66.7885 44,-104 44,-280 44,-280 44,-280 44,-300.061 58.3238,-316.75 73.7255,-328.896"/>
<polygon fill="#7fff00" stroke="#7fff00" stroke-width="0.9" points="71.675,-331.732 81.8077,-334.827 75.8165,-326.089 71.675,-331.732"/>
<text text-anchor="middle" x="48" y="-188.3" font-family="Times New Roman,serif" font-size="14.00">2</text>
</g>
<!-- Escape&#45;&gt;Escape -->
<g id="edge10" class="edge"><title>Escape&#45;&gt;Escape</title>
<path fill="none" stroke="#7fff00" stroke-width="0.9" d="M185.719,-25.8731C198.149,-25.7923 208,-23.168 208,-18 208,-14.3663 203.13,-11.9901 195.917,-10.8714"/>
<polygon fill="#7fff00" stroke="#7fff00" stroke-width="0.9" points="195.947,-7.36435 185.719,-10.1269 195.437,-14.3458 195.947,-7.36435"/>
<text text-anchor="middle" x="212" y="-14.3" font-family="Times New Roman,serif" font-size="14.00">4</text>
</g>
<!-- Escape&#45;&gt;Maintenance -->
<g id="edge9" class="edge"><title>Escape&#45;&gt;Maintenance</title>
<path fill="none" stroke="#c1cdcd" stroke-width="0.8" d="M188.115,-23.46C217.82,-27.9817 258.149,-36.8678 290,-54 302.253,-60.5905 313.852,-70.6207 323.137,-79.972"/>
<polygon fill="#c1cdcd" stroke="#c1cdcd" stroke-width="0.8" points="320.628,-82.4126 330.055,-87.2474 325.7,-77.5889 320.628,-82.4126"/>
</g>
<!-- Escape&#45;&gt;Restrained aggression -->
<g id="edge11" class="edge"><title>Escape&#45;&gt;Restrained aggression</title>
<path fill="none" stroke="#7fff00" stroke-width="0.9" d="M150.75,-35.9497C159.402,-71.7734 183.733,-156.293 231,-210 249.015,-230.469 274.723,-246.61 297.068,-258.02"/>
<polygon fill="#7fff00" stroke="#7fff00" stroke-width="0.9" points="295.567,-261.182 306.084,-262.465 298.663,-254.903 295.567,-261.182"/>
<text text-anchor="middle" x="199" y="-144.8" font-family="Times New Roman,serif" font-size="14.00">4</text>
</g>
<!-- Maintenance&#45;&gt;Affiliative behavior -->
<g id="edge13" class="edge"><title>Maintenance&#45;&gt;Affiliative behavior</title>
<path fill="none" stroke="#c1cdcd" stroke-width="0.8" d="M401.407,-107.836C500.234,-111.511 694.25,-121.176 718,-141 735.716,-155.788 732,-167.923 732,-191 732,-353 732,-353 732,-353 732,-392.98 473.502,-419.855 333.555,-431.476"/>
<polygon fill="#c1cdcd" stroke="#c1cdcd" stroke-width="0.8" points="332.957,-428.013 323.277,-432.319 333.53,-434.989 332.957,-428.013"/>
</g>
<!-- Maintenance&#45;&gt;Submissive behavior -->
<g id="edge17" class="edge"><title>Maintenance&#45;&gt;Submissive behavior</title>
<path fill="none" stroke="#c1cdcd" stroke-width="0.8" d="M289.009,-110.632C244.355,-115.368 186.245,-124.452 169,-141 118.59,-189.371 115.636,-278.811 114.252,-323.741"/>
<polygon fill="#c1cdcd" stroke="#c1cdcd" stroke-width="0.8" points="110.748,-323.789 113.916,-333.9 117.745,-324.021 110.748,-323.789"/>
</g>
<!-- Maintenance&#45;&gt;Escape -->
<g id="edge18" class="edge"><title>Maintenance&#45;&gt;Escape</title>
<path fill="none" stroke="#7fff00" stroke-width="0.9" d="M311.469,-89.964C276.759,-74.9873 221.821,-51.2831 185.109,-35.4429"/>
<polygon fill="#7fff00" stroke="#7fff00" stroke-width="0.9" points="186.3,-32.1448 175.731,-31.3967 183.526,-38.572 186.3,-32.1448"/>
<text text-anchor="middle" x="262" y="-57.8" font-family="Times New Roman,serif" font-size="14.00">9</text>
</g>
<!-- Maintenance&#45;&gt;Maintenance -->
<g id="edge14" class="edge"><title>Maintenance&#45;&gt;Maintenance</title>
<path fill="none" stroke="#c1cdcd" stroke-width="0.8" d="M396.462,-112.781C409.818,-112.269 419.845,-109.676 419.845,-105 419.845,-101.603 414.552,-99.3047 406.534,-98.1058"/>
<polygon fill="#c1cdcd" stroke="#c1cdcd" stroke-width="0.8" points="406.73,-94.6096 396.462,-97.2192 406.117,-101.583 406.73,-94.6096"/>
</g>
<!-- Presence -->
<g id="node5" class="node"><title>Presence</title>
<g id="a_node5"><a xlink:title="what should &#013; be here">
<ellipse fill="magenta" stroke="black" cx="591" cy="-18" rx="43" ry="18"/>
<text text-anchor="middle" x="591" y="-14.3" font-family="Times New Roman,serif" font-size="14.00">Presence</text>
</a>
</g>
</g>
<!-- Maintenance&#45;&gt;Presence -->
<g id="edge15" class="edge"><title>Maintenance&#45;&gt;Presence</title>
<path fill="none" stroke="magenta" stroke-width="0.9" d="M381.246,-91.1826C426.415,-75.6386 502.33,-49.5138 549.383,-33.3217"/>
<polygon fill="magenta" stroke="magenta" stroke-width="0.9" points="550.647,-36.5882 558.964,-30.0246 548.369,-29.9692 550.647,-36.5882"/>
<text text-anchor="middle" x="487" y="-57.8" font-family="Times New Roman,serif" font-size="14.00">3</text>
</g>
<!-- Maintenance&#45;&gt;Restrained aggression -->
<g id="edge16" class="edge"><title>Maintenance&#45;&gt;Restrained aggression</title>
<path fill="none" stroke="#c1cdcd" stroke-width="0.8" d="M400.083,-109.704C487.57,-117.811 641.103,-142.173 590,-210 570.44,-235.962 490.674,-255.053 427.143,-266.287"/>
<polygon fill="#c1cdcd" stroke="#c1cdcd" stroke-width="0.8" points="426.356,-262.872 417.098,-268.023 427.547,-269.769 426.356,-262.872"/>
</g>
<!-- Overt aggression -->
<g id="node8" class="node"><title>Overt aggression</title>
<g id="a_node8"><a xlink:title="what should &#013; be here">
<ellipse fill="#7fff00" stroke="black" cx="313" cy="-192" rx="73.387" ry="18"/>
<text text-anchor="middle" x="313" y="-188.3" font-family="Times New Roman,serif" font-size="14.00">Overt aggression</text>
</a>
</g>
</g>
<!-- Maintenance&#45;&gt;Overt aggression -->
<g id="edge19" class="edge"><title>Maintenance&#45;&gt;Overt aggression</title>
<path fill="none" stroke="#7fff00" stroke-width="0.9" d="M337.736,-123.175C333.452,-134.921 327.687,-150.729 322.8,-164.129"/>
<polygon fill="#7fff00" stroke="#7fff00" stroke-width="0.9" points="319.412,-163.205 319.273,-173.799 325.988,-165.604 319.412,-163.205"/>
<text text-anchor="middle" x="335" y="-144.8" font-family="Times New Roman,serif" font-size="14.00">3</text>
</g>
<!-- Presence&#45;&gt;Maintenance -->
<g id="edge20" class="edge"><title>Presence&#45;&gt;Maintenance</title>
<path fill="none" stroke="magenta" stroke-width="0.9" d="M567.701,-33.2669C548.719,-44.3598 520.911,-59.4249 495,-69 465.775,-79.7998 432.098,-87.99 403.974,-93.7219"/>
<polygon fill="magenta" stroke="magenta" stroke-width="0.9" points="403.011,-90.3446 393.883,-95.7227 404.373,-97.211 403.011,-90.3446"/>
<text text-anchor="middle" x="531" y="-57.8" font-family="Times New Roman,serif" font-size="14.00">2</text>
</g>
<!-- Presence&#45;&gt;Presence -->
<g id="edge21" class="edge"><title>Presence&#45;&gt;Presence</title>
<path fill="none" stroke="magenta" stroke-width="0.9" d="M629.719,-25.8731C642.149,-25.7923 652,-23.168 652,-18 652,-14.3663 647.13,-11.9901 639.917,-10.8714"/>
<polygon fill="magenta" stroke="magenta" stroke-width="0.9" points="639.947,-7.36435 629.719,-10.1269 639.437,-14.3458 639.947,-7.36435"/>
<text text-anchor="middle" x="660" y="-14.3" font-family="Times New Roman,serif" font-size="14.00">15</text>
</g>
<!-- Presence&#45;&gt;Restrained aggression -->
<g id="edge22" class="edge"><title>Presence&#45;&gt;Restrained aggression</title>
<path fill="none" stroke="magenta" stroke-width="0.9" d="M629.17,-26.397C644.57,-31.4582 660.837,-39.9177 670,-54 715.814,-124.406 726.137,-180.513 670,-243 654.898,-259.81 533.095,-269.233 442.776,-273.965"/>
<polygon fill="magenta" stroke="magenta" stroke-width="0.9" points="442.567,-270.471 432.758,-274.477 442.924,-277.462 442.567,-270.471"/>
<text text-anchor="middle" x="712" y="-144.8" font-family="Times New Roman,serif" font-size="14.00">5</text>
</g>
<!-- Restrained aggression&#45;&gt;Affiliative behavior -->
<g id="edge23" class="edge"><title>Restrained aggression&#45;&gt;Affiliative behavior</title>
<path fill="none" stroke="magenta" stroke-width="0.9" d="M333.291,-297.266C316.068,-325.033 282.117,-379.771 262.009,-412.19"/>
<polygon fill="magenta" stroke="magenta" stroke-width="0.9" points="258.784,-410.748 256.488,-421.091 264.733,-414.438 258.784,-410.748"/>
<text text-anchor="middle" x="315" y="-348.3" font-family="Times New Roman,serif" font-size="14.00">1</text>
</g>
<!-- Restrained aggression&#45;&gt;Submissive behavior -->
<g id="edge29" class="edge"><title>Restrained aggression&#45;&gt;Submissive behavior</title>
<path fill="none" stroke="#c1cdcd" stroke-width="0.8" d="M300.637,-294.926C264.311,-306.432 212.172,-322.341 171.713,-334.276"/>
<polygon fill="#c1cdcd" stroke="#c1cdcd" stroke-width="0.8" points="170.566,-330.965 161.959,-337.142 172.54,-337.681 170.566,-330.965"/>
</g>
<!-- Restrained aggression&#45;&gt;Escape -->
<g id="edge24" class="edge"><title>Restrained aggression&#45;&gt;Escape</title>
<path fill="none" stroke="#c1cdcd" stroke-width="0.8" d="M279.939,-266.005C221.818,-251.262 139.902,-219.867 104,-156 83.5197,-119.567 108.308,-72.0948 127.855,-43.6688"/>
<polygon fill="#c1cdcd" stroke="#c1cdcd" stroke-width="0.8" points="130.732,-45.6631 133.697,-35.4918 125.036,-41.5937 130.732,-45.6631"/>
</g>
<!-- Restrained aggression&#45;&gt;Maintenance -->
<g id="edge25" class="edge"><title>Restrained aggression&#45;&gt;Maintenance</title>
<path fill="none" stroke="#c1cdcd" stroke-width="0.8" d="M410.99,-266.645C470.96,-255.46 552.23,-236.24 572,-210 619.175,-147.386 491.963,-121.813 409.003,-111.874"/>
<polygon fill="#c1cdcd" stroke="#c1cdcd" stroke-width="0.8" points="409.203,-108.374 398.869,-110.711 408.404,-115.328 409.203,-108.374"/>
</g>
<!-- Restrained aggression&#45;&gt;Presence -->
<g id="edge27" class="edge"><title>Restrained aggression&#45;&gt;Presence</title>
<path fill="none" stroke="magenta" stroke-width="0.9" d="M429.391,-272.427C469.749,-267.718 517.962,-259.029 559,-243 583.801,-233.313 596.382,-233.446 609,-210 637.471,-157.096 616.883,-83.918 602.236,-45.3026"/>
<polygon fill="magenta" stroke="magenta" stroke-width="0.9" points="605.419,-43.8333 598.491,-35.8175 598.909,-46.4041 605.419,-43.8333"/>
<text text-anchor="middle" x="627" y="-144.8" font-family="Times New Roman,serif" font-size="14.00">4</text>
</g>
<!-- Restrained aggression&#45;&gt;Restrained aggression -->
<g id="edge28" class="edge"><title>Restrained aggression&#45;&gt;Restrained aggression</title>
<path fill="none" stroke="#c1cdcd" stroke-width="0.8" d="M429.959,-285.245C443.995,-284.351 453.642,-282.27 453.642,-279 453.642,-276.599 448.439,-274.838 440.116,-273.719"/>
<polygon fill="#c1cdcd" stroke="#c1cdcd" stroke-width="0.8" points="440.245,-270.215 429.959,-272.755 439.584,-277.184 440.245,-270.215"/>
</g>
<!-- Out&#45;of&#45;FOV -->
<g id="node7" class="node"><title>Out&#45;of&#45;FOV</title>
<g id="a_node7"><a xlink:title="what should &#013; be here">
<ellipse fill="magenta" stroke="black" cx="488" cy="-192" rx="57.6901" ry="18"/>
<text text-anchor="middle" x="488" y="-188.3" font-family="Times New Roman,serif" font-size="14.00">Out&#45;of&#45;FOV</text>
</a>
</g>
</g>
<!-- Restrained aggression&#45;&gt;Out&#45;of&#45;FOV -->
<g id="edge26" class="edge"><title>Restrained aggression&#45;&gt;Out&#45;of&#45;FOV</title>
<path fill="none" stroke="magenta" stroke-width="0.9" d="M366.47,-261.378C380.636,-251.211 399.497,-238.238 417,-228 426.718,-222.316 437.487,-216.685 447.639,-211.656"/>
<polygon fill="magenta" stroke="magenta" stroke-width="0.9" points="449.284,-214.748 456.741,-207.223 446.219,-208.455 449.284,-214.748"/>
<text text-anchor="middle" x="421" y="-231.8" font-family="Times New Roman,serif" font-size="14.00">3</text>
</g>
<!-- Restrained aggression&#45;&gt;Overt aggression -->
<g id="edge30" class="edge"><title>Restrained aggression&#45;&gt;Overt aggression</title>
<path fill="none" stroke="#7fff00" stroke-width="0.9" d="M337.727,-260.799C333.441,-249.047 327.675,-233.238 322.789,-219.842"/>
<polygon fill="#7fff00" stroke="#7fff00" stroke-width="0.9" points="325.978,-218.371 319.264,-210.175 319.402,-220.769 325.978,-218.371"/>
<text text-anchor="middle" x="335" y="-231.8" font-family="Times New Roman,serif" font-size="14.00">3</text>
</g>
<!-- Out&#45;of&#45;FOV&#45;&gt;Maintenance -->
<g id="edge31" class="edge"><title>Out&#45;of&#45;FOV&#45;&gt;Maintenance</title>
<path fill="none" stroke="magenta" stroke-width="0.9" d="M462.256,-175.804C438.954,-162.049 404.443,-141.678 378.71,-126.489"/>
<polygon fill="magenta" stroke="magenta" stroke-width="0.9" points="380.398,-123.421 370.007,-121.351 376.839,-129.449 380.398,-123.421"/>
<text text-anchor="middle" x="429" y="-144.8" font-family="Times New Roman,serif" font-size="14.00">2</text>
</g>
<!-- Out&#45;of&#45;FOV&#45;&gt;Restrained aggression -->
<g id="edge33" class="edge"><title>Out&#45;of&#45;FOV&#45;&gt;Restrained aggression</title>
<path fill="none" stroke="magenta" stroke-width="0.9" d="M470.19,-209.23C458.056,-219.745 441.294,-233.247 425,-243 415.44,-248.723 404.773,-254.019 394.401,-258.669"/>
<polygon fill="magenta" stroke="magenta" stroke-width="0.9" points="392.777,-255.558 384.998,-262.751 395.565,-261.979 392.777,-255.558"/>
<text text-anchor="middle" x="451" y="-231.8" font-family="Times New Roman,serif" font-size="14.00">1</text>
</g>
<!-- Out&#45;of&#45;FOV&#45;&gt;Out&#45;of&#45;FOV -->
<g id="edge32" class="edge"><title>Out&#45;of&#45;FOV&#45;&gt;Out&#45;of&#45;FOV</title>
<path fill="none" stroke="magenta" stroke-width="0.9" d="M540.462,-199.781C553.818,-199.269 563.845,-196.676 563.845,-192 563.845,-188.603 558.552,-186.305 550.534,-185.106"/>
<polygon fill="magenta" stroke="magenta" stroke-width="0.9" points="550.73,-181.61 540.462,-184.219 550.117,-188.583 550.73,-181.61"/>
<text text-anchor="middle" x="567.845" y="-188.3" font-family="Times New Roman,serif" font-size="14.00">3</text>
</g>
<!-- Overt aggression&#45;&gt;Maintenance -->
<g id="edge34" class="edge"><title>Overt aggression&#45;&gt;Maintenance</title>
<path fill="none" stroke="#7fff00" stroke-width="0.9" d="M311.016,-173.788C310.521,-163.884 311.021,-151.384 315,-141 316.421,-137.293 318.403,-133.691 320.672,-130.296"/>
<polygon fill="#7fff00" stroke="#7fff00" stroke-width="0.9" points="323.458,-132.414 326.743,-122.342 317.893,-128.167 323.458,-132.414"/>
<text text-anchor="middle" x="319" y="-144.8" font-family="Times New Roman,serif" font-size="14.00">3</text>
</g>
<!-- Overt aggression&#45;&gt;Restrained aggression -->
<g id="edge36" class="edge"><title>Overt aggression&#45;&gt;Restrained aggression</title>
<path fill="none" stroke="#7fff00" stroke-width="0.9" d="M311.016,-210.212C310.521,-220.116 311.021,-232.616 315,-243 316.35,-246.523 318.207,-249.951 320.336,-253.197"/>
<polygon fill="#7fff00" stroke="#7fff00" stroke-width="0.9" points="317.627,-255.418 326.438,-261.301 323.219,-251.208 317.627,-255.418"/>
<text text-anchor="middle" x="319" y="-231.8" font-family="Times New Roman,serif" font-size="14.00">2</text>
</g>
<!-- Overt aggression&#45;&gt;Overt aggression -->
<g id="edge35" class="edge"><title>Overt aggression&#45;&gt;Overt aggression</title>
<path fill="none" stroke="#7fff00" stroke-width="0.9" d="M379.58,-199.642C393.992,-198.895 404.443,-196.348 404.443,-192 404.443,-188.739 398.564,-186.491 389.545,-185.256"/>
<polygon fill="#7fff00" stroke="#7fff00" stroke-width="0.9" points="389.853,-181.769 379.58,-184.358 389.225,-188.741 389.853,-181.769"/>
<text text-anchor="middle" x="408.443" y="-188.3" font-family="Times New Roman,serif" font-size="14.00">2</text>
</g>
</g>
</svg>
