<?xml version="1.0" encoding="UTF-8" standalone="no"?>
<!DOCTYPE svg PUBLIC "-//W3C//DTD SVG 1.1//EN"
 "http://www.w3.org/Graphics/SVG/1.1/DTD/svg11.dtd">
<!-- Generated by graphviz version 2.38.0 (20140413.2041)
 -->
<!-- Title: 2_Cam3(1)_1 Pages: 1 -->
<svg width="590pt" height="552pt"
 viewBox="0.00 0.00 589.64 552.00" xmlns="http://www.w3.org/2000/svg" xmlns:xlink="http://www.w3.org/1999/xlink">
<g id="graph0" class="graph" transform="scale(1 1) rotate(0) translate(4 548)">
<title>2_Cam3(1)_1</title>
<polygon fill="white" stroke="none" points="-4,4 -4,-548 585.642,-548 585.642,4 -4,4"/>
<!-- bite/ram -->
<g id="node1" class="node"><title>bite/ram</title>
<g id="a_node1"><a xlink:title="what should &#013; be here">
<ellipse fill="#c1cdcd" stroke="black" cx="43" cy="-366" rx="43" ry="18"/>
<text text-anchor="middle" x="43" y="-362.3" font-family="Times New Roman,serif" font-size="14.00">bite/ram</text>
</a>
</g>
</g>
<!-- front on -->
<g id="node3" class="node"><title>front on</title>
<g id="a_node3"><a xlink:title="what should &#013; be here">
<ellipse fill="#c1cdcd" stroke="black" cx="161" cy="-279" rx="43" ry="18"/>
<text text-anchor="middle" x="161" y="-275.3" font-family="Times New Roman,serif" font-size="14.00">front on</text>
</a>
</g>
</g>
<!-- bite/ram&#45;&gt;front on -->
<g id="edge1" class="edge"><title>bite/ram&#45;&gt;front on</title>
<path fill="none" stroke="magenta" stroke-width="0.9" d="M63.8244,-349.999C82.7817,-336.344 110.954,-316.05 132.09,-300.825"/>
<polygon fill="magenta" stroke="magenta" stroke-width="0.9" points="134.315,-303.535 140.384,-294.851 130.224,-297.856 134.315,-303.535"/>
<text text-anchor="middle" x="118" y="-318.8" font-family="Times New Roman,serif" font-size="14.00">29</text>
</g>
<!-- present -->
<g id="node4" class="node"><title>present</title>
<g id="a_node4"><a xlink:title="what should &#013; be here">
<ellipse fill="#c1cdcd" stroke="black" cx="151" cy="-18" rx="43" ry="18"/>
<text text-anchor="middle" x="151" y="-14.3" font-family="Times New Roman,serif" font-size="14.00">present</text>
</a>
</g>
</g>
<!-- bite/ram&#45;&gt;present -->
<g id="edge2" class="edge"><title>bite/ram&#45;&gt;present</title>
<path fill="none" stroke="#7fff00" stroke-width="0.9" d="M46.2191,-347.813C49.1424,-330.693 53,-303.625 53,-280 53,-280 53,-280 53,-104 53,-71.7654 83.6321,-49.0057 110.645,-35.2021"/>
<polygon fill="#7fff00" stroke="#7fff00" stroke-width="0.9" points="112.507,-38.1899 119.992,-30.6922 109.465,-31.8853 112.507,-38.1899"/>
<text text-anchor="middle" x="61" y="-188.3" font-family="Times New Roman,serif" font-size="14.00">17</text>
</g>
<!-- fins errect -->
<g id="node2" class="node"><title>fins errect</title>
<g id="a_node2"><a xlink:title="what should &#013; be here">
<ellipse fill="#c1cdcd" stroke="black" cx="240" cy="-192" rx="46.5926" ry="18"/>
<text text-anchor="middle" x="240" y="-188.3" font-family="Times New Roman,serif" font-size="14.00">fins errect</text>
</a>
</g>
</g>
<!-- fins errect&#45;&gt;front on -->
<g id="edge4" class="edge"><title>fins errect&#45;&gt;front on</title>
<path fill="none" stroke="#7fff00" stroke-width="0.9" d="M224.939,-209.205C213.042,-222.006 196.272,-240.049 182.892,-254.446"/>
<polygon fill="#7fff00" stroke="#7fff00" stroke-width="0.9" points="180.103,-252.305 175.859,-262.012 185.231,-257.07 180.103,-252.305"/>
<text text-anchor="middle" x="214" y="-231.8" font-family="Times New Roman,serif" font-size="14.00">43</text>
</g>
<!-- mouthfight -->
<g id="node8" class="node"><title>mouthfight</title>
<g id="a_node8"><a xlink:title="what should &#013; be here">
<ellipse fill="#c1cdcd" stroke="black" cx="240" cy="-105" rx="52.7911" ry="18"/>
<text text-anchor="middle" x="240" y="-101.3" font-family="Times New Roman,serif" font-size="14.00">mouthfight</text>
</a>
</g>
</g>
<!-- fins errect&#45;&gt;mouthfight -->
<g id="edge3" class="edge"><title>fins errect&#45;&gt;mouthfight</title>
<path fill="none" stroke="magenta" stroke-width="0.9" d="M240,-173.799C240,-162.163 240,-146.548 240,-133.237"/>
<polygon fill="magenta" stroke="magenta" stroke-width="0.9" points="243.5,-133.175 240,-123.175 236.5,-133.175 243.5,-133.175"/>
<text text-anchor="middle" x="248" y="-144.8" font-family="Times New Roman,serif" font-size="14.00">48</text>
</g>
<!-- front on&#45;&gt;fins errect -->
<g id="edge5" class="edge"><title>front on&#45;&gt;fins errect</title>
<path fill="none" stroke="#c1cdcd" stroke-width="0.8" d="M169.32,-261.128C174.876,-250.869 182.831,-237.884 192,-228 196.713,-222.92 202.258,-218.095 207.874,-213.743"/>
<polygon fill="#c1cdcd" stroke="#c1cdcd" stroke-width="0.8" points="210.076,-216.468 216.064,-207.727 205.933,-210.826 210.076,-216.468"/>
</g>
<!-- present&#45;&gt;front on -->
<g id="edge6" class="edge"><title>present&#45;&gt;front on</title>
<path fill="none" stroke="magenta" stroke-width="0.9" d="M151.669,-36.3202C153.37,-80.3788 157.873,-197.007 159.938,-250.493"/>
<polygon fill="magenta" stroke="magenta" stroke-width="0.9" points="156.445,-250.747 160.328,-260.604 163.44,-250.476 156.445,-250.747"/>
<text text-anchor="middle" x="165" y="-144.8" font-family="Times New Roman,serif" font-size="14.00">23</text>
</g>
<!-- present&#45;&gt;present -->
<g id="edge7" class="edge"><title>present&#45;&gt;present</title>
<path fill="none" stroke="#7fff00" stroke-width="0.9" d="M189.719,-25.8731C202.149,-25.7923 212,-23.168 212,-18 212,-14.3663 207.13,-11.9901 199.917,-10.8714"/>
<polygon fill="#7fff00" stroke="#7fff00" stroke-width="0.9" points="199.947,-7.36435 189.719,-10.1269 199.437,-14.3458 199.947,-7.36435"/>
<text text-anchor="middle" x="220" y="-14.3" font-family="Times New Roman,serif" font-size="14.00">45</text>
</g>
<!-- head bump/ bite -->
<g id="node5" class="node"><title>head bump/ bite</title>
<g id="a_node5"><a xlink:title="what should &#013; be here">
<ellipse fill="#c1cdcd" stroke="black" cx="395" cy="-18" rx="71.4873" ry="18"/>
<text text-anchor="middle" x="395" y="-14.3" font-family="Times New Roman,serif" font-size="14.00">head bump/ bite</text>
</a>
</g>
</g>
<!-- head bump/ bite&#45;&gt;head bump/ bite -->
<g id="edge8" class="edge"><title>head bump/ bite&#45;&gt;head bump/ bite</title>
<path fill="none" stroke="#c1cdcd" stroke-width="0.8" d="M459.76,-25.663C474.071,-24.943 484.494,-22.3887 484.494,-18 484.494,-14.7428 478.752,-12.496 469.941,-11.2596"/>
<polygon fill="#c1cdcd" stroke="#c1cdcd" stroke-width="0.8" points="470.035,-7.75385 459.76,-10.337 469.403,-14.7253 470.035,-7.75385"/>
</g>
<!-- head up -->
<g id="node6" class="node"><title>head up</title>
<g id="a_node6"><a xlink:title="what should &#013; be here">
<ellipse fill="#c1cdcd" stroke="black" cx="43" cy="-526" rx="43" ry="18"/>
<text text-anchor="middle" x="43" y="-522.3" font-family="Times New Roman,serif" font-size="14.00">head up</text>
</a>
</g>
</g>
<!-- s&#45; bend -->
<g id="node10" class="node"><title>s&#45; bend</title>
<g id="a_node10"><a xlink:title="what should &#013; be here">
<ellipse fill="#c1cdcd" stroke="black" cx="43" cy="-453" rx="43" ry="18"/>
<text text-anchor="middle" x="43" y="-449.3" font-family="Times New Roman,serif" font-size="14.00">s&#45; bend</text>
</a>
</g>
</g>
<!-- head up&#45;&gt;s&#45; bend -->
<g id="edge9" class="edge"><title>head up&#45;&gt;s&#45; bend</title>
<path fill="none" stroke="#c1cdcd" stroke-width="0.8" d="M43,-507.813C43,-499.789 43,-490.047 43,-481.069"/>
<polygon fill="#c1cdcd" stroke="#c1cdcd" stroke-width="0.8" points="46.5001,-481.029 43,-471.029 39.5001,-481.029 46.5001,-481.029"/>
</g>
<!-- left side on -->
<g id="node7" class="node"><title>left side on</title>
<g id="a_node7"><a xlink:title="what should &#013; be here">
<ellipse fill="#c1cdcd" stroke="black" cx="156" cy="-366" rx="51.9908" ry="18"/>
<text text-anchor="middle" x="156" y="-362.3" font-family="Times New Roman,serif" font-size="14.00">left side on</text>
</a>
</g>
</g>
<!-- left side on&#45;&gt;fins errect -->
<g id="edge11" class="edge"><title>left side on&#45;&gt;fins errect</title>
<path fill="none" stroke="#7fff00" stroke-width="0.9" d="M194.798,-353.816C206.645,-348.495 218.509,-340.844 226,-330 248.389,-297.588 247.757,-250.146 244.464,-220.449"/>
<polygon fill="#7fff00" stroke="#7fff00" stroke-width="0.9" points="247.915,-219.842 243.168,-210.371 240.972,-220.736 247.915,-219.842"/>
<text text-anchor="middle" x="250" y="-275.3" font-family="Times New Roman,serif" font-size="14.00">4</text>
</g>
<!-- left side on&#45;&gt;front on -->
<g id="edge10" class="edge"><title>left side on&#45;&gt;front on</title>
<path fill="none" stroke="magenta" stroke-width="0.9" d="M157.012,-347.799C157.696,-336.163 158.615,-320.548 159.398,-307.237"/>
<polygon fill="magenta" stroke="magenta" stroke-width="0.9" points="162.896,-307.364 159.99,-297.175 155.908,-306.953 162.896,-307.364"/>
<text text-anchor="middle" x="167" y="-318.8" font-family="Times New Roman,serif" font-size="14.00">13</text>
</g>
<!-- mouthfight&#45;&gt;present -->
<g id="edge13" class="edge"><title>mouthfight&#45;&gt;present</title>
<path fill="none" stroke="#7fff00" stroke-width="0.9" d="M222.84,-87.6111C209.247,-74.6295 190.098,-56.3411 174.988,-41.9101"/>
<polygon fill="#7fff00" stroke="#7fff00" stroke-width="0.9" points="177.155,-39.1394 167.506,-34.7638 172.32,-44.2016 177.155,-39.1394"/>
<text text-anchor="middle" x="205" y="-57.8" font-family="Times New Roman,serif" font-size="14.00">3</text>
</g>
<!-- mouthfight&#45;&gt;head bump/ bite -->
<g id="edge12" class="edge"><title>mouthfight&#45;&gt;head bump/ bite</title>
<path fill="none" stroke="magenta" stroke-width="0.9" d="M266.645,-89.388C291.686,-75.6561 329.408,-54.9699 357.486,-39.5724"/>
<polygon fill="magenta" stroke="magenta" stroke-width="0.9" points="359.521,-42.4482 366.606,-34.571 356.155,-36.3105 359.521,-42.4482"/>
<text text-anchor="middle" x="334" y="-57.8" font-family="Times New Roman,serif" font-size="14.00">30</text>
</g>
<!-- right side on -->
<g id="node9" class="node"><title>right side on</title>
<g id="a_node9"><a xlink:title="what should &#013; be here">
<ellipse fill="#c1cdcd" stroke="black" cx="284" cy="-366" rx="57.6901" ry="18"/>
<text text-anchor="middle" x="284" y="-362.3" font-family="Times New Roman,serif" font-size="14.00">right side on</text>
</a>
</g>
</g>
<!-- right side on&#45;&gt;fins errect -->
<g id="edge15" class="edge"><title>right side on&#45;&gt;fins errect</title>
<path fill="none" stroke="#7fff00" stroke-width="0.9" d="M281.191,-347.895C276.686,-321.734 267.013,-270.36 254,-228 253.135,-225.185 252.142,-222.278 251.092,-219.398"/>
<polygon fill="#7fff00" stroke="#7fff00" stroke-width="0.9" points="254.284,-217.949 247.408,-209.888 247.756,-220.477 254.284,-217.949"/>
<text text-anchor="middle" x="280" y="-275.3" font-family="Times New Roman,serif" font-size="14.00">15</text>
</g>
<!-- right side on&#45;&gt;front on -->
<g id="edge14" class="edge"><title>right side on&#45;&gt;front on</title>
<path fill="none" stroke="magenta" stroke-width="0.9" d="M261.44,-349.41C241.603,-335.701 212.583,-315.647 190.832,-300.615"/>
<polygon fill="magenta" stroke="magenta" stroke-width="0.9" points="192.809,-297.727 182.592,-294.921 188.829,-303.486 192.809,-297.727"/>
<text text-anchor="middle" x="234" y="-318.8" font-family="Times New Roman,serif" font-size="14.00">9</text>
</g>
<!-- s&#45; bend&#45;&gt;bite/ram -->
<g id="edge16" class="edge"><title>s&#45; bend&#45;&gt;bite/ram</title>
<path fill="none" stroke="#c1cdcd" stroke-width="0.8" d="M43,-434.799C43,-423.163 43,-407.548 43,-394.237"/>
<polygon fill="#c1cdcd" stroke="#c1cdcd" stroke-width="0.8" points="46.5001,-394.175 43,-384.175 39.5001,-394.175 46.5001,-394.175"/>
</g>
<!-- undefiined/ unknown -->
<g id="node11" class="node"><title>undefiined/ unknown</title>
<g id="a_node11"><a xlink:title="what should &#013; be here">
<ellipse fill="#c1cdcd" stroke="black" cx="490" cy="-366" rx="91.784" ry="18"/>
<text text-anchor="middle" x="490" y="-362.3" font-family="Times New Roman,serif" font-size="14.00">undefiined/ unknown</text>
</a>
</g>
</g>
<!-- undefiined/ unknown&#45;&gt;front on -->
<g id="edge18" class="edge"><title>undefiined/ unknown&#45;&gt;front on</title>
<path fill="none" stroke="#7fff00" stroke-width="0.9" d="M461.64,-348.765C440.403,-337.39 410.266,-322.867 382,-315 311.358,-295.339 289.871,-311.538 218,-297 213.252,-296.04 208.331,-294.861 203.459,-293.575"/>
<polygon fill="#7fff00" stroke="#7fff00" stroke-width="0.9" points="204.171,-290.14 193.598,-290.823 202.289,-296.882 204.171,-290.14"/>
<text text-anchor="middle" x="425" y="-318.8" font-family="Times New Roman,serif" font-size="14.00">8</text>
</g>
<!-- undefiined/ unknown&#45;&gt;head bump/ bite -->
<g id="edge17" class="edge"><title>undefiined/ unknown&#45;&gt;head bump/ bite</title>
<path fill="none" stroke="magenta" stroke-width="0.9" d="M484.528,-347.944C479.558,-330.922 473,-303.928 473,-280 473,-280 473,-280 473,-104 473,-77.2431 451.758,-55.2645 431.445,-40.3638"/>
<polygon fill="magenta" stroke="magenta" stroke-width="0.9" points="433.371,-37.4399 423.16,-34.6139 429.38,-43.1907 433.371,-37.4399"/>
<text text-anchor="middle" x="477" y="-188.3" font-family="Times New Roman,serif" font-size="14.00">3</text>
</g>
<!-- head down -->
<g id="node12" class="node"><title>head down</title>
<g id="a_node12"><a xlink:title="what should &#013; be here">
<ellipse fill="#c1cdcd" stroke="black" cx="263" cy="-453" rx="51.9908" ry="18"/>
<text text-anchor="middle" x="263" y="-449.3" font-family="Times New Roman,serif" font-size="14.00">head down</text>
</a>
</g>
</g>
<!-- head down&#45;&gt;fins errect -->
<g id="edge20" class="edge"><title>head down&#45;&gt;fins errect</title>
<path fill="none" stroke="#7fff00" stroke-width="0.9" d="M292.621,-438.197C313.162,-426.84 338.916,-408.61 351,-384 358.052,-369.638 355.637,-363.313 351,-348 334.869,-294.721 292.023,-244.547 264.527,-216.394"/>
<polygon fill="#7fff00" stroke="#7fff00" stroke-width="0.9" points="266.751,-213.668 257.214,-209.054 261.792,-218.608 266.751,-213.668"/>
<text text-anchor="middle" x="348" y="-318.8" font-family="Times New Roman,serif" font-size="14.00">8</text>
</g>
<!-- head down&#45;&gt;left side on -->
<g id="edge19" class="edge"><title>head down&#45;&gt;left side on</title>
<path fill="none" stroke="magenta" stroke-width="0.9" d="M243.125,-436.211C226.383,-422.912 202.255,-403.744 183.632,-388.951"/>
<polygon fill="magenta" stroke="magenta" stroke-width="0.9" points="185.776,-386.184 175.769,-382.704 181.422,-391.665 185.776,-386.184"/>
<text text-anchor="middle" x="220" y="-405.8" font-family="Times New Roman,serif" font-size="14.00">3</text>
</g>
</g>
</svg>
